%TF.GenerationSoftware,KiCad,Pcbnew,(5.1.10)-1*%
%TF.CreationDate,2022-05-21T22:50:28+08:00*%
%TF.ProjectId,stm32f103,73746d33-3266-4313-9033-2e6b69636164,rev?*%
%TF.SameCoordinates,Original*%
%TF.FileFunction,Soldermask,Top*%
%TF.FilePolarity,Negative*%
%FSLAX46Y46*%
G04 Gerber Fmt 4.6, Leading zero omitted, Abs format (unit mm)*
G04 Created by KiCad (PCBNEW (5.1.10)-1) date 2022-05-21 22:50:28*
%MOMM*%
%LPD*%
G01*
G04 APERTURE LIST*
%ADD10R,0.650000X1.650000*%
%ADD11C,1.498000*%
%ADD12R,1.498000X1.498000*%
%ADD13C,1.950000*%
%ADD14R,1.150000X0.300000*%
%ADD15R,1.150000X0.600000*%
%ADD16C,0.650000*%
%ADD17O,2.100000X1.050000*%
%ADD18O,2.000000X1.000000*%
%ADD19C,3.276000*%
%ADD20C,1.428000*%
%ADD21R,1.428000X1.428000*%
%ADD22C,3.500000*%
%ADD23R,0.800000X0.900000*%
%ADD24R,1.700000X1.700000*%
%ADD25R,2.200000X1.800000*%
%ADD26R,1.300000X0.300000*%
%ADD27O,1.700000X1.700000*%
%ADD28R,1.500000X2.000000*%
%ADD29R,3.800000X2.000000*%
%ADD30R,2.000000X4.500000*%
G04 APERTURE END LIST*
D10*
%TO.C,U4*%
X167100000Y-109700000D03*
X168370000Y-109700000D03*
X169640000Y-109700000D03*
X170910000Y-109700000D03*
X170910000Y-116900000D03*
X169640000Y-116900000D03*
X168370000Y-116900000D03*
X167100000Y-116900000D03*
%TD*%
D11*
%TO.C,SW1*%
X158350000Y-112450000D03*
X158350000Y-116950000D03*
D12*
X151850000Y-112450000D03*
D11*
X151850000Y-116950000D03*
%TD*%
D13*
%TO.C,S4*%
X171695000Y-83390000D03*
X178705000Y-83390000D03*
D11*
X172950000Y-80900000D03*
X177450000Y-80900000D03*
%TD*%
D13*
%TO.C,S3*%
X158095000Y-83390000D03*
X165105000Y-83390000D03*
D11*
X159350000Y-80900000D03*
X163850000Y-80900000D03*
%TD*%
D13*
%TO.C,S2*%
X145095000Y-83490000D03*
X152105000Y-83490000D03*
D11*
X146350000Y-81000000D03*
X150850000Y-81000000D03*
%TD*%
D13*
%TO.C,S1*%
X131395000Y-83390000D03*
X138405000Y-83390000D03*
D11*
X132650000Y-80900000D03*
X137150000Y-80900000D03*
%TD*%
%TO.C,U3*%
G36*
G01*
X186715000Y-112428800D02*
X186715000Y-112171200D01*
G75*
G02*
X186726200Y-112160000I11200J0D01*
G01*
X188173800Y-112160000D01*
G75*
G02*
X188185000Y-112171200I0J-11200D01*
G01*
X188185000Y-112428800D01*
G75*
G02*
X188173800Y-112440000I-11200J0D01*
G01*
X186726200Y-112440000D01*
G75*
G02*
X186715000Y-112428800I0J11200D01*
G01*
G37*
G36*
G01*
X186715000Y-112928800D02*
X186715000Y-112671200D01*
G75*
G02*
X186726200Y-112660000I11200J0D01*
G01*
X188173800Y-112660000D01*
G75*
G02*
X188185000Y-112671200I0J-11200D01*
G01*
X188185000Y-112928800D01*
G75*
G02*
X188173800Y-112940000I-11200J0D01*
G01*
X186726200Y-112940000D01*
G75*
G02*
X186715000Y-112928800I0J11200D01*
G01*
G37*
G36*
G01*
X186715000Y-113428800D02*
X186715000Y-113171200D01*
G75*
G02*
X186726200Y-113160000I11200J0D01*
G01*
X188173800Y-113160000D01*
G75*
G02*
X188185000Y-113171200I0J-11200D01*
G01*
X188185000Y-113428800D01*
G75*
G02*
X188173800Y-113440000I-11200J0D01*
G01*
X186726200Y-113440000D01*
G75*
G02*
X186715000Y-113428800I0J11200D01*
G01*
G37*
G36*
G01*
X186715000Y-113928800D02*
X186715000Y-113671200D01*
G75*
G02*
X186726200Y-113660000I11200J0D01*
G01*
X188173800Y-113660000D01*
G75*
G02*
X188185000Y-113671200I0J-11200D01*
G01*
X188185000Y-113928800D01*
G75*
G02*
X188173800Y-113940000I-11200J0D01*
G01*
X186726200Y-113940000D01*
G75*
G02*
X186715000Y-113928800I0J11200D01*
G01*
G37*
G36*
G01*
X186715000Y-114428800D02*
X186715000Y-114171200D01*
G75*
G02*
X186726200Y-114160000I11200J0D01*
G01*
X188173800Y-114160000D01*
G75*
G02*
X188185000Y-114171200I0J-11200D01*
G01*
X188185000Y-114428800D01*
G75*
G02*
X188173800Y-114440000I-11200J0D01*
G01*
X186726200Y-114440000D01*
G75*
G02*
X186715000Y-114428800I0J11200D01*
G01*
G37*
G36*
G01*
X182415000Y-114428800D02*
X182415000Y-114171200D01*
G75*
G02*
X182426200Y-114160000I11200J0D01*
G01*
X183873800Y-114160000D01*
G75*
G02*
X183885000Y-114171200I0J-11200D01*
G01*
X183885000Y-114428800D01*
G75*
G02*
X183873800Y-114440000I-11200J0D01*
G01*
X182426200Y-114440000D01*
G75*
G02*
X182415000Y-114428800I0J11200D01*
G01*
G37*
G36*
G01*
X182415000Y-113928800D02*
X182415000Y-113671200D01*
G75*
G02*
X182426200Y-113660000I11200J0D01*
G01*
X183873800Y-113660000D01*
G75*
G02*
X183885000Y-113671200I0J-11200D01*
G01*
X183885000Y-113928800D01*
G75*
G02*
X183873800Y-113940000I-11200J0D01*
G01*
X182426200Y-113940000D01*
G75*
G02*
X182415000Y-113928800I0J11200D01*
G01*
G37*
G36*
G01*
X182415000Y-113428800D02*
X182415000Y-113171200D01*
G75*
G02*
X182426200Y-113160000I11200J0D01*
G01*
X183873800Y-113160000D01*
G75*
G02*
X183885000Y-113171200I0J-11200D01*
G01*
X183885000Y-113428800D01*
G75*
G02*
X183873800Y-113440000I-11200J0D01*
G01*
X182426200Y-113440000D01*
G75*
G02*
X182415000Y-113428800I0J11200D01*
G01*
G37*
G36*
G01*
X182415000Y-112928800D02*
X182415000Y-112671200D01*
G75*
G02*
X182426200Y-112660000I11200J0D01*
G01*
X183873800Y-112660000D01*
G75*
G02*
X183885000Y-112671200I0J-11200D01*
G01*
X183885000Y-112928800D01*
G75*
G02*
X183873800Y-112940000I-11200J0D01*
G01*
X182426200Y-112940000D01*
G75*
G02*
X182415000Y-112928800I0J11200D01*
G01*
G37*
G36*
G01*
X182415000Y-112428800D02*
X182415000Y-112171200D01*
G75*
G02*
X182426200Y-112160000I11200J0D01*
G01*
X183873800Y-112160000D01*
G75*
G02*
X183885000Y-112171200I0J-11200D01*
G01*
X183885000Y-112428800D01*
G75*
G02*
X183873800Y-112440000I-11200J0D01*
G01*
X182426200Y-112440000D01*
G75*
G02*
X182415000Y-112428800I0J11200D01*
G01*
G37*
%TD*%
D14*
%TO.C,J3*%
X120705000Y-96370000D03*
X120705000Y-96870000D03*
X120705000Y-97370000D03*
X120705000Y-99870000D03*
X120705000Y-99370000D03*
X120705000Y-98870000D03*
X120705000Y-97870000D03*
X120705000Y-98370000D03*
D15*
X120705000Y-100520000D03*
X120705000Y-95720000D03*
X120705000Y-101320000D03*
X120705000Y-94920000D03*
D16*
X119630000Y-95230000D03*
X119630000Y-101010000D03*
D17*
X120130000Y-102440000D03*
X120130000Y-93800000D03*
D18*
X115950000Y-102440000D03*
X115950000Y-93800000D03*
%TD*%
D19*
%TO.C,J6*%
X192100000Y-92180000D03*
X192100000Y-105320000D03*
D20*
X189390000Y-95250000D03*
X189390000Y-97750000D03*
X189390000Y-99750000D03*
D21*
X189390000Y-102250000D03*
%TD*%
D22*
%TO.C,M3*%
X196500000Y-116000000D03*
%TD*%
%TO.C,M4*%
X118700000Y-116200000D03*
%TD*%
%TO.C,M2*%
X196300000Y-79300000D03*
%TD*%
%TO.C,M1*%
X118800000Y-79300000D03*
%TD*%
%TO.C,R15*%
G36*
G01*
X190900000Y-110675001D02*
X190900000Y-108524999D01*
G75*
G02*
X191149999Y-108275000I249999J0D01*
G01*
X191875001Y-108275000D01*
G75*
G02*
X192125000Y-108524999I0J-249999D01*
G01*
X192125000Y-110675001D01*
G75*
G02*
X191875001Y-110925000I-249999J0D01*
G01*
X191149999Y-110925000D01*
G75*
G02*
X190900000Y-110675001I0J249999D01*
G01*
G37*
G36*
G01*
X186275000Y-110675001D02*
X186275000Y-108524999D01*
G75*
G02*
X186524999Y-108275000I249999J0D01*
G01*
X187250001Y-108275000D01*
G75*
G02*
X187500000Y-108524999I0J-249999D01*
G01*
X187500000Y-110675001D01*
G75*
G02*
X187250001Y-110925000I-249999J0D01*
G01*
X186524999Y-110925000D01*
G75*
G02*
X186275000Y-110675001I0J249999D01*
G01*
G37*
%TD*%
D23*
%TO.C,Q1*%
X173300000Y-104100000D03*
X174250000Y-106100000D03*
X172350000Y-106100000D03*
%TD*%
D24*
%TO.C,J5*%
X185700000Y-104200000D03*
%TD*%
%TO.C,U2*%
G36*
G01*
X151650000Y-94825000D02*
X151650000Y-94675000D01*
G75*
G02*
X151725000Y-94600000I75000J0D01*
G01*
X153125000Y-94600000D01*
G75*
G02*
X153200000Y-94675000I0J-75000D01*
G01*
X153200000Y-94825000D01*
G75*
G02*
X153125000Y-94900000I-75000J0D01*
G01*
X151725000Y-94900000D01*
G75*
G02*
X151650000Y-94825000I0J75000D01*
G01*
G37*
G36*
G01*
X151650000Y-95325000D02*
X151650000Y-95175000D01*
G75*
G02*
X151725000Y-95100000I75000J0D01*
G01*
X153125000Y-95100000D01*
G75*
G02*
X153200000Y-95175000I0J-75000D01*
G01*
X153200000Y-95325000D01*
G75*
G02*
X153125000Y-95400000I-75000J0D01*
G01*
X151725000Y-95400000D01*
G75*
G02*
X151650000Y-95325000I0J75000D01*
G01*
G37*
G36*
G01*
X151650000Y-95825000D02*
X151650000Y-95675000D01*
G75*
G02*
X151725000Y-95600000I75000J0D01*
G01*
X153125000Y-95600000D01*
G75*
G02*
X153200000Y-95675000I0J-75000D01*
G01*
X153200000Y-95825000D01*
G75*
G02*
X153125000Y-95900000I-75000J0D01*
G01*
X151725000Y-95900000D01*
G75*
G02*
X151650000Y-95825000I0J75000D01*
G01*
G37*
G36*
G01*
X151650000Y-96325000D02*
X151650000Y-96175000D01*
G75*
G02*
X151725000Y-96100000I75000J0D01*
G01*
X153125000Y-96100000D01*
G75*
G02*
X153200000Y-96175000I0J-75000D01*
G01*
X153200000Y-96325000D01*
G75*
G02*
X153125000Y-96400000I-75000J0D01*
G01*
X151725000Y-96400000D01*
G75*
G02*
X151650000Y-96325000I0J75000D01*
G01*
G37*
G36*
G01*
X151650000Y-96825000D02*
X151650000Y-96675000D01*
G75*
G02*
X151725000Y-96600000I75000J0D01*
G01*
X153125000Y-96600000D01*
G75*
G02*
X153200000Y-96675000I0J-75000D01*
G01*
X153200000Y-96825000D01*
G75*
G02*
X153125000Y-96900000I-75000J0D01*
G01*
X151725000Y-96900000D01*
G75*
G02*
X151650000Y-96825000I0J75000D01*
G01*
G37*
G36*
G01*
X151650000Y-97325000D02*
X151650000Y-97175000D01*
G75*
G02*
X151725000Y-97100000I75000J0D01*
G01*
X153125000Y-97100000D01*
G75*
G02*
X153200000Y-97175000I0J-75000D01*
G01*
X153200000Y-97325000D01*
G75*
G02*
X153125000Y-97400000I-75000J0D01*
G01*
X151725000Y-97400000D01*
G75*
G02*
X151650000Y-97325000I0J75000D01*
G01*
G37*
G36*
G01*
X151650000Y-97825000D02*
X151650000Y-97675000D01*
G75*
G02*
X151725000Y-97600000I75000J0D01*
G01*
X153125000Y-97600000D01*
G75*
G02*
X153200000Y-97675000I0J-75000D01*
G01*
X153200000Y-97825000D01*
G75*
G02*
X153125000Y-97900000I-75000J0D01*
G01*
X151725000Y-97900000D01*
G75*
G02*
X151650000Y-97825000I0J75000D01*
G01*
G37*
G36*
G01*
X151650000Y-98325000D02*
X151650000Y-98175000D01*
G75*
G02*
X151725000Y-98100000I75000J0D01*
G01*
X153125000Y-98100000D01*
G75*
G02*
X153200000Y-98175000I0J-75000D01*
G01*
X153200000Y-98325000D01*
G75*
G02*
X153125000Y-98400000I-75000J0D01*
G01*
X151725000Y-98400000D01*
G75*
G02*
X151650000Y-98325000I0J75000D01*
G01*
G37*
G36*
G01*
X151650000Y-98825000D02*
X151650000Y-98675000D01*
G75*
G02*
X151725000Y-98600000I75000J0D01*
G01*
X153125000Y-98600000D01*
G75*
G02*
X153200000Y-98675000I0J-75000D01*
G01*
X153200000Y-98825000D01*
G75*
G02*
X153125000Y-98900000I-75000J0D01*
G01*
X151725000Y-98900000D01*
G75*
G02*
X151650000Y-98825000I0J75000D01*
G01*
G37*
G36*
G01*
X151650000Y-99325000D02*
X151650000Y-99175000D01*
G75*
G02*
X151725000Y-99100000I75000J0D01*
G01*
X153125000Y-99100000D01*
G75*
G02*
X153200000Y-99175000I0J-75000D01*
G01*
X153200000Y-99325000D01*
G75*
G02*
X153125000Y-99400000I-75000J0D01*
G01*
X151725000Y-99400000D01*
G75*
G02*
X151650000Y-99325000I0J75000D01*
G01*
G37*
G36*
G01*
X151650000Y-99825000D02*
X151650000Y-99675000D01*
G75*
G02*
X151725000Y-99600000I75000J0D01*
G01*
X153125000Y-99600000D01*
G75*
G02*
X153200000Y-99675000I0J-75000D01*
G01*
X153200000Y-99825000D01*
G75*
G02*
X153125000Y-99900000I-75000J0D01*
G01*
X151725000Y-99900000D01*
G75*
G02*
X151650000Y-99825000I0J75000D01*
G01*
G37*
G36*
G01*
X151650000Y-100325000D02*
X151650000Y-100175000D01*
G75*
G02*
X151725000Y-100100000I75000J0D01*
G01*
X153125000Y-100100000D01*
G75*
G02*
X153200000Y-100175000I0J-75000D01*
G01*
X153200000Y-100325000D01*
G75*
G02*
X153125000Y-100400000I-75000J0D01*
G01*
X151725000Y-100400000D01*
G75*
G02*
X151650000Y-100325000I0J75000D01*
G01*
G37*
G36*
G01*
X151650000Y-100825000D02*
X151650000Y-100675000D01*
G75*
G02*
X151725000Y-100600000I75000J0D01*
G01*
X153125000Y-100600000D01*
G75*
G02*
X153200000Y-100675000I0J-75000D01*
G01*
X153200000Y-100825000D01*
G75*
G02*
X153125000Y-100900000I-75000J0D01*
G01*
X151725000Y-100900000D01*
G75*
G02*
X151650000Y-100825000I0J75000D01*
G01*
G37*
G36*
G01*
X151650000Y-101325000D02*
X151650000Y-101175000D01*
G75*
G02*
X151725000Y-101100000I75000J0D01*
G01*
X153125000Y-101100000D01*
G75*
G02*
X153200000Y-101175000I0J-75000D01*
G01*
X153200000Y-101325000D01*
G75*
G02*
X153125000Y-101400000I-75000J0D01*
G01*
X151725000Y-101400000D01*
G75*
G02*
X151650000Y-101325000I0J75000D01*
G01*
G37*
G36*
G01*
X151650000Y-101825000D02*
X151650000Y-101675000D01*
G75*
G02*
X151725000Y-101600000I75000J0D01*
G01*
X153125000Y-101600000D01*
G75*
G02*
X153200000Y-101675000I0J-75000D01*
G01*
X153200000Y-101825000D01*
G75*
G02*
X153125000Y-101900000I-75000J0D01*
G01*
X151725000Y-101900000D01*
G75*
G02*
X151650000Y-101825000I0J75000D01*
G01*
G37*
G36*
G01*
X151650000Y-102325000D02*
X151650000Y-102175000D01*
G75*
G02*
X151725000Y-102100000I75000J0D01*
G01*
X153125000Y-102100000D01*
G75*
G02*
X153200000Y-102175000I0J-75000D01*
G01*
X153200000Y-102325000D01*
G75*
G02*
X153125000Y-102400000I-75000J0D01*
G01*
X151725000Y-102400000D01*
G75*
G02*
X151650000Y-102325000I0J75000D01*
G01*
G37*
G36*
G01*
X154200000Y-104875000D02*
X154200000Y-103475000D01*
G75*
G02*
X154275000Y-103400000I75000J0D01*
G01*
X154425000Y-103400000D01*
G75*
G02*
X154500000Y-103475000I0J-75000D01*
G01*
X154500000Y-104875000D01*
G75*
G02*
X154425000Y-104950000I-75000J0D01*
G01*
X154275000Y-104950000D01*
G75*
G02*
X154200000Y-104875000I0J75000D01*
G01*
G37*
G36*
G01*
X154700000Y-104875000D02*
X154700000Y-103475000D01*
G75*
G02*
X154775000Y-103400000I75000J0D01*
G01*
X154925000Y-103400000D01*
G75*
G02*
X155000000Y-103475000I0J-75000D01*
G01*
X155000000Y-104875000D01*
G75*
G02*
X154925000Y-104950000I-75000J0D01*
G01*
X154775000Y-104950000D01*
G75*
G02*
X154700000Y-104875000I0J75000D01*
G01*
G37*
G36*
G01*
X155200000Y-104875000D02*
X155200000Y-103475000D01*
G75*
G02*
X155275000Y-103400000I75000J0D01*
G01*
X155425000Y-103400000D01*
G75*
G02*
X155500000Y-103475000I0J-75000D01*
G01*
X155500000Y-104875000D01*
G75*
G02*
X155425000Y-104950000I-75000J0D01*
G01*
X155275000Y-104950000D01*
G75*
G02*
X155200000Y-104875000I0J75000D01*
G01*
G37*
G36*
G01*
X155700000Y-104875000D02*
X155700000Y-103475000D01*
G75*
G02*
X155775000Y-103400000I75000J0D01*
G01*
X155925000Y-103400000D01*
G75*
G02*
X156000000Y-103475000I0J-75000D01*
G01*
X156000000Y-104875000D01*
G75*
G02*
X155925000Y-104950000I-75000J0D01*
G01*
X155775000Y-104950000D01*
G75*
G02*
X155700000Y-104875000I0J75000D01*
G01*
G37*
G36*
G01*
X156200000Y-104875000D02*
X156200000Y-103475000D01*
G75*
G02*
X156275000Y-103400000I75000J0D01*
G01*
X156425000Y-103400000D01*
G75*
G02*
X156500000Y-103475000I0J-75000D01*
G01*
X156500000Y-104875000D01*
G75*
G02*
X156425000Y-104950000I-75000J0D01*
G01*
X156275000Y-104950000D01*
G75*
G02*
X156200000Y-104875000I0J75000D01*
G01*
G37*
G36*
G01*
X156700000Y-104875000D02*
X156700000Y-103475000D01*
G75*
G02*
X156775000Y-103400000I75000J0D01*
G01*
X156925000Y-103400000D01*
G75*
G02*
X157000000Y-103475000I0J-75000D01*
G01*
X157000000Y-104875000D01*
G75*
G02*
X156925000Y-104950000I-75000J0D01*
G01*
X156775000Y-104950000D01*
G75*
G02*
X156700000Y-104875000I0J75000D01*
G01*
G37*
G36*
G01*
X157200000Y-104875000D02*
X157200000Y-103475000D01*
G75*
G02*
X157275000Y-103400000I75000J0D01*
G01*
X157425000Y-103400000D01*
G75*
G02*
X157500000Y-103475000I0J-75000D01*
G01*
X157500000Y-104875000D01*
G75*
G02*
X157425000Y-104950000I-75000J0D01*
G01*
X157275000Y-104950000D01*
G75*
G02*
X157200000Y-104875000I0J75000D01*
G01*
G37*
G36*
G01*
X157700000Y-104875000D02*
X157700000Y-103475000D01*
G75*
G02*
X157775000Y-103400000I75000J0D01*
G01*
X157925000Y-103400000D01*
G75*
G02*
X158000000Y-103475000I0J-75000D01*
G01*
X158000000Y-104875000D01*
G75*
G02*
X157925000Y-104950000I-75000J0D01*
G01*
X157775000Y-104950000D01*
G75*
G02*
X157700000Y-104875000I0J75000D01*
G01*
G37*
G36*
G01*
X158200000Y-104875000D02*
X158200000Y-103475000D01*
G75*
G02*
X158275000Y-103400000I75000J0D01*
G01*
X158425000Y-103400000D01*
G75*
G02*
X158500000Y-103475000I0J-75000D01*
G01*
X158500000Y-104875000D01*
G75*
G02*
X158425000Y-104950000I-75000J0D01*
G01*
X158275000Y-104950000D01*
G75*
G02*
X158200000Y-104875000I0J75000D01*
G01*
G37*
G36*
G01*
X158700000Y-104875000D02*
X158700000Y-103475000D01*
G75*
G02*
X158775000Y-103400000I75000J0D01*
G01*
X158925000Y-103400000D01*
G75*
G02*
X159000000Y-103475000I0J-75000D01*
G01*
X159000000Y-104875000D01*
G75*
G02*
X158925000Y-104950000I-75000J0D01*
G01*
X158775000Y-104950000D01*
G75*
G02*
X158700000Y-104875000I0J75000D01*
G01*
G37*
G36*
G01*
X159200000Y-104875000D02*
X159200000Y-103475000D01*
G75*
G02*
X159275000Y-103400000I75000J0D01*
G01*
X159425000Y-103400000D01*
G75*
G02*
X159500000Y-103475000I0J-75000D01*
G01*
X159500000Y-104875000D01*
G75*
G02*
X159425000Y-104950000I-75000J0D01*
G01*
X159275000Y-104950000D01*
G75*
G02*
X159200000Y-104875000I0J75000D01*
G01*
G37*
G36*
G01*
X159700000Y-104875000D02*
X159700000Y-103475000D01*
G75*
G02*
X159775000Y-103400000I75000J0D01*
G01*
X159925000Y-103400000D01*
G75*
G02*
X160000000Y-103475000I0J-75000D01*
G01*
X160000000Y-104875000D01*
G75*
G02*
X159925000Y-104950000I-75000J0D01*
G01*
X159775000Y-104950000D01*
G75*
G02*
X159700000Y-104875000I0J75000D01*
G01*
G37*
G36*
G01*
X160200000Y-104875000D02*
X160200000Y-103475000D01*
G75*
G02*
X160275000Y-103400000I75000J0D01*
G01*
X160425000Y-103400000D01*
G75*
G02*
X160500000Y-103475000I0J-75000D01*
G01*
X160500000Y-104875000D01*
G75*
G02*
X160425000Y-104950000I-75000J0D01*
G01*
X160275000Y-104950000D01*
G75*
G02*
X160200000Y-104875000I0J75000D01*
G01*
G37*
G36*
G01*
X160700000Y-104875000D02*
X160700000Y-103475000D01*
G75*
G02*
X160775000Y-103400000I75000J0D01*
G01*
X160925000Y-103400000D01*
G75*
G02*
X161000000Y-103475000I0J-75000D01*
G01*
X161000000Y-104875000D01*
G75*
G02*
X160925000Y-104950000I-75000J0D01*
G01*
X160775000Y-104950000D01*
G75*
G02*
X160700000Y-104875000I0J75000D01*
G01*
G37*
G36*
G01*
X161200000Y-104875000D02*
X161200000Y-103475000D01*
G75*
G02*
X161275000Y-103400000I75000J0D01*
G01*
X161425000Y-103400000D01*
G75*
G02*
X161500000Y-103475000I0J-75000D01*
G01*
X161500000Y-104875000D01*
G75*
G02*
X161425000Y-104950000I-75000J0D01*
G01*
X161275000Y-104950000D01*
G75*
G02*
X161200000Y-104875000I0J75000D01*
G01*
G37*
G36*
G01*
X161700000Y-104875000D02*
X161700000Y-103475000D01*
G75*
G02*
X161775000Y-103400000I75000J0D01*
G01*
X161925000Y-103400000D01*
G75*
G02*
X162000000Y-103475000I0J-75000D01*
G01*
X162000000Y-104875000D01*
G75*
G02*
X161925000Y-104950000I-75000J0D01*
G01*
X161775000Y-104950000D01*
G75*
G02*
X161700000Y-104875000I0J75000D01*
G01*
G37*
G36*
G01*
X163000000Y-102325000D02*
X163000000Y-102175000D01*
G75*
G02*
X163075000Y-102100000I75000J0D01*
G01*
X164475000Y-102100000D01*
G75*
G02*
X164550000Y-102175000I0J-75000D01*
G01*
X164550000Y-102325000D01*
G75*
G02*
X164475000Y-102400000I-75000J0D01*
G01*
X163075000Y-102400000D01*
G75*
G02*
X163000000Y-102325000I0J75000D01*
G01*
G37*
G36*
G01*
X163000000Y-101825000D02*
X163000000Y-101675000D01*
G75*
G02*
X163075000Y-101600000I75000J0D01*
G01*
X164475000Y-101600000D01*
G75*
G02*
X164550000Y-101675000I0J-75000D01*
G01*
X164550000Y-101825000D01*
G75*
G02*
X164475000Y-101900000I-75000J0D01*
G01*
X163075000Y-101900000D01*
G75*
G02*
X163000000Y-101825000I0J75000D01*
G01*
G37*
G36*
G01*
X163000000Y-101325000D02*
X163000000Y-101175000D01*
G75*
G02*
X163075000Y-101100000I75000J0D01*
G01*
X164475000Y-101100000D01*
G75*
G02*
X164550000Y-101175000I0J-75000D01*
G01*
X164550000Y-101325000D01*
G75*
G02*
X164475000Y-101400000I-75000J0D01*
G01*
X163075000Y-101400000D01*
G75*
G02*
X163000000Y-101325000I0J75000D01*
G01*
G37*
G36*
G01*
X163000000Y-100825000D02*
X163000000Y-100675000D01*
G75*
G02*
X163075000Y-100600000I75000J0D01*
G01*
X164475000Y-100600000D01*
G75*
G02*
X164550000Y-100675000I0J-75000D01*
G01*
X164550000Y-100825000D01*
G75*
G02*
X164475000Y-100900000I-75000J0D01*
G01*
X163075000Y-100900000D01*
G75*
G02*
X163000000Y-100825000I0J75000D01*
G01*
G37*
G36*
G01*
X163000000Y-100325000D02*
X163000000Y-100175000D01*
G75*
G02*
X163075000Y-100100000I75000J0D01*
G01*
X164475000Y-100100000D01*
G75*
G02*
X164550000Y-100175000I0J-75000D01*
G01*
X164550000Y-100325000D01*
G75*
G02*
X164475000Y-100400000I-75000J0D01*
G01*
X163075000Y-100400000D01*
G75*
G02*
X163000000Y-100325000I0J75000D01*
G01*
G37*
G36*
G01*
X163000000Y-99825000D02*
X163000000Y-99675000D01*
G75*
G02*
X163075000Y-99600000I75000J0D01*
G01*
X164475000Y-99600000D01*
G75*
G02*
X164550000Y-99675000I0J-75000D01*
G01*
X164550000Y-99825000D01*
G75*
G02*
X164475000Y-99900000I-75000J0D01*
G01*
X163075000Y-99900000D01*
G75*
G02*
X163000000Y-99825000I0J75000D01*
G01*
G37*
G36*
G01*
X163000000Y-99325000D02*
X163000000Y-99175000D01*
G75*
G02*
X163075000Y-99100000I75000J0D01*
G01*
X164475000Y-99100000D01*
G75*
G02*
X164550000Y-99175000I0J-75000D01*
G01*
X164550000Y-99325000D01*
G75*
G02*
X164475000Y-99400000I-75000J0D01*
G01*
X163075000Y-99400000D01*
G75*
G02*
X163000000Y-99325000I0J75000D01*
G01*
G37*
G36*
G01*
X163000000Y-98825000D02*
X163000000Y-98675000D01*
G75*
G02*
X163075000Y-98600000I75000J0D01*
G01*
X164475000Y-98600000D01*
G75*
G02*
X164550000Y-98675000I0J-75000D01*
G01*
X164550000Y-98825000D01*
G75*
G02*
X164475000Y-98900000I-75000J0D01*
G01*
X163075000Y-98900000D01*
G75*
G02*
X163000000Y-98825000I0J75000D01*
G01*
G37*
G36*
G01*
X163000000Y-98325000D02*
X163000000Y-98175000D01*
G75*
G02*
X163075000Y-98100000I75000J0D01*
G01*
X164475000Y-98100000D01*
G75*
G02*
X164550000Y-98175000I0J-75000D01*
G01*
X164550000Y-98325000D01*
G75*
G02*
X164475000Y-98400000I-75000J0D01*
G01*
X163075000Y-98400000D01*
G75*
G02*
X163000000Y-98325000I0J75000D01*
G01*
G37*
G36*
G01*
X163000000Y-97825000D02*
X163000000Y-97675000D01*
G75*
G02*
X163075000Y-97600000I75000J0D01*
G01*
X164475000Y-97600000D01*
G75*
G02*
X164550000Y-97675000I0J-75000D01*
G01*
X164550000Y-97825000D01*
G75*
G02*
X164475000Y-97900000I-75000J0D01*
G01*
X163075000Y-97900000D01*
G75*
G02*
X163000000Y-97825000I0J75000D01*
G01*
G37*
G36*
G01*
X163000000Y-97325000D02*
X163000000Y-97175000D01*
G75*
G02*
X163075000Y-97100000I75000J0D01*
G01*
X164475000Y-97100000D01*
G75*
G02*
X164550000Y-97175000I0J-75000D01*
G01*
X164550000Y-97325000D01*
G75*
G02*
X164475000Y-97400000I-75000J0D01*
G01*
X163075000Y-97400000D01*
G75*
G02*
X163000000Y-97325000I0J75000D01*
G01*
G37*
G36*
G01*
X163000000Y-96825000D02*
X163000000Y-96675000D01*
G75*
G02*
X163075000Y-96600000I75000J0D01*
G01*
X164475000Y-96600000D01*
G75*
G02*
X164550000Y-96675000I0J-75000D01*
G01*
X164550000Y-96825000D01*
G75*
G02*
X164475000Y-96900000I-75000J0D01*
G01*
X163075000Y-96900000D01*
G75*
G02*
X163000000Y-96825000I0J75000D01*
G01*
G37*
G36*
G01*
X163000000Y-96325000D02*
X163000000Y-96175000D01*
G75*
G02*
X163075000Y-96100000I75000J0D01*
G01*
X164475000Y-96100000D01*
G75*
G02*
X164550000Y-96175000I0J-75000D01*
G01*
X164550000Y-96325000D01*
G75*
G02*
X164475000Y-96400000I-75000J0D01*
G01*
X163075000Y-96400000D01*
G75*
G02*
X163000000Y-96325000I0J75000D01*
G01*
G37*
G36*
G01*
X163000000Y-95825000D02*
X163000000Y-95675000D01*
G75*
G02*
X163075000Y-95600000I75000J0D01*
G01*
X164475000Y-95600000D01*
G75*
G02*
X164550000Y-95675000I0J-75000D01*
G01*
X164550000Y-95825000D01*
G75*
G02*
X164475000Y-95900000I-75000J0D01*
G01*
X163075000Y-95900000D01*
G75*
G02*
X163000000Y-95825000I0J75000D01*
G01*
G37*
G36*
G01*
X163000000Y-95325000D02*
X163000000Y-95175000D01*
G75*
G02*
X163075000Y-95100000I75000J0D01*
G01*
X164475000Y-95100000D01*
G75*
G02*
X164550000Y-95175000I0J-75000D01*
G01*
X164550000Y-95325000D01*
G75*
G02*
X164475000Y-95400000I-75000J0D01*
G01*
X163075000Y-95400000D01*
G75*
G02*
X163000000Y-95325000I0J75000D01*
G01*
G37*
G36*
G01*
X163000000Y-94825000D02*
X163000000Y-94675000D01*
G75*
G02*
X163075000Y-94600000I75000J0D01*
G01*
X164475000Y-94600000D01*
G75*
G02*
X164550000Y-94675000I0J-75000D01*
G01*
X164550000Y-94825000D01*
G75*
G02*
X164475000Y-94900000I-75000J0D01*
G01*
X163075000Y-94900000D01*
G75*
G02*
X163000000Y-94825000I0J75000D01*
G01*
G37*
G36*
G01*
X161700000Y-93525000D02*
X161700000Y-92125000D01*
G75*
G02*
X161775000Y-92050000I75000J0D01*
G01*
X161925000Y-92050000D01*
G75*
G02*
X162000000Y-92125000I0J-75000D01*
G01*
X162000000Y-93525000D01*
G75*
G02*
X161925000Y-93600000I-75000J0D01*
G01*
X161775000Y-93600000D01*
G75*
G02*
X161700000Y-93525000I0J75000D01*
G01*
G37*
G36*
G01*
X161200000Y-93525000D02*
X161200000Y-92125000D01*
G75*
G02*
X161275000Y-92050000I75000J0D01*
G01*
X161425000Y-92050000D01*
G75*
G02*
X161500000Y-92125000I0J-75000D01*
G01*
X161500000Y-93525000D01*
G75*
G02*
X161425000Y-93600000I-75000J0D01*
G01*
X161275000Y-93600000D01*
G75*
G02*
X161200000Y-93525000I0J75000D01*
G01*
G37*
G36*
G01*
X160700000Y-93525000D02*
X160700000Y-92125000D01*
G75*
G02*
X160775000Y-92050000I75000J0D01*
G01*
X160925000Y-92050000D01*
G75*
G02*
X161000000Y-92125000I0J-75000D01*
G01*
X161000000Y-93525000D01*
G75*
G02*
X160925000Y-93600000I-75000J0D01*
G01*
X160775000Y-93600000D01*
G75*
G02*
X160700000Y-93525000I0J75000D01*
G01*
G37*
G36*
G01*
X160200000Y-93525000D02*
X160200000Y-92125000D01*
G75*
G02*
X160275000Y-92050000I75000J0D01*
G01*
X160425000Y-92050000D01*
G75*
G02*
X160500000Y-92125000I0J-75000D01*
G01*
X160500000Y-93525000D01*
G75*
G02*
X160425000Y-93600000I-75000J0D01*
G01*
X160275000Y-93600000D01*
G75*
G02*
X160200000Y-93525000I0J75000D01*
G01*
G37*
G36*
G01*
X159700000Y-93525000D02*
X159700000Y-92125000D01*
G75*
G02*
X159775000Y-92050000I75000J0D01*
G01*
X159925000Y-92050000D01*
G75*
G02*
X160000000Y-92125000I0J-75000D01*
G01*
X160000000Y-93525000D01*
G75*
G02*
X159925000Y-93600000I-75000J0D01*
G01*
X159775000Y-93600000D01*
G75*
G02*
X159700000Y-93525000I0J75000D01*
G01*
G37*
G36*
G01*
X159200000Y-93525000D02*
X159200000Y-92125000D01*
G75*
G02*
X159275000Y-92050000I75000J0D01*
G01*
X159425000Y-92050000D01*
G75*
G02*
X159500000Y-92125000I0J-75000D01*
G01*
X159500000Y-93525000D01*
G75*
G02*
X159425000Y-93600000I-75000J0D01*
G01*
X159275000Y-93600000D01*
G75*
G02*
X159200000Y-93525000I0J75000D01*
G01*
G37*
G36*
G01*
X158700000Y-93525000D02*
X158700000Y-92125000D01*
G75*
G02*
X158775000Y-92050000I75000J0D01*
G01*
X158925000Y-92050000D01*
G75*
G02*
X159000000Y-92125000I0J-75000D01*
G01*
X159000000Y-93525000D01*
G75*
G02*
X158925000Y-93600000I-75000J0D01*
G01*
X158775000Y-93600000D01*
G75*
G02*
X158700000Y-93525000I0J75000D01*
G01*
G37*
G36*
G01*
X158200000Y-93525000D02*
X158200000Y-92125000D01*
G75*
G02*
X158275000Y-92050000I75000J0D01*
G01*
X158425000Y-92050000D01*
G75*
G02*
X158500000Y-92125000I0J-75000D01*
G01*
X158500000Y-93525000D01*
G75*
G02*
X158425000Y-93600000I-75000J0D01*
G01*
X158275000Y-93600000D01*
G75*
G02*
X158200000Y-93525000I0J75000D01*
G01*
G37*
G36*
G01*
X157700000Y-93525000D02*
X157700000Y-92125000D01*
G75*
G02*
X157775000Y-92050000I75000J0D01*
G01*
X157925000Y-92050000D01*
G75*
G02*
X158000000Y-92125000I0J-75000D01*
G01*
X158000000Y-93525000D01*
G75*
G02*
X157925000Y-93600000I-75000J0D01*
G01*
X157775000Y-93600000D01*
G75*
G02*
X157700000Y-93525000I0J75000D01*
G01*
G37*
G36*
G01*
X157200000Y-93525000D02*
X157200000Y-92125000D01*
G75*
G02*
X157275000Y-92050000I75000J0D01*
G01*
X157425000Y-92050000D01*
G75*
G02*
X157500000Y-92125000I0J-75000D01*
G01*
X157500000Y-93525000D01*
G75*
G02*
X157425000Y-93600000I-75000J0D01*
G01*
X157275000Y-93600000D01*
G75*
G02*
X157200000Y-93525000I0J75000D01*
G01*
G37*
G36*
G01*
X156700000Y-93525000D02*
X156700000Y-92125000D01*
G75*
G02*
X156775000Y-92050000I75000J0D01*
G01*
X156925000Y-92050000D01*
G75*
G02*
X157000000Y-92125000I0J-75000D01*
G01*
X157000000Y-93525000D01*
G75*
G02*
X156925000Y-93600000I-75000J0D01*
G01*
X156775000Y-93600000D01*
G75*
G02*
X156700000Y-93525000I0J75000D01*
G01*
G37*
G36*
G01*
X156200000Y-93525000D02*
X156200000Y-92125000D01*
G75*
G02*
X156275000Y-92050000I75000J0D01*
G01*
X156425000Y-92050000D01*
G75*
G02*
X156500000Y-92125000I0J-75000D01*
G01*
X156500000Y-93525000D01*
G75*
G02*
X156425000Y-93600000I-75000J0D01*
G01*
X156275000Y-93600000D01*
G75*
G02*
X156200000Y-93525000I0J75000D01*
G01*
G37*
G36*
G01*
X155700000Y-93525000D02*
X155700000Y-92125000D01*
G75*
G02*
X155775000Y-92050000I75000J0D01*
G01*
X155925000Y-92050000D01*
G75*
G02*
X156000000Y-92125000I0J-75000D01*
G01*
X156000000Y-93525000D01*
G75*
G02*
X155925000Y-93600000I-75000J0D01*
G01*
X155775000Y-93600000D01*
G75*
G02*
X155700000Y-93525000I0J75000D01*
G01*
G37*
G36*
G01*
X155200000Y-93525000D02*
X155200000Y-92125000D01*
G75*
G02*
X155275000Y-92050000I75000J0D01*
G01*
X155425000Y-92050000D01*
G75*
G02*
X155500000Y-92125000I0J-75000D01*
G01*
X155500000Y-93525000D01*
G75*
G02*
X155425000Y-93600000I-75000J0D01*
G01*
X155275000Y-93600000D01*
G75*
G02*
X155200000Y-93525000I0J75000D01*
G01*
G37*
G36*
G01*
X154700000Y-93525000D02*
X154700000Y-92125000D01*
G75*
G02*
X154775000Y-92050000I75000J0D01*
G01*
X154925000Y-92050000D01*
G75*
G02*
X155000000Y-92125000I0J-75000D01*
G01*
X155000000Y-93525000D01*
G75*
G02*
X154925000Y-93600000I-75000J0D01*
G01*
X154775000Y-93600000D01*
G75*
G02*
X154700000Y-93525000I0J75000D01*
G01*
G37*
G36*
G01*
X154200000Y-93525000D02*
X154200000Y-92125000D01*
G75*
G02*
X154275000Y-92050000I75000J0D01*
G01*
X154425000Y-92050000D01*
G75*
G02*
X154500000Y-92125000I0J-75000D01*
G01*
X154500000Y-93525000D01*
G75*
G02*
X154425000Y-93600000I-75000J0D01*
G01*
X154275000Y-93600000D01*
G75*
G02*
X154200000Y-93525000I0J75000D01*
G01*
G37*
%TD*%
D25*
%TO.C,J4*%
X179900000Y-89450000D03*
X179900000Y-107750000D03*
D26*
X176650000Y-105850000D03*
X176650000Y-105350000D03*
X176650000Y-104850000D03*
X176650000Y-104350000D03*
X176650000Y-103850000D03*
X176650000Y-103350000D03*
X176650000Y-102850000D03*
X176650000Y-102350000D03*
X176650000Y-101850000D03*
X176650000Y-101350000D03*
X176650000Y-100850000D03*
X176650000Y-100350000D03*
X176650000Y-99850000D03*
X176650000Y-99350000D03*
X176650000Y-98850000D03*
X176650000Y-98350000D03*
X176650000Y-97850000D03*
X176650000Y-97350000D03*
X176650000Y-96850000D03*
X176650000Y-96350000D03*
X176650000Y-95850000D03*
X176650000Y-95350000D03*
X176650000Y-94850000D03*
X176650000Y-94350000D03*
X176650000Y-93850000D03*
X176650000Y-93350000D03*
X176650000Y-92850000D03*
X176650000Y-92350000D03*
X176650000Y-91850000D03*
X176650000Y-91350000D03*
%TD*%
%TO.C,R11*%
G36*
G01*
X126087500Y-98849998D02*
X126087500Y-99750002D01*
G75*
G02*
X125837502Y-100000000I-249998J0D01*
G01*
X125312498Y-100000000D01*
G75*
G02*
X125062500Y-99750002I0J249998D01*
G01*
X125062500Y-98849998D01*
G75*
G02*
X125312498Y-98600000I249998J0D01*
G01*
X125837502Y-98600000D01*
G75*
G02*
X126087500Y-98849998I0J-249998D01*
G01*
G37*
G36*
G01*
X127912500Y-98849998D02*
X127912500Y-99750002D01*
G75*
G02*
X127662502Y-100000000I-249998J0D01*
G01*
X127137498Y-100000000D01*
G75*
G02*
X126887500Y-99750002I0J249998D01*
G01*
X126887500Y-98849998D01*
G75*
G02*
X127137498Y-98600000I249998J0D01*
G01*
X127662502Y-98600000D01*
G75*
G02*
X127912500Y-98849998I0J-249998D01*
G01*
G37*
%TD*%
%TO.C,R12*%
G36*
G01*
X126087500Y-96849998D02*
X126087500Y-97750002D01*
G75*
G02*
X125837502Y-98000000I-249998J0D01*
G01*
X125312498Y-98000000D01*
G75*
G02*
X125062500Y-97750002I0J249998D01*
G01*
X125062500Y-96849998D01*
G75*
G02*
X125312498Y-96600000I249998J0D01*
G01*
X125837502Y-96600000D01*
G75*
G02*
X126087500Y-96849998I0J-249998D01*
G01*
G37*
G36*
G01*
X127912500Y-96849998D02*
X127912500Y-97750002D01*
G75*
G02*
X127662502Y-98000000I-249998J0D01*
G01*
X127137498Y-98000000D01*
G75*
G02*
X126887500Y-97750002I0J249998D01*
G01*
X126887500Y-96849998D01*
G75*
G02*
X127137498Y-96600000I249998J0D01*
G01*
X127662502Y-96600000D01*
G75*
G02*
X127912500Y-96849998I0J-249998D01*
G01*
G37*
%TD*%
%TO.C,D3*%
G36*
G01*
X144643750Y-115237500D02*
X145556250Y-115237500D01*
G75*
G02*
X145800000Y-115481250I0J-243750D01*
G01*
X145800000Y-115968750D01*
G75*
G02*
X145556250Y-116212500I-243750J0D01*
G01*
X144643750Y-116212500D01*
G75*
G02*
X144400000Y-115968750I0J243750D01*
G01*
X144400000Y-115481250D01*
G75*
G02*
X144643750Y-115237500I243750J0D01*
G01*
G37*
G36*
G01*
X144643750Y-117112500D02*
X145556250Y-117112500D01*
G75*
G02*
X145800000Y-117356250I0J-243750D01*
G01*
X145800000Y-117843750D01*
G75*
G02*
X145556250Y-118087500I-243750J0D01*
G01*
X144643750Y-118087500D01*
G75*
G02*
X144400000Y-117843750I0J243750D01*
G01*
X144400000Y-117356250D01*
G75*
G02*
X144643750Y-117112500I243750J0D01*
G01*
G37*
%TD*%
%TO.C,C1*%
G36*
G01*
X141575000Y-96400000D02*
X140625000Y-96400000D01*
G75*
G02*
X140375000Y-96150000I0J250000D01*
G01*
X140375000Y-95650000D01*
G75*
G02*
X140625000Y-95400000I250000J0D01*
G01*
X141575000Y-95400000D01*
G75*
G02*
X141825000Y-95650000I0J-250000D01*
G01*
X141825000Y-96150000D01*
G75*
G02*
X141575000Y-96400000I-250000J0D01*
G01*
G37*
G36*
G01*
X141575000Y-94500000D02*
X140625000Y-94500000D01*
G75*
G02*
X140375000Y-94250000I0J250000D01*
G01*
X140375000Y-93750000D01*
G75*
G02*
X140625000Y-93500000I250000J0D01*
G01*
X141575000Y-93500000D01*
G75*
G02*
X141825000Y-93750000I0J-250000D01*
G01*
X141825000Y-94250000D01*
G75*
G02*
X141575000Y-94500000I-250000J0D01*
G01*
G37*
%TD*%
%TO.C,C2*%
G36*
G01*
X123825000Y-111900000D02*
X124775000Y-111900000D01*
G75*
G02*
X125025000Y-112150000I0J-250000D01*
G01*
X125025000Y-112650000D01*
G75*
G02*
X124775000Y-112900000I-250000J0D01*
G01*
X123825000Y-112900000D01*
G75*
G02*
X123575000Y-112650000I0J250000D01*
G01*
X123575000Y-112150000D01*
G75*
G02*
X123825000Y-111900000I250000J0D01*
G01*
G37*
G36*
G01*
X123825000Y-110000000D02*
X124775000Y-110000000D01*
G75*
G02*
X125025000Y-110250000I0J-250000D01*
G01*
X125025000Y-110750000D01*
G75*
G02*
X124775000Y-111000000I-250000J0D01*
G01*
X123825000Y-111000000D01*
G75*
G02*
X123575000Y-110750000I0J250000D01*
G01*
X123575000Y-110250000D01*
G75*
G02*
X123825000Y-110000000I250000J0D01*
G01*
G37*
%TD*%
%TO.C,C3*%
G36*
G01*
X148925000Y-113600000D02*
X149875000Y-113600000D01*
G75*
G02*
X150125000Y-113850000I0J-250000D01*
G01*
X150125000Y-114350000D01*
G75*
G02*
X149875000Y-114600000I-250000J0D01*
G01*
X148925000Y-114600000D01*
G75*
G02*
X148675000Y-114350000I0J250000D01*
G01*
X148675000Y-113850000D01*
G75*
G02*
X148925000Y-113600000I250000J0D01*
G01*
G37*
G36*
G01*
X148925000Y-111700000D02*
X149875000Y-111700000D01*
G75*
G02*
X150125000Y-111950000I0J-250000D01*
G01*
X150125000Y-112450000D01*
G75*
G02*
X149875000Y-112700000I-250000J0D01*
G01*
X148925000Y-112700000D01*
G75*
G02*
X148675000Y-112450000I0J250000D01*
G01*
X148675000Y-111950000D01*
G75*
G02*
X148925000Y-111700000I250000J0D01*
G01*
G37*
%TD*%
%TO.C,C4*%
G36*
G01*
X140625000Y-105600000D02*
X141575000Y-105600000D01*
G75*
G02*
X141825000Y-105850000I0J-250000D01*
G01*
X141825000Y-106350000D01*
G75*
G02*
X141575000Y-106600000I-250000J0D01*
G01*
X140625000Y-106600000D01*
G75*
G02*
X140375000Y-106350000I0J250000D01*
G01*
X140375000Y-105850000D01*
G75*
G02*
X140625000Y-105600000I250000J0D01*
G01*
G37*
G36*
G01*
X140625000Y-103700000D02*
X141575000Y-103700000D01*
G75*
G02*
X141825000Y-103950000I0J-250000D01*
G01*
X141825000Y-104450000D01*
G75*
G02*
X141575000Y-104700000I-250000J0D01*
G01*
X140625000Y-104700000D01*
G75*
G02*
X140375000Y-104450000I0J250000D01*
G01*
X140375000Y-103950000D01*
G75*
G02*
X140625000Y-103700000I250000J0D01*
G01*
G37*
%TD*%
%TO.C,C5*%
G36*
G01*
X136975000Y-112900000D02*
X136025000Y-112900000D01*
G75*
G02*
X135775000Y-112650000I0J250000D01*
G01*
X135775000Y-112150000D01*
G75*
G02*
X136025000Y-111900000I250000J0D01*
G01*
X136975000Y-111900000D01*
G75*
G02*
X137225000Y-112150000I0J-250000D01*
G01*
X137225000Y-112650000D01*
G75*
G02*
X136975000Y-112900000I-250000J0D01*
G01*
G37*
G36*
G01*
X136975000Y-111000000D02*
X136025000Y-111000000D01*
G75*
G02*
X135775000Y-110750000I0J250000D01*
G01*
X135775000Y-110250000D01*
G75*
G02*
X136025000Y-110000000I250000J0D01*
G01*
X136975000Y-110000000D01*
G75*
G02*
X137225000Y-110250000I0J-250000D01*
G01*
X137225000Y-110750000D01*
G75*
G02*
X136975000Y-111000000I-250000J0D01*
G01*
G37*
%TD*%
%TO.C,C6*%
G36*
G01*
X166100000Y-93475000D02*
X166100000Y-92525000D01*
G75*
G02*
X166350000Y-92275000I250000J0D01*
G01*
X166850000Y-92275000D01*
G75*
G02*
X167100000Y-92525000I0J-250000D01*
G01*
X167100000Y-93475000D01*
G75*
G02*
X166850000Y-93725000I-250000J0D01*
G01*
X166350000Y-93725000D01*
G75*
G02*
X166100000Y-93475000I0J250000D01*
G01*
G37*
G36*
G01*
X164200000Y-93475000D02*
X164200000Y-92525000D01*
G75*
G02*
X164450000Y-92275000I250000J0D01*
G01*
X164950000Y-92275000D01*
G75*
G02*
X165200000Y-92525000I0J-250000D01*
G01*
X165200000Y-93475000D01*
G75*
G02*
X164950000Y-93725000I-250000J0D01*
G01*
X164450000Y-93725000D01*
G75*
G02*
X164200000Y-93475000I0J250000D01*
G01*
G37*
%TD*%
%TO.C,C7*%
G36*
G01*
X169800000Y-105925000D02*
X169800000Y-106875000D01*
G75*
G02*
X169550000Y-107125000I-250000J0D01*
G01*
X169050000Y-107125000D01*
G75*
G02*
X168800000Y-106875000I0J250000D01*
G01*
X168800000Y-105925000D01*
G75*
G02*
X169050000Y-105675000I250000J0D01*
G01*
X169550000Y-105675000D01*
G75*
G02*
X169800000Y-105925000I0J-250000D01*
G01*
G37*
G36*
G01*
X167900000Y-105925000D02*
X167900000Y-106875000D01*
G75*
G02*
X167650000Y-107125000I-250000J0D01*
G01*
X167150000Y-107125000D01*
G75*
G02*
X166900000Y-106875000I0J250000D01*
G01*
X166900000Y-105925000D01*
G75*
G02*
X167150000Y-105675000I250000J0D01*
G01*
X167650000Y-105675000D01*
G75*
G02*
X167900000Y-105925000I0J-250000D01*
G01*
G37*
%TD*%
%TO.C,C8*%
G36*
G01*
X152375000Y-90800000D02*
X151425000Y-90800000D01*
G75*
G02*
X151175000Y-90550000I0J250000D01*
G01*
X151175000Y-90050000D01*
G75*
G02*
X151425000Y-89800000I250000J0D01*
G01*
X152375000Y-89800000D01*
G75*
G02*
X152625000Y-90050000I0J-250000D01*
G01*
X152625000Y-90550000D01*
G75*
G02*
X152375000Y-90800000I-250000J0D01*
G01*
G37*
G36*
G01*
X152375000Y-92700000D02*
X151425000Y-92700000D01*
G75*
G02*
X151175000Y-92450000I0J250000D01*
G01*
X151175000Y-91950000D01*
G75*
G02*
X151425000Y-91700000I250000J0D01*
G01*
X152375000Y-91700000D01*
G75*
G02*
X152625000Y-91950000I0J-250000D01*
G01*
X152625000Y-92450000D01*
G75*
G02*
X152375000Y-92700000I-250000J0D01*
G01*
G37*
%TD*%
%TO.C,C9*%
G36*
G01*
X156100000Y-107725000D02*
X156100000Y-108675000D01*
G75*
G02*
X155850000Y-108925000I-250000J0D01*
G01*
X155350000Y-108925000D01*
G75*
G02*
X155100000Y-108675000I0J250000D01*
G01*
X155100000Y-107725000D01*
G75*
G02*
X155350000Y-107475000I250000J0D01*
G01*
X155850000Y-107475000D01*
G75*
G02*
X156100000Y-107725000I0J-250000D01*
G01*
G37*
G36*
G01*
X154200000Y-107725000D02*
X154200000Y-108675000D01*
G75*
G02*
X153950000Y-108925000I-250000J0D01*
G01*
X153450000Y-108925000D01*
G75*
G02*
X153200000Y-108675000I0J250000D01*
G01*
X153200000Y-107725000D01*
G75*
G02*
X153450000Y-107475000I250000J0D01*
G01*
X153950000Y-107475000D01*
G75*
G02*
X154200000Y-107725000I0J-250000D01*
G01*
G37*
%TD*%
%TO.C,C10*%
G36*
G01*
X186500000Y-116025000D02*
X186500000Y-116975000D01*
G75*
G02*
X186250000Y-117225000I-250000J0D01*
G01*
X185750000Y-117225000D01*
G75*
G02*
X185500000Y-116975000I0J250000D01*
G01*
X185500000Y-116025000D01*
G75*
G02*
X185750000Y-115775000I250000J0D01*
G01*
X186250000Y-115775000D01*
G75*
G02*
X186500000Y-116025000I0J-250000D01*
G01*
G37*
G36*
G01*
X184600000Y-116025000D02*
X184600000Y-116975000D01*
G75*
G02*
X184350000Y-117225000I-250000J0D01*
G01*
X183850000Y-117225000D01*
G75*
G02*
X183600000Y-116975000I0J250000D01*
G01*
X183600000Y-116025000D01*
G75*
G02*
X183850000Y-115775000I250000J0D01*
G01*
X184350000Y-115775000D01*
G75*
G02*
X184600000Y-116025000I0J-250000D01*
G01*
G37*
%TD*%
%TO.C,C11*%
G36*
G01*
X126025000Y-110000000D02*
X126975000Y-110000000D01*
G75*
G02*
X127225000Y-110250000I0J-250000D01*
G01*
X127225000Y-110750000D01*
G75*
G02*
X126975000Y-111000000I-250000J0D01*
G01*
X126025000Y-111000000D01*
G75*
G02*
X125775000Y-110750000I0J250000D01*
G01*
X125775000Y-110250000D01*
G75*
G02*
X126025000Y-110000000I250000J0D01*
G01*
G37*
G36*
G01*
X126025000Y-111900000D02*
X126975000Y-111900000D01*
G75*
G02*
X127225000Y-112150000I0J-250000D01*
G01*
X127225000Y-112650000D01*
G75*
G02*
X126975000Y-112900000I-250000J0D01*
G01*
X126025000Y-112900000D01*
G75*
G02*
X125775000Y-112650000I0J250000D01*
G01*
X125775000Y-112150000D01*
G75*
G02*
X126025000Y-111900000I250000J0D01*
G01*
G37*
%TD*%
%TO.C,C12*%
G36*
G01*
X136975000Y-116300000D02*
X136025000Y-116300000D01*
G75*
G02*
X135775000Y-116050000I0J250000D01*
G01*
X135775000Y-115550000D01*
G75*
G02*
X136025000Y-115300000I250000J0D01*
G01*
X136975000Y-115300000D01*
G75*
G02*
X137225000Y-115550000I0J-250000D01*
G01*
X137225000Y-116050000D01*
G75*
G02*
X136975000Y-116300000I-250000J0D01*
G01*
G37*
G36*
G01*
X136975000Y-118200000D02*
X136025000Y-118200000D01*
G75*
G02*
X135775000Y-117950000I0J250000D01*
G01*
X135775000Y-117450000D01*
G75*
G02*
X136025000Y-117200000I250000J0D01*
G01*
X136975000Y-117200000D01*
G75*
G02*
X137225000Y-117450000I0J-250000D01*
G01*
X137225000Y-117950000D01*
G75*
G02*
X136975000Y-118200000I-250000J0D01*
G01*
G37*
%TD*%
%TO.C,C13*%
G36*
G01*
X177075000Y-111700000D02*
X176125000Y-111700000D01*
G75*
G02*
X175875000Y-111450000I0J250000D01*
G01*
X175875000Y-110950000D01*
G75*
G02*
X176125000Y-110700000I250000J0D01*
G01*
X177075000Y-110700000D01*
G75*
G02*
X177325000Y-110950000I0J-250000D01*
G01*
X177325000Y-111450000D01*
G75*
G02*
X177075000Y-111700000I-250000J0D01*
G01*
G37*
G36*
G01*
X177075000Y-113600000D02*
X176125000Y-113600000D01*
G75*
G02*
X175875000Y-113350000I0J250000D01*
G01*
X175875000Y-112850000D01*
G75*
G02*
X176125000Y-112600000I250000J0D01*
G01*
X177075000Y-112600000D01*
G75*
G02*
X177325000Y-112850000I0J-250000D01*
G01*
X177325000Y-113350000D01*
G75*
G02*
X177075000Y-113600000I-250000J0D01*
G01*
G37*
%TD*%
%TO.C,D1*%
G36*
G01*
X125112500Y-117043750D02*
X125112500Y-117956250D01*
G75*
G02*
X124868750Y-118200000I-243750J0D01*
G01*
X124381250Y-118200000D01*
G75*
G02*
X124137500Y-117956250I0J243750D01*
G01*
X124137500Y-117043750D01*
G75*
G02*
X124381250Y-116800000I243750J0D01*
G01*
X124868750Y-116800000D01*
G75*
G02*
X125112500Y-117043750I0J-243750D01*
G01*
G37*
G36*
G01*
X126987500Y-117043750D02*
X126987500Y-117956250D01*
G75*
G02*
X126743750Y-118200000I-243750J0D01*
G01*
X126256250Y-118200000D01*
G75*
G02*
X126012500Y-117956250I0J243750D01*
G01*
X126012500Y-117043750D01*
G75*
G02*
X126256250Y-116800000I243750J0D01*
G01*
X126743750Y-116800000D01*
G75*
G02*
X126987500Y-117043750I0J-243750D01*
G01*
G37*
%TD*%
%TO.C,D2*%
G36*
G01*
X142543750Y-117112500D02*
X143456250Y-117112500D01*
G75*
G02*
X143700000Y-117356250I0J-243750D01*
G01*
X143700000Y-117843750D01*
G75*
G02*
X143456250Y-118087500I-243750J0D01*
G01*
X142543750Y-118087500D01*
G75*
G02*
X142300000Y-117843750I0J243750D01*
G01*
X142300000Y-117356250D01*
G75*
G02*
X142543750Y-117112500I243750J0D01*
G01*
G37*
G36*
G01*
X142543750Y-115237500D02*
X143456250Y-115237500D01*
G75*
G02*
X143700000Y-115481250I0J-243750D01*
G01*
X143700000Y-115968750D01*
G75*
G02*
X143456250Y-116212500I-243750J0D01*
G01*
X142543750Y-116212500D01*
G75*
G02*
X142300000Y-115968750I0J243750D01*
G01*
X142300000Y-115481250D01*
G75*
G02*
X142543750Y-115237500I243750J0D01*
G01*
G37*
%TD*%
D27*
%TO.C,J1*%
X182080000Y-83300000D03*
X184620000Y-83300000D03*
X187160000Y-83300000D03*
D24*
X189700000Y-83300000D03*
%TD*%
D27*
%TO.C,J2*%
X182560000Y-78000000D03*
X185100000Y-78000000D03*
D24*
X187640000Y-78000000D03*
%TD*%
%TO.C,R1*%
G36*
G01*
X140349998Y-81787500D02*
X141250002Y-81787500D01*
G75*
G02*
X141500000Y-82037498I0J-249998D01*
G01*
X141500000Y-82562502D01*
G75*
G02*
X141250002Y-82812500I-249998J0D01*
G01*
X140349998Y-82812500D01*
G75*
G02*
X140100000Y-82562502I0J249998D01*
G01*
X140100000Y-82037498D01*
G75*
G02*
X140349998Y-81787500I249998J0D01*
G01*
G37*
G36*
G01*
X140349998Y-79962500D02*
X141250002Y-79962500D01*
G75*
G02*
X141500000Y-80212498I0J-249998D01*
G01*
X141500000Y-80737502D01*
G75*
G02*
X141250002Y-80987500I-249998J0D01*
G01*
X140349998Y-80987500D01*
G75*
G02*
X140100000Y-80737502I0J249998D01*
G01*
X140100000Y-80212498D01*
G75*
G02*
X140349998Y-79962500I249998J0D01*
G01*
G37*
%TD*%
%TO.C,R2*%
G36*
G01*
X142349998Y-79987500D02*
X143250002Y-79987500D01*
G75*
G02*
X143500000Y-80237498I0J-249998D01*
G01*
X143500000Y-80762502D01*
G75*
G02*
X143250002Y-81012500I-249998J0D01*
G01*
X142349998Y-81012500D01*
G75*
G02*
X142100000Y-80762502I0J249998D01*
G01*
X142100000Y-80237498D01*
G75*
G02*
X142349998Y-79987500I249998J0D01*
G01*
G37*
G36*
G01*
X142349998Y-81812500D02*
X143250002Y-81812500D01*
G75*
G02*
X143500000Y-82062498I0J-249998D01*
G01*
X143500000Y-82587502D01*
G75*
G02*
X143250002Y-82837500I-249998J0D01*
G01*
X142349998Y-82837500D01*
G75*
G02*
X142100000Y-82587502I0J249998D01*
G01*
X142100000Y-82062498D01*
G75*
G02*
X142349998Y-81812500I249998J0D01*
G01*
G37*
%TD*%
%TO.C,R3*%
G36*
G01*
X167049998Y-82187500D02*
X167950002Y-82187500D01*
G75*
G02*
X168200000Y-82437498I0J-249998D01*
G01*
X168200000Y-82962502D01*
G75*
G02*
X167950002Y-83212500I-249998J0D01*
G01*
X167049998Y-83212500D01*
G75*
G02*
X166800000Y-82962502I0J249998D01*
G01*
X166800000Y-82437498D01*
G75*
G02*
X167049998Y-82187500I249998J0D01*
G01*
G37*
G36*
G01*
X167049998Y-80362500D02*
X167950002Y-80362500D01*
G75*
G02*
X168200000Y-80612498I0J-249998D01*
G01*
X168200000Y-81137502D01*
G75*
G02*
X167950002Y-81387500I-249998J0D01*
G01*
X167049998Y-81387500D01*
G75*
G02*
X166800000Y-81137502I0J249998D01*
G01*
X166800000Y-80612498D01*
G75*
G02*
X167049998Y-80362500I249998J0D01*
G01*
G37*
%TD*%
%TO.C,R4*%
G36*
G01*
X169049998Y-80362500D02*
X169950002Y-80362500D01*
G75*
G02*
X170200000Y-80612498I0J-249998D01*
G01*
X170200000Y-81137502D01*
G75*
G02*
X169950002Y-81387500I-249998J0D01*
G01*
X169049998Y-81387500D01*
G75*
G02*
X168800000Y-81137502I0J249998D01*
G01*
X168800000Y-80612498D01*
G75*
G02*
X169049998Y-80362500I249998J0D01*
G01*
G37*
G36*
G01*
X169049998Y-82187500D02*
X169950002Y-82187500D01*
G75*
G02*
X170200000Y-82437498I0J-249998D01*
G01*
X170200000Y-82962502D01*
G75*
G02*
X169950002Y-83212500I-249998J0D01*
G01*
X169049998Y-83212500D01*
G75*
G02*
X168800000Y-82962502I0J249998D01*
G01*
X168800000Y-82437498D01*
G75*
G02*
X169049998Y-82187500I249998J0D01*
G01*
G37*
%TD*%
%TO.C,R5*%
G36*
G01*
X141550002Y-99712500D02*
X140649998Y-99712500D01*
G75*
G02*
X140400000Y-99462502I0J249998D01*
G01*
X140400000Y-98937498D01*
G75*
G02*
X140649998Y-98687500I249998J0D01*
G01*
X141550002Y-98687500D01*
G75*
G02*
X141800000Y-98937498I0J-249998D01*
G01*
X141800000Y-99462502D01*
G75*
G02*
X141550002Y-99712500I-249998J0D01*
G01*
G37*
G36*
G01*
X141550002Y-101537500D02*
X140649998Y-101537500D01*
G75*
G02*
X140400000Y-101287502I0J249998D01*
G01*
X140400000Y-100762498D01*
G75*
G02*
X140649998Y-100512500I249998J0D01*
G01*
X141550002Y-100512500D01*
G75*
G02*
X141800000Y-100762498I0J-249998D01*
G01*
X141800000Y-101287502D01*
G75*
G02*
X141550002Y-101537500I-249998J0D01*
G01*
G37*
%TD*%
%TO.C,R6*%
G36*
G01*
X162350002Y-115812500D02*
X161449998Y-115812500D01*
G75*
G02*
X161200000Y-115562502I0J249998D01*
G01*
X161200000Y-115037498D01*
G75*
G02*
X161449998Y-114787500I249998J0D01*
G01*
X162350002Y-114787500D01*
G75*
G02*
X162600000Y-115037498I0J-249998D01*
G01*
X162600000Y-115562502D01*
G75*
G02*
X162350002Y-115812500I-249998J0D01*
G01*
G37*
G36*
G01*
X162350002Y-117637500D02*
X161449998Y-117637500D01*
G75*
G02*
X161200000Y-117387502I0J249998D01*
G01*
X161200000Y-116862498D01*
G75*
G02*
X161449998Y-116612500I249998J0D01*
G01*
X162350002Y-116612500D01*
G75*
G02*
X162600000Y-116862498I0J-249998D01*
G01*
X162600000Y-117387502D01*
G75*
G02*
X162350002Y-117637500I-249998J0D01*
G01*
G37*
%TD*%
%TO.C,R7*%
G36*
G01*
X141350002Y-116287500D02*
X140449998Y-116287500D01*
G75*
G02*
X140200000Y-116037502I0J249998D01*
G01*
X140200000Y-115512498D01*
G75*
G02*
X140449998Y-115262500I249998J0D01*
G01*
X141350002Y-115262500D01*
G75*
G02*
X141600000Y-115512498I0J-249998D01*
G01*
X141600000Y-116037502D01*
G75*
G02*
X141350002Y-116287500I-249998J0D01*
G01*
G37*
G36*
G01*
X141350002Y-118112500D02*
X140449998Y-118112500D01*
G75*
G02*
X140200000Y-117862502I0J249998D01*
G01*
X140200000Y-117337498D01*
G75*
G02*
X140449998Y-117087500I249998J0D01*
G01*
X141350002Y-117087500D01*
G75*
G02*
X141600000Y-117337498I0J-249998D01*
G01*
X141600000Y-117862502D01*
G75*
G02*
X141350002Y-118112500I-249998J0D01*
G01*
G37*
%TD*%
%TO.C,R8*%
G36*
G01*
X147650002Y-118025000D02*
X146749998Y-118025000D01*
G75*
G02*
X146500000Y-117775002I0J249998D01*
G01*
X146500000Y-117249998D01*
G75*
G02*
X146749998Y-117000000I249998J0D01*
G01*
X147650002Y-117000000D01*
G75*
G02*
X147900000Y-117249998I0J-249998D01*
G01*
X147900000Y-117775002D01*
G75*
G02*
X147650002Y-118025000I-249998J0D01*
G01*
G37*
G36*
G01*
X147650002Y-116200000D02*
X146749998Y-116200000D01*
G75*
G02*
X146500000Y-115950002I0J249998D01*
G01*
X146500000Y-115424998D01*
G75*
G02*
X146749998Y-115175000I249998J0D01*
G01*
X147650002Y-115175000D01*
G75*
G02*
X147900000Y-115424998I0J-249998D01*
G01*
X147900000Y-115950002D01*
G75*
G02*
X147650002Y-116200000I-249998J0D01*
G01*
G37*
%TD*%
%TO.C,R9*%
G36*
G01*
X127012500Y-114249998D02*
X127012500Y-115150002D01*
G75*
G02*
X126762502Y-115400000I-249998J0D01*
G01*
X126237498Y-115400000D01*
G75*
G02*
X125987500Y-115150002I0J249998D01*
G01*
X125987500Y-114249998D01*
G75*
G02*
X126237498Y-114000000I249998J0D01*
G01*
X126762502Y-114000000D01*
G75*
G02*
X127012500Y-114249998I0J-249998D01*
G01*
G37*
G36*
G01*
X125187500Y-114249998D02*
X125187500Y-115150002D01*
G75*
G02*
X124937502Y-115400000I-249998J0D01*
G01*
X124412498Y-115400000D01*
G75*
G02*
X124162500Y-115150002I0J249998D01*
G01*
X124162500Y-114249998D01*
G75*
G02*
X124412498Y-114000000I249998J0D01*
G01*
X124937502Y-114000000D01*
G75*
G02*
X125187500Y-114249998I0J-249998D01*
G01*
G37*
%TD*%
%TO.C,R10*%
G36*
G01*
X157950002Y-88412500D02*
X157049998Y-88412500D01*
G75*
G02*
X156800000Y-88162502I0J249998D01*
G01*
X156800000Y-87637498D01*
G75*
G02*
X157049998Y-87387500I249998J0D01*
G01*
X157950002Y-87387500D01*
G75*
G02*
X158200000Y-87637498I0J-249998D01*
G01*
X158200000Y-88162502D01*
G75*
G02*
X157950002Y-88412500I-249998J0D01*
G01*
G37*
G36*
G01*
X157950002Y-86587500D02*
X157049998Y-86587500D01*
G75*
G02*
X156800000Y-86337502I0J249998D01*
G01*
X156800000Y-85812498D01*
G75*
G02*
X157049998Y-85562500I249998J0D01*
G01*
X157950002Y-85562500D01*
G75*
G02*
X158200000Y-85812498I0J-249998D01*
G01*
X158200000Y-86337502D01*
G75*
G02*
X157950002Y-86587500I-249998J0D01*
G01*
G37*
%TD*%
%TO.C,R13*%
G36*
G01*
X125849998Y-92887500D02*
X126750002Y-92887500D01*
G75*
G02*
X127000000Y-93137498I0J-249998D01*
G01*
X127000000Y-93662502D01*
G75*
G02*
X126750002Y-93912500I-249998J0D01*
G01*
X125849998Y-93912500D01*
G75*
G02*
X125600000Y-93662502I0J249998D01*
G01*
X125600000Y-93137498D01*
G75*
G02*
X125849998Y-92887500I249998J0D01*
G01*
G37*
G36*
G01*
X125849998Y-94712500D02*
X126750002Y-94712500D01*
G75*
G02*
X127000000Y-94962498I0J-249998D01*
G01*
X127000000Y-95487502D01*
G75*
G02*
X126750002Y-95737500I-249998J0D01*
G01*
X125849998Y-95737500D01*
G75*
G02*
X125600000Y-95487502I0J249998D01*
G01*
X125600000Y-94962498D01*
G75*
G02*
X125849998Y-94712500I249998J0D01*
G01*
G37*
%TD*%
%TO.C,R16*%
G36*
G01*
X181650002Y-118412500D02*
X180749998Y-118412500D01*
G75*
G02*
X180500000Y-118162502I0J249998D01*
G01*
X180500000Y-117637498D01*
G75*
G02*
X180749998Y-117387500I249998J0D01*
G01*
X181650002Y-117387500D01*
G75*
G02*
X181900000Y-117637498I0J-249998D01*
G01*
X181900000Y-118162502D01*
G75*
G02*
X181650002Y-118412500I-249998J0D01*
G01*
G37*
G36*
G01*
X181650002Y-116587500D02*
X180749998Y-116587500D01*
G75*
G02*
X180500000Y-116337502I0J249998D01*
G01*
X180500000Y-115812498D01*
G75*
G02*
X180749998Y-115562500I249998J0D01*
G01*
X181650002Y-115562500D01*
G75*
G02*
X181900000Y-115812498I0J-249998D01*
G01*
X181900000Y-116337502D01*
G75*
G02*
X181650002Y-116587500I-249998J0D01*
G01*
G37*
%TD*%
%TO.C,R17*%
G36*
G01*
X177550002Y-116687500D02*
X176649998Y-116687500D01*
G75*
G02*
X176400000Y-116437502I0J249998D01*
G01*
X176400000Y-115912498D01*
G75*
G02*
X176649998Y-115662500I249998J0D01*
G01*
X177550002Y-115662500D01*
G75*
G02*
X177800000Y-115912498I0J-249998D01*
G01*
X177800000Y-116437502D01*
G75*
G02*
X177550002Y-116687500I-249998J0D01*
G01*
G37*
G36*
G01*
X177550002Y-118512500D02*
X176649998Y-118512500D01*
G75*
G02*
X176400000Y-118262502I0J249998D01*
G01*
X176400000Y-117737498D01*
G75*
G02*
X176649998Y-117487500I249998J0D01*
G01*
X177550002Y-117487500D01*
G75*
G02*
X177800000Y-117737498I0J-249998D01*
G01*
X177800000Y-118262502D01*
G75*
G02*
X177550002Y-118512500I-249998J0D01*
G01*
G37*
%TD*%
%TO.C,R18*%
G36*
G01*
X178062500Y-113450002D02*
X178062500Y-112549998D01*
G75*
G02*
X178312498Y-112300000I249998J0D01*
G01*
X178837502Y-112300000D01*
G75*
G02*
X179087500Y-112549998I0J-249998D01*
G01*
X179087500Y-113450002D01*
G75*
G02*
X178837502Y-113700000I-249998J0D01*
G01*
X178312498Y-113700000D01*
G75*
G02*
X178062500Y-113450002I0J249998D01*
G01*
G37*
G36*
G01*
X179887500Y-113450002D02*
X179887500Y-112549998D01*
G75*
G02*
X180137498Y-112300000I249998J0D01*
G01*
X180662502Y-112300000D01*
G75*
G02*
X180912500Y-112549998I0J-249998D01*
G01*
X180912500Y-113450002D01*
G75*
G02*
X180662502Y-113700000I-249998J0D01*
G01*
X180137498Y-113700000D01*
G75*
G02*
X179887500Y-113450002I0J249998D01*
G01*
G37*
%TD*%
%TO.C,R19*%
G36*
G01*
X179887500Y-111350002D02*
X179887500Y-110449998D01*
G75*
G02*
X180137498Y-110200000I249998J0D01*
G01*
X180662502Y-110200000D01*
G75*
G02*
X180912500Y-110449998I0J-249998D01*
G01*
X180912500Y-111350002D01*
G75*
G02*
X180662502Y-111600000I-249998J0D01*
G01*
X180137498Y-111600000D01*
G75*
G02*
X179887500Y-111350002I0J249998D01*
G01*
G37*
G36*
G01*
X178062500Y-111350002D02*
X178062500Y-110449998D01*
G75*
G02*
X178312498Y-110200000I249998J0D01*
G01*
X178837502Y-110200000D01*
G75*
G02*
X179087500Y-110449998I0J-249998D01*
G01*
X179087500Y-111350002D01*
G75*
G02*
X178837502Y-111600000I-249998J0D01*
G01*
X178312498Y-111600000D01*
G75*
G02*
X178062500Y-111350002I0J249998D01*
G01*
G37*
%TD*%
%TO.C,R20*%
G36*
G01*
X124650002Y-95812500D02*
X123749998Y-95812500D01*
G75*
G02*
X123500000Y-95562502I0J249998D01*
G01*
X123500000Y-95037498D01*
G75*
G02*
X123749998Y-94787500I249998J0D01*
G01*
X124650002Y-94787500D01*
G75*
G02*
X124900000Y-95037498I0J-249998D01*
G01*
X124900000Y-95562502D01*
G75*
G02*
X124650002Y-95812500I-249998J0D01*
G01*
G37*
G36*
G01*
X124650002Y-93987500D02*
X123749998Y-93987500D01*
G75*
G02*
X123500000Y-93737502I0J249998D01*
G01*
X123500000Y-93212498D01*
G75*
G02*
X123749998Y-92962500I249998J0D01*
G01*
X124650002Y-92962500D01*
G75*
G02*
X124900000Y-93212498I0J-249998D01*
G01*
X124900000Y-93737502D01*
G75*
G02*
X124650002Y-93987500I-249998J0D01*
G01*
G37*
%TD*%
%TO.C,R21*%
G36*
G01*
X124650002Y-102087500D02*
X123749998Y-102087500D01*
G75*
G02*
X123500000Y-101837502I0J249998D01*
G01*
X123500000Y-101312498D01*
G75*
G02*
X123749998Y-101062500I249998J0D01*
G01*
X124650002Y-101062500D01*
G75*
G02*
X124900000Y-101312498I0J-249998D01*
G01*
X124900000Y-101837502D01*
G75*
G02*
X124650002Y-102087500I-249998J0D01*
G01*
G37*
G36*
G01*
X124650002Y-103912500D02*
X123749998Y-103912500D01*
G75*
G02*
X123500000Y-103662502I0J249998D01*
G01*
X123500000Y-103137498D01*
G75*
G02*
X123749998Y-102887500I249998J0D01*
G01*
X124650002Y-102887500D01*
G75*
G02*
X124900000Y-103137498I0J-249998D01*
G01*
X124900000Y-103662502D01*
G75*
G02*
X124650002Y-103912500I-249998J0D01*
G01*
G37*
%TD*%
%TO.C,R24*%
G36*
G01*
X164449998Y-114787500D02*
X165350002Y-114787500D01*
G75*
G02*
X165600000Y-115037498I0J-249998D01*
G01*
X165600000Y-115562502D01*
G75*
G02*
X165350002Y-115812500I-249998J0D01*
G01*
X164449998Y-115812500D01*
G75*
G02*
X164200000Y-115562502I0J249998D01*
G01*
X164200000Y-115037498D01*
G75*
G02*
X164449998Y-114787500I249998J0D01*
G01*
G37*
G36*
G01*
X164449998Y-116612500D02*
X165350002Y-116612500D01*
G75*
G02*
X165600000Y-116862498I0J-249998D01*
G01*
X165600000Y-117387502D01*
G75*
G02*
X165350002Y-117637500I-249998J0D01*
G01*
X164449998Y-117637500D01*
G75*
G02*
X164200000Y-117387502I0J249998D01*
G01*
X164200000Y-116862498D01*
G75*
G02*
X164449998Y-116612500I249998J0D01*
G01*
G37*
%TD*%
D28*
%TO.C,U1*%
X133700000Y-110950000D03*
X129100000Y-110950000D03*
X131400000Y-110950000D03*
D29*
X131400000Y-117250000D03*
%TD*%
D30*
%TO.C,Y1*%
X144900000Y-104300000D03*
X144900000Y-95800000D03*
%TD*%
%TO.C,R14*%
G36*
G01*
X169712500Y-103850002D02*
X169712500Y-102949998D01*
G75*
G02*
X169962498Y-102700000I249998J0D01*
G01*
X170487502Y-102700000D01*
G75*
G02*
X170737500Y-102949998I0J-249998D01*
G01*
X170737500Y-103850002D01*
G75*
G02*
X170487502Y-104100000I-249998J0D01*
G01*
X169962498Y-104100000D01*
G75*
G02*
X169712500Y-103850002I0J249998D01*
G01*
G37*
G36*
G01*
X167887500Y-103850002D02*
X167887500Y-102949998D01*
G75*
G02*
X168137498Y-102700000I249998J0D01*
G01*
X168662502Y-102700000D01*
G75*
G02*
X168912500Y-102949998I0J-249998D01*
G01*
X168912500Y-103850002D01*
G75*
G02*
X168662502Y-104100000I-249998J0D01*
G01*
X168137498Y-104100000D01*
G75*
G02*
X167887500Y-103850002I0J249998D01*
G01*
G37*
%TD*%
%TO.C,R22*%
G36*
G01*
X163262500Y-106850002D02*
X163262500Y-105949998D01*
G75*
G02*
X163512498Y-105700000I249998J0D01*
G01*
X164037502Y-105700000D01*
G75*
G02*
X164287500Y-105949998I0J-249998D01*
G01*
X164287500Y-106850002D01*
G75*
G02*
X164037502Y-107100000I-249998J0D01*
G01*
X163512498Y-107100000D01*
G75*
G02*
X163262500Y-106850002I0J249998D01*
G01*
G37*
G36*
G01*
X165087500Y-106850002D02*
X165087500Y-105949998D01*
G75*
G02*
X165337498Y-105700000I249998J0D01*
G01*
X165862502Y-105700000D01*
G75*
G02*
X166112500Y-105949998I0J-249998D01*
G01*
X166112500Y-106850002D01*
G75*
G02*
X165862502Y-107100000I-249998J0D01*
G01*
X165337498Y-107100000D01*
G75*
G02*
X165087500Y-106850002I0J249998D01*
G01*
G37*
%TD*%
%TO.C,R23*%
G36*
G01*
X171862500Y-102650002D02*
X171862500Y-101749998D01*
G75*
G02*
X172112498Y-101500000I249998J0D01*
G01*
X172637502Y-101500000D01*
G75*
G02*
X172887500Y-101749998I0J-249998D01*
G01*
X172887500Y-102650002D01*
G75*
G02*
X172637502Y-102900000I-249998J0D01*
G01*
X172112498Y-102900000D01*
G75*
G02*
X171862500Y-102650002I0J249998D01*
G01*
G37*
G36*
G01*
X173687500Y-102650002D02*
X173687500Y-101749998D01*
G75*
G02*
X173937498Y-101500000I249998J0D01*
G01*
X174462502Y-101500000D01*
G75*
G02*
X174712500Y-101749998I0J-249998D01*
G01*
X174712500Y-102650002D01*
G75*
G02*
X174462502Y-102900000I-249998J0D01*
G01*
X173937498Y-102900000D01*
G75*
G02*
X173687500Y-102650002I0J249998D01*
G01*
G37*
%TD*%
M02*
