%TF.GenerationSoftware,KiCad,Pcbnew,(5.1.10)-1*%
%TF.CreationDate,2022-05-21T22:50:28+08:00*%
%TF.ProjectId,stm32f103,73746d33-3266-4313-9033-2e6b69636164,rev?*%
%TF.SameCoordinates,Original*%
%TF.FileFunction,Legend,Top*%
%TF.FilePolarity,Positive*%
%FSLAX46Y46*%
G04 Gerber Fmt 4.6, Leading zero omitted, Abs format (unit mm)*
G04 Created by KiCad (PCBNEW (5.1.10)-1) date 2022-05-21 22:50:28*
%MOMM*%
%LPD*%
G01*
G04 APERTURE LIST*
%ADD10C,0.200000*%
%ADD11C,0.127000*%
%ADD12C,0.120000*%
%ADD13C,0.254000*%
%ADD14C,0.150000*%
G04 APERTURE END LIST*
D10*
%TO.C,U4*%
X166425000Y-117725000D02*
X166425000Y-116075000D01*
X171645000Y-115725000D02*
X166365000Y-115725000D01*
X171645000Y-110875000D02*
X171645000Y-115725000D01*
X166365000Y-110875000D02*
X171645000Y-110875000D01*
X166365000Y-115725000D02*
X166365000Y-110875000D01*
D11*
%TO.C,SW1*%
X152900000Y-111705000D02*
X157400000Y-111705000D01*
X158100000Y-113550000D02*
X158100000Y-115850000D01*
X157400000Y-117695000D02*
X152800000Y-117695000D01*
X152105000Y-113550000D02*
X152105000Y-115850000D01*
X156855000Y-114700000D02*
G75*
G03*
X156855000Y-114700000I-1755000J0D01*
G01*
D10*
X150755000Y-112450000D02*
G75*
G03*
X150755000Y-112450000I-100000J0D01*
G01*
D11*
%TO.C,S4*%
X178755000Y-76405000D02*
X178755000Y-81385000D01*
X171645000Y-81400000D02*
X171645000Y-76405000D01*
X173445000Y-72550000D02*
X173445000Y-76405000D01*
X176955000Y-72550000D02*
X173445000Y-72550000D01*
X176955000Y-76405000D02*
X176955000Y-72550000D01*
X176955000Y-76405000D02*
X178755000Y-76405000D01*
X173445000Y-76405000D02*
X176955000Y-76405000D01*
X171645000Y-76405000D02*
X173445000Y-76405000D01*
X178780000Y-84910000D02*
X171620000Y-84910000D01*
%TO.C,S3*%
X165155000Y-76405000D02*
X165155000Y-81385000D01*
X158045000Y-81400000D02*
X158045000Y-76405000D01*
X159845000Y-72550000D02*
X159845000Y-76405000D01*
X163355000Y-72550000D02*
X159845000Y-72550000D01*
X163355000Y-76405000D02*
X163355000Y-72550000D01*
X163355000Y-76405000D02*
X165155000Y-76405000D01*
X159845000Y-76405000D02*
X163355000Y-76405000D01*
X158045000Y-76405000D02*
X159845000Y-76405000D01*
X165180000Y-84910000D02*
X158020000Y-84910000D01*
%TO.C,S2*%
X152155000Y-76505000D02*
X152155000Y-81485000D01*
X145045000Y-81500000D02*
X145045000Y-76505000D01*
X146845000Y-72650000D02*
X146845000Y-76505000D01*
X150355000Y-72650000D02*
X146845000Y-72650000D01*
X150355000Y-76505000D02*
X150355000Y-72650000D01*
X150355000Y-76505000D02*
X152155000Y-76505000D01*
X146845000Y-76505000D02*
X150355000Y-76505000D01*
X145045000Y-76505000D02*
X146845000Y-76505000D01*
X152180000Y-85010000D02*
X145020000Y-85010000D01*
%TO.C,S1*%
X138455000Y-76405000D02*
X138455000Y-81385000D01*
X131345000Y-81400000D02*
X131345000Y-76405000D01*
X133145000Y-72550000D02*
X133145000Y-76405000D01*
X136655000Y-72550000D02*
X133145000Y-72550000D01*
X136655000Y-76405000D02*
X136655000Y-72550000D01*
X136655000Y-76405000D02*
X138455000Y-76405000D01*
X133145000Y-76405000D02*
X136655000Y-76405000D01*
X131345000Y-76405000D02*
X133145000Y-76405000D01*
X138480000Y-84910000D02*
X131320000Y-84910000D01*
%TO.C,U3*%
X183800000Y-114800000D02*
X186800000Y-114800000D01*
X183800000Y-111800000D02*
X186800000Y-111800000D01*
D10*
X181900000Y-112050000D02*
G75*
G03*
X181900000Y-112050000I-100000J0D01*
G01*
%TO.C,J3*%
X118600000Y-102910000D02*
X117350000Y-102910000D01*
X118600000Y-93330000D02*
X117350000Y-93330000D01*
X113350000Y-102910000D02*
X114630000Y-102910000D01*
X113350000Y-93330000D02*
X113350000Y-102910000D01*
X114630000Y-93330000D02*
X113350000Y-93330000D01*
%TO.C,J6*%
X194470000Y-91850000D02*
X202380000Y-91850000D01*
X188220000Y-91850000D02*
X189880000Y-91850000D01*
X194470000Y-105650000D02*
X202380000Y-105650000D01*
X188220000Y-105650000D02*
X189880000Y-105650000D01*
X202380000Y-105650000D02*
X202380000Y-91850000D01*
X188220000Y-91850000D02*
X188220000Y-105650000D01*
X187800000Y-102350000D02*
G75*
G03*
X187800000Y-102350000I-100000J0D01*
G01*
D12*
%TO.C,R15*%
X187672936Y-110960000D02*
X190727064Y-110960000D01*
X187672936Y-108240000D02*
X190727064Y-108240000D01*
%TO.C,Q1*%
X174880000Y-104340000D02*
X173950000Y-104340000D01*
X171720000Y-104340000D02*
X172650000Y-104340000D01*
X171720000Y-104340000D02*
X171720000Y-106500000D01*
X174880000Y-104340000D02*
X174880000Y-105800000D01*
%TO.C,J5*%
X184370000Y-105530000D02*
X187030000Y-105530000D01*
X184370000Y-105410000D02*
X184370000Y-105530000D01*
X187030000Y-105410000D02*
X187030000Y-105530000D01*
X187030000Y-102870000D02*
X187030000Y-104200000D01*
X185700000Y-102870000D02*
X187030000Y-102870000D01*
%TO.C,U2*%
X152990000Y-94340000D02*
X151650000Y-94340000D01*
X152990000Y-93390000D02*
X152990000Y-94340000D01*
X153940000Y-93390000D02*
X152990000Y-93390000D01*
X163210000Y-93390000D02*
X163210000Y-94340000D01*
X162260000Y-93390000D02*
X163210000Y-93390000D01*
X152990000Y-103610000D02*
X152990000Y-102660000D01*
X153940000Y-103610000D02*
X152990000Y-103610000D01*
X163210000Y-103610000D02*
X163210000Y-102660000D01*
X162260000Y-103610000D02*
X163210000Y-103610000D01*
%TO.C,J4*%
X177200000Y-106260000D02*
X176000000Y-106260000D01*
X183000000Y-89450000D02*
X181260000Y-89450000D01*
X183000000Y-107750000D02*
X183000000Y-89450000D01*
X181260000Y-107750000D02*
X183000000Y-107750000D01*
X177200000Y-89450000D02*
X178540000Y-89450000D01*
X177200000Y-90940000D02*
X177200000Y-89450000D01*
X177200000Y-107750000D02*
X178540000Y-107750000D01*
X177200000Y-106260000D02*
X177200000Y-107750000D01*
%TO.C,R11*%
X126714564Y-100035000D02*
X126260436Y-100035000D01*
X126714564Y-98565000D02*
X126260436Y-98565000D01*
%TO.C,R12*%
X126714564Y-98035000D02*
X126260436Y-98035000D01*
X126714564Y-96565000D02*
X126260436Y-96565000D01*
%TO.C,D3*%
X144140000Y-114977500D02*
X144140000Y-117662500D01*
X146060000Y-114977500D02*
X144140000Y-114977500D01*
X146060000Y-117662500D02*
X146060000Y-114977500D01*
%TO.C,C1*%
X141835000Y-95211252D02*
X141835000Y-94688748D01*
X140365000Y-95211252D02*
X140365000Y-94688748D01*
%TO.C,C2*%
X125035000Y-111188748D02*
X125035000Y-111711252D01*
X123565000Y-111188748D02*
X123565000Y-111711252D01*
%TO.C,C3*%
X150135000Y-112888748D02*
X150135000Y-113411252D01*
X148665000Y-112888748D02*
X148665000Y-113411252D01*
%TO.C,C4*%
X141835000Y-104888748D02*
X141835000Y-105411252D01*
X140365000Y-104888748D02*
X140365000Y-105411252D01*
%TO.C,C5*%
X137235000Y-111711252D02*
X137235000Y-111188748D01*
X135765000Y-111711252D02*
X135765000Y-111188748D01*
%TO.C,C6*%
X165388748Y-92265000D02*
X165911252Y-92265000D01*
X165388748Y-93735000D02*
X165911252Y-93735000D01*
%TO.C,C7*%
X168611252Y-105665000D02*
X168088748Y-105665000D01*
X168611252Y-107135000D02*
X168088748Y-107135000D01*
%TO.C,C8*%
X151165000Y-91511252D02*
X151165000Y-90988748D01*
X152635000Y-91511252D02*
X152635000Y-90988748D01*
%TO.C,C9*%
X154911252Y-107465000D02*
X154388748Y-107465000D01*
X154911252Y-108935000D02*
X154388748Y-108935000D01*
%TO.C,C10*%
X185311252Y-115765000D02*
X184788748Y-115765000D01*
X185311252Y-117235000D02*
X184788748Y-117235000D01*
%TO.C,C11*%
X125765000Y-111188748D02*
X125765000Y-111711252D01*
X127235000Y-111188748D02*
X127235000Y-111711252D01*
%TO.C,C12*%
X135765000Y-117011252D02*
X135765000Y-116488748D01*
X137235000Y-117011252D02*
X137235000Y-116488748D01*
%TO.C,C13*%
X175865000Y-112411252D02*
X175865000Y-111888748D01*
X177335000Y-112411252D02*
X177335000Y-111888748D01*
%TO.C,D1*%
X124562500Y-118460000D02*
X127247500Y-118460000D01*
X127247500Y-118460000D02*
X127247500Y-116540000D01*
X127247500Y-116540000D02*
X124562500Y-116540000D01*
%TO.C,D2*%
X143960000Y-117662500D02*
X143960000Y-114977500D01*
X143960000Y-114977500D02*
X142040000Y-114977500D01*
X142040000Y-114977500D02*
X142040000Y-117662500D01*
%TO.C,J1*%
X188430000Y-81970000D02*
X188430000Y-84630000D01*
X188430000Y-81970000D02*
X180750000Y-81970000D01*
X180750000Y-81970000D02*
X180750000Y-84630000D01*
X188430000Y-84630000D02*
X180750000Y-84630000D01*
X191030000Y-84630000D02*
X189700000Y-84630000D01*
X191030000Y-83300000D02*
X191030000Y-84630000D01*
%TO.C,J2*%
X186370000Y-76670000D02*
X186370000Y-79330000D01*
X186370000Y-76670000D02*
X181230000Y-76670000D01*
X181230000Y-76670000D02*
X181230000Y-79330000D01*
X186370000Y-79330000D02*
X181230000Y-79330000D01*
X188970000Y-79330000D02*
X187640000Y-79330000D01*
X188970000Y-78000000D02*
X188970000Y-79330000D01*
%TO.C,R1*%
X141535000Y-81160436D02*
X141535000Y-81614564D01*
X140065000Y-81160436D02*
X140065000Y-81614564D01*
%TO.C,R2*%
X142065000Y-81185436D02*
X142065000Y-81639564D01*
X143535000Y-81185436D02*
X143535000Y-81639564D01*
%TO.C,R3*%
X168235000Y-81560436D02*
X168235000Y-82014564D01*
X166765000Y-81560436D02*
X166765000Y-82014564D01*
%TO.C,R4*%
X168765000Y-81560436D02*
X168765000Y-82014564D01*
X170235000Y-81560436D02*
X170235000Y-82014564D01*
%TO.C,R5*%
X140365000Y-100339564D02*
X140365000Y-99885436D01*
X141835000Y-100339564D02*
X141835000Y-99885436D01*
%TO.C,R6*%
X161165000Y-116439564D02*
X161165000Y-115985436D01*
X162635000Y-116439564D02*
X162635000Y-115985436D01*
%TO.C,R7*%
X140165000Y-116914564D02*
X140165000Y-116460436D01*
X141635000Y-116914564D02*
X141635000Y-116460436D01*
%TO.C,R8*%
X147935000Y-116827064D02*
X147935000Y-116372936D01*
X146465000Y-116827064D02*
X146465000Y-116372936D01*
%TO.C,R9*%
X125814564Y-113965000D02*
X125360436Y-113965000D01*
X125814564Y-115435000D02*
X125360436Y-115435000D01*
%TO.C,R10*%
X158235000Y-87214564D02*
X158235000Y-86760436D01*
X156765000Y-87214564D02*
X156765000Y-86760436D01*
%TO.C,R13*%
X125565000Y-94085436D02*
X125565000Y-94539564D01*
X127035000Y-94085436D02*
X127035000Y-94539564D01*
%TO.C,R16*%
X181935000Y-117214564D02*
X181935000Y-116760436D01*
X180465000Y-117214564D02*
X180465000Y-116760436D01*
%TO.C,R17*%
X176365000Y-117314564D02*
X176365000Y-116860436D01*
X177835000Y-117314564D02*
X177835000Y-116860436D01*
%TO.C,R18*%
X179260436Y-113735000D02*
X179714564Y-113735000D01*
X179260436Y-112265000D02*
X179714564Y-112265000D01*
%TO.C,R19*%
X179260436Y-110165000D02*
X179714564Y-110165000D01*
X179260436Y-111635000D02*
X179714564Y-111635000D01*
%TO.C,R20*%
X124935000Y-94614564D02*
X124935000Y-94160436D01*
X123465000Y-94614564D02*
X123465000Y-94160436D01*
%TO.C,R21*%
X123465000Y-102714564D02*
X123465000Y-102260436D01*
X124935000Y-102714564D02*
X124935000Y-102260436D01*
%TO.C,R24*%
X164165000Y-115985436D02*
X164165000Y-116439564D01*
X165635000Y-115985436D02*
X165635000Y-116439564D01*
%TO.C,U1*%
X127990000Y-116010000D02*
X129250000Y-116010000D01*
X134810000Y-116010000D02*
X133550000Y-116010000D01*
X127990000Y-112250000D02*
X127990000Y-116010000D01*
X134810000Y-110000000D02*
X134810000Y-116010000D01*
%TO.C,Y1*%
X147450000Y-105950000D02*
X147450000Y-93350000D01*
X147450000Y-93350000D02*
X142350000Y-93350000D01*
X142350000Y-93350000D02*
X142350000Y-105950000D01*
%TO.C,R14*%
X169085436Y-104135000D02*
X169539564Y-104135000D01*
X169085436Y-102665000D02*
X169539564Y-102665000D01*
%TO.C,R22*%
X164460436Y-105665000D02*
X164914564Y-105665000D01*
X164460436Y-107135000D02*
X164914564Y-107135000D01*
%TO.C,R23*%
X173060436Y-101465000D02*
X173514564Y-101465000D01*
X173060436Y-102935000D02*
X173514564Y-102935000D01*
%TO.C,U4*%
D13*
X168309523Y-114267619D02*
X169337619Y-114267619D01*
X169458571Y-114207142D01*
X169519047Y-114146666D01*
X169579523Y-114025714D01*
X169579523Y-113783809D01*
X169519047Y-113662857D01*
X169458571Y-113602380D01*
X169337619Y-113541904D01*
X168309523Y-113541904D01*
X168732857Y-112392857D02*
X169579523Y-112392857D01*
X168249047Y-112695238D02*
X169156190Y-112997619D01*
X169156190Y-112211428D01*
%TO.C,SW1*%
D14*
X151896442Y-111110862D02*
X151986534Y-111140892D01*
X152136687Y-111140892D01*
X152196748Y-111110862D01*
X152226779Y-111080831D01*
X152256810Y-111020770D01*
X152256810Y-110960709D01*
X152226779Y-110900647D01*
X152196748Y-110870617D01*
X152136687Y-110840586D01*
X152016565Y-110810556D01*
X151956503Y-110780525D01*
X151926473Y-110750494D01*
X151896442Y-110690433D01*
X151896442Y-110630372D01*
X151926473Y-110570311D01*
X151956503Y-110540280D01*
X152016565Y-110510249D01*
X152166718Y-110510249D01*
X152256810Y-110540280D01*
X152467024Y-110510249D02*
X152617177Y-111140892D01*
X152737300Y-110690433D01*
X152857422Y-111140892D01*
X153007575Y-110510249D01*
X153578157Y-111140892D02*
X153217789Y-111140892D01*
X153397973Y-111140892D02*
X153397973Y-110510249D01*
X153337912Y-110600341D01*
X153277851Y-110660402D01*
X153217789Y-110690433D01*
%TO.C,S4*%
X174762360Y-86694562D02*
X174905459Y-86742261D01*
X175143957Y-86742261D01*
X175239357Y-86694562D01*
X175287056Y-86646862D01*
X175334756Y-86551463D01*
X175334756Y-86456063D01*
X175287056Y-86360664D01*
X175239357Y-86312964D01*
X175143957Y-86265265D01*
X174953159Y-86217565D01*
X174857759Y-86169865D01*
X174810060Y-86122166D01*
X174762360Y-86026766D01*
X174762360Y-85931367D01*
X174810060Y-85835968D01*
X174857759Y-85788268D01*
X174953159Y-85740568D01*
X175191657Y-85740568D01*
X175334756Y-85788268D01*
X176193350Y-86074466D02*
X176193350Y-86742261D01*
X175954852Y-85692869D02*
X175716353Y-86408364D01*
X176336449Y-86408364D01*
%TO.C,S3*%
X161162360Y-86694562D02*
X161305459Y-86742261D01*
X161543957Y-86742261D01*
X161639357Y-86694562D01*
X161687056Y-86646862D01*
X161734756Y-86551463D01*
X161734756Y-86456063D01*
X161687056Y-86360664D01*
X161639357Y-86312964D01*
X161543957Y-86265265D01*
X161353159Y-86217565D01*
X161257759Y-86169865D01*
X161210060Y-86122166D01*
X161162360Y-86026766D01*
X161162360Y-85931367D01*
X161210060Y-85835968D01*
X161257759Y-85788268D01*
X161353159Y-85740568D01*
X161591657Y-85740568D01*
X161734756Y-85788268D01*
X162068654Y-85740568D02*
X162688749Y-85740568D01*
X162354852Y-86122166D01*
X162497951Y-86122166D01*
X162593350Y-86169865D01*
X162641050Y-86217565D01*
X162688749Y-86312964D01*
X162688749Y-86551463D01*
X162641050Y-86646862D01*
X162593350Y-86694562D01*
X162497951Y-86742261D01*
X162211753Y-86742261D01*
X162116353Y-86694562D01*
X162068654Y-86646862D01*
%TO.C,S2*%
X148162360Y-86794562D02*
X148305459Y-86842261D01*
X148543957Y-86842261D01*
X148639357Y-86794562D01*
X148687056Y-86746862D01*
X148734756Y-86651463D01*
X148734756Y-86556063D01*
X148687056Y-86460664D01*
X148639357Y-86412964D01*
X148543957Y-86365265D01*
X148353159Y-86317565D01*
X148257759Y-86269865D01*
X148210060Y-86222166D01*
X148162360Y-86126766D01*
X148162360Y-86031367D01*
X148210060Y-85935968D01*
X148257759Y-85888268D01*
X148353159Y-85840568D01*
X148591657Y-85840568D01*
X148734756Y-85888268D01*
X149116353Y-85935968D02*
X149164053Y-85888268D01*
X149259452Y-85840568D01*
X149497951Y-85840568D01*
X149593350Y-85888268D01*
X149641050Y-85935968D01*
X149688749Y-86031367D01*
X149688749Y-86126766D01*
X149641050Y-86269865D01*
X149068654Y-86842261D01*
X149688749Y-86842261D01*
%TO.C,S1*%
X134462360Y-86694562D02*
X134605459Y-86742261D01*
X134843957Y-86742261D01*
X134939357Y-86694562D01*
X134987056Y-86646862D01*
X135034756Y-86551463D01*
X135034756Y-86456063D01*
X134987056Y-86360664D01*
X134939357Y-86312964D01*
X134843957Y-86265265D01*
X134653159Y-86217565D01*
X134557759Y-86169865D01*
X134510060Y-86122166D01*
X134462360Y-86026766D01*
X134462360Y-85931367D01*
X134510060Y-85835968D01*
X134557759Y-85788268D01*
X134653159Y-85740568D01*
X134891657Y-85740568D01*
X135034756Y-85788268D01*
X135988749Y-86742261D02*
X135416353Y-86742261D01*
X135702551Y-86742261D02*
X135702551Y-85740568D01*
X135607152Y-85883667D01*
X135511753Y-85979067D01*
X135416353Y-86026766D01*
%TO.C,U3*%
X184230476Y-110353904D02*
X184230476Y-111001523D01*
X184268571Y-111077714D01*
X184306666Y-111115809D01*
X184382857Y-111153904D01*
X184535238Y-111153904D01*
X184611428Y-111115809D01*
X184649523Y-111077714D01*
X184687619Y-111001523D01*
X184687619Y-110353904D01*
X184992380Y-110353904D02*
X185487619Y-110353904D01*
X185220952Y-110658666D01*
X185335238Y-110658666D01*
X185411428Y-110696761D01*
X185449523Y-110734857D01*
X185487619Y-110811047D01*
X185487619Y-111001523D01*
X185449523Y-111077714D01*
X185411428Y-111115809D01*
X185335238Y-111153904D01*
X185106666Y-111153904D01*
X185030476Y-111115809D01*
X184992380Y-111077714D01*
%TO.C,J3*%
X123537380Y-96628333D02*
X124251666Y-96628333D01*
X124394523Y-96675952D01*
X124489761Y-96771190D01*
X124537380Y-96914047D01*
X124537380Y-97009285D01*
X123537380Y-96247380D02*
X123537380Y-95628333D01*
X123918333Y-95961666D01*
X123918333Y-95818809D01*
X123965952Y-95723571D01*
X124013571Y-95675952D01*
X124108809Y-95628333D01*
X124346904Y-95628333D01*
X124442142Y-95675952D01*
X124489761Y-95723571D01*
X124537380Y-95818809D01*
X124537380Y-96104523D01*
X124489761Y-96199761D01*
X124442142Y-96247380D01*
%TO.C,J6*%
X186811904Y-98216666D02*
X187383333Y-98216666D01*
X187497619Y-98254761D01*
X187573809Y-98330952D01*
X187611904Y-98445238D01*
X187611904Y-98521428D01*
X186811904Y-97492857D02*
X186811904Y-97645238D01*
X186850000Y-97721428D01*
X186888095Y-97759523D01*
X187002380Y-97835714D01*
X187154761Y-97873809D01*
X187459523Y-97873809D01*
X187535714Y-97835714D01*
X187573809Y-97797619D01*
X187611904Y-97721428D01*
X187611904Y-97569047D01*
X187573809Y-97492857D01*
X187535714Y-97454761D01*
X187459523Y-97416666D01*
X187269047Y-97416666D01*
X187192857Y-97454761D01*
X187154761Y-97492857D01*
X187116666Y-97569047D01*
X187116666Y-97721428D01*
X187154761Y-97797619D01*
X187192857Y-97835714D01*
X187269047Y-97873809D01*
%TO.C,M3*%
X195690476Y-113912380D02*
X195690476Y-112912380D01*
X196023809Y-113626666D01*
X196357142Y-112912380D01*
X196357142Y-113912380D01*
X196738095Y-112912380D02*
X197357142Y-112912380D01*
X197023809Y-113293333D01*
X197166666Y-113293333D01*
X197261904Y-113340952D01*
X197309523Y-113388571D01*
X197357142Y-113483809D01*
X197357142Y-113721904D01*
X197309523Y-113817142D01*
X197261904Y-113864761D01*
X197166666Y-113912380D01*
X196880952Y-113912380D01*
X196785714Y-113864761D01*
X196738095Y-113817142D01*
%TO.C,M4*%
X117890476Y-114112380D02*
X117890476Y-113112380D01*
X118223809Y-113826666D01*
X118557142Y-113112380D01*
X118557142Y-114112380D01*
X119461904Y-113445714D02*
X119461904Y-114112380D01*
X119223809Y-113064761D02*
X118985714Y-113779047D01*
X119604761Y-113779047D01*
%TO.C,M2*%
X195490476Y-77212380D02*
X195490476Y-76212380D01*
X195823809Y-76926666D01*
X196157142Y-76212380D01*
X196157142Y-77212380D01*
X196585714Y-76307619D02*
X196633333Y-76260000D01*
X196728571Y-76212380D01*
X196966666Y-76212380D01*
X197061904Y-76260000D01*
X197109523Y-76307619D01*
X197157142Y-76402857D01*
X197157142Y-76498095D01*
X197109523Y-76640952D01*
X196538095Y-77212380D01*
X197157142Y-77212380D01*
%TO.C,M1*%
X117990476Y-77212380D02*
X117990476Y-76212380D01*
X118323809Y-76926666D01*
X118657142Y-76212380D01*
X118657142Y-77212380D01*
X119657142Y-77212380D02*
X119085714Y-77212380D01*
X119371428Y-77212380D02*
X119371428Y-76212380D01*
X119276190Y-76355238D01*
X119180952Y-76450476D01*
X119085714Y-76498095D01*
%TO.C,R15*%
X188557142Y-107772380D02*
X188223809Y-107296190D01*
X187985714Y-107772380D02*
X187985714Y-106772380D01*
X188366666Y-106772380D01*
X188461904Y-106820000D01*
X188509523Y-106867619D01*
X188557142Y-106962857D01*
X188557142Y-107105714D01*
X188509523Y-107200952D01*
X188461904Y-107248571D01*
X188366666Y-107296190D01*
X187985714Y-107296190D01*
X189509523Y-107772380D02*
X188938095Y-107772380D01*
X189223809Y-107772380D02*
X189223809Y-106772380D01*
X189128571Y-106915238D01*
X189033333Y-107010476D01*
X188938095Y-107058095D01*
X190414285Y-106772380D02*
X189938095Y-106772380D01*
X189890476Y-107248571D01*
X189938095Y-107200952D01*
X190033333Y-107153333D01*
X190271428Y-107153333D01*
X190366666Y-107200952D01*
X190414285Y-107248571D01*
X190461904Y-107343809D01*
X190461904Y-107581904D01*
X190414285Y-107677142D01*
X190366666Y-107724761D01*
X190271428Y-107772380D01*
X190033333Y-107772380D01*
X189938095Y-107724761D01*
X189890476Y-107677142D01*
%TO.C,Q1*%
X171347619Y-105195238D02*
X171300000Y-105290476D01*
X171204761Y-105385714D01*
X171061904Y-105528571D01*
X171014285Y-105623809D01*
X171014285Y-105719047D01*
X171252380Y-105671428D02*
X171204761Y-105766666D01*
X171109523Y-105861904D01*
X170919047Y-105909523D01*
X170585714Y-105909523D01*
X170395238Y-105861904D01*
X170300000Y-105766666D01*
X170252380Y-105671428D01*
X170252380Y-105480952D01*
X170300000Y-105385714D01*
X170395238Y-105290476D01*
X170585714Y-105242857D01*
X170919047Y-105242857D01*
X171109523Y-105290476D01*
X171204761Y-105385714D01*
X171252380Y-105480952D01*
X171252380Y-105671428D01*
X171252380Y-104290476D02*
X171252380Y-104861904D01*
X171252380Y-104576190D02*
X170252380Y-104576190D01*
X170395238Y-104671428D01*
X170490476Y-104766666D01*
X170538095Y-104861904D01*
%TO.C,J5*%
X185216666Y-101502380D02*
X185216666Y-102216666D01*
X185169047Y-102359523D01*
X185073809Y-102454761D01*
X184930952Y-102502380D01*
X184835714Y-102502380D01*
X186169047Y-101502380D02*
X185692857Y-101502380D01*
X185645238Y-101978571D01*
X185692857Y-101930952D01*
X185788095Y-101883333D01*
X186026190Y-101883333D01*
X186121428Y-101930952D01*
X186169047Y-101978571D01*
X186216666Y-102073809D01*
X186216666Y-102311904D01*
X186169047Y-102407142D01*
X186121428Y-102454761D01*
X186026190Y-102502380D01*
X185788095Y-102502380D01*
X185692857Y-102454761D01*
X185645238Y-102407142D01*
%TO.C,U2*%
X158138095Y-97452380D02*
X158138095Y-98261904D01*
X158185714Y-98357142D01*
X158233333Y-98404761D01*
X158328571Y-98452380D01*
X158519047Y-98452380D01*
X158614285Y-98404761D01*
X158661904Y-98357142D01*
X158709523Y-98261904D01*
X158709523Y-97452380D01*
X159138095Y-97547619D02*
X159185714Y-97500000D01*
X159280952Y-97452380D01*
X159519047Y-97452380D01*
X159614285Y-97500000D01*
X159661904Y-97547619D01*
X159709523Y-97642857D01*
X159709523Y-97738095D01*
X159661904Y-97880952D01*
X159090476Y-98452380D01*
X159709523Y-98452380D01*
%TO.C,J4*%
X179766666Y-97852380D02*
X179766666Y-98566666D01*
X179719047Y-98709523D01*
X179623809Y-98804761D01*
X179480952Y-98852380D01*
X179385714Y-98852380D01*
X180671428Y-98185714D02*
X180671428Y-98852380D01*
X180433333Y-97804761D02*
X180195238Y-98519047D01*
X180814285Y-98519047D01*
%TO.C,R11*%
X128707142Y-101602380D02*
X128373809Y-101126190D01*
X128135714Y-101602380D02*
X128135714Y-100602380D01*
X128516666Y-100602380D01*
X128611904Y-100650000D01*
X128659523Y-100697619D01*
X128707142Y-100792857D01*
X128707142Y-100935714D01*
X128659523Y-101030952D01*
X128611904Y-101078571D01*
X128516666Y-101126190D01*
X128135714Y-101126190D01*
X129659523Y-101602380D02*
X129088095Y-101602380D01*
X129373809Y-101602380D02*
X129373809Y-100602380D01*
X129278571Y-100745238D01*
X129183333Y-100840476D01*
X129088095Y-100888095D01*
X130611904Y-101602380D02*
X130040476Y-101602380D01*
X130326190Y-101602380D02*
X130326190Y-100602380D01*
X130230952Y-100745238D01*
X130135714Y-100840476D01*
X130040476Y-100888095D01*
%TO.C,R12*%
X128907142Y-96602380D02*
X128573809Y-96126190D01*
X128335714Y-96602380D02*
X128335714Y-95602380D01*
X128716666Y-95602380D01*
X128811904Y-95650000D01*
X128859523Y-95697619D01*
X128907142Y-95792857D01*
X128907142Y-95935714D01*
X128859523Y-96030952D01*
X128811904Y-96078571D01*
X128716666Y-96126190D01*
X128335714Y-96126190D01*
X129859523Y-96602380D02*
X129288095Y-96602380D01*
X129573809Y-96602380D02*
X129573809Y-95602380D01*
X129478571Y-95745238D01*
X129383333Y-95840476D01*
X129288095Y-95888095D01*
X130240476Y-95697619D02*
X130288095Y-95650000D01*
X130383333Y-95602380D01*
X130621428Y-95602380D01*
X130716666Y-95650000D01*
X130764285Y-95697619D01*
X130811904Y-95792857D01*
X130811904Y-95888095D01*
X130764285Y-96030952D01*
X130192857Y-96602380D01*
X130811904Y-96602380D01*
%TO.C,D3*%
X144261904Y-114552380D02*
X144261904Y-113552380D01*
X144500000Y-113552380D01*
X144642857Y-113600000D01*
X144738095Y-113695238D01*
X144785714Y-113790476D01*
X144833333Y-113980952D01*
X144833333Y-114123809D01*
X144785714Y-114314285D01*
X144738095Y-114409523D01*
X144642857Y-114504761D01*
X144500000Y-114552380D01*
X144261904Y-114552380D01*
X145166666Y-113552380D02*
X145785714Y-113552380D01*
X145452380Y-113933333D01*
X145595238Y-113933333D01*
X145690476Y-113980952D01*
X145738095Y-114028571D01*
X145785714Y-114123809D01*
X145785714Y-114361904D01*
X145738095Y-114457142D01*
X145690476Y-114504761D01*
X145595238Y-114552380D01*
X145309523Y-114552380D01*
X145214285Y-114504761D01*
X145166666Y-114457142D01*
%TO.C,C1*%
X138633333Y-95357142D02*
X138585714Y-95404761D01*
X138442857Y-95452380D01*
X138347619Y-95452380D01*
X138204761Y-95404761D01*
X138109523Y-95309523D01*
X138061904Y-95214285D01*
X138014285Y-95023809D01*
X138014285Y-94880952D01*
X138061904Y-94690476D01*
X138109523Y-94595238D01*
X138204761Y-94500000D01*
X138347619Y-94452380D01*
X138442857Y-94452380D01*
X138585714Y-94500000D01*
X138633333Y-94547619D01*
X139585714Y-95452380D02*
X139014285Y-95452380D01*
X139300000Y-95452380D02*
X139300000Y-94452380D01*
X139204761Y-94595238D01*
X139109523Y-94690476D01*
X139014285Y-94738095D01*
%TO.C,C2*%
X122433333Y-111557142D02*
X122385714Y-111604761D01*
X122242857Y-111652380D01*
X122147619Y-111652380D01*
X122004761Y-111604761D01*
X121909523Y-111509523D01*
X121861904Y-111414285D01*
X121814285Y-111223809D01*
X121814285Y-111080952D01*
X121861904Y-110890476D01*
X121909523Y-110795238D01*
X122004761Y-110700000D01*
X122147619Y-110652380D01*
X122242857Y-110652380D01*
X122385714Y-110700000D01*
X122433333Y-110747619D01*
X122814285Y-110747619D02*
X122861904Y-110700000D01*
X122957142Y-110652380D01*
X123195238Y-110652380D01*
X123290476Y-110700000D01*
X123338095Y-110747619D01*
X123385714Y-110842857D01*
X123385714Y-110938095D01*
X123338095Y-111080952D01*
X122766666Y-111652380D01*
X123385714Y-111652380D01*
%TO.C,C3*%
X149233333Y-110657142D02*
X149185714Y-110704761D01*
X149042857Y-110752380D01*
X148947619Y-110752380D01*
X148804761Y-110704761D01*
X148709523Y-110609523D01*
X148661904Y-110514285D01*
X148614285Y-110323809D01*
X148614285Y-110180952D01*
X148661904Y-109990476D01*
X148709523Y-109895238D01*
X148804761Y-109800000D01*
X148947619Y-109752380D01*
X149042857Y-109752380D01*
X149185714Y-109800000D01*
X149233333Y-109847619D01*
X149566666Y-109752380D02*
X150185714Y-109752380D01*
X149852380Y-110133333D01*
X149995238Y-110133333D01*
X150090476Y-110180952D01*
X150138095Y-110228571D01*
X150185714Y-110323809D01*
X150185714Y-110561904D01*
X150138095Y-110657142D01*
X150090476Y-110704761D01*
X149995238Y-110752380D01*
X149709523Y-110752380D01*
X149614285Y-110704761D01*
X149566666Y-110657142D01*
%TO.C,C4*%
X138533333Y-105257142D02*
X138485714Y-105304761D01*
X138342857Y-105352380D01*
X138247619Y-105352380D01*
X138104761Y-105304761D01*
X138009523Y-105209523D01*
X137961904Y-105114285D01*
X137914285Y-104923809D01*
X137914285Y-104780952D01*
X137961904Y-104590476D01*
X138009523Y-104495238D01*
X138104761Y-104400000D01*
X138247619Y-104352380D01*
X138342857Y-104352380D01*
X138485714Y-104400000D01*
X138533333Y-104447619D01*
X139390476Y-104685714D02*
X139390476Y-105352380D01*
X139152380Y-104304761D02*
X138914285Y-105019047D01*
X139533333Y-105019047D01*
%TO.C,C5*%
X136133333Y-108857142D02*
X136085714Y-108904761D01*
X135942857Y-108952380D01*
X135847619Y-108952380D01*
X135704761Y-108904761D01*
X135609523Y-108809523D01*
X135561904Y-108714285D01*
X135514285Y-108523809D01*
X135514285Y-108380952D01*
X135561904Y-108190476D01*
X135609523Y-108095238D01*
X135704761Y-108000000D01*
X135847619Y-107952380D01*
X135942857Y-107952380D01*
X136085714Y-108000000D01*
X136133333Y-108047619D01*
X137038095Y-107952380D02*
X136561904Y-107952380D01*
X136514285Y-108428571D01*
X136561904Y-108380952D01*
X136657142Y-108333333D01*
X136895238Y-108333333D01*
X136990476Y-108380952D01*
X137038095Y-108428571D01*
X137085714Y-108523809D01*
X137085714Y-108761904D01*
X137038095Y-108857142D01*
X136990476Y-108904761D01*
X136895238Y-108952380D01*
X136657142Y-108952380D01*
X136561904Y-108904761D01*
X136514285Y-108857142D01*
%TO.C,C6*%
X167542857Y-92933333D02*
X167495238Y-92885714D01*
X167447619Y-92742857D01*
X167447619Y-92647619D01*
X167495238Y-92504761D01*
X167590476Y-92409523D01*
X167685714Y-92361904D01*
X167876190Y-92314285D01*
X168019047Y-92314285D01*
X168209523Y-92361904D01*
X168304761Y-92409523D01*
X168400000Y-92504761D01*
X168447619Y-92647619D01*
X168447619Y-92742857D01*
X168400000Y-92885714D01*
X168352380Y-92933333D01*
X168447619Y-93790476D02*
X168447619Y-93600000D01*
X168400000Y-93504761D01*
X168352380Y-93457142D01*
X168209523Y-93361904D01*
X168019047Y-93314285D01*
X167638095Y-93314285D01*
X167542857Y-93361904D01*
X167495238Y-93409523D01*
X167447619Y-93504761D01*
X167447619Y-93695238D01*
X167495238Y-93790476D01*
X167542857Y-93838095D01*
X167638095Y-93885714D01*
X167876190Y-93885714D01*
X167971428Y-93838095D01*
X168019047Y-93790476D01*
X168066666Y-93695238D01*
X168066666Y-93504761D01*
X168019047Y-93409523D01*
X167971428Y-93361904D01*
X167876190Y-93314285D01*
%TO.C,C7*%
X166557142Y-106666666D02*
X166604761Y-106714285D01*
X166652380Y-106857142D01*
X166652380Y-106952380D01*
X166604761Y-107095238D01*
X166509523Y-107190476D01*
X166414285Y-107238095D01*
X166223809Y-107285714D01*
X166080952Y-107285714D01*
X165890476Y-107238095D01*
X165795238Y-107190476D01*
X165700000Y-107095238D01*
X165652380Y-106952380D01*
X165652380Y-106857142D01*
X165700000Y-106714285D01*
X165747619Y-106666666D01*
X165652380Y-106333333D02*
X165652380Y-105666666D01*
X166652380Y-106095238D01*
%TO.C,C8*%
X151633333Y-89457142D02*
X151585714Y-89504761D01*
X151442857Y-89552380D01*
X151347619Y-89552380D01*
X151204761Y-89504761D01*
X151109523Y-89409523D01*
X151061904Y-89314285D01*
X151014285Y-89123809D01*
X151014285Y-88980952D01*
X151061904Y-88790476D01*
X151109523Y-88695238D01*
X151204761Y-88600000D01*
X151347619Y-88552380D01*
X151442857Y-88552380D01*
X151585714Y-88600000D01*
X151633333Y-88647619D01*
X152204761Y-88980952D02*
X152109523Y-88933333D01*
X152061904Y-88885714D01*
X152014285Y-88790476D01*
X152014285Y-88742857D01*
X152061904Y-88647619D01*
X152109523Y-88600000D01*
X152204761Y-88552380D01*
X152395238Y-88552380D01*
X152490476Y-88600000D01*
X152538095Y-88647619D01*
X152585714Y-88742857D01*
X152585714Y-88790476D01*
X152538095Y-88885714D01*
X152490476Y-88933333D01*
X152395238Y-88980952D01*
X152204761Y-88980952D01*
X152109523Y-89028571D01*
X152061904Y-89076190D01*
X152014285Y-89171428D01*
X152014285Y-89361904D01*
X152061904Y-89457142D01*
X152109523Y-89504761D01*
X152204761Y-89552380D01*
X152395238Y-89552380D01*
X152490476Y-89504761D01*
X152538095Y-89457142D01*
X152585714Y-89361904D01*
X152585714Y-89171428D01*
X152538095Y-89076190D01*
X152490476Y-89028571D01*
X152395238Y-88980952D01*
%TO.C,C9*%
X152857142Y-108466666D02*
X152904761Y-108514285D01*
X152952380Y-108657142D01*
X152952380Y-108752380D01*
X152904761Y-108895238D01*
X152809523Y-108990476D01*
X152714285Y-109038095D01*
X152523809Y-109085714D01*
X152380952Y-109085714D01*
X152190476Y-109038095D01*
X152095238Y-108990476D01*
X152000000Y-108895238D01*
X151952380Y-108752380D01*
X151952380Y-108657142D01*
X152000000Y-108514285D01*
X152047619Y-108466666D01*
X152952380Y-107990476D02*
X152952380Y-107800000D01*
X152904761Y-107704761D01*
X152857142Y-107657142D01*
X152714285Y-107561904D01*
X152523809Y-107514285D01*
X152142857Y-107514285D01*
X152047619Y-107561904D01*
X152000000Y-107609523D01*
X151952380Y-107704761D01*
X151952380Y-107895238D01*
X152000000Y-107990476D01*
X152047619Y-108038095D01*
X152142857Y-108085714D01*
X152380952Y-108085714D01*
X152476190Y-108038095D01*
X152523809Y-107990476D01*
X152571428Y-107895238D01*
X152571428Y-107704761D01*
X152523809Y-107609523D01*
X152476190Y-107561904D01*
X152380952Y-107514285D01*
%TO.C,C10*%
X187857142Y-116957142D02*
X187809523Y-117004761D01*
X187666666Y-117052380D01*
X187571428Y-117052380D01*
X187428571Y-117004761D01*
X187333333Y-116909523D01*
X187285714Y-116814285D01*
X187238095Y-116623809D01*
X187238095Y-116480952D01*
X187285714Y-116290476D01*
X187333333Y-116195238D01*
X187428571Y-116100000D01*
X187571428Y-116052380D01*
X187666666Y-116052380D01*
X187809523Y-116100000D01*
X187857142Y-116147619D01*
X188809523Y-117052380D02*
X188238095Y-117052380D01*
X188523809Y-117052380D02*
X188523809Y-116052380D01*
X188428571Y-116195238D01*
X188333333Y-116290476D01*
X188238095Y-116338095D01*
X189428571Y-116052380D02*
X189523809Y-116052380D01*
X189619047Y-116100000D01*
X189666666Y-116147619D01*
X189714285Y-116242857D01*
X189761904Y-116433333D01*
X189761904Y-116671428D01*
X189714285Y-116861904D01*
X189666666Y-116957142D01*
X189619047Y-117004761D01*
X189523809Y-117052380D01*
X189428571Y-117052380D01*
X189333333Y-117004761D01*
X189285714Y-116957142D01*
X189238095Y-116861904D01*
X189190476Y-116671428D01*
X189190476Y-116433333D01*
X189238095Y-116242857D01*
X189285714Y-116147619D01*
X189333333Y-116100000D01*
X189428571Y-116052380D01*
%TO.C,C11*%
X126057142Y-108957142D02*
X126009523Y-109004761D01*
X125866666Y-109052380D01*
X125771428Y-109052380D01*
X125628571Y-109004761D01*
X125533333Y-108909523D01*
X125485714Y-108814285D01*
X125438095Y-108623809D01*
X125438095Y-108480952D01*
X125485714Y-108290476D01*
X125533333Y-108195238D01*
X125628571Y-108100000D01*
X125771428Y-108052380D01*
X125866666Y-108052380D01*
X126009523Y-108100000D01*
X126057142Y-108147619D01*
X127009523Y-109052380D02*
X126438095Y-109052380D01*
X126723809Y-109052380D02*
X126723809Y-108052380D01*
X126628571Y-108195238D01*
X126533333Y-108290476D01*
X126438095Y-108338095D01*
X127961904Y-109052380D02*
X127390476Y-109052380D01*
X127676190Y-109052380D02*
X127676190Y-108052380D01*
X127580952Y-108195238D01*
X127485714Y-108290476D01*
X127390476Y-108338095D01*
%TO.C,C12*%
X135857142Y-114157142D02*
X135809523Y-114204761D01*
X135666666Y-114252380D01*
X135571428Y-114252380D01*
X135428571Y-114204761D01*
X135333333Y-114109523D01*
X135285714Y-114014285D01*
X135238095Y-113823809D01*
X135238095Y-113680952D01*
X135285714Y-113490476D01*
X135333333Y-113395238D01*
X135428571Y-113300000D01*
X135571428Y-113252380D01*
X135666666Y-113252380D01*
X135809523Y-113300000D01*
X135857142Y-113347619D01*
X136809523Y-114252380D02*
X136238095Y-114252380D01*
X136523809Y-114252380D02*
X136523809Y-113252380D01*
X136428571Y-113395238D01*
X136333333Y-113490476D01*
X136238095Y-113538095D01*
X137190476Y-113347619D02*
X137238095Y-113300000D01*
X137333333Y-113252380D01*
X137571428Y-113252380D01*
X137666666Y-113300000D01*
X137714285Y-113347619D01*
X137761904Y-113442857D01*
X137761904Y-113538095D01*
X137714285Y-113680952D01*
X137142857Y-114252380D01*
X137761904Y-114252380D01*
%TO.C,C13*%
X175457142Y-109857142D02*
X175409523Y-109904761D01*
X175266666Y-109952380D01*
X175171428Y-109952380D01*
X175028571Y-109904761D01*
X174933333Y-109809523D01*
X174885714Y-109714285D01*
X174838095Y-109523809D01*
X174838095Y-109380952D01*
X174885714Y-109190476D01*
X174933333Y-109095238D01*
X175028571Y-109000000D01*
X175171428Y-108952380D01*
X175266666Y-108952380D01*
X175409523Y-109000000D01*
X175457142Y-109047619D01*
X176409523Y-109952380D02*
X175838095Y-109952380D01*
X176123809Y-109952380D02*
X176123809Y-108952380D01*
X176028571Y-109095238D01*
X175933333Y-109190476D01*
X175838095Y-109238095D01*
X176742857Y-108952380D02*
X177361904Y-108952380D01*
X177028571Y-109333333D01*
X177171428Y-109333333D01*
X177266666Y-109380952D01*
X177314285Y-109428571D01*
X177361904Y-109523809D01*
X177361904Y-109761904D01*
X177314285Y-109857142D01*
X177266666Y-109904761D01*
X177171428Y-109952380D01*
X176885714Y-109952380D01*
X176790476Y-109904761D01*
X176742857Y-109857142D01*
%TO.C,D1*%
X122261904Y-117952380D02*
X122261904Y-116952380D01*
X122500000Y-116952380D01*
X122642857Y-117000000D01*
X122738095Y-117095238D01*
X122785714Y-117190476D01*
X122833333Y-117380952D01*
X122833333Y-117523809D01*
X122785714Y-117714285D01*
X122738095Y-117809523D01*
X122642857Y-117904761D01*
X122500000Y-117952380D01*
X122261904Y-117952380D01*
X123785714Y-117952380D02*
X123214285Y-117952380D01*
X123500000Y-117952380D02*
X123500000Y-116952380D01*
X123404761Y-117095238D01*
X123309523Y-117190476D01*
X123214285Y-117238095D01*
%TO.C,D2*%
X142261904Y-114552380D02*
X142261904Y-113552380D01*
X142500000Y-113552380D01*
X142642857Y-113600000D01*
X142738095Y-113695238D01*
X142785714Y-113790476D01*
X142833333Y-113980952D01*
X142833333Y-114123809D01*
X142785714Y-114314285D01*
X142738095Y-114409523D01*
X142642857Y-114504761D01*
X142500000Y-114552380D01*
X142261904Y-114552380D01*
X143214285Y-113647619D02*
X143261904Y-113600000D01*
X143357142Y-113552380D01*
X143595238Y-113552380D01*
X143690476Y-113600000D01*
X143738095Y-113647619D01*
X143785714Y-113742857D01*
X143785714Y-113838095D01*
X143738095Y-113980952D01*
X143166666Y-114552380D01*
X143785714Y-114552380D01*
%TO.C,J1*%
X192066666Y-82652380D02*
X192066666Y-83366666D01*
X192019047Y-83509523D01*
X191923809Y-83604761D01*
X191780952Y-83652380D01*
X191685714Y-83652380D01*
X193066666Y-83652380D02*
X192495238Y-83652380D01*
X192780952Y-83652380D02*
X192780952Y-82652380D01*
X192685714Y-82795238D01*
X192590476Y-82890476D01*
X192495238Y-82938095D01*
%TO.C,J2*%
X189916666Y-77502380D02*
X189916666Y-78216666D01*
X189869047Y-78359523D01*
X189773809Y-78454761D01*
X189630952Y-78502380D01*
X189535714Y-78502380D01*
X190345238Y-77597619D02*
X190392857Y-77550000D01*
X190488095Y-77502380D01*
X190726190Y-77502380D01*
X190821428Y-77550000D01*
X190869047Y-77597619D01*
X190916666Y-77692857D01*
X190916666Y-77788095D01*
X190869047Y-77930952D01*
X190297619Y-78502380D01*
X190916666Y-78502380D01*
%TO.C,R1*%
X140433333Y-79152380D02*
X140100000Y-78676190D01*
X139861904Y-79152380D02*
X139861904Y-78152380D01*
X140242857Y-78152380D01*
X140338095Y-78200000D01*
X140385714Y-78247619D01*
X140433333Y-78342857D01*
X140433333Y-78485714D01*
X140385714Y-78580952D01*
X140338095Y-78628571D01*
X140242857Y-78676190D01*
X139861904Y-78676190D01*
X141385714Y-79152380D02*
X140814285Y-79152380D01*
X141100000Y-79152380D02*
X141100000Y-78152380D01*
X141004761Y-78295238D01*
X140909523Y-78390476D01*
X140814285Y-78438095D01*
%TO.C,R2*%
X142733333Y-79152380D02*
X142400000Y-78676190D01*
X142161904Y-79152380D02*
X142161904Y-78152380D01*
X142542857Y-78152380D01*
X142638095Y-78200000D01*
X142685714Y-78247619D01*
X142733333Y-78342857D01*
X142733333Y-78485714D01*
X142685714Y-78580952D01*
X142638095Y-78628571D01*
X142542857Y-78676190D01*
X142161904Y-78676190D01*
X143114285Y-78247619D02*
X143161904Y-78200000D01*
X143257142Y-78152380D01*
X143495238Y-78152380D01*
X143590476Y-78200000D01*
X143638095Y-78247619D01*
X143685714Y-78342857D01*
X143685714Y-78438095D01*
X143638095Y-78580952D01*
X143066666Y-79152380D01*
X143685714Y-79152380D01*
%TO.C,R3*%
X166433333Y-78252380D02*
X166100000Y-77776190D01*
X165861904Y-78252380D02*
X165861904Y-77252380D01*
X166242857Y-77252380D01*
X166338095Y-77300000D01*
X166385714Y-77347619D01*
X166433333Y-77442857D01*
X166433333Y-77585714D01*
X166385714Y-77680952D01*
X166338095Y-77728571D01*
X166242857Y-77776190D01*
X165861904Y-77776190D01*
X166766666Y-77252380D02*
X167385714Y-77252380D01*
X167052380Y-77633333D01*
X167195238Y-77633333D01*
X167290476Y-77680952D01*
X167338095Y-77728571D01*
X167385714Y-77823809D01*
X167385714Y-78061904D01*
X167338095Y-78157142D01*
X167290476Y-78204761D01*
X167195238Y-78252380D01*
X166909523Y-78252380D01*
X166814285Y-78204761D01*
X166766666Y-78157142D01*
%TO.C,R4*%
X169533333Y-78152380D02*
X169200000Y-77676190D01*
X168961904Y-78152380D02*
X168961904Y-77152380D01*
X169342857Y-77152380D01*
X169438095Y-77200000D01*
X169485714Y-77247619D01*
X169533333Y-77342857D01*
X169533333Y-77485714D01*
X169485714Y-77580952D01*
X169438095Y-77628571D01*
X169342857Y-77676190D01*
X168961904Y-77676190D01*
X170390476Y-77485714D02*
X170390476Y-78152380D01*
X170152380Y-77104761D02*
X169914285Y-77819047D01*
X170533333Y-77819047D01*
%TO.C,R5*%
X138333333Y-100352380D02*
X138000000Y-99876190D01*
X137761904Y-100352380D02*
X137761904Y-99352380D01*
X138142857Y-99352380D01*
X138238095Y-99400000D01*
X138285714Y-99447619D01*
X138333333Y-99542857D01*
X138333333Y-99685714D01*
X138285714Y-99780952D01*
X138238095Y-99828571D01*
X138142857Y-99876190D01*
X137761904Y-99876190D01*
X139238095Y-99352380D02*
X138761904Y-99352380D01*
X138714285Y-99828571D01*
X138761904Y-99780952D01*
X138857142Y-99733333D01*
X139095238Y-99733333D01*
X139190476Y-99780952D01*
X139238095Y-99828571D01*
X139285714Y-99923809D01*
X139285714Y-100161904D01*
X139238095Y-100257142D01*
X139190476Y-100304761D01*
X139095238Y-100352380D01*
X138857142Y-100352380D01*
X138761904Y-100304761D01*
X138714285Y-100257142D01*
%TO.C,R6*%
X161833333Y-119402380D02*
X161500000Y-118926190D01*
X161261904Y-119402380D02*
X161261904Y-118402380D01*
X161642857Y-118402380D01*
X161738095Y-118450000D01*
X161785714Y-118497619D01*
X161833333Y-118592857D01*
X161833333Y-118735714D01*
X161785714Y-118830952D01*
X161738095Y-118878571D01*
X161642857Y-118926190D01*
X161261904Y-118926190D01*
X162690476Y-118402380D02*
X162500000Y-118402380D01*
X162404761Y-118450000D01*
X162357142Y-118497619D01*
X162261904Y-118640476D01*
X162214285Y-118830952D01*
X162214285Y-119211904D01*
X162261904Y-119307142D01*
X162309523Y-119354761D01*
X162404761Y-119402380D01*
X162595238Y-119402380D01*
X162690476Y-119354761D01*
X162738095Y-119307142D01*
X162785714Y-119211904D01*
X162785714Y-118973809D01*
X162738095Y-118878571D01*
X162690476Y-118830952D01*
X162595238Y-118783333D01*
X162404761Y-118783333D01*
X162309523Y-118830952D01*
X162261904Y-118878571D01*
X162214285Y-118973809D01*
%TO.C,R7*%
X138433333Y-117552380D02*
X138100000Y-117076190D01*
X137861904Y-117552380D02*
X137861904Y-116552380D01*
X138242857Y-116552380D01*
X138338095Y-116600000D01*
X138385714Y-116647619D01*
X138433333Y-116742857D01*
X138433333Y-116885714D01*
X138385714Y-116980952D01*
X138338095Y-117028571D01*
X138242857Y-117076190D01*
X137861904Y-117076190D01*
X138766666Y-116552380D02*
X139433333Y-116552380D01*
X139004761Y-117552380D01*
%TO.C,R8*%
X147033333Y-114552380D02*
X146700000Y-114076190D01*
X146461904Y-114552380D02*
X146461904Y-113552380D01*
X146842857Y-113552380D01*
X146938095Y-113600000D01*
X146985714Y-113647619D01*
X147033333Y-113742857D01*
X147033333Y-113885714D01*
X146985714Y-113980952D01*
X146938095Y-114028571D01*
X146842857Y-114076190D01*
X146461904Y-114076190D01*
X147604761Y-113980952D02*
X147509523Y-113933333D01*
X147461904Y-113885714D01*
X147414285Y-113790476D01*
X147414285Y-113742857D01*
X147461904Y-113647619D01*
X147509523Y-113600000D01*
X147604761Y-113552380D01*
X147795238Y-113552380D01*
X147890476Y-113600000D01*
X147938095Y-113647619D01*
X147985714Y-113742857D01*
X147985714Y-113790476D01*
X147938095Y-113885714D01*
X147890476Y-113933333D01*
X147795238Y-113980952D01*
X147604761Y-113980952D01*
X147509523Y-114028571D01*
X147461904Y-114076190D01*
X147414285Y-114171428D01*
X147414285Y-114361904D01*
X147461904Y-114457142D01*
X147509523Y-114504761D01*
X147604761Y-114552380D01*
X147795238Y-114552380D01*
X147890476Y-114504761D01*
X147938095Y-114457142D01*
X147985714Y-114361904D01*
X147985714Y-114171428D01*
X147938095Y-114076190D01*
X147890476Y-114028571D01*
X147795238Y-113980952D01*
%TO.C,R9*%
X122833333Y-115252380D02*
X122500000Y-114776190D01*
X122261904Y-115252380D02*
X122261904Y-114252380D01*
X122642857Y-114252380D01*
X122738095Y-114300000D01*
X122785714Y-114347619D01*
X122833333Y-114442857D01*
X122833333Y-114585714D01*
X122785714Y-114680952D01*
X122738095Y-114728571D01*
X122642857Y-114776190D01*
X122261904Y-114776190D01*
X123309523Y-115252380D02*
X123500000Y-115252380D01*
X123595238Y-115204761D01*
X123642857Y-115157142D01*
X123738095Y-115014285D01*
X123785714Y-114823809D01*
X123785714Y-114442857D01*
X123738095Y-114347619D01*
X123690476Y-114300000D01*
X123595238Y-114252380D01*
X123404761Y-114252380D01*
X123309523Y-114300000D01*
X123261904Y-114347619D01*
X123214285Y-114442857D01*
X123214285Y-114680952D01*
X123261904Y-114776190D01*
X123309523Y-114823809D01*
X123404761Y-114871428D01*
X123595238Y-114871428D01*
X123690476Y-114823809D01*
X123738095Y-114776190D01*
X123785714Y-114680952D01*
%TO.C,R10*%
X159952380Y-87542857D02*
X159476190Y-87876190D01*
X159952380Y-88114285D02*
X158952380Y-88114285D01*
X158952380Y-87733333D01*
X159000000Y-87638095D01*
X159047619Y-87590476D01*
X159142857Y-87542857D01*
X159285714Y-87542857D01*
X159380952Y-87590476D01*
X159428571Y-87638095D01*
X159476190Y-87733333D01*
X159476190Y-88114285D01*
X159952380Y-86590476D02*
X159952380Y-87161904D01*
X159952380Y-86876190D02*
X158952380Y-86876190D01*
X159095238Y-86971428D01*
X159190476Y-87066666D01*
X159238095Y-87161904D01*
X158952380Y-85971428D02*
X158952380Y-85876190D01*
X159000000Y-85780952D01*
X159047619Y-85733333D01*
X159142857Y-85685714D01*
X159333333Y-85638095D01*
X159571428Y-85638095D01*
X159761904Y-85685714D01*
X159857142Y-85733333D01*
X159904761Y-85780952D01*
X159952380Y-85876190D01*
X159952380Y-85971428D01*
X159904761Y-86066666D01*
X159857142Y-86114285D01*
X159761904Y-86161904D01*
X159571428Y-86209523D01*
X159333333Y-86209523D01*
X159142857Y-86161904D01*
X159047619Y-86114285D01*
X159000000Y-86066666D01*
X158952380Y-85971428D01*
%TO.C,R13*%
X125557142Y-92152380D02*
X125223809Y-91676190D01*
X124985714Y-92152380D02*
X124985714Y-91152380D01*
X125366666Y-91152380D01*
X125461904Y-91200000D01*
X125509523Y-91247619D01*
X125557142Y-91342857D01*
X125557142Y-91485714D01*
X125509523Y-91580952D01*
X125461904Y-91628571D01*
X125366666Y-91676190D01*
X124985714Y-91676190D01*
X126509523Y-92152380D02*
X125938095Y-92152380D01*
X126223809Y-92152380D02*
X126223809Y-91152380D01*
X126128571Y-91295238D01*
X126033333Y-91390476D01*
X125938095Y-91438095D01*
X126842857Y-91152380D02*
X127461904Y-91152380D01*
X127128571Y-91533333D01*
X127271428Y-91533333D01*
X127366666Y-91580952D01*
X127414285Y-91628571D01*
X127461904Y-91723809D01*
X127461904Y-91961904D01*
X127414285Y-92057142D01*
X127366666Y-92104761D01*
X127271428Y-92152380D01*
X126985714Y-92152380D01*
X126890476Y-92104761D01*
X126842857Y-92057142D01*
%TO.C,R16*%
X180707142Y-119802380D02*
X180373809Y-119326190D01*
X180135714Y-119802380D02*
X180135714Y-118802380D01*
X180516666Y-118802380D01*
X180611904Y-118850000D01*
X180659523Y-118897619D01*
X180707142Y-118992857D01*
X180707142Y-119135714D01*
X180659523Y-119230952D01*
X180611904Y-119278571D01*
X180516666Y-119326190D01*
X180135714Y-119326190D01*
X181659523Y-119802380D02*
X181088095Y-119802380D01*
X181373809Y-119802380D02*
X181373809Y-118802380D01*
X181278571Y-118945238D01*
X181183333Y-119040476D01*
X181088095Y-119088095D01*
X182516666Y-118802380D02*
X182326190Y-118802380D01*
X182230952Y-118850000D01*
X182183333Y-118897619D01*
X182088095Y-119040476D01*
X182040476Y-119230952D01*
X182040476Y-119611904D01*
X182088095Y-119707142D01*
X182135714Y-119754761D01*
X182230952Y-119802380D01*
X182421428Y-119802380D01*
X182516666Y-119754761D01*
X182564285Y-119707142D01*
X182611904Y-119611904D01*
X182611904Y-119373809D01*
X182564285Y-119278571D01*
X182516666Y-119230952D01*
X182421428Y-119183333D01*
X182230952Y-119183333D01*
X182135714Y-119230952D01*
X182088095Y-119278571D01*
X182040476Y-119373809D01*
%TO.C,R17*%
X176757142Y-119852380D02*
X176423809Y-119376190D01*
X176185714Y-119852380D02*
X176185714Y-118852380D01*
X176566666Y-118852380D01*
X176661904Y-118900000D01*
X176709523Y-118947619D01*
X176757142Y-119042857D01*
X176757142Y-119185714D01*
X176709523Y-119280952D01*
X176661904Y-119328571D01*
X176566666Y-119376190D01*
X176185714Y-119376190D01*
X177709523Y-119852380D02*
X177138095Y-119852380D01*
X177423809Y-119852380D02*
X177423809Y-118852380D01*
X177328571Y-118995238D01*
X177233333Y-119090476D01*
X177138095Y-119138095D01*
X178042857Y-118852380D02*
X178709523Y-118852380D01*
X178280952Y-119852380D01*
%TO.C,R18*%
X178857142Y-114952380D02*
X178523809Y-114476190D01*
X178285714Y-114952380D02*
X178285714Y-113952380D01*
X178666666Y-113952380D01*
X178761904Y-114000000D01*
X178809523Y-114047619D01*
X178857142Y-114142857D01*
X178857142Y-114285714D01*
X178809523Y-114380952D01*
X178761904Y-114428571D01*
X178666666Y-114476190D01*
X178285714Y-114476190D01*
X179809523Y-114952380D02*
X179238095Y-114952380D01*
X179523809Y-114952380D02*
X179523809Y-113952380D01*
X179428571Y-114095238D01*
X179333333Y-114190476D01*
X179238095Y-114238095D01*
X180380952Y-114380952D02*
X180285714Y-114333333D01*
X180238095Y-114285714D01*
X180190476Y-114190476D01*
X180190476Y-114142857D01*
X180238095Y-114047619D01*
X180285714Y-114000000D01*
X180380952Y-113952380D01*
X180571428Y-113952380D01*
X180666666Y-114000000D01*
X180714285Y-114047619D01*
X180761904Y-114142857D01*
X180761904Y-114190476D01*
X180714285Y-114285714D01*
X180666666Y-114333333D01*
X180571428Y-114380952D01*
X180380952Y-114380952D01*
X180285714Y-114428571D01*
X180238095Y-114476190D01*
X180190476Y-114571428D01*
X180190476Y-114761904D01*
X180238095Y-114857142D01*
X180285714Y-114904761D01*
X180380952Y-114952380D01*
X180571428Y-114952380D01*
X180666666Y-114904761D01*
X180714285Y-114857142D01*
X180761904Y-114761904D01*
X180761904Y-114571428D01*
X180714285Y-114476190D01*
X180666666Y-114428571D01*
X180571428Y-114380952D01*
%TO.C,R19*%
X181857142Y-111352380D02*
X181523809Y-110876190D01*
X181285714Y-111352380D02*
X181285714Y-110352380D01*
X181666666Y-110352380D01*
X181761904Y-110400000D01*
X181809523Y-110447619D01*
X181857142Y-110542857D01*
X181857142Y-110685714D01*
X181809523Y-110780952D01*
X181761904Y-110828571D01*
X181666666Y-110876190D01*
X181285714Y-110876190D01*
X182809523Y-111352380D02*
X182238095Y-111352380D01*
X182523809Y-111352380D02*
X182523809Y-110352380D01*
X182428571Y-110495238D01*
X182333333Y-110590476D01*
X182238095Y-110638095D01*
X183285714Y-111352380D02*
X183476190Y-111352380D01*
X183571428Y-111304761D01*
X183619047Y-111257142D01*
X183714285Y-111114285D01*
X183761904Y-110923809D01*
X183761904Y-110542857D01*
X183714285Y-110447619D01*
X183666666Y-110400000D01*
X183571428Y-110352380D01*
X183380952Y-110352380D01*
X183285714Y-110400000D01*
X183238095Y-110447619D01*
X183190476Y-110542857D01*
X183190476Y-110780952D01*
X183238095Y-110876190D01*
X183285714Y-110923809D01*
X183380952Y-110971428D01*
X183571428Y-110971428D01*
X183666666Y-110923809D01*
X183714285Y-110876190D01*
X183761904Y-110780952D01*
%TO.C,R20*%
X122257142Y-92252380D02*
X121923809Y-91776190D01*
X121685714Y-92252380D02*
X121685714Y-91252380D01*
X122066666Y-91252380D01*
X122161904Y-91300000D01*
X122209523Y-91347619D01*
X122257142Y-91442857D01*
X122257142Y-91585714D01*
X122209523Y-91680952D01*
X122161904Y-91728571D01*
X122066666Y-91776190D01*
X121685714Y-91776190D01*
X122638095Y-91347619D02*
X122685714Y-91300000D01*
X122780952Y-91252380D01*
X123019047Y-91252380D01*
X123114285Y-91300000D01*
X123161904Y-91347619D01*
X123209523Y-91442857D01*
X123209523Y-91538095D01*
X123161904Y-91680952D01*
X122590476Y-92252380D01*
X123209523Y-92252380D01*
X123828571Y-91252380D02*
X123923809Y-91252380D01*
X124019047Y-91300000D01*
X124066666Y-91347619D01*
X124114285Y-91442857D01*
X124161904Y-91633333D01*
X124161904Y-91871428D01*
X124114285Y-92061904D01*
X124066666Y-92157142D01*
X124019047Y-92204761D01*
X123923809Y-92252380D01*
X123828571Y-92252380D01*
X123733333Y-92204761D01*
X123685714Y-92157142D01*
X123638095Y-92061904D01*
X123590476Y-91871428D01*
X123590476Y-91633333D01*
X123638095Y-91442857D01*
X123685714Y-91347619D01*
X123733333Y-91300000D01*
X123828571Y-91252380D01*
%TO.C,R21*%
X123757142Y-105852380D02*
X123423809Y-105376190D01*
X123185714Y-105852380D02*
X123185714Y-104852380D01*
X123566666Y-104852380D01*
X123661904Y-104900000D01*
X123709523Y-104947619D01*
X123757142Y-105042857D01*
X123757142Y-105185714D01*
X123709523Y-105280952D01*
X123661904Y-105328571D01*
X123566666Y-105376190D01*
X123185714Y-105376190D01*
X124138095Y-104947619D02*
X124185714Y-104900000D01*
X124280952Y-104852380D01*
X124519047Y-104852380D01*
X124614285Y-104900000D01*
X124661904Y-104947619D01*
X124709523Y-105042857D01*
X124709523Y-105138095D01*
X124661904Y-105280952D01*
X124090476Y-105852380D01*
X124709523Y-105852380D01*
X125661904Y-105852380D02*
X125090476Y-105852380D01*
X125376190Y-105852380D02*
X125376190Y-104852380D01*
X125280952Y-104995238D01*
X125185714Y-105090476D01*
X125090476Y-105138095D01*
%TO.C,R24*%
X164507142Y-119452380D02*
X164173809Y-118976190D01*
X163935714Y-119452380D02*
X163935714Y-118452380D01*
X164316666Y-118452380D01*
X164411904Y-118500000D01*
X164459523Y-118547619D01*
X164507142Y-118642857D01*
X164507142Y-118785714D01*
X164459523Y-118880952D01*
X164411904Y-118928571D01*
X164316666Y-118976190D01*
X163935714Y-118976190D01*
X164888095Y-118547619D02*
X164935714Y-118500000D01*
X165030952Y-118452380D01*
X165269047Y-118452380D01*
X165364285Y-118500000D01*
X165411904Y-118547619D01*
X165459523Y-118642857D01*
X165459523Y-118738095D01*
X165411904Y-118880952D01*
X164840476Y-119452380D01*
X165459523Y-119452380D01*
X166316666Y-118785714D02*
X166316666Y-119452380D01*
X166078571Y-118404761D02*
X165840476Y-119119047D01*
X166459523Y-119119047D01*
%TO.C,U1*%
X130338095Y-107952380D02*
X130338095Y-108761904D01*
X130385714Y-108857142D01*
X130433333Y-108904761D01*
X130528571Y-108952380D01*
X130719047Y-108952380D01*
X130814285Y-108904761D01*
X130861904Y-108857142D01*
X130909523Y-108761904D01*
X130909523Y-107952380D01*
X131909523Y-108952380D02*
X131338095Y-108952380D01*
X131623809Y-108952380D02*
X131623809Y-107952380D01*
X131528571Y-108095238D01*
X131433333Y-108190476D01*
X131338095Y-108238095D01*
%TO.C,Y1*%
X144123809Y-107876190D02*
X144123809Y-108352380D01*
X143790476Y-107352380D02*
X144123809Y-107876190D01*
X144457142Y-107352380D01*
X145314285Y-108352380D02*
X144742857Y-108352380D01*
X145028571Y-108352380D02*
X145028571Y-107352380D01*
X144933333Y-107495238D01*
X144838095Y-107590476D01*
X144742857Y-107638095D01*
%TO.C,R14*%
X168669642Y-102202380D02*
X168336309Y-101726190D01*
X168098214Y-102202380D02*
X168098214Y-101202380D01*
X168479166Y-101202380D01*
X168574404Y-101250000D01*
X168622023Y-101297619D01*
X168669642Y-101392857D01*
X168669642Y-101535714D01*
X168622023Y-101630952D01*
X168574404Y-101678571D01*
X168479166Y-101726190D01*
X168098214Y-101726190D01*
X169622023Y-102202380D02*
X169050595Y-102202380D01*
X169336309Y-102202380D02*
X169336309Y-101202380D01*
X169241071Y-101345238D01*
X169145833Y-101440476D01*
X169050595Y-101488095D01*
X170479166Y-101535714D02*
X170479166Y-102202380D01*
X170241071Y-101154761D02*
X170002976Y-101869047D01*
X170622023Y-101869047D01*
%TO.C,R22*%
X164044642Y-105202380D02*
X163711309Y-104726190D01*
X163473214Y-105202380D02*
X163473214Y-104202380D01*
X163854166Y-104202380D01*
X163949404Y-104250000D01*
X163997023Y-104297619D01*
X164044642Y-104392857D01*
X164044642Y-104535714D01*
X163997023Y-104630952D01*
X163949404Y-104678571D01*
X163854166Y-104726190D01*
X163473214Y-104726190D01*
X164425595Y-104297619D02*
X164473214Y-104250000D01*
X164568452Y-104202380D01*
X164806547Y-104202380D01*
X164901785Y-104250000D01*
X164949404Y-104297619D01*
X164997023Y-104392857D01*
X164997023Y-104488095D01*
X164949404Y-104630952D01*
X164377976Y-105202380D01*
X164997023Y-105202380D01*
X165377976Y-104297619D02*
X165425595Y-104250000D01*
X165520833Y-104202380D01*
X165758928Y-104202380D01*
X165854166Y-104250000D01*
X165901785Y-104297619D01*
X165949404Y-104392857D01*
X165949404Y-104488095D01*
X165901785Y-104630952D01*
X165330357Y-105202380D01*
X165949404Y-105202380D01*
%TO.C,R23*%
X172644642Y-101002380D02*
X172311309Y-100526190D01*
X172073214Y-101002380D02*
X172073214Y-100002380D01*
X172454166Y-100002380D01*
X172549404Y-100050000D01*
X172597023Y-100097619D01*
X172644642Y-100192857D01*
X172644642Y-100335714D01*
X172597023Y-100430952D01*
X172549404Y-100478571D01*
X172454166Y-100526190D01*
X172073214Y-100526190D01*
X173025595Y-100097619D02*
X173073214Y-100050000D01*
X173168452Y-100002380D01*
X173406547Y-100002380D01*
X173501785Y-100050000D01*
X173549404Y-100097619D01*
X173597023Y-100192857D01*
X173597023Y-100288095D01*
X173549404Y-100430952D01*
X172977976Y-101002380D01*
X173597023Y-101002380D01*
X173930357Y-100002380D02*
X174549404Y-100002380D01*
X174216071Y-100383333D01*
X174358928Y-100383333D01*
X174454166Y-100430952D01*
X174501785Y-100478571D01*
X174549404Y-100573809D01*
X174549404Y-100811904D01*
X174501785Y-100907142D01*
X174454166Y-100954761D01*
X174358928Y-101002380D01*
X174073214Y-101002380D01*
X173977976Y-100954761D01*
X173930357Y-100907142D01*
%TD*%
M02*
