M48
; DRILL file {KiCad (5.1.10)-1} date 04/11/22 13:23:32
; FORMAT={-:-/ absolute / inch / decimal}
; #@! TF.CreationDate,2022-04-11T13:23:32+08:00
; #@! TF.GenerationSoftware,Kicad,Pcbnew,(5.1.10)-1
; #@! TF.FileFunction,Plated,1,2,PTH
FMAT,2
INCH
T1C0.0157
T2C0.0236
T3C0.0362
T4C0.0390
T5C0.0394
T6C0.0512
T7C0.0890
%
G90
G05
T1
X4.8005Y-3.7717
X4.8031Y-3.9608
X4.845Y-3.9149
X4.8489Y-3.8096
X4.8898Y-3.9409
X4.9528Y-4.2283
X5.0472Y-3.7402
X5.0787Y-4.4606
X5.1547Y-3.9044
X5.1839Y-3.8751
X5.3307Y-4.5472
X5.4843Y-3.1969
X5.6024Y-3.5157
X5.6063Y-4.4291
X5.6299Y-3.9252
X5.6811Y-3.2087
X5.7244Y-3.6102
X5.8543Y-3.7402
X5.8701Y-4.4291
X5.8976Y-3.9449
X5.9961Y-3.5866
X6.0866Y-4.1614
X6.126Y-3.8189
X6.2008Y-4.5984
X6.2165Y-3.9803
X6.2323Y-3.9016
X6.248Y-3.7569
X6.2874Y-3.7589
X6.3031Y-3.3976
X6.3228Y-4.1722
X6.3316Y-4.0412
X6.3317Y-3.4284
X6.3425Y-4.3425
X6.3535Y-3.7922
X6.3543Y-3.5837
X6.3622Y-3.9291
X6.3661Y-4.1693
X6.3827Y-3.7629
X6.3858Y-3.8356
X6.3869Y-3.6122
X6.4409Y-4.1181
X6.4567Y-3.6693
X6.4961Y-4.5394
X6.5118Y-3.7628
X6.5118Y-3.8396
X6.5157Y-3.9252
X6.5291Y-4.0344
X6.5725Y-3.9876
X6.6024Y-3.9173
X6.6449Y-4.3419
X6.6457Y-3.815
X6.6467Y-4.0385
X6.6575Y-4.5945
X6.6732Y-3.5315
X6.6732Y-3.9606
X6.6793Y-4.3178
X6.708Y-4.2908
X6.7323Y-3.2165
X6.7437Y-4.2602
X6.7526Y-3.9534
X6.7744Y-4.0893
X6.7756Y-3.6614
X6.874Y-4.0974
X6.8898Y-4.378
X6.9016Y-3.5866
X6.9055Y-4.001
X6.9069Y-4.1191
X6.9843Y-4.5079
X7.0082Y-4.1697
X7.1339Y-4.5787
X7.1496Y-3.6811
X7.3097Y-4.4528
X7.4606Y-4.626
X7.4646Y-3.2323
T3
X7.4563Y-3.752
X7.4563Y-3.8504
X7.4563Y-3.9291
X7.4563Y-4.0276
T4
X5.2224Y-3.185
X5.3996Y-3.185
X5.7618Y-3.189
X5.939Y-3.189
X6.2756Y-3.185
X6.4528Y-3.185
X6.8091Y-3.185
X6.9862Y-3.185
T5
X7.1717Y-3.1693
X7.1764Y-3.3228
X7.2717Y-3.1693
X7.2764Y-3.3228
X7.3717Y-3.1693
X7.3764Y-3.3228
X7.4764Y-3.3228
T6
X5.173Y-3.2831
X5.449Y-3.2831
X5.7124Y-3.287
X5.9884Y-3.287
X6.2262Y-3.2831
X6.5022Y-3.2831
X6.7596Y-3.2831
X7.0356Y-3.2831
T7
X7.563Y-3.6311
X7.563Y-4.1484
T2
G00X4.5799Y-3.6933
M15
G01X4.5484Y-3.6933
M16
G05
G00X4.5799Y-4.0335
M15
G01X4.5484Y-4.0335
M16
G05
G00X4.7504Y-3.6933
M15
G01X4.7071Y-3.6933
M16
G05
G00X4.7504Y-4.0335
M15
G01X4.7071Y-4.0335
M16
G05
T0
M30
