%TF.GenerationSoftware,KiCad,Pcbnew,(5.1.10)-1*%
%TF.CreationDate,2022-04-11T13:22:51+08:00*%
%TF.ProjectId,stm32f103,73746d33-3266-4313-9033-2e6b69636164,rev?*%
%TF.SameCoordinates,Original*%
%TF.FileFunction,Copper,L2,Bot*%
%TF.FilePolarity,Positive*%
%FSLAX46Y46*%
G04 Gerber Fmt 4.6, Leading zero omitted, Abs format (unit mm)*
G04 Created by KiCad (PCBNEW (5.1.10)-1) date 2022-04-11 13:22:51*
%MOMM*%
%LPD*%
G01*
G04 APERTURE LIST*
%TA.AperFunction,ComponentPad*%
%ADD10R,1.428000X1.428000*%
%TD*%
%TA.AperFunction,ComponentPad*%
%ADD11C,1.428000*%
%TD*%
%TA.AperFunction,ComponentPad*%
%ADD12C,3.276000*%
%TD*%
%TA.AperFunction,ComponentPad*%
%ADD13O,2.000000X1.000000*%
%TD*%
%TA.AperFunction,ComponentPad*%
%ADD14O,2.100000X1.050000*%
%TD*%
%TA.AperFunction,ComponentPad*%
%ADD15O,1.700000X1.700000*%
%TD*%
%TA.AperFunction,ComponentPad*%
%ADD16R,1.700000X1.700000*%
%TD*%
%TA.AperFunction,ComponentPad*%
%ADD17C,1.498000*%
%TD*%
%TA.AperFunction,ComponentPad*%
%ADD18C,1.950000*%
%TD*%
%TA.AperFunction,ViaPad*%
%ADD19C,0.800000*%
%TD*%
%TA.AperFunction,Conductor*%
%ADD20C,0.500000*%
%TD*%
%TA.AperFunction,Conductor*%
%ADD21C,0.250000*%
%TD*%
%TA.AperFunction,Conductor*%
%ADD22C,0.200000*%
%TD*%
%TA.AperFunction,Conductor*%
%ADD23C,0.254000*%
%TD*%
%TA.AperFunction,Conductor*%
%ADD24C,0.100000*%
%TD*%
G04 APERTURE END LIST*
D10*
%TO.P,J3,1*%
%TO.N,/VOUT*%
X189390000Y-102300000D03*
D11*
%TO.P,J3,2*%
%TO.N,Net-(J3-Pad2)*%
X189390000Y-99800000D03*
%TO.P,J3,3*%
%TO.N,Net-(J3-Pad3)*%
X189390000Y-97800000D03*
%TO.P,J3,4*%
%TO.N,GND*%
X189390000Y-95300000D03*
D12*
%TO.P,J3,S1*%
X192100000Y-105370000D03*
%TO.P,J3,S2*%
X192100000Y-92230000D03*
%TD*%
D13*
%TO.P,J9,S2*%
%TO.N,GND*%
X115930000Y-93810000D03*
%TO.P,J9,S3*%
X115930000Y-102450000D03*
D14*
%TO.P,J9,S1*%
X120110000Y-93810000D03*
%TO.P,J9,S4*%
X120110000Y-102450000D03*
%TD*%
D15*
%TO.P,J1,4*%
%TO.N,GND*%
X182280000Y-84400000D03*
%TO.P,J1,3*%
%TO.N,/SW_CLK*%
X184820000Y-84400000D03*
%TO.P,J1,2*%
%TO.N,/SW_DIO*%
X187360000Y-84400000D03*
D16*
%TO.P,J1,1*%
%TO.N,+3V3*%
X189900000Y-84400000D03*
%TD*%
D15*
%TO.P,J2,3*%
%TO.N,/USART1_RX*%
X182160000Y-80500000D03*
%TO.P,J2,2*%
%TO.N,GND*%
X184700000Y-80500000D03*
D16*
%TO.P,J2,1*%
%TO.N,/USART1_TX*%
X187240000Y-80500000D03*
%TD*%
D17*
%TO.P,S1,1*%
%TO.N,GND*%
X137150000Y-80900000D03*
%TO.P,S1,2*%
%TO.N,Net-(R1-Pad1)*%
X132650000Y-80900000D03*
D18*
%TO.P,S1,S1*%
%TO.N,GND*%
X138405000Y-83390000D03*
%TO.P,S1,S2*%
X131395000Y-83390000D03*
%TD*%
D17*
%TO.P,S2,1*%
%TO.N,GND*%
X150850000Y-81000000D03*
%TO.P,S2,2*%
%TO.N,Net-(R2-Pad1)*%
X146350000Y-81000000D03*
D18*
%TO.P,S2,S1*%
%TO.N,GND*%
X152105000Y-83490000D03*
%TO.P,S2,S2*%
X145095000Y-83490000D03*
%TD*%
D17*
%TO.P,S3,1*%
%TO.N,GND*%
X163900000Y-80900000D03*
%TO.P,S3,2*%
%TO.N,Net-(R3-Pad1)*%
X159400000Y-80900000D03*
D18*
%TO.P,S3,S1*%
%TO.N,GND*%
X165155000Y-83390000D03*
%TO.P,S3,S2*%
X158145000Y-83390000D03*
%TD*%
%TO.P,S4,S2*%
%TO.N,GND*%
X171695000Y-83390000D03*
%TO.P,S4,S1*%
X178705000Y-83390000D03*
D17*
%TO.P,S4,2*%
%TO.N,Net-(R4-Pad1)*%
X172950000Y-80900000D03*
%TO.P,S4,1*%
%TO.N,GND*%
X177450000Y-80900000D03*
%TD*%
D19*
%TO.N,GND*%
X135400000Y-115500000D03*
X165000000Y-115300000D03*
X178009098Y-105911120D03*
X175300000Y-91100000D03*
X175000000Y-111200000D03*
X185665765Y-113101584D03*
X189500000Y-117500000D03*
X160822133Y-102647439D03*
X157500000Y-116800000D03*
X154600000Y-105700000D03*
X125800000Y-107400000D03*
X149800000Y-100200000D03*
X172100000Y-93000000D03*
X164000000Y-93200000D03*
X155600000Y-97000000D03*
X158300000Y-99100000D03*
X148700000Y-95000000D03*
X168800000Y-96900000D03*
X143000000Y-99700000D03*
X163600000Y-104600000D03*
X161600000Y-99800000D03*
X169500000Y-100600000D03*
X161100000Y-110300000D03*
X169100000Y-116700000D03*
X181600000Y-93500000D03*
X189600000Y-82100000D03*
X129000000Y-113300000D03*
X165500000Y-99700000D03*
X175435166Y-104625000D03*
X152300000Y-91100000D03*
X145400000Y-91700000D03*
X139300000Y-81200000D03*
X144300000Y-81500000D03*
X124200000Y-100100000D03*
X157900000Y-101100000D03*
X171000000Y-81700000D03*
%TO.N,+5V*%
X122000000Y-100605000D03*
X121932369Y-95800000D03*
%TO.N,/RST*%
X142400000Y-112500000D03*
X149100000Y-112500000D03*
%TO.N,+3V3*%
X128200000Y-95000000D03*
X142300000Y-89300000D03*
%TO.N,/SW_CLK*%
X162227502Y-91750044D03*
%TO.N,/SW_DIO*%
X165400000Y-95575000D03*
%TO.N,/USART1_TX*%
X165400000Y-97525000D03*
%TO.N,/USART1_RX*%
X162200000Y-97425000D03*
%TO.N,/LCD_RESET*%
X172069142Y-103869142D03*
X174600000Y-104075000D03*
%TO.N,/LCD_RD*%
X171515373Y-100415373D03*
X175400000Y-101625000D03*
%TO.N,/SPI2_NSS*%
X165838351Y-102475000D03*
X168781644Y-110284742D03*
%TO.N,/SPI2_SCLK*%
X168825010Y-102577126D03*
X171291124Y-108208876D03*
%TO.N,/SPI2_MISO*%
X166940432Y-101283963D03*
X169654780Y-109672470D03*
%TO.N,/SPI2_MOSI*%
X167700001Y-99500000D03*
X170382527Y-108986608D03*
%TO.N,/USB_D-*%
X161378759Y-96321241D03*
X130928768Y-99171232D03*
%TO.N,/USB_D+*%
X162121223Y-95578777D03*
X131671232Y-98428768D03*
%TO.N,/INA226_SCL*%
X181200000Y-116300000D03*
X160600000Y-105974990D03*
%TO.N,/INA226_SDA*%
X177400000Y-114500000D03*
X161700000Y-105899982D03*
%TO.N,/KEY3*%
X160100000Y-86300000D03*
X158700000Y-95425010D03*
%TO.N,/KEY4*%
X160825000Y-87080870D03*
X159698726Y-95475723D03*
%TO.N,/USBDP1*%
X123062653Y-99437347D03*
X123162653Y-96762653D03*
%TO.N,/BL_PWM*%
X161400000Y-91025044D03*
X169500000Y-89700000D03*
%TD*%
D20*
%TO.N,+5V*%
X122000000Y-95867631D02*
X121932369Y-95800000D01*
X122000000Y-100605000D02*
X122000000Y-95867631D01*
D21*
%TO.N,/RST*%
X142400000Y-112500000D02*
X149100000Y-112500000D01*
%TO.N,+3V3*%
X130600000Y-95000000D02*
X128200000Y-95000000D01*
X136300000Y-89300000D02*
X130600000Y-95000000D01*
X142300000Y-89300000D02*
X136300000Y-89300000D01*
%TO.N,/SW_CLK*%
X184820000Y-84400000D02*
X184820000Y-86303590D01*
X184820000Y-86303590D02*
X177261795Y-93861795D01*
X175150044Y-91750044D02*
X162227502Y-91750044D01*
X177261795Y-93861795D02*
X175150044Y-91750044D01*
%TO.N,/SW_DIO*%
X165799999Y-95175001D02*
X165400000Y-95575000D01*
X176584999Y-95175001D02*
X165799999Y-95175001D01*
X187360000Y-84400000D02*
X176584999Y-95175001D01*
%TO.N,/USART1_TX*%
X165625001Y-97750001D02*
X165400000Y-97525000D01*
X175749001Y-97750001D02*
X165625001Y-97750001D01*
X188535001Y-84964001D02*
X175749001Y-97750001D01*
X188535001Y-81795001D02*
X188535001Y-84964001D01*
X187240000Y-80500000D02*
X188535001Y-81795001D01*
%TO.N,/USART1_RX*%
X188350001Y-79324999D02*
X183335001Y-79324999D01*
X183335001Y-79324999D02*
X182160000Y-80500000D01*
X191075001Y-85510001D02*
X191075001Y-82049999D01*
X191075001Y-82049999D02*
X188350001Y-79324999D01*
X178335001Y-98250001D02*
X191075001Y-85510001D01*
X163025001Y-98250001D02*
X178335001Y-98250001D01*
X162200000Y-97425000D02*
X163025001Y-98250001D01*
%TO.N,/LCD_RESET*%
X174394142Y-103869142D02*
X174600000Y-104075000D01*
X172069142Y-103869142D02*
X174394142Y-103869142D01*
%TO.N,/LCD_RD*%
X172725000Y-101625000D02*
X175400000Y-101625000D01*
X171515373Y-100415373D02*
X172725000Y-101625000D01*
%TO.N,/SPI2_NSS*%
X165838351Y-107341449D02*
X168781644Y-110284742D01*
X165838351Y-102475000D02*
X165838351Y-107341449D01*
%TO.N,/SPI2_SCLK*%
X168825010Y-105725010D02*
X168825010Y-102577126D01*
X171291124Y-108191124D02*
X168825010Y-105725010D01*
X171291124Y-108208876D02*
X171291124Y-108191124D01*
%TO.N,/SPI2_MISO*%
X166940432Y-101283963D02*
X166940432Y-106958122D01*
X166940432Y-106958122D02*
X169654780Y-109672470D01*
%TO.N,/SPI2_MOSI*%
X167700001Y-106304082D02*
X170382527Y-108986608D01*
X167700001Y-99500000D02*
X167700001Y-106304082D01*
D22*
%TO.N,/USB_D-*%
X161378759Y-96321241D02*
X161086295Y-96028777D01*
X161086295Y-96028777D02*
X160789423Y-96028777D01*
X160789423Y-96028777D02*
X158793200Y-98025000D01*
X158793200Y-98025000D02*
X156293200Y-98025000D01*
X156293200Y-98025000D02*
X154725000Y-99593200D01*
X154725000Y-99593200D02*
X154725000Y-102493200D01*
X154725000Y-102493200D02*
X148493200Y-108725000D01*
X148493200Y-108725000D02*
X138506800Y-108725000D01*
X138506800Y-108725000D02*
X132575000Y-102793200D01*
X131353033Y-99171232D02*
X130928768Y-99171232D01*
X132575000Y-100393199D02*
X131353033Y-99171232D01*
X132575000Y-102793200D02*
X132575000Y-100393199D01*
%TO.N,/USB_D+*%
X160603023Y-95578777D02*
X158606800Y-97575000D01*
X162121223Y-95578777D02*
X160603023Y-95578777D01*
X158606800Y-97575000D02*
X156106800Y-97575000D01*
X156106800Y-97575000D02*
X154275000Y-99406800D01*
X154275000Y-99406800D02*
X154275000Y-102306800D01*
X154275000Y-102306800D02*
X148306800Y-108275000D01*
X148306800Y-108275000D02*
X138693200Y-108275000D01*
X138693200Y-108275000D02*
X133025000Y-102606800D01*
X131671232Y-98853033D02*
X131671232Y-98428768D01*
X133025000Y-100206801D02*
X131671232Y-98853033D01*
X133025000Y-102606800D02*
X133025000Y-100206801D01*
D21*
%TO.N,/INA226_SCL*%
X181200000Y-116300000D02*
X170925010Y-116300000D01*
X170925010Y-116300000D02*
X160600000Y-105974990D01*
%TO.N,/INA226_SDA*%
X177400000Y-114500000D02*
X170300018Y-114500000D01*
X170300018Y-114500000D02*
X161700000Y-105899982D01*
%TO.N,/KEY3*%
X160100000Y-94025010D02*
X158700000Y-95425010D01*
X160100000Y-86300000D02*
X160100000Y-94025010D01*
%TO.N,/KEY4*%
X160825000Y-87080870D02*
X160674999Y-87230871D01*
X160674999Y-94499450D02*
X159698726Y-95475723D01*
X160674999Y-87230871D02*
X160674999Y-94499450D01*
%TO.N,/USBDP1*%
X123062653Y-96862653D02*
X123162653Y-96762653D01*
X123062653Y-99437347D02*
X123062653Y-96862653D01*
%TO.N,/BL_PWM*%
X168174956Y-91025044D02*
X169500000Y-89700000D01*
X161400000Y-91025044D02*
X168174956Y-91025044D01*
%TD*%
D23*
%TO.N,GND*%
X198664054Y-75935001D02*
X198945022Y-75962550D01*
X199180714Y-76033710D01*
X199398089Y-76149290D01*
X199588879Y-76304894D01*
X199745808Y-76494589D01*
X199862909Y-76711162D01*
X199935710Y-76946343D01*
X199965000Y-77225025D01*
X199965001Y-118164042D01*
X199937451Y-118445020D01*
X199866291Y-118680711D01*
X199750711Y-118898087D01*
X199595104Y-119088878D01*
X199405408Y-119245810D01*
X199188843Y-119362905D01*
X198953656Y-119435708D01*
X198674963Y-119465000D01*
X116735959Y-119465000D01*
X116454981Y-119437450D01*
X116219290Y-119366290D01*
X116001914Y-119250710D01*
X115811123Y-119095103D01*
X115654191Y-118905407D01*
X115537096Y-118688842D01*
X115464293Y-118453655D01*
X115435002Y-118174971D01*
X115435002Y-112398061D01*
X141365000Y-112398061D01*
X141365000Y-112601939D01*
X141404774Y-112801898D01*
X141482795Y-112990256D01*
X141596063Y-113159774D01*
X141740226Y-113303937D01*
X141909744Y-113417205D01*
X142098102Y-113495226D01*
X142298061Y-113535000D01*
X142501939Y-113535000D01*
X142701898Y-113495226D01*
X142890256Y-113417205D01*
X143059774Y-113303937D01*
X143103711Y-113260000D01*
X148396289Y-113260000D01*
X148440226Y-113303937D01*
X148609744Y-113417205D01*
X148798102Y-113495226D01*
X148998061Y-113535000D01*
X149201939Y-113535000D01*
X149401898Y-113495226D01*
X149590256Y-113417205D01*
X149759774Y-113303937D01*
X149903937Y-113159774D01*
X150017205Y-112990256D01*
X150095226Y-112801898D01*
X150135000Y-112601939D01*
X150135000Y-112398061D01*
X150095226Y-112198102D01*
X150017205Y-112009744D01*
X149903937Y-111840226D01*
X149759774Y-111696063D01*
X149590256Y-111582795D01*
X149401898Y-111504774D01*
X149201939Y-111465000D01*
X148998061Y-111465000D01*
X148798102Y-111504774D01*
X148609744Y-111582795D01*
X148440226Y-111696063D01*
X148396289Y-111740000D01*
X143103711Y-111740000D01*
X143059774Y-111696063D01*
X142890256Y-111582795D01*
X142701898Y-111504774D01*
X142501939Y-111465000D01*
X142298061Y-111465000D01*
X142098102Y-111504774D01*
X141909744Y-111582795D01*
X141740226Y-111696063D01*
X141596063Y-111840226D01*
X141482795Y-112009744D01*
X141404774Y-112198102D01*
X141365000Y-112398061D01*
X115435002Y-112398061D01*
X115435002Y-103585000D01*
X115803000Y-103585000D01*
X115803000Y-102577000D01*
X116057000Y-102577000D01*
X116057000Y-103585000D01*
X116557000Y-103585000D01*
X116775987Y-103538415D01*
X116981678Y-103450003D01*
X117166169Y-103323161D01*
X117322369Y-103162764D01*
X117444276Y-102974976D01*
X117522710Y-102755810D01*
X118466036Y-102755810D01*
X118549937Y-102988864D01*
X118674953Y-103180441D01*
X118834941Y-103343947D01*
X119023754Y-103473099D01*
X119234135Y-103562934D01*
X119458000Y-103610000D01*
X119983000Y-103610000D01*
X119983000Y-102577000D01*
X120237000Y-102577000D01*
X120237000Y-103610000D01*
X120762000Y-103610000D01*
X120985865Y-103562934D01*
X121196246Y-103473099D01*
X121385059Y-103343947D01*
X121545047Y-103180441D01*
X121670063Y-102988864D01*
X121753964Y-102755810D01*
X121628163Y-102577000D01*
X120237000Y-102577000D01*
X119983000Y-102577000D01*
X118591837Y-102577000D01*
X118466036Y-102755810D01*
X117522710Y-102755810D01*
X117524119Y-102751874D01*
X117397954Y-102577000D01*
X116057000Y-102577000D01*
X115803000Y-102577000D01*
X115783000Y-102577000D01*
X115783000Y-102323000D01*
X115803000Y-102323000D01*
X115803000Y-101315000D01*
X116057000Y-101315000D01*
X116057000Y-102323000D01*
X117397954Y-102323000D01*
X117524119Y-102148126D01*
X117522711Y-102144190D01*
X118466036Y-102144190D01*
X118591837Y-102323000D01*
X119983000Y-102323000D01*
X119983000Y-102303000D01*
X120237000Y-102303000D01*
X120237000Y-102323000D01*
X121628163Y-102323000D01*
X121753964Y-102144190D01*
X121670063Y-101911136D01*
X121545047Y-101719559D01*
X121385059Y-101556053D01*
X121196246Y-101426901D01*
X120985865Y-101337066D01*
X120762000Y-101290000D01*
X120535101Y-101290000D01*
X120570000Y-101114552D01*
X120570000Y-100925448D01*
X120533108Y-100739978D01*
X120460741Y-100565269D01*
X120355681Y-100408036D01*
X120221964Y-100274319D01*
X120064731Y-100169259D01*
X119890022Y-100096892D01*
X119704552Y-100060000D01*
X119515448Y-100060000D01*
X119329978Y-100096892D01*
X119155269Y-100169259D01*
X118998036Y-100274319D01*
X118864319Y-100408036D01*
X118759259Y-100565269D01*
X118686892Y-100739978D01*
X118650000Y-100925448D01*
X118650000Y-101114552D01*
X118686892Y-101300022D01*
X118759259Y-101474731D01*
X118822258Y-101569015D01*
X118674953Y-101719559D01*
X118549937Y-101911136D01*
X118466036Y-102144190D01*
X117522711Y-102144190D01*
X117444276Y-101925024D01*
X117322369Y-101737236D01*
X117166169Y-101576839D01*
X116981678Y-101449997D01*
X116775987Y-101361585D01*
X116557000Y-101315000D01*
X116057000Y-101315000D01*
X115803000Y-101315000D01*
X115435002Y-101315000D01*
X115435002Y-94945000D01*
X115803000Y-94945000D01*
X115803000Y-93937000D01*
X116057000Y-93937000D01*
X116057000Y-94945000D01*
X116557000Y-94945000D01*
X116775987Y-94898415D01*
X116981678Y-94810003D01*
X117166169Y-94683161D01*
X117322369Y-94522764D01*
X117444276Y-94334976D01*
X117522710Y-94115810D01*
X118466036Y-94115810D01*
X118549937Y-94348864D01*
X118674953Y-94540441D01*
X118822258Y-94690985D01*
X118759259Y-94785269D01*
X118686892Y-94959978D01*
X118650000Y-95145448D01*
X118650000Y-95334552D01*
X118686892Y-95520022D01*
X118759259Y-95694731D01*
X118864319Y-95851964D01*
X118998036Y-95985681D01*
X119155269Y-96090741D01*
X119329978Y-96163108D01*
X119515448Y-96200000D01*
X119704552Y-96200000D01*
X119890022Y-96163108D01*
X120064731Y-96090741D01*
X120221964Y-95985681D01*
X120355681Y-95851964D01*
X120458515Y-95698061D01*
X120897369Y-95698061D01*
X120897369Y-95901939D01*
X120937143Y-96101898D01*
X121015164Y-96290256D01*
X121115001Y-96439673D01*
X121115000Y-100066546D01*
X121082795Y-100114744D01*
X121004774Y-100303102D01*
X120965000Y-100503061D01*
X120965000Y-100706939D01*
X121004774Y-100906898D01*
X121082795Y-101095256D01*
X121196063Y-101264774D01*
X121340226Y-101408937D01*
X121509744Y-101522205D01*
X121698102Y-101600226D01*
X121898061Y-101640000D01*
X122101939Y-101640000D01*
X122301898Y-101600226D01*
X122490256Y-101522205D01*
X122659774Y-101408937D01*
X122803937Y-101264774D01*
X122917205Y-101095256D01*
X122995226Y-100906898D01*
X123035000Y-100706939D01*
X123035000Y-100503061D01*
X123028891Y-100472347D01*
X123164592Y-100472347D01*
X123364551Y-100432573D01*
X123552909Y-100354552D01*
X123722427Y-100241284D01*
X123866590Y-100097121D01*
X123979858Y-99927603D01*
X124057879Y-99739245D01*
X124097653Y-99539286D01*
X124097653Y-99335408D01*
X124057879Y-99135449D01*
X124030477Y-99069293D01*
X129893768Y-99069293D01*
X129893768Y-99273171D01*
X129933542Y-99473130D01*
X130011563Y-99661488D01*
X130124831Y-99831006D01*
X130268994Y-99975169D01*
X130438512Y-100088437D01*
X130626870Y-100166458D01*
X130826829Y-100206232D01*
X131030707Y-100206232D01*
X131230666Y-100166458D01*
X131285924Y-100143569D01*
X131840001Y-100697647D01*
X131840000Y-102757095D01*
X131836444Y-102793200D01*
X131849020Y-102920887D01*
X131850635Y-102937284D01*
X131892663Y-103075832D01*
X131960913Y-103203519D01*
X132052762Y-103315437D01*
X132080808Y-103338454D01*
X137961546Y-109219193D01*
X137984562Y-109247238D01*
X138096480Y-109339087D01*
X138224167Y-109407337D01*
X138320686Y-109436616D01*
X138362714Y-109449365D01*
X138506799Y-109463556D01*
X138542904Y-109460000D01*
X148457095Y-109460000D01*
X148493200Y-109463556D01*
X148529305Y-109460000D01*
X148637285Y-109449365D01*
X148775833Y-109407337D01*
X148903520Y-109339087D01*
X149015438Y-109247238D01*
X149038459Y-109219187D01*
X152384595Y-105873051D01*
X159565000Y-105873051D01*
X159565000Y-106076929D01*
X159604774Y-106276888D01*
X159682795Y-106465246D01*
X159796063Y-106634764D01*
X159940226Y-106778927D01*
X160109744Y-106892195D01*
X160298102Y-106970216D01*
X160498061Y-107009990D01*
X160560199Y-107009990D01*
X170361211Y-116811003D01*
X170385009Y-116840001D01*
X170500734Y-116934974D01*
X170632763Y-117005546D01*
X170776024Y-117049003D01*
X170887677Y-117060000D01*
X170887686Y-117060000D01*
X170925009Y-117063676D01*
X170962332Y-117060000D01*
X180496289Y-117060000D01*
X180540226Y-117103937D01*
X180709744Y-117217205D01*
X180898102Y-117295226D01*
X181098061Y-117335000D01*
X181301939Y-117335000D01*
X181501898Y-117295226D01*
X181690256Y-117217205D01*
X181859774Y-117103937D01*
X182003937Y-116959774D01*
X182117205Y-116790256D01*
X182195226Y-116601898D01*
X182235000Y-116401939D01*
X182235000Y-116198061D01*
X182195226Y-115998102D01*
X182117205Y-115809744D01*
X182003937Y-115640226D01*
X181859774Y-115496063D01*
X181690256Y-115382795D01*
X181501898Y-115304774D01*
X181301939Y-115265000D01*
X181098061Y-115265000D01*
X180898102Y-115304774D01*
X180709744Y-115382795D01*
X180540226Y-115496063D01*
X180496289Y-115540000D01*
X171239812Y-115540000D01*
X170959812Y-115260000D01*
X176696289Y-115260000D01*
X176740226Y-115303937D01*
X176909744Y-115417205D01*
X177098102Y-115495226D01*
X177298061Y-115535000D01*
X177501939Y-115535000D01*
X177701898Y-115495226D01*
X177890256Y-115417205D01*
X178059774Y-115303937D01*
X178203937Y-115159774D01*
X178317205Y-114990256D01*
X178395226Y-114801898D01*
X178435000Y-114601939D01*
X178435000Y-114398061D01*
X178395226Y-114198102D01*
X178317205Y-114009744D01*
X178203937Y-113840226D01*
X178059774Y-113696063D01*
X177890256Y-113582795D01*
X177701898Y-113504774D01*
X177501939Y-113465000D01*
X177298061Y-113465000D01*
X177098102Y-113504774D01*
X176909744Y-113582795D01*
X176740226Y-113696063D01*
X176696289Y-113740000D01*
X170614820Y-113740000D01*
X162735000Y-105860181D01*
X162735000Y-105798043D01*
X162695226Y-105598084D01*
X162617205Y-105409726D01*
X162503937Y-105240208D01*
X162359774Y-105096045D01*
X162190256Y-104982777D01*
X162001898Y-104904756D01*
X161801939Y-104864982D01*
X161598061Y-104864982D01*
X161398102Y-104904756D01*
X161209744Y-104982777D01*
X161093871Y-105060201D01*
X161090256Y-105057785D01*
X160901898Y-104979764D01*
X160701939Y-104939990D01*
X160498061Y-104939990D01*
X160298102Y-104979764D01*
X160109744Y-105057785D01*
X159940226Y-105171053D01*
X159796063Y-105315216D01*
X159682795Y-105484734D01*
X159604774Y-105673092D01*
X159565000Y-105873051D01*
X152384595Y-105873051D01*
X155219193Y-103038454D01*
X155247238Y-103015438D01*
X155339087Y-102903520D01*
X155407337Y-102775833D01*
X155436691Y-102679065D01*
X155449365Y-102637286D01*
X155463556Y-102493201D01*
X155460000Y-102457096D01*
X155460000Y-99897646D01*
X156597647Y-98760000D01*
X158757095Y-98760000D01*
X158793200Y-98763556D01*
X158829305Y-98760000D01*
X158937285Y-98749365D01*
X159075833Y-98707337D01*
X159203520Y-98639087D01*
X159315438Y-98547238D01*
X159338458Y-98519188D01*
X160727068Y-97130579D01*
X160888503Y-97238446D01*
X161076861Y-97316467D01*
X161165000Y-97333999D01*
X161165000Y-97526939D01*
X161204774Y-97726898D01*
X161282795Y-97915256D01*
X161396063Y-98084774D01*
X161540226Y-98228937D01*
X161709744Y-98342205D01*
X161898102Y-98420226D01*
X162098061Y-98460000D01*
X162160198Y-98460000D01*
X162461202Y-98761003D01*
X162485000Y-98790002D01*
X162513998Y-98813800D01*
X162600725Y-98884975D01*
X162732754Y-98955547D01*
X162876015Y-98999004D01*
X163025001Y-99013678D01*
X163062334Y-99010001D01*
X166782690Y-99010001D01*
X166704775Y-99198102D01*
X166665001Y-99398061D01*
X166665001Y-99601939D01*
X166704775Y-99801898D01*
X166782796Y-99990256D01*
X166896064Y-100159774D01*
X166940001Y-100203711D01*
X166940001Y-100248963D01*
X166838493Y-100248963D01*
X166638534Y-100288737D01*
X166450176Y-100366758D01*
X166280658Y-100480026D01*
X166136495Y-100624189D01*
X166023227Y-100793707D01*
X165945206Y-100982065D01*
X165905432Y-101182024D01*
X165905432Y-101385902D01*
X165916193Y-101440000D01*
X165736412Y-101440000D01*
X165536453Y-101479774D01*
X165348095Y-101557795D01*
X165178577Y-101671063D01*
X165034414Y-101815226D01*
X164921146Y-101984744D01*
X164843125Y-102173102D01*
X164803351Y-102373061D01*
X164803351Y-102576939D01*
X164843125Y-102776898D01*
X164921146Y-102965256D01*
X165034414Y-103134774D01*
X165078351Y-103178711D01*
X165078352Y-107304117D01*
X165074675Y-107341449D01*
X165078352Y-107378782D01*
X165089349Y-107490435D01*
X165091681Y-107498123D01*
X165132805Y-107633695D01*
X165203377Y-107765725D01*
X165215755Y-107780807D01*
X165298351Y-107881450D01*
X165327349Y-107905248D01*
X167746644Y-110324544D01*
X167746644Y-110386681D01*
X167786418Y-110586640D01*
X167864439Y-110774998D01*
X167977707Y-110944516D01*
X168121870Y-111088679D01*
X168291388Y-111201947D01*
X168479746Y-111279968D01*
X168679705Y-111319742D01*
X168883583Y-111319742D01*
X169083542Y-111279968D01*
X169271900Y-111201947D01*
X169441418Y-111088679D01*
X169585581Y-110944516D01*
X169698849Y-110774998D01*
X169726820Y-110707470D01*
X169756719Y-110707470D01*
X169956678Y-110667696D01*
X170145036Y-110589675D01*
X170314554Y-110476407D01*
X170458717Y-110332244D01*
X170571985Y-110162726D01*
X170643545Y-109989965D01*
X170684425Y-109981834D01*
X170872783Y-109903813D01*
X171042301Y-109790545D01*
X171186464Y-109646382D01*
X171299732Y-109476864D01*
X171377753Y-109288506D01*
X171386630Y-109243876D01*
X171393063Y-109243876D01*
X171593022Y-109204102D01*
X171781380Y-109126081D01*
X171950898Y-109012813D01*
X172095061Y-108868650D01*
X172208329Y-108699132D01*
X172286350Y-108510774D01*
X172326124Y-108310815D01*
X172326124Y-108106937D01*
X172286350Y-107906978D01*
X172208329Y-107718620D01*
X172095061Y-107549102D01*
X171950898Y-107404939D01*
X171781380Y-107291671D01*
X171593022Y-107213650D01*
X171393063Y-107173876D01*
X171348678Y-107173876D01*
X171134696Y-106959894D01*
X190689711Y-106959894D01*
X190862322Y-107289583D01*
X191260596Y-107494158D01*
X191691128Y-107617103D01*
X192137372Y-107653692D01*
X192582180Y-107602521D01*
X193008458Y-107465555D01*
X193337678Y-107289583D01*
X193510289Y-106959894D01*
X192100000Y-105549605D01*
X190689711Y-106959894D01*
X171134696Y-106959894D01*
X169585010Y-105410209D01*
X169585010Y-105407372D01*
X189816308Y-105407372D01*
X189867479Y-105852180D01*
X190004445Y-106278458D01*
X190180417Y-106607678D01*
X190510106Y-106780289D01*
X191920395Y-105370000D01*
X192279605Y-105370000D01*
X193689894Y-106780289D01*
X194019583Y-106607678D01*
X194224158Y-106209404D01*
X194347103Y-105778872D01*
X194383692Y-105332628D01*
X194332521Y-104887820D01*
X194195555Y-104461542D01*
X194019583Y-104132322D01*
X193689894Y-103959711D01*
X192279605Y-105370000D01*
X191920395Y-105370000D01*
X190510106Y-103959711D01*
X190180417Y-104132322D01*
X189975842Y-104530596D01*
X189852897Y-104961128D01*
X189816308Y-105407372D01*
X169585010Y-105407372D01*
X169585010Y-103767203D01*
X171034142Y-103767203D01*
X171034142Y-103971081D01*
X171073916Y-104171040D01*
X171151937Y-104359398D01*
X171265205Y-104528916D01*
X171409368Y-104673079D01*
X171578886Y-104786347D01*
X171767244Y-104864368D01*
X171967203Y-104904142D01*
X172171081Y-104904142D01*
X172371040Y-104864368D01*
X172559398Y-104786347D01*
X172728916Y-104673079D01*
X172772853Y-104629142D01*
X173725482Y-104629142D01*
X173796063Y-104734774D01*
X173940226Y-104878937D01*
X174109744Y-104992205D01*
X174298102Y-105070226D01*
X174498061Y-105110000D01*
X174701939Y-105110000D01*
X174901898Y-105070226D01*
X175090256Y-104992205D01*
X175259774Y-104878937D01*
X175403937Y-104734774D01*
X175517205Y-104565256D01*
X175595226Y-104376898D01*
X175635000Y-104176939D01*
X175635000Y-103973061D01*
X175596620Y-103780106D01*
X190689711Y-103780106D01*
X192100000Y-105190395D01*
X193510289Y-103780106D01*
X193337678Y-103450417D01*
X192939404Y-103245842D01*
X192508872Y-103122897D01*
X192062628Y-103086308D01*
X191617820Y-103137479D01*
X191191542Y-103274445D01*
X190862322Y-103450417D01*
X190689711Y-103780106D01*
X175596620Y-103780106D01*
X175595226Y-103773102D01*
X175517205Y-103584744D01*
X175403937Y-103415226D01*
X175259774Y-103271063D01*
X175090256Y-103157795D01*
X174901898Y-103079774D01*
X174701939Y-103040000D01*
X174498061Y-103040000D01*
X174298102Y-103079774D01*
X174227202Y-103109142D01*
X172772853Y-103109142D01*
X172728916Y-103065205D01*
X172559398Y-102951937D01*
X172371040Y-102873916D01*
X172171081Y-102834142D01*
X171967203Y-102834142D01*
X171767244Y-102873916D01*
X171578886Y-102951937D01*
X171409368Y-103065205D01*
X171265205Y-103209368D01*
X171151937Y-103378886D01*
X171073916Y-103567244D01*
X171034142Y-103767203D01*
X169585010Y-103767203D01*
X169585010Y-103280837D01*
X169628947Y-103236900D01*
X169742215Y-103067382D01*
X169820236Y-102879024D01*
X169860010Y-102679065D01*
X169860010Y-102475187D01*
X169820236Y-102275228D01*
X169742215Y-102086870D01*
X169628947Y-101917352D01*
X169484784Y-101773189D01*
X169315266Y-101659921D01*
X169126908Y-101581900D01*
X168926949Y-101542126D01*
X168723071Y-101542126D01*
X168523112Y-101581900D01*
X168460001Y-101608042D01*
X168460001Y-100313434D01*
X170480373Y-100313434D01*
X170480373Y-100517312D01*
X170520147Y-100717271D01*
X170598168Y-100905629D01*
X170711436Y-101075147D01*
X170855599Y-101219310D01*
X171025117Y-101332578D01*
X171213475Y-101410599D01*
X171413434Y-101450373D01*
X171475572Y-101450373D01*
X172161201Y-102136003D01*
X172184999Y-102165001D01*
X172213997Y-102188799D01*
X172300723Y-102259974D01*
X172347317Y-102284879D01*
X172432753Y-102330546D01*
X172576014Y-102374003D01*
X172687667Y-102385000D01*
X172687677Y-102385000D01*
X172725000Y-102388676D01*
X172762323Y-102385000D01*
X174696289Y-102385000D01*
X174740226Y-102428937D01*
X174909744Y-102542205D01*
X175098102Y-102620226D01*
X175298061Y-102660000D01*
X175501939Y-102660000D01*
X175701898Y-102620226D01*
X175890256Y-102542205D01*
X176059774Y-102428937D01*
X176203937Y-102284774D01*
X176317205Y-102115256D01*
X176395226Y-101926898D01*
X176435000Y-101726939D01*
X176435000Y-101586000D01*
X188037928Y-101586000D01*
X188037928Y-103014000D01*
X188050188Y-103138482D01*
X188086498Y-103258180D01*
X188145463Y-103368494D01*
X188224815Y-103465185D01*
X188321506Y-103544537D01*
X188431820Y-103603502D01*
X188551518Y-103639812D01*
X188676000Y-103652072D01*
X190104000Y-103652072D01*
X190228482Y-103639812D01*
X190348180Y-103603502D01*
X190458494Y-103544537D01*
X190555185Y-103465185D01*
X190634537Y-103368494D01*
X190693502Y-103258180D01*
X190729812Y-103138482D01*
X190742072Y-103014000D01*
X190742072Y-101586000D01*
X190729812Y-101461518D01*
X190693502Y-101341820D01*
X190634537Y-101231506D01*
X190555185Y-101134815D01*
X190458494Y-101055463D01*
X190348180Y-100996498D01*
X190228482Y-100960188D01*
X190104000Y-100947928D01*
X190100140Y-100947928D01*
X190249937Y-100847837D01*
X190437837Y-100659937D01*
X190585468Y-100438991D01*
X190687158Y-100193489D01*
X190739000Y-99932865D01*
X190739000Y-99667135D01*
X190687158Y-99406511D01*
X190585468Y-99161009D01*
X190437837Y-98940063D01*
X190297774Y-98800000D01*
X190437837Y-98659937D01*
X190585468Y-98438991D01*
X190687158Y-98193489D01*
X190739000Y-97932865D01*
X190739000Y-97667135D01*
X190687158Y-97406511D01*
X190585468Y-97161009D01*
X190437837Y-96940063D01*
X190249937Y-96752163D01*
X190028991Y-96604532D01*
X189898519Y-96550489D01*
X189976258Y-96522193D01*
X190080509Y-96466470D01*
X190141668Y-96231273D01*
X189390000Y-95479605D01*
X188638332Y-96231273D01*
X188699491Y-96466470D01*
X188880526Y-96550884D01*
X188751009Y-96604532D01*
X188530063Y-96752163D01*
X188342163Y-96940063D01*
X188194532Y-97161009D01*
X188092842Y-97406511D01*
X188041000Y-97667135D01*
X188041000Y-97932865D01*
X188092842Y-98193489D01*
X188194532Y-98438991D01*
X188342163Y-98659937D01*
X188482226Y-98800000D01*
X188342163Y-98940063D01*
X188194532Y-99161009D01*
X188092842Y-99406511D01*
X188041000Y-99667135D01*
X188041000Y-99932865D01*
X188092842Y-100193489D01*
X188194532Y-100438991D01*
X188342163Y-100659937D01*
X188530063Y-100847837D01*
X188679860Y-100947928D01*
X188676000Y-100947928D01*
X188551518Y-100960188D01*
X188431820Y-100996498D01*
X188321506Y-101055463D01*
X188224815Y-101134815D01*
X188145463Y-101231506D01*
X188086498Y-101341820D01*
X188050188Y-101461518D01*
X188037928Y-101586000D01*
X176435000Y-101586000D01*
X176435000Y-101523061D01*
X176395226Y-101323102D01*
X176317205Y-101134744D01*
X176203937Y-100965226D01*
X176059774Y-100821063D01*
X175890256Y-100707795D01*
X175701898Y-100629774D01*
X175501939Y-100590000D01*
X175298061Y-100590000D01*
X175098102Y-100629774D01*
X174909744Y-100707795D01*
X174740226Y-100821063D01*
X174696289Y-100865000D01*
X173039802Y-100865000D01*
X172550373Y-100375572D01*
X172550373Y-100313434D01*
X172510599Y-100113475D01*
X172432578Y-99925117D01*
X172319310Y-99755599D01*
X172175147Y-99611436D01*
X172005629Y-99498168D01*
X171817271Y-99420147D01*
X171617312Y-99380373D01*
X171413434Y-99380373D01*
X171213475Y-99420147D01*
X171025117Y-99498168D01*
X170855599Y-99611436D01*
X170711436Y-99755599D01*
X170598168Y-99925117D01*
X170520147Y-100113475D01*
X170480373Y-100313434D01*
X168460001Y-100313434D01*
X168460001Y-100203711D01*
X168503938Y-100159774D01*
X168617206Y-99990256D01*
X168695227Y-99801898D01*
X168735001Y-99601939D01*
X168735001Y-99398061D01*
X168695227Y-99198102D01*
X168617312Y-99010001D01*
X178297679Y-99010001D01*
X178335001Y-99013677D01*
X178372323Y-99010001D01*
X178372334Y-99010001D01*
X178483987Y-98999004D01*
X178627248Y-98955547D01*
X178759277Y-98884975D01*
X178875002Y-98790002D01*
X178898805Y-98760998D01*
X182285884Y-95373919D01*
X188036489Y-95373919D01*
X188076918Y-95636555D01*
X188167807Y-95886258D01*
X188223530Y-95990509D01*
X188458727Y-96051668D01*
X189210395Y-95300000D01*
X189569605Y-95300000D01*
X190321273Y-96051668D01*
X190556470Y-95990509D01*
X190668768Y-95749674D01*
X190731924Y-95491559D01*
X190743511Y-95226081D01*
X190703082Y-94963445D01*
X190612193Y-94713742D01*
X190556470Y-94609491D01*
X190321273Y-94548332D01*
X189569605Y-95300000D01*
X189210395Y-95300000D01*
X188458727Y-94548332D01*
X188223530Y-94609491D01*
X188111232Y-94850326D01*
X188048076Y-95108441D01*
X188036489Y-95373919D01*
X182285884Y-95373919D01*
X183291076Y-94368727D01*
X188638332Y-94368727D01*
X189390000Y-95120395D01*
X190141668Y-94368727D01*
X190080509Y-94133530D01*
X189839674Y-94021232D01*
X189581559Y-93958076D01*
X189316081Y-93946489D01*
X189053445Y-93986918D01*
X188803742Y-94077807D01*
X188699491Y-94133530D01*
X188638332Y-94368727D01*
X183291076Y-94368727D01*
X183839909Y-93819894D01*
X190689711Y-93819894D01*
X190862322Y-94149583D01*
X191260596Y-94354158D01*
X191691128Y-94477103D01*
X192137372Y-94513692D01*
X192582180Y-94462521D01*
X193008458Y-94325555D01*
X193337678Y-94149583D01*
X193510289Y-93819894D01*
X192100000Y-92409605D01*
X190689711Y-93819894D01*
X183839909Y-93819894D01*
X185392431Y-92267372D01*
X189816308Y-92267372D01*
X189867479Y-92712180D01*
X190004445Y-93138458D01*
X190180417Y-93467678D01*
X190510106Y-93640289D01*
X191920395Y-92230000D01*
X192279605Y-92230000D01*
X193689894Y-93640289D01*
X194019583Y-93467678D01*
X194224158Y-93069404D01*
X194347103Y-92638872D01*
X194383692Y-92192628D01*
X194332521Y-91747820D01*
X194195555Y-91321542D01*
X194019583Y-90992322D01*
X193689894Y-90819711D01*
X192279605Y-92230000D01*
X191920395Y-92230000D01*
X190510106Y-90819711D01*
X190180417Y-90992322D01*
X189975842Y-91390596D01*
X189852897Y-91821128D01*
X189816308Y-92267372D01*
X185392431Y-92267372D01*
X187019697Y-90640106D01*
X190689711Y-90640106D01*
X192100000Y-92050395D01*
X193510289Y-90640106D01*
X193337678Y-90310417D01*
X192939404Y-90105842D01*
X192508872Y-89982897D01*
X192062628Y-89946308D01*
X191617820Y-89997479D01*
X191191542Y-90134445D01*
X190862322Y-90310417D01*
X190689711Y-90640106D01*
X187019697Y-90640106D01*
X191586005Y-86073799D01*
X191615002Y-86050002D01*
X191709975Y-85934277D01*
X191780547Y-85802248D01*
X191824004Y-85658987D01*
X191835001Y-85547334D01*
X191835001Y-85547326D01*
X191838677Y-85510001D01*
X191835001Y-85472676D01*
X191835001Y-82087322D01*
X191838677Y-82049999D01*
X191835001Y-82012676D01*
X191835001Y-82012666D01*
X191824004Y-81901013D01*
X191780547Y-81757752D01*
X191752080Y-81704494D01*
X191709975Y-81625722D01*
X191638800Y-81538996D01*
X191615002Y-81509998D01*
X191586004Y-81486200D01*
X188913805Y-78814002D01*
X188890002Y-78784998D01*
X188774277Y-78690025D01*
X188642248Y-78619453D01*
X188498987Y-78575996D01*
X188387334Y-78564999D01*
X188387323Y-78564999D01*
X188350001Y-78561323D01*
X188312679Y-78564999D01*
X183372323Y-78564999D01*
X183335000Y-78561323D01*
X183297677Y-78564999D01*
X183297668Y-78564999D01*
X183186015Y-78575996D01*
X183042754Y-78619453D01*
X182910725Y-78690025D01*
X182795000Y-78784998D01*
X182771202Y-78813996D01*
X182526408Y-79058790D01*
X182306260Y-79015000D01*
X182013740Y-79015000D01*
X181726842Y-79072068D01*
X181456589Y-79184010D01*
X181213368Y-79346525D01*
X181006525Y-79553368D01*
X180844010Y-79796589D01*
X180732068Y-80066842D01*
X180675000Y-80353740D01*
X180675000Y-80646260D01*
X180732068Y-80933158D01*
X180844010Y-81203411D01*
X181006525Y-81446632D01*
X181213368Y-81653475D01*
X181456589Y-81815990D01*
X181726842Y-81927932D01*
X182013740Y-81985000D01*
X182306260Y-81985000D01*
X182593158Y-81927932D01*
X182863411Y-81815990D01*
X183106632Y-81653475D01*
X183313475Y-81446632D01*
X183435195Y-81264466D01*
X183504822Y-81381355D01*
X183699731Y-81597588D01*
X183933080Y-81771641D01*
X184195901Y-81896825D01*
X184343110Y-81941476D01*
X184573000Y-81820155D01*
X184573000Y-80627000D01*
X184553000Y-80627000D01*
X184553000Y-80373000D01*
X184573000Y-80373000D01*
X184573000Y-80353000D01*
X184827000Y-80353000D01*
X184827000Y-80373000D01*
X184847000Y-80373000D01*
X184847000Y-80627000D01*
X184827000Y-80627000D01*
X184827000Y-81820155D01*
X185056890Y-81941476D01*
X185204099Y-81896825D01*
X185466920Y-81771641D01*
X185700269Y-81597588D01*
X185776034Y-81513534D01*
X185800498Y-81594180D01*
X185859463Y-81704494D01*
X185938815Y-81801185D01*
X186035506Y-81880537D01*
X186145820Y-81939502D01*
X186265518Y-81975812D01*
X186390000Y-81988072D01*
X187653270Y-81988072D01*
X187775001Y-82109803D01*
X187775001Y-82968456D01*
X187506260Y-82915000D01*
X187213740Y-82915000D01*
X186926842Y-82972068D01*
X186656589Y-83084010D01*
X186413368Y-83246525D01*
X186206525Y-83453368D01*
X186090000Y-83627760D01*
X185973475Y-83453368D01*
X185766632Y-83246525D01*
X185523411Y-83084010D01*
X185253158Y-82972068D01*
X184966260Y-82915000D01*
X184673740Y-82915000D01*
X184386842Y-82972068D01*
X184116589Y-83084010D01*
X183873368Y-83246525D01*
X183666525Y-83453368D01*
X183544805Y-83635534D01*
X183475178Y-83518645D01*
X183280269Y-83302412D01*
X183046920Y-83128359D01*
X182784099Y-83003175D01*
X182636890Y-82958524D01*
X182407000Y-83079845D01*
X182407000Y-84273000D01*
X182427000Y-84273000D01*
X182427000Y-84527000D01*
X182407000Y-84527000D01*
X182407000Y-85720155D01*
X182636890Y-85841476D01*
X182784099Y-85796825D01*
X183046920Y-85671641D01*
X183280269Y-85497588D01*
X183475178Y-85281355D01*
X183544805Y-85164466D01*
X183666525Y-85346632D01*
X183873368Y-85553475D01*
X184060001Y-85678179D01*
X184060001Y-85988787D01*
X177261795Y-92786994D01*
X175713848Y-91239047D01*
X175690045Y-91210043D01*
X175574320Y-91115070D01*
X175442291Y-91044498D01*
X175299030Y-91001041D01*
X175187377Y-90990044D01*
X175187366Y-90990044D01*
X175150044Y-90986368D01*
X175112722Y-90990044D01*
X169284757Y-90990044D01*
X169539802Y-90735000D01*
X169601939Y-90735000D01*
X169801898Y-90695226D01*
X169990256Y-90617205D01*
X170159774Y-90503937D01*
X170303937Y-90359774D01*
X170417205Y-90190256D01*
X170495226Y-90001898D01*
X170535000Y-89801939D01*
X170535000Y-89598061D01*
X170495226Y-89398102D01*
X170417205Y-89209744D01*
X170303937Y-89040226D01*
X170159774Y-88896063D01*
X169990256Y-88782795D01*
X169801898Y-88704774D01*
X169601939Y-88665000D01*
X169398061Y-88665000D01*
X169198102Y-88704774D01*
X169009744Y-88782795D01*
X168840226Y-88896063D01*
X168696063Y-89040226D01*
X168582795Y-89209744D01*
X168504774Y-89398102D01*
X168465000Y-89598061D01*
X168465000Y-89660198D01*
X167860155Y-90265044D01*
X162103711Y-90265044D01*
X162059774Y-90221107D01*
X161890256Y-90107839D01*
X161701898Y-90029818D01*
X161501939Y-89990044D01*
X161434999Y-89990044D01*
X161434999Y-87918066D01*
X161484774Y-87884807D01*
X161628937Y-87740644D01*
X161742205Y-87571126D01*
X161820226Y-87382768D01*
X161860000Y-87182809D01*
X161860000Y-86978931D01*
X161820226Y-86778972D01*
X161742205Y-86590614D01*
X161628937Y-86421096D01*
X161484774Y-86276933D01*
X161315256Y-86163665D01*
X161126898Y-86085644D01*
X161112052Y-86082691D01*
X161095226Y-85998102D01*
X161017205Y-85809744D01*
X160903937Y-85640226D01*
X160759774Y-85496063D01*
X160590256Y-85382795D01*
X160401898Y-85304774D01*
X160201939Y-85265000D01*
X159998061Y-85265000D01*
X159798102Y-85304774D01*
X159609744Y-85382795D01*
X159440226Y-85496063D01*
X159296063Y-85640226D01*
X159182795Y-85809744D01*
X159104774Y-85998102D01*
X159065000Y-86198061D01*
X159065000Y-86401939D01*
X159104774Y-86601898D01*
X159182795Y-86790256D01*
X159296063Y-86959774D01*
X159340000Y-87003711D01*
X159340001Y-93710207D01*
X158660199Y-94390010D01*
X158598061Y-94390010D01*
X158398102Y-94429784D01*
X158209744Y-94507805D01*
X158040226Y-94621073D01*
X157896063Y-94765236D01*
X157782795Y-94934754D01*
X157704774Y-95123112D01*
X157665000Y-95323071D01*
X157665000Y-95526949D01*
X157704774Y-95726908D01*
X157782795Y-95915266D01*
X157896063Y-96084784D01*
X158040226Y-96228947D01*
X158209744Y-96342215D01*
X158398102Y-96420236D01*
X158598061Y-96460010D01*
X158682344Y-96460010D01*
X158302354Y-96840000D01*
X156142894Y-96840000D01*
X156106799Y-96836445D01*
X156070704Y-96840000D01*
X156070695Y-96840000D01*
X155962715Y-96850635D01*
X155824167Y-96892663D01*
X155696480Y-96960913D01*
X155584562Y-97052762D01*
X155561546Y-97080807D01*
X153780808Y-98861546D01*
X153752762Y-98884563D01*
X153660913Y-98996481D01*
X153592663Y-99124168D01*
X153567308Y-99207753D01*
X153550635Y-99262715D01*
X153536444Y-99406800D01*
X153540000Y-99442905D01*
X153540001Y-102002352D01*
X148002354Y-107540000D01*
X138997647Y-107540000D01*
X133760000Y-102302354D01*
X133760000Y-100242905D01*
X133763556Y-100206800D01*
X133749365Y-100062715D01*
X133731408Y-100003519D01*
X133707337Y-99924168D01*
X133639087Y-99796481D01*
X133547238Y-99684563D01*
X133519193Y-99661547D01*
X132643569Y-98785924D01*
X132666458Y-98730666D01*
X132706232Y-98530707D01*
X132706232Y-98326829D01*
X132666458Y-98126870D01*
X132588437Y-97938512D01*
X132475169Y-97768994D01*
X132331006Y-97624831D01*
X132161488Y-97511563D01*
X131973130Y-97433542D01*
X131773171Y-97393768D01*
X131569293Y-97393768D01*
X131369334Y-97433542D01*
X131180976Y-97511563D01*
X131011458Y-97624831D01*
X130867295Y-97768994D01*
X130754027Y-97938512D01*
X130676006Y-98126870D01*
X130667854Y-98167854D01*
X130626870Y-98176006D01*
X130438512Y-98254027D01*
X130268994Y-98367295D01*
X130124831Y-98511458D01*
X130011563Y-98680976D01*
X129933542Y-98869334D01*
X129893768Y-99069293D01*
X124030477Y-99069293D01*
X123979858Y-98947091D01*
X123866590Y-98777573D01*
X123822653Y-98733636D01*
X123822653Y-97566364D01*
X123966590Y-97422427D01*
X124079858Y-97252909D01*
X124157879Y-97064551D01*
X124197653Y-96864592D01*
X124197653Y-96660714D01*
X124157879Y-96460755D01*
X124079858Y-96272397D01*
X123966590Y-96102879D01*
X123822427Y-95958716D01*
X123652909Y-95845448D01*
X123464551Y-95767427D01*
X123264592Y-95727653D01*
X123060714Y-95727653D01*
X122967369Y-95746220D01*
X122967369Y-95698061D01*
X122927595Y-95498102D01*
X122849574Y-95309744D01*
X122736306Y-95140226D01*
X122592143Y-94996063D01*
X122445473Y-94898061D01*
X127165000Y-94898061D01*
X127165000Y-95101939D01*
X127204774Y-95301898D01*
X127282795Y-95490256D01*
X127396063Y-95659774D01*
X127540226Y-95803937D01*
X127709744Y-95917205D01*
X127898102Y-95995226D01*
X128098061Y-96035000D01*
X128301939Y-96035000D01*
X128501898Y-95995226D01*
X128690256Y-95917205D01*
X128859774Y-95803937D01*
X128903711Y-95760000D01*
X130562678Y-95760000D01*
X130600000Y-95763676D01*
X130637322Y-95760000D01*
X130637333Y-95760000D01*
X130748986Y-95749003D01*
X130892247Y-95705546D01*
X131024276Y-95634974D01*
X131140001Y-95540001D01*
X131163804Y-95510997D01*
X136614802Y-90060000D01*
X141596289Y-90060000D01*
X141640226Y-90103937D01*
X141809744Y-90217205D01*
X141998102Y-90295226D01*
X142198061Y-90335000D01*
X142401939Y-90335000D01*
X142601898Y-90295226D01*
X142790256Y-90217205D01*
X142959774Y-90103937D01*
X143103937Y-89959774D01*
X143217205Y-89790256D01*
X143295226Y-89601898D01*
X143335000Y-89401939D01*
X143335000Y-89198061D01*
X143295226Y-88998102D01*
X143217205Y-88809744D01*
X143103937Y-88640226D01*
X142959774Y-88496063D01*
X142790256Y-88382795D01*
X142601898Y-88304774D01*
X142401939Y-88265000D01*
X142198061Y-88265000D01*
X141998102Y-88304774D01*
X141809744Y-88382795D01*
X141640226Y-88496063D01*
X141596289Y-88540000D01*
X136337322Y-88540000D01*
X136299999Y-88536324D01*
X136262676Y-88540000D01*
X136262667Y-88540000D01*
X136151014Y-88550997D01*
X136007753Y-88594454D01*
X135875724Y-88665026D01*
X135759999Y-88759999D01*
X135736201Y-88788997D01*
X130285199Y-94240000D01*
X128903711Y-94240000D01*
X128859774Y-94196063D01*
X128690256Y-94082795D01*
X128501898Y-94004774D01*
X128301939Y-93965000D01*
X128098061Y-93965000D01*
X127898102Y-94004774D01*
X127709744Y-94082795D01*
X127540226Y-94196063D01*
X127396063Y-94340226D01*
X127282795Y-94509744D01*
X127204774Y-94698102D01*
X127165000Y-94898061D01*
X122445473Y-94898061D01*
X122422625Y-94882795D01*
X122234267Y-94804774D01*
X122034308Y-94765000D01*
X121830430Y-94765000D01*
X121630471Y-94804774D01*
X121442113Y-94882795D01*
X121272595Y-94996063D01*
X121128432Y-95140226D01*
X121015164Y-95309744D01*
X120937143Y-95498102D01*
X120897369Y-95698061D01*
X120458515Y-95698061D01*
X120460741Y-95694731D01*
X120533108Y-95520022D01*
X120570000Y-95334552D01*
X120570000Y-95145448D01*
X120535101Y-94970000D01*
X120762000Y-94970000D01*
X120985865Y-94922934D01*
X121196246Y-94833099D01*
X121385059Y-94703947D01*
X121545047Y-94540441D01*
X121670063Y-94348864D01*
X121753964Y-94115810D01*
X121628163Y-93937000D01*
X120237000Y-93937000D01*
X120237000Y-93957000D01*
X119983000Y-93957000D01*
X119983000Y-93937000D01*
X118591837Y-93937000D01*
X118466036Y-94115810D01*
X117522710Y-94115810D01*
X117524119Y-94111874D01*
X117397954Y-93937000D01*
X116057000Y-93937000D01*
X115803000Y-93937000D01*
X115783000Y-93937000D01*
X115783000Y-93683000D01*
X115803000Y-93683000D01*
X115803000Y-92675000D01*
X116057000Y-92675000D01*
X116057000Y-93683000D01*
X117397954Y-93683000D01*
X117524119Y-93508126D01*
X117522711Y-93504190D01*
X118466036Y-93504190D01*
X118591837Y-93683000D01*
X119983000Y-93683000D01*
X119983000Y-92650000D01*
X120237000Y-92650000D01*
X120237000Y-93683000D01*
X121628163Y-93683000D01*
X121753964Y-93504190D01*
X121670063Y-93271136D01*
X121545047Y-93079559D01*
X121385059Y-92916053D01*
X121196246Y-92786901D01*
X120985865Y-92697066D01*
X120762000Y-92650000D01*
X120237000Y-92650000D01*
X119983000Y-92650000D01*
X119458000Y-92650000D01*
X119234135Y-92697066D01*
X119023754Y-92786901D01*
X118834941Y-92916053D01*
X118674953Y-93079559D01*
X118549937Y-93271136D01*
X118466036Y-93504190D01*
X117522711Y-93504190D01*
X117444276Y-93285024D01*
X117322369Y-93097236D01*
X117166169Y-92936839D01*
X116981678Y-92809997D01*
X116775987Y-92721585D01*
X116557000Y-92675000D01*
X116057000Y-92675000D01*
X115803000Y-92675000D01*
X115435002Y-92675000D01*
X115435002Y-84507584D01*
X130457021Y-84507584D01*
X130549766Y-84769429D01*
X130835120Y-84907820D01*
X131141990Y-84987883D01*
X131458584Y-85006540D01*
X131772733Y-84963074D01*
X132072367Y-84859156D01*
X132240234Y-84769429D01*
X132332979Y-84507584D01*
X137467021Y-84507584D01*
X137559766Y-84769429D01*
X137845120Y-84907820D01*
X138151990Y-84987883D01*
X138468584Y-85006540D01*
X138782733Y-84963074D01*
X139082367Y-84859156D01*
X139250234Y-84769429D01*
X139307559Y-84607584D01*
X144157021Y-84607584D01*
X144249766Y-84869429D01*
X144535120Y-85007820D01*
X144841990Y-85087883D01*
X145158584Y-85106540D01*
X145472733Y-85063074D01*
X145772367Y-84959156D01*
X145940234Y-84869429D01*
X146032979Y-84607584D01*
X151167021Y-84607584D01*
X151259766Y-84869429D01*
X151545120Y-85007820D01*
X151851990Y-85087883D01*
X152168584Y-85106540D01*
X152482733Y-85063074D01*
X152782367Y-84959156D01*
X152950234Y-84869429D01*
X153042979Y-84607584D01*
X152942979Y-84507584D01*
X157207021Y-84507584D01*
X157299766Y-84769429D01*
X157585120Y-84907820D01*
X157891990Y-84987883D01*
X158208584Y-85006540D01*
X158522733Y-84963074D01*
X158822367Y-84859156D01*
X158990234Y-84769429D01*
X159082979Y-84507584D01*
X164217021Y-84507584D01*
X164309766Y-84769429D01*
X164595120Y-84907820D01*
X164901990Y-84987883D01*
X165218584Y-85006540D01*
X165532733Y-84963074D01*
X165832367Y-84859156D01*
X166000234Y-84769429D01*
X166092979Y-84507584D01*
X170757021Y-84507584D01*
X170849766Y-84769429D01*
X171135120Y-84907820D01*
X171441990Y-84987883D01*
X171758584Y-85006540D01*
X172072733Y-84963074D01*
X172372367Y-84859156D01*
X172540234Y-84769429D01*
X172632979Y-84507584D01*
X177767021Y-84507584D01*
X177859766Y-84769429D01*
X178145120Y-84907820D01*
X178451990Y-84987883D01*
X178768584Y-85006540D01*
X179082733Y-84963074D01*
X179382367Y-84859156D01*
X179550234Y-84769429D01*
X179554674Y-84756891D01*
X180838519Y-84756891D01*
X180935843Y-85031252D01*
X181084822Y-85281355D01*
X181279731Y-85497588D01*
X181513080Y-85671641D01*
X181775901Y-85796825D01*
X181923110Y-85841476D01*
X182153000Y-85720155D01*
X182153000Y-84527000D01*
X180959186Y-84527000D01*
X180838519Y-84756891D01*
X179554674Y-84756891D01*
X179642979Y-84507584D01*
X178705000Y-83569605D01*
X177767021Y-84507584D01*
X172632979Y-84507584D01*
X171695000Y-83569605D01*
X170757021Y-84507584D01*
X166092979Y-84507584D01*
X165155000Y-83569605D01*
X164217021Y-84507584D01*
X159082979Y-84507584D01*
X158145000Y-83569605D01*
X157207021Y-84507584D01*
X152942979Y-84507584D01*
X152105000Y-83669605D01*
X151167021Y-84607584D01*
X146032979Y-84607584D01*
X145095000Y-83669605D01*
X144157021Y-84607584D01*
X139307559Y-84607584D01*
X139342979Y-84507584D01*
X138405000Y-83569605D01*
X137467021Y-84507584D01*
X132332979Y-84507584D01*
X131395000Y-83569605D01*
X130457021Y-84507584D01*
X115435002Y-84507584D01*
X115435002Y-83453584D01*
X129778460Y-83453584D01*
X129821926Y-83767733D01*
X129925844Y-84067367D01*
X130015571Y-84235234D01*
X130277416Y-84327979D01*
X131215395Y-83390000D01*
X130277416Y-82452021D01*
X130015571Y-82544766D01*
X129877180Y-82830120D01*
X129797117Y-83136990D01*
X129778460Y-83453584D01*
X115435002Y-83453584D01*
X115435002Y-82272416D01*
X130457021Y-82272416D01*
X131395000Y-83210395D01*
X131409143Y-83196253D01*
X131588748Y-83375858D01*
X131574605Y-83390000D01*
X132512584Y-84327979D01*
X132774429Y-84235234D01*
X132912820Y-83949880D01*
X132992883Y-83643010D01*
X133011540Y-83326416D01*
X132968074Y-83012267D01*
X132864156Y-82712633D01*
X132774429Y-82544766D01*
X132512586Y-82452022D01*
X132628320Y-82336288D01*
X132576032Y-82284000D01*
X132786312Y-82284000D01*
X133053698Y-82230814D01*
X133305570Y-82126485D01*
X133532249Y-81975023D01*
X133650993Y-81856279D01*
X136373326Y-81856279D01*
X136438729Y-82095045D01*
X136685538Y-82210845D01*
X136950195Y-82276270D01*
X137219311Y-82288657D01*
X137171680Y-82336288D01*
X137287414Y-82452022D01*
X137025571Y-82544766D01*
X136887180Y-82830120D01*
X136807117Y-83136990D01*
X136788460Y-83453584D01*
X136831926Y-83767733D01*
X136935844Y-84067367D01*
X137025571Y-84235234D01*
X137287416Y-84327979D01*
X138225395Y-83390000D01*
X138584605Y-83390000D01*
X139522584Y-84327979D01*
X139784429Y-84235234D01*
X139922820Y-83949880D01*
X140002883Y-83643010D01*
X140008152Y-83553584D01*
X143478460Y-83553584D01*
X143521926Y-83867733D01*
X143625844Y-84167367D01*
X143715571Y-84335234D01*
X143977416Y-84427979D01*
X144915395Y-83490000D01*
X143977416Y-82552021D01*
X143715571Y-82644766D01*
X143577180Y-82930120D01*
X143497117Y-83236990D01*
X143478460Y-83553584D01*
X140008152Y-83553584D01*
X140021540Y-83326416D01*
X139978074Y-83012267D01*
X139874156Y-82712633D01*
X139784429Y-82544766D01*
X139522584Y-82452021D01*
X138584605Y-83390000D01*
X138225395Y-83390000D01*
X138211253Y-83375858D01*
X138390858Y-83196253D01*
X138405000Y-83210395D01*
X139242979Y-82372416D01*
X144157021Y-82372416D01*
X145095000Y-83310395D01*
X145109143Y-83296253D01*
X145288748Y-83475858D01*
X145274605Y-83490000D01*
X146212584Y-84427979D01*
X146474429Y-84335234D01*
X146612820Y-84049880D01*
X146692883Y-83743010D01*
X146711540Y-83426416D01*
X146668074Y-83112267D01*
X146564156Y-82812633D01*
X146474429Y-82644766D01*
X146212586Y-82552022D01*
X146328320Y-82436288D01*
X146276032Y-82384000D01*
X146486312Y-82384000D01*
X146753698Y-82330814D01*
X147005570Y-82226485D01*
X147232249Y-82075023D01*
X147350993Y-81956279D01*
X150073326Y-81956279D01*
X150138729Y-82195045D01*
X150385538Y-82310845D01*
X150650195Y-82376270D01*
X150919311Y-82388657D01*
X150871680Y-82436288D01*
X150987414Y-82552022D01*
X150725571Y-82644766D01*
X150587180Y-82930120D01*
X150507117Y-83236990D01*
X150488460Y-83553584D01*
X150531926Y-83867733D01*
X150635844Y-84167367D01*
X150725571Y-84335234D01*
X150987416Y-84427979D01*
X151925395Y-83490000D01*
X152284605Y-83490000D01*
X153222584Y-84427979D01*
X153484429Y-84335234D01*
X153622820Y-84049880D01*
X153702883Y-83743010D01*
X153719938Y-83453584D01*
X156528460Y-83453584D01*
X156571926Y-83767733D01*
X156675844Y-84067367D01*
X156765571Y-84235234D01*
X157027416Y-84327979D01*
X157965395Y-83390000D01*
X157027416Y-82452021D01*
X156765571Y-82544766D01*
X156627180Y-82830120D01*
X156547117Y-83136990D01*
X156528460Y-83453584D01*
X153719938Y-83453584D01*
X153721540Y-83426416D01*
X153678074Y-83112267D01*
X153574156Y-82812633D01*
X153484429Y-82644766D01*
X153222584Y-82552021D01*
X152284605Y-83490000D01*
X151925395Y-83490000D01*
X151911253Y-83475858D01*
X152090858Y-83296253D01*
X152105000Y-83310395D01*
X153042979Y-82372416D01*
X153007560Y-82272416D01*
X157207021Y-82272416D01*
X158145000Y-83210395D01*
X158159143Y-83196253D01*
X158338748Y-83375858D01*
X158324605Y-83390000D01*
X159262584Y-84327979D01*
X159524429Y-84235234D01*
X159662820Y-83949880D01*
X159742883Y-83643010D01*
X159761540Y-83326416D01*
X159718074Y-83012267D01*
X159614156Y-82712633D01*
X159524429Y-82544766D01*
X159262586Y-82452022D01*
X159378320Y-82336288D01*
X159326032Y-82284000D01*
X159536312Y-82284000D01*
X159803698Y-82230814D01*
X160055570Y-82126485D01*
X160282249Y-81975023D01*
X160400993Y-81856279D01*
X163123326Y-81856279D01*
X163188729Y-82095045D01*
X163435538Y-82210845D01*
X163700195Y-82276270D01*
X163969311Y-82288657D01*
X163921680Y-82336288D01*
X164037414Y-82452022D01*
X163775571Y-82544766D01*
X163637180Y-82830120D01*
X163557117Y-83136990D01*
X163538460Y-83453584D01*
X163581926Y-83767733D01*
X163685844Y-84067367D01*
X163775571Y-84235234D01*
X164037416Y-84327979D01*
X164975395Y-83390000D01*
X165334605Y-83390000D01*
X166272584Y-84327979D01*
X166534429Y-84235234D01*
X166672820Y-83949880D01*
X166752883Y-83643010D01*
X166764045Y-83453584D01*
X170078460Y-83453584D01*
X170121926Y-83767733D01*
X170225844Y-84067367D01*
X170315571Y-84235234D01*
X170577416Y-84327979D01*
X171515395Y-83390000D01*
X170577416Y-82452021D01*
X170315571Y-82544766D01*
X170177180Y-82830120D01*
X170097117Y-83136990D01*
X170078460Y-83453584D01*
X166764045Y-83453584D01*
X166771540Y-83326416D01*
X166728074Y-83012267D01*
X166624156Y-82712633D01*
X166534429Y-82544766D01*
X166272584Y-82452021D01*
X165334605Y-83390000D01*
X164975395Y-83390000D01*
X164961253Y-83375858D01*
X165140858Y-83196253D01*
X165155000Y-83210395D01*
X166092979Y-82272416D01*
X170757021Y-82272416D01*
X171695000Y-83210395D01*
X171709143Y-83196253D01*
X171888748Y-83375858D01*
X171874605Y-83390000D01*
X172812584Y-84327979D01*
X173074429Y-84235234D01*
X173212820Y-83949880D01*
X173292883Y-83643010D01*
X173311540Y-83326416D01*
X173268074Y-83012267D01*
X173164156Y-82712633D01*
X173074429Y-82544766D01*
X172812586Y-82452022D01*
X172928320Y-82336288D01*
X172876032Y-82284000D01*
X173086312Y-82284000D01*
X173353698Y-82230814D01*
X173605570Y-82126485D01*
X173832249Y-81975023D01*
X173950993Y-81856279D01*
X176673326Y-81856279D01*
X176738729Y-82095045D01*
X176985538Y-82210845D01*
X177250195Y-82276270D01*
X177519311Y-82288657D01*
X177471680Y-82336288D01*
X177587414Y-82452022D01*
X177325571Y-82544766D01*
X177187180Y-82830120D01*
X177107117Y-83136990D01*
X177088460Y-83453584D01*
X177131926Y-83767733D01*
X177235844Y-84067367D01*
X177325571Y-84235234D01*
X177587416Y-84327979D01*
X178525395Y-83390000D01*
X178884605Y-83390000D01*
X179822584Y-84327979D01*
X180084429Y-84235234D01*
X180177605Y-84043109D01*
X180838519Y-84043109D01*
X180959186Y-84273000D01*
X182153000Y-84273000D01*
X182153000Y-83079845D01*
X181923110Y-82958524D01*
X181775901Y-83003175D01*
X181513080Y-83128359D01*
X181279731Y-83302412D01*
X181084822Y-83518645D01*
X180935843Y-83768748D01*
X180838519Y-84043109D01*
X180177605Y-84043109D01*
X180222820Y-83949880D01*
X180302883Y-83643010D01*
X180321540Y-83326416D01*
X180278074Y-83012267D01*
X180174156Y-82712633D01*
X180084429Y-82544766D01*
X179822584Y-82452021D01*
X178884605Y-83390000D01*
X178525395Y-83390000D01*
X178511253Y-83375858D01*
X178690858Y-83196253D01*
X178705000Y-83210395D01*
X179642979Y-82272416D01*
X179550234Y-82010571D01*
X179264880Y-81872180D01*
X178958010Y-81792117D01*
X178641416Y-81773460D01*
X178519883Y-81790275D01*
X178406281Y-81676673D01*
X178645045Y-81611271D01*
X178760845Y-81364462D01*
X178826270Y-81099805D01*
X178838805Y-80827469D01*
X178797970Y-80557919D01*
X178705332Y-80301516D01*
X178645045Y-80188729D01*
X178406279Y-80123326D01*
X177629605Y-80900000D01*
X177643748Y-80914143D01*
X177464143Y-81093748D01*
X177450000Y-81079605D01*
X176673326Y-81856279D01*
X173950993Y-81856279D01*
X174025023Y-81782249D01*
X174176485Y-81555570D01*
X174280814Y-81303698D01*
X174334000Y-81036312D01*
X174334000Y-80972531D01*
X176061195Y-80972531D01*
X176102030Y-81242081D01*
X176194668Y-81498484D01*
X176254955Y-81611271D01*
X176493721Y-81676674D01*
X177270395Y-80900000D01*
X176493721Y-80123326D01*
X176254955Y-80188729D01*
X176139155Y-80435538D01*
X176073730Y-80700195D01*
X176061195Y-80972531D01*
X174334000Y-80972531D01*
X174334000Y-80763688D01*
X174280814Y-80496302D01*
X174176485Y-80244430D01*
X174025023Y-80017751D01*
X173950993Y-79943721D01*
X176673326Y-79943721D01*
X177450000Y-80720395D01*
X178226674Y-79943721D01*
X178161271Y-79704955D01*
X177914462Y-79589155D01*
X177649805Y-79523730D01*
X177377469Y-79511195D01*
X177107919Y-79552030D01*
X176851516Y-79644668D01*
X176738729Y-79704955D01*
X176673326Y-79943721D01*
X173950993Y-79943721D01*
X173832249Y-79824977D01*
X173605570Y-79673515D01*
X173353698Y-79569186D01*
X173086312Y-79516000D01*
X172813688Y-79516000D01*
X172546302Y-79569186D01*
X172294430Y-79673515D01*
X172067751Y-79824977D01*
X171874977Y-80017751D01*
X171723515Y-80244430D01*
X171619186Y-80496302D01*
X171566000Y-80763688D01*
X171566000Y-81036312D01*
X171619186Y-81303698D01*
X171723515Y-81555570D01*
X171874977Y-81782249D01*
X171880890Y-81788162D01*
X171631416Y-81773460D01*
X171317267Y-81816926D01*
X171017633Y-81920844D01*
X170849766Y-82010571D01*
X170757021Y-82272416D01*
X166092979Y-82272416D01*
X166000234Y-82010571D01*
X165714880Y-81872180D01*
X165408010Y-81792117D01*
X165091416Y-81773460D01*
X164969883Y-81790275D01*
X164856281Y-81676673D01*
X165095045Y-81611271D01*
X165210845Y-81364462D01*
X165276270Y-81099805D01*
X165288805Y-80827469D01*
X165247970Y-80557919D01*
X165155332Y-80301516D01*
X165095045Y-80188729D01*
X164856279Y-80123326D01*
X164079605Y-80900000D01*
X164093748Y-80914143D01*
X163914143Y-81093748D01*
X163900000Y-81079605D01*
X163123326Y-81856279D01*
X160400993Y-81856279D01*
X160475023Y-81782249D01*
X160626485Y-81555570D01*
X160730814Y-81303698D01*
X160784000Y-81036312D01*
X160784000Y-80972531D01*
X162511195Y-80972531D01*
X162552030Y-81242081D01*
X162644668Y-81498484D01*
X162704955Y-81611271D01*
X162943721Y-81676674D01*
X163720395Y-80900000D01*
X162943721Y-80123326D01*
X162704955Y-80188729D01*
X162589155Y-80435538D01*
X162523730Y-80700195D01*
X162511195Y-80972531D01*
X160784000Y-80972531D01*
X160784000Y-80763688D01*
X160730814Y-80496302D01*
X160626485Y-80244430D01*
X160475023Y-80017751D01*
X160400993Y-79943721D01*
X163123326Y-79943721D01*
X163900000Y-80720395D01*
X164676674Y-79943721D01*
X164611271Y-79704955D01*
X164364462Y-79589155D01*
X164099805Y-79523730D01*
X163827469Y-79511195D01*
X163557919Y-79552030D01*
X163301516Y-79644668D01*
X163188729Y-79704955D01*
X163123326Y-79943721D01*
X160400993Y-79943721D01*
X160282249Y-79824977D01*
X160055570Y-79673515D01*
X159803698Y-79569186D01*
X159536312Y-79516000D01*
X159263688Y-79516000D01*
X158996302Y-79569186D01*
X158744430Y-79673515D01*
X158517751Y-79824977D01*
X158324977Y-80017751D01*
X158173515Y-80244430D01*
X158069186Y-80496302D01*
X158016000Y-80763688D01*
X158016000Y-81036312D01*
X158069186Y-81303698D01*
X158173515Y-81555570D01*
X158324977Y-81782249D01*
X158330890Y-81788162D01*
X158081416Y-81773460D01*
X157767267Y-81816926D01*
X157467633Y-81920844D01*
X157299766Y-82010571D01*
X157207021Y-82272416D01*
X153007560Y-82272416D01*
X152950234Y-82110571D01*
X152664880Y-81972180D01*
X152358010Y-81892117D01*
X152041416Y-81873460D01*
X151919883Y-81890275D01*
X151806281Y-81776673D01*
X152045045Y-81711271D01*
X152160845Y-81464462D01*
X152226270Y-81199805D01*
X152238805Y-80927469D01*
X152197970Y-80657919D01*
X152105332Y-80401516D01*
X152045045Y-80288729D01*
X151806279Y-80223326D01*
X151029605Y-81000000D01*
X151043748Y-81014143D01*
X150864143Y-81193748D01*
X150850000Y-81179605D01*
X150073326Y-81956279D01*
X147350993Y-81956279D01*
X147425023Y-81882249D01*
X147576485Y-81655570D01*
X147680814Y-81403698D01*
X147734000Y-81136312D01*
X147734000Y-81072531D01*
X149461195Y-81072531D01*
X149502030Y-81342081D01*
X149594668Y-81598484D01*
X149654955Y-81711271D01*
X149893721Y-81776674D01*
X150670395Y-81000000D01*
X149893721Y-80223326D01*
X149654955Y-80288729D01*
X149539155Y-80535538D01*
X149473730Y-80800195D01*
X149461195Y-81072531D01*
X147734000Y-81072531D01*
X147734000Y-80863688D01*
X147680814Y-80596302D01*
X147576485Y-80344430D01*
X147425023Y-80117751D01*
X147350993Y-80043721D01*
X150073326Y-80043721D01*
X150850000Y-80820395D01*
X151626674Y-80043721D01*
X151561271Y-79804955D01*
X151314462Y-79689155D01*
X151049805Y-79623730D01*
X150777469Y-79611195D01*
X150507919Y-79652030D01*
X150251516Y-79744668D01*
X150138729Y-79804955D01*
X150073326Y-80043721D01*
X147350993Y-80043721D01*
X147232249Y-79924977D01*
X147005570Y-79773515D01*
X146753698Y-79669186D01*
X146486312Y-79616000D01*
X146213688Y-79616000D01*
X145946302Y-79669186D01*
X145694430Y-79773515D01*
X145467751Y-79924977D01*
X145274977Y-80117751D01*
X145123515Y-80344430D01*
X145019186Y-80596302D01*
X144966000Y-80863688D01*
X144966000Y-81136312D01*
X145019186Y-81403698D01*
X145123515Y-81655570D01*
X145274977Y-81882249D01*
X145280890Y-81888162D01*
X145031416Y-81873460D01*
X144717267Y-81916926D01*
X144417633Y-82020844D01*
X144249766Y-82110571D01*
X144157021Y-82372416D01*
X139242979Y-82372416D01*
X139342979Y-82272416D01*
X139250234Y-82010571D01*
X138964880Y-81872180D01*
X138658010Y-81792117D01*
X138341416Y-81773460D01*
X138219883Y-81790275D01*
X138106281Y-81676673D01*
X138345045Y-81611271D01*
X138460845Y-81364462D01*
X138526270Y-81099805D01*
X138538805Y-80827469D01*
X138497970Y-80557919D01*
X138405332Y-80301516D01*
X138345045Y-80188729D01*
X138106279Y-80123326D01*
X137329605Y-80900000D01*
X137343748Y-80914143D01*
X137164143Y-81093748D01*
X137150000Y-81079605D01*
X136373326Y-81856279D01*
X133650993Y-81856279D01*
X133725023Y-81782249D01*
X133876485Y-81555570D01*
X133980814Y-81303698D01*
X134034000Y-81036312D01*
X134034000Y-80972531D01*
X135761195Y-80972531D01*
X135802030Y-81242081D01*
X135894668Y-81498484D01*
X135954955Y-81611271D01*
X136193721Y-81676674D01*
X136970395Y-80900000D01*
X136193721Y-80123326D01*
X135954955Y-80188729D01*
X135839155Y-80435538D01*
X135773730Y-80700195D01*
X135761195Y-80972531D01*
X134034000Y-80972531D01*
X134034000Y-80763688D01*
X133980814Y-80496302D01*
X133876485Y-80244430D01*
X133725023Y-80017751D01*
X133650993Y-79943721D01*
X136373326Y-79943721D01*
X137150000Y-80720395D01*
X137926674Y-79943721D01*
X137861271Y-79704955D01*
X137614462Y-79589155D01*
X137349805Y-79523730D01*
X137077469Y-79511195D01*
X136807919Y-79552030D01*
X136551516Y-79644668D01*
X136438729Y-79704955D01*
X136373326Y-79943721D01*
X133650993Y-79943721D01*
X133532249Y-79824977D01*
X133305570Y-79673515D01*
X133053698Y-79569186D01*
X132786312Y-79516000D01*
X132513688Y-79516000D01*
X132246302Y-79569186D01*
X131994430Y-79673515D01*
X131767751Y-79824977D01*
X131574977Y-80017751D01*
X131423515Y-80244430D01*
X131319186Y-80496302D01*
X131266000Y-80763688D01*
X131266000Y-81036312D01*
X131319186Y-81303698D01*
X131423515Y-81555570D01*
X131574977Y-81782249D01*
X131580890Y-81788162D01*
X131331416Y-81773460D01*
X131017267Y-81816926D01*
X130717633Y-81920844D01*
X130549766Y-82010571D01*
X130457021Y-82272416D01*
X115435002Y-82272416D01*
X115435002Y-77235947D01*
X115462551Y-76954979D01*
X115533711Y-76719287D01*
X115649291Y-76501912D01*
X115804895Y-76311122D01*
X115994590Y-76154193D01*
X116211163Y-76037092D01*
X116446344Y-75964291D01*
X116725045Y-75934999D01*
X198664054Y-75935001D01*
%TA.AperFunction,Conductor*%
D24*
G36*
X198664054Y-75935001D02*
G01*
X198945022Y-75962550D01*
X199180714Y-76033710D01*
X199398089Y-76149290D01*
X199588879Y-76304894D01*
X199745808Y-76494589D01*
X199862909Y-76711162D01*
X199935710Y-76946343D01*
X199965000Y-77225025D01*
X199965001Y-118164042D01*
X199937451Y-118445020D01*
X199866291Y-118680711D01*
X199750711Y-118898087D01*
X199595104Y-119088878D01*
X199405408Y-119245810D01*
X199188843Y-119362905D01*
X198953656Y-119435708D01*
X198674963Y-119465000D01*
X116735959Y-119465000D01*
X116454981Y-119437450D01*
X116219290Y-119366290D01*
X116001914Y-119250710D01*
X115811123Y-119095103D01*
X115654191Y-118905407D01*
X115537096Y-118688842D01*
X115464293Y-118453655D01*
X115435002Y-118174971D01*
X115435002Y-112398061D01*
X141365000Y-112398061D01*
X141365000Y-112601939D01*
X141404774Y-112801898D01*
X141482795Y-112990256D01*
X141596063Y-113159774D01*
X141740226Y-113303937D01*
X141909744Y-113417205D01*
X142098102Y-113495226D01*
X142298061Y-113535000D01*
X142501939Y-113535000D01*
X142701898Y-113495226D01*
X142890256Y-113417205D01*
X143059774Y-113303937D01*
X143103711Y-113260000D01*
X148396289Y-113260000D01*
X148440226Y-113303937D01*
X148609744Y-113417205D01*
X148798102Y-113495226D01*
X148998061Y-113535000D01*
X149201939Y-113535000D01*
X149401898Y-113495226D01*
X149590256Y-113417205D01*
X149759774Y-113303937D01*
X149903937Y-113159774D01*
X150017205Y-112990256D01*
X150095226Y-112801898D01*
X150135000Y-112601939D01*
X150135000Y-112398061D01*
X150095226Y-112198102D01*
X150017205Y-112009744D01*
X149903937Y-111840226D01*
X149759774Y-111696063D01*
X149590256Y-111582795D01*
X149401898Y-111504774D01*
X149201939Y-111465000D01*
X148998061Y-111465000D01*
X148798102Y-111504774D01*
X148609744Y-111582795D01*
X148440226Y-111696063D01*
X148396289Y-111740000D01*
X143103711Y-111740000D01*
X143059774Y-111696063D01*
X142890256Y-111582795D01*
X142701898Y-111504774D01*
X142501939Y-111465000D01*
X142298061Y-111465000D01*
X142098102Y-111504774D01*
X141909744Y-111582795D01*
X141740226Y-111696063D01*
X141596063Y-111840226D01*
X141482795Y-112009744D01*
X141404774Y-112198102D01*
X141365000Y-112398061D01*
X115435002Y-112398061D01*
X115435002Y-103585000D01*
X115803000Y-103585000D01*
X115803000Y-102577000D01*
X116057000Y-102577000D01*
X116057000Y-103585000D01*
X116557000Y-103585000D01*
X116775987Y-103538415D01*
X116981678Y-103450003D01*
X117166169Y-103323161D01*
X117322369Y-103162764D01*
X117444276Y-102974976D01*
X117522710Y-102755810D01*
X118466036Y-102755810D01*
X118549937Y-102988864D01*
X118674953Y-103180441D01*
X118834941Y-103343947D01*
X119023754Y-103473099D01*
X119234135Y-103562934D01*
X119458000Y-103610000D01*
X119983000Y-103610000D01*
X119983000Y-102577000D01*
X120237000Y-102577000D01*
X120237000Y-103610000D01*
X120762000Y-103610000D01*
X120985865Y-103562934D01*
X121196246Y-103473099D01*
X121385059Y-103343947D01*
X121545047Y-103180441D01*
X121670063Y-102988864D01*
X121753964Y-102755810D01*
X121628163Y-102577000D01*
X120237000Y-102577000D01*
X119983000Y-102577000D01*
X118591837Y-102577000D01*
X118466036Y-102755810D01*
X117522710Y-102755810D01*
X117524119Y-102751874D01*
X117397954Y-102577000D01*
X116057000Y-102577000D01*
X115803000Y-102577000D01*
X115783000Y-102577000D01*
X115783000Y-102323000D01*
X115803000Y-102323000D01*
X115803000Y-101315000D01*
X116057000Y-101315000D01*
X116057000Y-102323000D01*
X117397954Y-102323000D01*
X117524119Y-102148126D01*
X117522711Y-102144190D01*
X118466036Y-102144190D01*
X118591837Y-102323000D01*
X119983000Y-102323000D01*
X119983000Y-102303000D01*
X120237000Y-102303000D01*
X120237000Y-102323000D01*
X121628163Y-102323000D01*
X121753964Y-102144190D01*
X121670063Y-101911136D01*
X121545047Y-101719559D01*
X121385059Y-101556053D01*
X121196246Y-101426901D01*
X120985865Y-101337066D01*
X120762000Y-101290000D01*
X120535101Y-101290000D01*
X120570000Y-101114552D01*
X120570000Y-100925448D01*
X120533108Y-100739978D01*
X120460741Y-100565269D01*
X120355681Y-100408036D01*
X120221964Y-100274319D01*
X120064731Y-100169259D01*
X119890022Y-100096892D01*
X119704552Y-100060000D01*
X119515448Y-100060000D01*
X119329978Y-100096892D01*
X119155269Y-100169259D01*
X118998036Y-100274319D01*
X118864319Y-100408036D01*
X118759259Y-100565269D01*
X118686892Y-100739978D01*
X118650000Y-100925448D01*
X118650000Y-101114552D01*
X118686892Y-101300022D01*
X118759259Y-101474731D01*
X118822258Y-101569015D01*
X118674953Y-101719559D01*
X118549937Y-101911136D01*
X118466036Y-102144190D01*
X117522711Y-102144190D01*
X117444276Y-101925024D01*
X117322369Y-101737236D01*
X117166169Y-101576839D01*
X116981678Y-101449997D01*
X116775987Y-101361585D01*
X116557000Y-101315000D01*
X116057000Y-101315000D01*
X115803000Y-101315000D01*
X115435002Y-101315000D01*
X115435002Y-94945000D01*
X115803000Y-94945000D01*
X115803000Y-93937000D01*
X116057000Y-93937000D01*
X116057000Y-94945000D01*
X116557000Y-94945000D01*
X116775987Y-94898415D01*
X116981678Y-94810003D01*
X117166169Y-94683161D01*
X117322369Y-94522764D01*
X117444276Y-94334976D01*
X117522710Y-94115810D01*
X118466036Y-94115810D01*
X118549937Y-94348864D01*
X118674953Y-94540441D01*
X118822258Y-94690985D01*
X118759259Y-94785269D01*
X118686892Y-94959978D01*
X118650000Y-95145448D01*
X118650000Y-95334552D01*
X118686892Y-95520022D01*
X118759259Y-95694731D01*
X118864319Y-95851964D01*
X118998036Y-95985681D01*
X119155269Y-96090741D01*
X119329978Y-96163108D01*
X119515448Y-96200000D01*
X119704552Y-96200000D01*
X119890022Y-96163108D01*
X120064731Y-96090741D01*
X120221964Y-95985681D01*
X120355681Y-95851964D01*
X120458515Y-95698061D01*
X120897369Y-95698061D01*
X120897369Y-95901939D01*
X120937143Y-96101898D01*
X121015164Y-96290256D01*
X121115001Y-96439673D01*
X121115000Y-100066546D01*
X121082795Y-100114744D01*
X121004774Y-100303102D01*
X120965000Y-100503061D01*
X120965000Y-100706939D01*
X121004774Y-100906898D01*
X121082795Y-101095256D01*
X121196063Y-101264774D01*
X121340226Y-101408937D01*
X121509744Y-101522205D01*
X121698102Y-101600226D01*
X121898061Y-101640000D01*
X122101939Y-101640000D01*
X122301898Y-101600226D01*
X122490256Y-101522205D01*
X122659774Y-101408937D01*
X122803937Y-101264774D01*
X122917205Y-101095256D01*
X122995226Y-100906898D01*
X123035000Y-100706939D01*
X123035000Y-100503061D01*
X123028891Y-100472347D01*
X123164592Y-100472347D01*
X123364551Y-100432573D01*
X123552909Y-100354552D01*
X123722427Y-100241284D01*
X123866590Y-100097121D01*
X123979858Y-99927603D01*
X124057879Y-99739245D01*
X124097653Y-99539286D01*
X124097653Y-99335408D01*
X124057879Y-99135449D01*
X124030477Y-99069293D01*
X129893768Y-99069293D01*
X129893768Y-99273171D01*
X129933542Y-99473130D01*
X130011563Y-99661488D01*
X130124831Y-99831006D01*
X130268994Y-99975169D01*
X130438512Y-100088437D01*
X130626870Y-100166458D01*
X130826829Y-100206232D01*
X131030707Y-100206232D01*
X131230666Y-100166458D01*
X131285924Y-100143569D01*
X131840001Y-100697647D01*
X131840000Y-102757095D01*
X131836444Y-102793200D01*
X131849020Y-102920887D01*
X131850635Y-102937284D01*
X131892663Y-103075832D01*
X131960913Y-103203519D01*
X132052762Y-103315437D01*
X132080808Y-103338454D01*
X137961546Y-109219193D01*
X137984562Y-109247238D01*
X138096480Y-109339087D01*
X138224167Y-109407337D01*
X138320686Y-109436616D01*
X138362714Y-109449365D01*
X138506799Y-109463556D01*
X138542904Y-109460000D01*
X148457095Y-109460000D01*
X148493200Y-109463556D01*
X148529305Y-109460000D01*
X148637285Y-109449365D01*
X148775833Y-109407337D01*
X148903520Y-109339087D01*
X149015438Y-109247238D01*
X149038459Y-109219187D01*
X152384595Y-105873051D01*
X159565000Y-105873051D01*
X159565000Y-106076929D01*
X159604774Y-106276888D01*
X159682795Y-106465246D01*
X159796063Y-106634764D01*
X159940226Y-106778927D01*
X160109744Y-106892195D01*
X160298102Y-106970216D01*
X160498061Y-107009990D01*
X160560199Y-107009990D01*
X170361211Y-116811003D01*
X170385009Y-116840001D01*
X170500734Y-116934974D01*
X170632763Y-117005546D01*
X170776024Y-117049003D01*
X170887677Y-117060000D01*
X170887686Y-117060000D01*
X170925009Y-117063676D01*
X170962332Y-117060000D01*
X180496289Y-117060000D01*
X180540226Y-117103937D01*
X180709744Y-117217205D01*
X180898102Y-117295226D01*
X181098061Y-117335000D01*
X181301939Y-117335000D01*
X181501898Y-117295226D01*
X181690256Y-117217205D01*
X181859774Y-117103937D01*
X182003937Y-116959774D01*
X182117205Y-116790256D01*
X182195226Y-116601898D01*
X182235000Y-116401939D01*
X182235000Y-116198061D01*
X182195226Y-115998102D01*
X182117205Y-115809744D01*
X182003937Y-115640226D01*
X181859774Y-115496063D01*
X181690256Y-115382795D01*
X181501898Y-115304774D01*
X181301939Y-115265000D01*
X181098061Y-115265000D01*
X180898102Y-115304774D01*
X180709744Y-115382795D01*
X180540226Y-115496063D01*
X180496289Y-115540000D01*
X171239812Y-115540000D01*
X170959812Y-115260000D01*
X176696289Y-115260000D01*
X176740226Y-115303937D01*
X176909744Y-115417205D01*
X177098102Y-115495226D01*
X177298061Y-115535000D01*
X177501939Y-115535000D01*
X177701898Y-115495226D01*
X177890256Y-115417205D01*
X178059774Y-115303937D01*
X178203937Y-115159774D01*
X178317205Y-114990256D01*
X178395226Y-114801898D01*
X178435000Y-114601939D01*
X178435000Y-114398061D01*
X178395226Y-114198102D01*
X178317205Y-114009744D01*
X178203937Y-113840226D01*
X178059774Y-113696063D01*
X177890256Y-113582795D01*
X177701898Y-113504774D01*
X177501939Y-113465000D01*
X177298061Y-113465000D01*
X177098102Y-113504774D01*
X176909744Y-113582795D01*
X176740226Y-113696063D01*
X176696289Y-113740000D01*
X170614820Y-113740000D01*
X162735000Y-105860181D01*
X162735000Y-105798043D01*
X162695226Y-105598084D01*
X162617205Y-105409726D01*
X162503937Y-105240208D01*
X162359774Y-105096045D01*
X162190256Y-104982777D01*
X162001898Y-104904756D01*
X161801939Y-104864982D01*
X161598061Y-104864982D01*
X161398102Y-104904756D01*
X161209744Y-104982777D01*
X161093871Y-105060201D01*
X161090256Y-105057785D01*
X160901898Y-104979764D01*
X160701939Y-104939990D01*
X160498061Y-104939990D01*
X160298102Y-104979764D01*
X160109744Y-105057785D01*
X159940226Y-105171053D01*
X159796063Y-105315216D01*
X159682795Y-105484734D01*
X159604774Y-105673092D01*
X159565000Y-105873051D01*
X152384595Y-105873051D01*
X155219193Y-103038454D01*
X155247238Y-103015438D01*
X155339087Y-102903520D01*
X155407337Y-102775833D01*
X155436691Y-102679065D01*
X155449365Y-102637286D01*
X155463556Y-102493201D01*
X155460000Y-102457096D01*
X155460000Y-99897646D01*
X156597647Y-98760000D01*
X158757095Y-98760000D01*
X158793200Y-98763556D01*
X158829305Y-98760000D01*
X158937285Y-98749365D01*
X159075833Y-98707337D01*
X159203520Y-98639087D01*
X159315438Y-98547238D01*
X159338458Y-98519188D01*
X160727068Y-97130579D01*
X160888503Y-97238446D01*
X161076861Y-97316467D01*
X161165000Y-97333999D01*
X161165000Y-97526939D01*
X161204774Y-97726898D01*
X161282795Y-97915256D01*
X161396063Y-98084774D01*
X161540226Y-98228937D01*
X161709744Y-98342205D01*
X161898102Y-98420226D01*
X162098061Y-98460000D01*
X162160198Y-98460000D01*
X162461202Y-98761003D01*
X162485000Y-98790002D01*
X162513998Y-98813800D01*
X162600725Y-98884975D01*
X162732754Y-98955547D01*
X162876015Y-98999004D01*
X163025001Y-99013678D01*
X163062334Y-99010001D01*
X166782690Y-99010001D01*
X166704775Y-99198102D01*
X166665001Y-99398061D01*
X166665001Y-99601939D01*
X166704775Y-99801898D01*
X166782796Y-99990256D01*
X166896064Y-100159774D01*
X166940001Y-100203711D01*
X166940001Y-100248963D01*
X166838493Y-100248963D01*
X166638534Y-100288737D01*
X166450176Y-100366758D01*
X166280658Y-100480026D01*
X166136495Y-100624189D01*
X166023227Y-100793707D01*
X165945206Y-100982065D01*
X165905432Y-101182024D01*
X165905432Y-101385902D01*
X165916193Y-101440000D01*
X165736412Y-101440000D01*
X165536453Y-101479774D01*
X165348095Y-101557795D01*
X165178577Y-101671063D01*
X165034414Y-101815226D01*
X164921146Y-101984744D01*
X164843125Y-102173102D01*
X164803351Y-102373061D01*
X164803351Y-102576939D01*
X164843125Y-102776898D01*
X164921146Y-102965256D01*
X165034414Y-103134774D01*
X165078351Y-103178711D01*
X165078352Y-107304117D01*
X165074675Y-107341449D01*
X165078352Y-107378782D01*
X165089349Y-107490435D01*
X165091681Y-107498123D01*
X165132805Y-107633695D01*
X165203377Y-107765725D01*
X165215755Y-107780807D01*
X165298351Y-107881450D01*
X165327349Y-107905248D01*
X167746644Y-110324544D01*
X167746644Y-110386681D01*
X167786418Y-110586640D01*
X167864439Y-110774998D01*
X167977707Y-110944516D01*
X168121870Y-111088679D01*
X168291388Y-111201947D01*
X168479746Y-111279968D01*
X168679705Y-111319742D01*
X168883583Y-111319742D01*
X169083542Y-111279968D01*
X169271900Y-111201947D01*
X169441418Y-111088679D01*
X169585581Y-110944516D01*
X169698849Y-110774998D01*
X169726820Y-110707470D01*
X169756719Y-110707470D01*
X169956678Y-110667696D01*
X170145036Y-110589675D01*
X170314554Y-110476407D01*
X170458717Y-110332244D01*
X170571985Y-110162726D01*
X170643545Y-109989965D01*
X170684425Y-109981834D01*
X170872783Y-109903813D01*
X171042301Y-109790545D01*
X171186464Y-109646382D01*
X171299732Y-109476864D01*
X171377753Y-109288506D01*
X171386630Y-109243876D01*
X171393063Y-109243876D01*
X171593022Y-109204102D01*
X171781380Y-109126081D01*
X171950898Y-109012813D01*
X172095061Y-108868650D01*
X172208329Y-108699132D01*
X172286350Y-108510774D01*
X172326124Y-108310815D01*
X172326124Y-108106937D01*
X172286350Y-107906978D01*
X172208329Y-107718620D01*
X172095061Y-107549102D01*
X171950898Y-107404939D01*
X171781380Y-107291671D01*
X171593022Y-107213650D01*
X171393063Y-107173876D01*
X171348678Y-107173876D01*
X171134696Y-106959894D01*
X190689711Y-106959894D01*
X190862322Y-107289583D01*
X191260596Y-107494158D01*
X191691128Y-107617103D01*
X192137372Y-107653692D01*
X192582180Y-107602521D01*
X193008458Y-107465555D01*
X193337678Y-107289583D01*
X193510289Y-106959894D01*
X192100000Y-105549605D01*
X190689711Y-106959894D01*
X171134696Y-106959894D01*
X169585010Y-105410209D01*
X169585010Y-105407372D01*
X189816308Y-105407372D01*
X189867479Y-105852180D01*
X190004445Y-106278458D01*
X190180417Y-106607678D01*
X190510106Y-106780289D01*
X191920395Y-105370000D01*
X192279605Y-105370000D01*
X193689894Y-106780289D01*
X194019583Y-106607678D01*
X194224158Y-106209404D01*
X194347103Y-105778872D01*
X194383692Y-105332628D01*
X194332521Y-104887820D01*
X194195555Y-104461542D01*
X194019583Y-104132322D01*
X193689894Y-103959711D01*
X192279605Y-105370000D01*
X191920395Y-105370000D01*
X190510106Y-103959711D01*
X190180417Y-104132322D01*
X189975842Y-104530596D01*
X189852897Y-104961128D01*
X189816308Y-105407372D01*
X169585010Y-105407372D01*
X169585010Y-103767203D01*
X171034142Y-103767203D01*
X171034142Y-103971081D01*
X171073916Y-104171040D01*
X171151937Y-104359398D01*
X171265205Y-104528916D01*
X171409368Y-104673079D01*
X171578886Y-104786347D01*
X171767244Y-104864368D01*
X171967203Y-104904142D01*
X172171081Y-104904142D01*
X172371040Y-104864368D01*
X172559398Y-104786347D01*
X172728916Y-104673079D01*
X172772853Y-104629142D01*
X173725482Y-104629142D01*
X173796063Y-104734774D01*
X173940226Y-104878937D01*
X174109744Y-104992205D01*
X174298102Y-105070226D01*
X174498061Y-105110000D01*
X174701939Y-105110000D01*
X174901898Y-105070226D01*
X175090256Y-104992205D01*
X175259774Y-104878937D01*
X175403937Y-104734774D01*
X175517205Y-104565256D01*
X175595226Y-104376898D01*
X175635000Y-104176939D01*
X175635000Y-103973061D01*
X175596620Y-103780106D01*
X190689711Y-103780106D01*
X192100000Y-105190395D01*
X193510289Y-103780106D01*
X193337678Y-103450417D01*
X192939404Y-103245842D01*
X192508872Y-103122897D01*
X192062628Y-103086308D01*
X191617820Y-103137479D01*
X191191542Y-103274445D01*
X190862322Y-103450417D01*
X190689711Y-103780106D01*
X175596620Y-103780106D01*
X175595226Y-103773102D01*
X175517205Y-103584744D01*
X175403937Y-103415226D01*
X175259774Y-103271063D01*
X175090256Y-103157795D01*
X174901898Y-103079774D01*
X174701939Y-103040000D01*
X174498061Y-103040000D01*
X174298102Y-103079774D01*
X174227202Y-103109142D01*
X172772853Y-103109142D01*
X172728916Y-103065205D01*
X172559398Y-102951937D01*
X172371040Y-102873916D01*
X172171081Y-102834142D01*
X171967203Y-102834142D01*
X171767244Y-102873916D01*
X171578886Y-102951937D01*
X171409368Y-103065205D01*
X171265205Y-103209368D01*
X171151937Y-103378886D01*
X171073916Y-103567244D01*
X171034142Y-103767203D01*
X169585010Y-103767203D01*
X169585010Y-103280837D01*
X169628947Y-103236900D01*
X169742215Y-103067382D01*
X169820236Y-102879024D01*
X169860010Y-102679065D01*
X169860010Y-102475187D01*
X169820236Y-102275228D01*
X169742215Y-102086870D01*
X169628947Y-101917352D01*
X169484784Y-101773189D01*
X169315266Y-101659921D01*
X169126908Y-101581900D01*
X168926949Y-101542126D01*
X168723071Y-101542126D01*
X168523112Y-101581900D01*
X168460001Y-101608042D01*
X168460001Y-100313434D01*
X170480373Y-100313434D01*
X170480373Y-100517312D01*
X170520147Y-100717271D01*
X170598168Y-100905629D01*
X170711436Y-101075147D01*
X170855599Y-101219310D01*
X171025117Y-101332578D01*
X171213475Y-101410599D01*
X171413434Y-101450373D01*
X171475572Y-101450373D01*
X172161201Y-102136003D01*
X172184999Y-102165001D01*
X172213997Y-102188799D01*
X172300723Y-102259974D01*
X172347317Y-102284879D01*
X172432753Y-102330546D01*
X172576014Y-102374003D01*
X172687667Y-102385000D01*
X172687677Y-102385000D01*
X172725000Y-102388676D01*
X172762323Y-102385000D01*
X174696289Y-102385000D01*
X174740226Y-102428937D01*
X174909744Y-102542205D01*
X175098102Y-102620226D01*
X175298061Y-102660000D01*
X175501939Y-102660000D01*
X175701898Y-102620226D01*
X175890256Y-102542205D01*
X176059774Y-102428937D01*
X176203937Y-102284774D01*
X176317205Y-102115256D01*
X176395226Y-101926898D01*
X176435000Y-101726939D01*
X176435000Y-101586000D01*
X188037928Y-101586000D01*
X188037928Y-103014000D01*
X188050188Y-103138482D01*
X188086498Y-103258180D01*
X188145463Y-103368494D01*
X188224815Y-103465185D01*
X188321506Y-103544537D01*
X188431820Y-103603502D01*
X188551518Y-103639812D01*
X188676000Y-103652072D01*
X190104000Y-103652072D01*
X190228482Y-103639812D01*
X190348180Y-103603502D01*
X190458494Y-103544537D01*
X190555185Y-103465185D01*
X190634537Y-103368494D01*
X190693502Y-103258180D01*
X190729812Y-103138482D01*
X190742072Y-103014000D01*
X190742072Y-101586000D01*
X190729812Y-101461518D01*
X190693502Y-101341820D01*
X190634537Y-101231506D01*
X190555185Y-101134815D01*
X190458494Y-101055463D01*
X190348180Y-100996498D01*
X190228482Y-100960188D01*
X190104000Y-100947928D01*
X190100140Y-100947928D01*
X190249937Y-100847837D01*
X190437837Y-100659937D01*
X190585468Y-100438991D01*
X190687158Y-100193489D01*
X190739000Y-99932865D01*
X190739000Y-99667135D01*
X190687158Y-99406511D01*
X190585468Y-99161009D01*
X190437837Y-98940063D01*
X190297774Y-98800000D01*
X190437837Y-98659937D01*
X190585468Y-98438991D01*
X190687158Y-98193489D01*
X190739000Y-97932865D01*
X190739000Y-97667135D01*
X190687158Y-97406511D01*
X190585468Y-97161009D01*
X190437837Y-96940063D01*
X190249937Y-96752163D01*
X190028991Y-96604532D01*
X189898519Y-96550489D01*
X189976258Y-96522193D01*
X190080509Y-96466470D01*
X190141668Y-96231273D01*
X189390000Y-95479605D01*
X188638332Y-96231273D01*
X188699491Y-96466470D01*
X188880526Y-96550884D01*
X188751009Y-96604532D01*
X188530063Y-96752163D01*
X188342163Y-96940063D01*
X188194532Y-97161009D01*
X188092842Y-97406511D01*
X188041000Y-97667135D01*
X188041000Y-97932865D01*
X188092842Y-98193489D01*
X188194532Y-98438991D01*
X188342163Y-98659937D01*
X188482226Y-98800000D01*
X188342163Y-98940063D01*
X188194532Y-99161009D01*
X188092842Y-99406511D01*
X188041000Y-99667135D01*
X188041000Y-99932865D01*
X188092842Y-100193489D01*
X188194532Y-100438991D01*
X188342163Y-100659937D01*
X188530063Y-100847837D01*
X188679860Y-100947928D01*
X188676000Y-100947928D01*
X188551518Y-100960188D01*
X188431820Y-100996498D01*
X188321506Y-101055463D01*
X188224815Y-101134815D01*
X188145463Y-101231506D01*
X188086498Y-101341820D01*
X188050188Y-101461518D01*
X188037928Y-101586000D01*
X176435000Y-101586000D01*
X176435000Y-101523061D01*
X176395226Y-101323102D01*
X176317205Y-101134744D01*
X176203937Y-100965226D01*
X176059774Y-100821063D01*
X175890256Y-100707795D01*
X175701898Y-100629774D01*
X175501939Y-100590000D01*
X175298061Y-100590000D01*
X175098102Y-100629774D01*
X174909744Y-100707795D01*
X174740226Y-100821063D01*
X174696289Y-100865000D01*
X173039802Y-100865000D01*
X172550373Y-100375572D01*
X172550373Y-100313434D01*
X172510599Y-100113475D01*
X172432578Y-99925117D01*
X172319310Y-99755599D01*
X172175147Y-99611436D01*
X172005629Y-99498168D01*
X171817271Y-99420147D01*
X171617312Y-99380373D01*
X171413434Y-99380373D01*
X171213475Y-99420147D01*
X171025117Y-99498168D01*
X170855599Y-99611436D01*
X170711436Y-99755599D01*
X170598168Y-99925117D01*
X170520147Y-100113475D01*
X170480373Y-100313434D01*
X168460001Y-100313434D01*
X168460001Y-100203711D01*
X168503938Y-100159774D01*
X168617206Y-99990256D01*
X168695227Y-99801898D01*
X168735001Y-99601939D01*
X168735001Y-99398061D01*
X168695227Y-99198102D01*
X168617312Y-99010001D01*
X178297679Y-99010001D01*
X178335001Y-99013677D01*
X178372323Y-99010001D01*
X178372334Y-99010001D01*
X178483987Y-98999004D01*
X178627248Y-98955547D01*
X178759277Y-98884975D01*
X178875002Y-98790002D01*
X178898805Y-98760998D01*
X182285884Y-95373919D01*
X188036489Y-95373919D01*
X188076918Y-95636555D01*
X188167807Y-95886258D01*
X188223530Y-95990509D01*
X188458727Y-96051668D01*
X189210395Y-95300000D01*
X189569605Y-95300000D01*
X190321273Y-96051668D01*
X190556470Y-95990509D01*
X190668768Y-95749674D01*
X190731924Y-95491559D01*
X190743511Y-95226081D01*
X190703082Y-94963445D01*
X190612193Y-94713742D01*
X190556470Y-94609491D01*
X190321273Y-94548332D01*
X189569605Y-95300000D01*
X189210395Y-95300000D01*
X188458727Y-94548332D01*
X188223530Y-94609491D01*
X188111232Y-94850326D01*
X188048076Y-95108441D01*
X188036489Y-95373919D01*
X182285884Y-95373919D01*
X183291076Y-94368727D01*
X188638332Y-94368727D01*
X189390000Y-95120395D01*
X190141668Y-94368727D01*
X190080509Y-94133530D01*
X189839674Y-94021232D01*
X189581559Y-93958076D01*
X189316081Y-93946489D01*
X189053445Y-93986918D01*
X188803742Y-94077807D01*
X188699491Y-94133530D01*
X188638332Y-94368727D01*
X183291076Y-94368727D01*
X183839909Y-93819894D01*
X190689711Y-93819894D01*
X190862322Y-94149583D01*
X191260596Y-94354158D01*
X191691128Y-94477103D01*
X192137372Y-94513692D01*
X192582180Y-94462521D01*
X193008458Y-94325555D01*
X193337678Y-94149583D01*
X193510289Y-93819894D01*
X192100000Y-92409605D01*
X190689711Y-93819894D01*
X183839909Y-93819894D01*
X185392431Y-92267372D01*
X189816308Y-92267372D01*
X189867479Y-92712180D01*
X190004445Y-93138458D01*
X190180417Y-93467678D01*
X190510106Y-93640289D01*
X191920395Y-92230000D01*
X192279605Y-92230000D01*
X193689894Y-93640289D01*
X194019583Y-93467678D01*
X194224158Y-93069404D01*
X194347103Y-92638872D01*
X194383692Y-92192628D01*
X194332521Y-91747820D01*
X194195555Y-91321542D01*
X194019583Y-90992322D01*
X193689894Y-90819711D01*
X192279605Y-92230000D01*
X191920395Y-92230000D01*
X190510106Y-90819711D01*
X190180417Y-90992322D01*
X189975842Y-91390596D01*
X189852897Y-91821128D01*
X189816308Y-92267372D01*
X185392431Y-92267372D01*
X187019697Y-90640106D01*
X190689711Y-90640106D01*
X192100000Y-92050395D01*
X193510289Y-90640106D01*
X193337678Y-90310417D01*
X192939404Y-90105842D01*
X192508872Y-89982897D01*
X192062628Y-89946308D01*
X191617820Y-89997479D01*
X191191542Y-90134445D01*
X190862322Y-90310417D01*
X190689711Y-90640106D01*
X187019697Y-90640106D01*
X191586005Y-86073799D01*
X191615002Y-86050002D01*
X191709975Y-85934277D01*
X191780547Y-85802248D01*
X191824004Y-85658987D01*
X191835001Y-85547334D01*
X191835001Y-85547326D01*
X191838677Y-85510001D01*
X191835001Y-85472676D01*
X191835001Y-82087322D01*
X191838677Y-82049999D01*
X191835001Y-82012676D01*
X191835001Y-82012666D01*
X191824004Y-81901013D01*
X191780547Y-81757752D01*
X191752080Y-81704494D01*
X191709975Y-81625722D01*
X191638800Y-81538996D01*
X191615002Y-81509998D01*
X191586004Y-81486200D01*
X188913805Y-78814002D01*
X188890002Y-78784998D01*
X188774277Y-78690025D01*
X188642248Y-78619453D01*
X188498987Y-78575996D01*
X188387334Y-78564999D01*
X188387323Y-78564999D01*
X188350001Y-78561323D01*
X188312679Y-78564999D01*
X183372323Y-78564999D01*
X183335000Y-78561323D01*
X183297677Y-78564999D01*
X183297668Y-78564999D01*
X183186015Y-78575996D01*
X183042754Y-78619453D01*
X182910725Y-78690025D01*
X182795000Y-78784998D01*
X182771202Y-78813996D01*
X182526408Y-79058790D01*
X182306260Y-79015000D01*
X182013740Y-79015000D01*
X181726842Y-79072068D01*
X181456589Y-79184010D01*
X181213368Y-79346525D01*
X181006525Y-79553368D01*
X180844010Y-79796589D01*
X180732068Y-80066842D01*
X180675000Y-80353740D01*
X180675000Y-80646260D01*
X180732068Y-80933158D01*
X180844010Y-81203411D01*
X181006525Y-81446632D01*
X181213368Y-81653475D01*
X181456589Y-81815990D01*
X181726842Y-81927932D01*
X182013740Y-81985000D01*
X182306260Y-81985000D01*
X182593158Y-81927932D01*
X182863411Y-81815990D01*
X183106632Y-81653475D01*
X183313475Y-81446632D01*
X183435195Y-81264466D01*
X183504822Y-81381355D01*
X183699731Y-81597588D01*
X183933080Y-81771641D01*
X184195901Y-81896825D01*
X184343110Y-81941476D01*
X184573000Y-81820155D01*
X184573000Y-80627000D01*
X184553000Y-80627000D01*
X184553000Y-80373000D01*
X184573000Y-80373000D01*
X184573000Y-80353000D01*
X184827000Y-80353000D01*
X184827000Y-80373000D01*
X184847000Y-80373000D01*
X184847000Y-80627000D01*
X184827000Y-80627000D01*
X184827000Y-81820155D01*
X185056890Y-81941476D01*
X185204099Y-81896825D01*
X185466920Y-81771641D01*
X185700269Y-81597588D01*
X185776034Y-81513534D01*
X185800498Y-81594180D01*
X185859463Y-81704494D01*
X185938815Y-81801185D01*
X186035506Y-81880537D01*
X186145820Y-81939502D01*
X186265518Y-81975812D01*
X186390000Y-81988072D01*
X187653270Y-81988072D01*
X187775001Y-82109803D01*
X187775001Y-82968456D01*
X187506260Y-82915000D01*
X187213740Y-82915000D01*
X186926842Y-82972068D01*
X186656589Y-83084010D01*
X186413368Y-83246525D01*
X186206525Y-83453368D01*
X186090000Y-83627760D01*
X185973475Y-83453368D01*
X185766632Y-83246525D01*
X185523411Y-83084010D01*
X185253158Y-82972068D01*
X184966260Y-82915000D01*
X184673740Y-82915000D01*
X184386842Y-82972068D01*
X184116589Y-83084010D01*
X183873368Y-83246525D01*
X183666525Y-83453368D01*
X183544805Y-83635534D01*
X183475178Y-83518645D01*
X183280269Y-83302412D01*
X183046920Y-83128359D01*
X182784099Y-83003175D01*
X182636890Y-82958524D01*
X182407000Y-83079845D01*
X182407000Y-84273000D01*
X182427000Y-84273000D01*
X182427000Y-84527000D01*
X182407000Y-84527000D01*
X182407000Y-85720155D01*
X182636890Y-85841476D01*
X182784099Y-85796825D01*
X183046920Y-85671641D01*
X183280269Y-85497588D01*
X183475178Y-85281355D01*
X183544805Y-85164466D01*
X183666525Y-85346632D01*
X183873368Y-85553475D01*
X184060001Y-85678179D01*
X184060001Y-85988787D01*
X177261795Y-92786994D01*
X175713848Y-91239047D01*
X175690045Y-91210043D01*
X175574320Y-91115070D01*
X175442291Y-91044498D01*
X175299030Y-91001041D01*
X175187377Y-90990044D01*
X175187366Y-90990044D01*
X175150044Y-90986368D01*
X175112722Y-90990044D01*
X169284757Y-90990044D01*
X169539802Y-90735000D01*
X169601939Y-90735000D01*
X169801898Y-90695226D01*
X169990256Y-90617205D01*
X170159774Y-90503937D01*
X170303937Y-90359774D01*
X170417205Y-90190256D01*
X170495226Y-90001898D01*
X170535000Y-89801939D01*
X170535000Y-89598061D01*
X170495226Y-89398102D01*
X170417205Y-89209744D01*
X170303937Y-89040226D01*
X170159774Y-88896063D01*
X169990256Y-88782795D01*
X169801898Y-88704774D01*
X169601939Y-88665000D01*
X169398061Y-88665000D01*
X169198102Y-88704774D01*
X169009744Y-88782795D01*
X168840226Y-88896063D01*
X168696063Y-89040226D01*
X168582795Y-89209744D01*
X168504774Y-89398102D01*
X168465000Y-89598061D01*
X168465000Y-89660198D01*
X167860155Y-90265044D01*
X162103711Y-90265044D01*
X162059774Y-90221107D01*
X161890256Y-90107839D01*
X161701898Y-90029818D01*
X161501939Y-89990044D01*
X161434999Y-89990044D01*
X161434999Y-87918066D01*
X161484774Y-87884807D01*
X161628937Y-87740644D01*
X161742205Y-87571126D01*
X161820226Y-87382768D01*
X161860000Y-87182809D01*
X161860000Y-86978931D01*
X161820226Y-86778972D01*
X161742205Y-86590614D01*
X161628937Y-86421096D01*
X161484774Y-86276933D01*
X161315256Y-86163665D01*
X161126898Y-86085644D01*
X161112052Y-86082691D01*
X161095226Y-85998102D01*
X161017205Y-85809744D01*
X160903937Y-85640226D01*
X160759774Y-85496063D01*
X160590256Y-85382795D01*
X160401898Y-85304774D01*
X160201939Y-85265000D01*
X159998061Y-85265000D01*
X159798102Y-85304774D01*
X159609744Y-85382795D01*
X159440226Y-85496063D01*
X159296063Y-85640226D01*
X159182795Y-85809744D01*
X159104774Y-85998102D01*
X159065000Y-86198061D01*
X159065000Y-86401939D01*
X159104774Y-86601898D01*
X159182795Y-86790256D01*
X159296063Y-86959774D01*
X159340000Y-87003711D01*
X159340001Y-93710207D01*
X158660199Y-94390010D01*
X158598061Y-94390010D01*
X158398102Y-94429784D01*
X158209744Y-94507805D01*
X158040226Y-94621073D01*
X157896063Y-94765236D01*
X157782795Y-94934754D01*
X157704774Y-95123112D01*
X157665000Y-95323071D01*
X157665000Y-95526949D01*
X157704774Y-95726908D01*
X157782795Y-95915266D01*
X157896063Y-96084784D01*
X158040226Y-96228947D01*
X158209744Y-96342215D01*
X158398102Y-96420236D01*
X158598061Y-96460010D01*
X158682344Y-96460010D01*
X158302354Y-96840000D01*
X156142894Y-96840000D01*
X156106799Y-96836445D01*
X156070704Y-96840000D01*
X156070695Y-96840000D01*
X155962715Y-96850635D01*
X155824167Y-96892663D01*
X155696480Y-96960913D01*
X155584562Y-97052762D01*
X155561546Y-97080807D01*
X153780808Y-98861546D01*
X153752762Y-98884563D01*
X153660913Y-98996481D01*
X153592663Y-99124168D01*
X153567308Y-99207753D01*
X153550635Y-99262715D01*
X153536444Y-99406800D01*
X153540000Y-99442905D01*
X153540001Y-102002352D01*
X148002354Y-107540000D01*
X138997647Y-107540000D01*
X133760000Y-102302354D01*
X133760000Y-100242905D01*
X133763556Y-100206800D01*
X133749365Y-100062715D01*
X133731408Y-100003519D01*
X133707337Y-99924168D01*
X133639087Y-99796481D01*
X133547238Y-99684563D01*
X133519193Y-99661547D01*
X132643569Y-98785924D01*
X132666458Y-98730666D01*
X132706232Y-98530707D01*
X132706232Y-98326829D01*
X132666458Y-98126870D01*
X132588437Y-97938512D01*
X132475169Y-97768994D01*
X132331006Y-97624831D01*
X132161488Y-97511563D01*
X131973130Y-97433542D01*
X131773171Y-97393768D01*
X131569293Y-97393768D01*
X131369334Y-97433542D01*
X131180976Y-97511563D01*
X131011458Y-97624831D01*
X130867295Y-97768994D01*
X130754027Y-97938512D01*
X130676006Y-98126870D01*
X130667854Y-98167854D01*
X130626870Y-98176006D01*
X130438512Y-98254027D01*
X130268994Y-98367295D01*
X130124831Y-98511458D01*
X130011563Y-98680976D01*
X129933542Y-98869334D01*
X129893768Y-99069293D01*
X124030477Y-99069293D01*
X123979858Y-98947091D01*
X123866590Y-98777573D01*
X123822653Y-98733636D01*
X123822653Y-97566364D01*
X123966590Y-97422427D01*
X124079858Y-97252909D01*
X124157879Y-97064551D01*
X124197653Y-96864592D01*
X124197653Y-96660714D01*
X124157879Y-96460755D01*
X124079858Y-96272397D01*
X123966590Y-96102879D01*
X123822427Y-95958716D01*
X123652909Y-95845448D01*
X123464551Y-95767427D01*
X123264592Y-95727653D01*
X123060714Y-95727653D01*
X122967369Y-95746220D01*
X122967369Y-95698061D01*
X122927595Y-95498102D01*
X122849574Y-95309744D01*
X122736306Y-95140226D01*
X122592143Y-94996063D01*
X122445473Y-94898061D01*
X127165000Y-94898061D01*
X127165000Y-95101939D01*
X127204774Y-95301898D01*
X127282795Y-95490256D01*
X127396063Y-95659774D01*
X127540226Y-95803937D01*
X127709744Y-95917205D01*
X127898102Y-95995226D01*
X128098061Y-96035000D01*
X128301939Y-96035000D01*
X128501898Y-95995226D01*
X128690256Y-95917205D01*
X128859774Y-95803937D01*
X128903711Y-95760000D01*
X130562678Y-95760000D01*
X130600000Y-95763676D01*
X130637322Y-95760000D01*
X130637333Y-95760000D01*
X130748986Y-95749003D01*
X130892247Y-95705546D01*
X131024276Y-95634974D01*
X131140001Y-95540001D01*
X131163804Y-95510997D01*
X136614802Y-90060000D01*
X141596289Y-90060000D01*
X141640226Y-90103937D01*
X141809744Y-90217205D01*
X141998102Y-90295226D01*
X142198061Y-90335000D01*
X142401939Y-90335000D01*
X142601898Y-90295226D01*
X142790256Y-90217205D01*
X142959774Y-90103937D01*
X143103937Y-89959774D01*
X143217205Y-89790256D01*
X143295226Y-89601898D01*
X143335000Y-89401939D01*
X143335000Y-89198061D01*
X143295226Y-88998102D01*
X143217205Y-88809744D01*
X143103937Y-88640226D01*
X142959774Y-88496063D01*
X142790256Y-88382795D01*
X142601898Y-88304774D01*
X142401939Y-88265000D01*
X142198061Y-88265000D01*
X141998102Y-88304774D01*
X141809744Y-88382795D01*
X141640226Y-88496063D01*
X141596289Y-88540000D01*
X136337322Y-88540000D01*
X136299999Y-88536324D01*
X136262676Y-88540000D01*
X136262667Y-88540000D01*
X136151014Y-88550997D01*
X136007753Y-88594454D01*
X135875724Y-88665026D01*
X135759999Y-88759999D01*
X135736201Y-88788997D01*
X130285199Y-94240000D01*
X128903711Y-94240000D01*
X128859774Y-94196063D01*
X128690256Y-94082795D01*
X128501898Y-94004774D01*
X128301939Y-93965000D01*
X128098061Y-93965000D01*
X127898102Y-94004774D01*
X127709744Y-94082795D01*
X127540226Y-94196063D01*
X127396063Y-94340226D01*
X127282795Y-94509744D01*
X127204774Y-94698102D01*
X127165000Y-94898061D01*
X122445473Y-94898061D01*
X122422625Y-94882795D01*
X122234267Y-94804774D01*
X122034308Y-94765000D01*
X121830430Y-94765000D01*
X121630471Y-94804774D01*
X121442113Y-94882795D01*
X121272595Y-94996063D01*
X121128432Y-95140226D01*
X121015164Y-95309744D01*
X120937143Y-95498102D01*
X120897369Y-95698061D01*
X120458515Y-95698061D01*
X120460741Y-95694731D01*
X120533108Y-95520022D01*
X120570000Y-95334552D01*
X120570000Y-95145448D01*
X120535101Y-94970000D01*
X120762000Y-94970000D01*
X120985865Y-94922934D01*
X121196246Y-94833099D01*
X121385059Y-94703947D01*
X121545047Y-94540441D01*
X121670063Y-94348864D01*
X121753964Y-94115810D01*
X121628163Y-93937000D01*
X120237000Y-93937000D01*
X120237000Y-93957000D01*
X119983000Y-93957000D01*
X119983000Y-93937000D01*
X118591837Y-93937000D01*
X118466036Y-94115810D01*
X117522710Y-94115810D01*
X117524119Y-94111874D01*
X117397954Y-93937000D01*
X116057000Y-93937000D01*
X115803000Y-93937000D01*
X115783000Y-93937000D01*
X115783000Y-93683000D01*
X115803000Y-93683000D01*
X115803000Y-92675000D01*
X116057000Y-92675000D01*
X116057000Y-93683000D01*
X117397954Y-93683000D01*
X117524119Y-93508126D01*
X117522711Y-93504190D01*
X118466036Y-93504190D01*
X118591837Y-93683000D01*
X119983000Y-93683000D01*
X119983000Y-92650000D01*
X120237000Y-92650000D01*
X120237000Y-93683000D01*
X121628163Y-93683000D01*
X121753964Y-93504190D01*
X121670063Y-93271136D01*
X121545047Y-93079559D01*
X121385059Y-92916053D01*
X121196246Y-92786901D01*
X120985865Y-92697066D01*
X120762000Y-92650000D01*
X120237000Y-92650000D01*
X119983000Y-92650000D01*
X119458000Y-92650000D01*
X119234135Y-92697066D01*
X119023754Y-92786901D01*
X118834941Y-92916053D01*
X118674953Y-93079559D01*
X118549937Y-93271136D01*
X118466036Y-93504190D01*
X117522711Y-93504190D01*
X117444276Y-93285024D01*
X117322369Y-93097236D01*
X117166169Y-92936839D01*
X116981678Y-92809997D01*
X116775987Y-92721585D01*
X116557000Y-92675000D01*
X116057000Y-92675000D01*
X115803000Y-92675000D01*
X115435002Y-92675000D01*
X115435002Y-84507584D01*
X130457021Y-84507584D01*
X130549766Y-84769429D01*
X130835120Y-84907820D01*
X131141990Y-84987883D01*
X131458584Y-85006540D01*
X131772733Y-84963074D01*
X132072367Y-84859156D01*
X132240234Y-84769429D01*
X132332979Y-84507584D01*
X137467021Y-84507584D01*
X137559766Y-84769429D01*
X137845120Y-84907820D01*
X138151990Y-84987883D01*
X138468584Y-85006540D01*
X138782733Y-84963074D01*
X139082367Y-84859156D01*
X139250234Y-84769429D01*
X139307559Y-84607584D01*
X144157021Y-84607584D01*
X144249766Y-84869429D01*
X144535120Y-85007820D01*
X144841990Y-85087883D01*
X145158584Y-85106540D01*
X145472733Y-85063074D01*
X145772367Y-84959156D01*
X145940234Y-84869429D01*
X146032979Y-84607584D01*
X151167021Y-84607584D01*
X151259766Y-84869429D01*
X151545120Y-85007820D01*
X151851990Y-85087883D01*
X152168584Y-85106540D01*
X152482733Y-85063074D01*
X152782367Y-84959156D01*
X152950234Y-84869429D01*
X153042979Y-84607584D01*
X152942979Y-84507584D01*
X157207021Y-84507584D01*
X157299766Y-84769429D01*
X157585120Y-84907820D01*
X157891990Y-84987883D01*
X158208584Y-85006540D01*
X158522733Y-84963074D01*
X158822367Y-84859156D01*
X158990234Y-84769429D01*
X159082979Y-84507584D01*
X164217021Y-84507584D01*
X164309766Y-84769429D01*
X164595120Y-84907820D01*
X164901990Y-84987883D01*
X165218584Y-85006540D01*
X165532733Y-84963074D01*
X165832367Y-84859156D01*
X166000234Y-84769429D01*
X166092979Y-84507584D01*
X170757021Y-84507584D01*
X170849766Y-84769429D01*
X171135120Y-84907820D01*
X171441990Y-84987883D01*
X171758584Y-85006540D01*
X172072733Y-84963074D01*
X172372367Y-84859156D01*
X172540234Y-84769429D01*
X172632979Y-84507584D01*
X177767021Y-84507584D01*
X177859766Y-84769429D01*
X178145120Y-84907820D01*
X178451990Y-84987883D01*
X178768584Y-85006540D01*
X179082733Y-84963074D01*
X179382367Y-84859156D01*
X179550234Y-84769429D01*
X179554674Y-84756891D01*
X180838519Y-84756891D01*
X180935843Y-85031252D01*
X181084822Y-85281355D01*
X181279731Y-85497588D01*
X181513080Y-85671641D01*
X181775901Y-85796825D01*
X181923110Y-85841476D01*
X182153000Y-85720155D01*
X182153000Y-84527000D01*
X180959186Y-84527000D01*
X180838519Y-84756891D01*
X179554674Y-84756891D01*
X179642979Y-84507584D01*
X178705000Y-83569605D01*
X177767021Y-84507584D01*
X172632979Y-84507584D01*
X171695000Y-83569605D01*
X170757021Y-84507584D01*
X166092979Y-84507584D01*
X165155000Y-83569605D01*
X164217021Y-84507584D01*
X159082979Y-84507584D01*
X158145000Y-83569605D01*
X157207021Y-84507584D01*
X152942979Y-84507584D01*
X152105000Y-83669605D01*
X151167021Y-84607584D01*
X146032979Y-84607584D01*
X145095000Y-83669605D01*
X144157021Y-84607584D01*
X139307559Y-84607584D01*
X139342979Y-84507584D01*
X138405000Y-83569605D01*
X137467021Y-84507584D01*
X132332979Y-84507584D01*
X131395000Y-83569605D01*
X130457021Y-84507584D01*
X115435002Y-84507584D01*
X115435002Y-83453584D01*
X129778460Y-83453584D01*
X129821926Y-83767733D01*
X129925844Y-84067367D01*
X130015571Y-84235234D01*
X130277416Y-84327979D01*
X131215395Y-83390000D01*
X130277416Y-82452021D01*
X130015571Y-82544766D01*
X129877180Y-82830120D01*
X129797117Y-83136990D01*
X129778460Y-83453584D01*
X115435002Y-83453584D01*
X115435002Y-82272416D01*
X130457021Y-82272416D01*
X131395000Y-83210395D01*
X131409143Y-83196253D01*
X131588748Y-83375858D01*
X131574605Y-83390000D01*
X132512584Y-84327979D01*
X132774429Y-84235234D01*
X132912820Y-83949880D01*
X132992883Y-83643010D01*
X133011540Y-83326416D01*
X132968074Y-83012267D01*
X132864156Y-82712633D01*
X132774429Y-82544766D01*
X132512586Y-82452022D01*
X132628320Y-82336288D01*
X132576032Y-82284000D01*
X132786312Y-82284000D01*
X133053698Y-82230814D01*
X133305570Y-82126485D01*
X133532249Y-81975023D01*
X133650993Y-81856279D01*
X136373326Y-81856279D01*
X136438729Y-82095045D01*
X136685538Y-82210845D01*
X136950195Y-82276270D01*
X137219311Y-82288657D01*
X137171680Y-82336288D01*
X137287414Y-82452022D01*
X137025571Y-82544766D01*
X136887180Y-82830120D01*
X136807117Y-83136990D01*
X136788460Y-83453584D01*
X136831926Y-83767733D01*
X136935844Y-84067367D01*
X137025571Y-84235234D01*
X137287416Y-84327979D01*
X138225395Y-83390000D01*
X138584605Y-83390000D01*
X139522584Y-84327979D01*
X139784429Y-84235234D01*
X139922820Y-83949880D01*
X140002883Y-83643010D01*
X140008152Y-83553584D01*
X143478460Y-83553584D01*
X143521926Y-83867733D01*
X143625844Y-84167367D01*
X143715571Y-84335234D01*
X143977416Y-84427979D01*
X144915395Y-83490000D01*
X143977416Y-82552021D01*
X143715571Y-82644766D01*
X143577180Y-82930120D01*
X143497117Y-83236990D01*
X143478460Y-83553584D01*
X140008152Y-83553584D01*
X140021540Y-83326416D01*
X139978074Y-83012267D01*
X139874156Y-82712633D01*
X139784429Y-82544766D01*
X139522584Y-82452021D01*
X138584605Y-83390000D01*
X138225395Y-83390000D01*
X138211253Y-83375858D01*
X138390858Y-83196253D01*
X138405000Y-83210395D01*
X139242979Y-82372416D01*
X144157021Y-82372416D01*
X145095000Y-83310395D01*
X145109143Y-83296253D01*
X145288748Y-83475858D01*
X145274605Y-83490000D01*
X146212584Y-84427979D01*
X146474429Y-84335234D01*
X146612820Y-84049880D01*
X146692883Y-83743010D01*
X146711540Y-83426416D01*
X146668074Y-83112267D01*
X146564156Y-82812633D01*
X146474429Y-82644766D01*
X146212586Y-82552022D01*
X146328320Y-82436288D01*
X146276032Y-82384000D01*
X146486312Y-82384000D01*
X146753698Y-82330814D01*
X147005570Y-82226485D01*
X147232249Y-82075023D01*
X147350993Y-81956279D01*
X150073326Y-81956279D01*
X150138729Y-82195045D01*
X150385538Y-82310845D01*
X150650195Y-82376270D01*
X150919311Y-82388657D01*
X150871680Y-82436288D01*
X150987414Y-82552022D01*
X150725571Y-82644766D01*
X150587180Y-82930120D01*
X150507117Y-83236990D01*
X150488460Y-83553584D01*
X150531926Y-83867733D01*
X150635844Y-84167367D01*
X150725571Y-84335234D01*
X150987416Y-84427979D01*
X151925395Y-83490000D01*
X152284605Y-83490000D01*
X153222584Y-84427979D01*
X153484429Y-84335234D01*
X153622820Y-84049880D01*
X153702883Y-83743010D01*
X153719938Y-83453584D01*
X156528460Y-83453584D01*
X156571926Y-83767733D01*
X156675844Y-84067367D01*
X156765571Y-84235234D01*
X157027416Y-84327979D01*
X157965395Y-83390000D01*
X157027416Y-82452021D01*
X156765571Y-82544766D01*
X156627180Y-82830120D01*
X156547117Y-83136990D01*
X156528460Y-83453584D01*
X153719938Y-83453584D01*
X153721540Y-83426416D01*
X153678074Y-83112267D01*
X153574156Y-82812633D01*
X153484429Y-82644766D01*
X153222584Y-82552021D01*
X152284605Y-83490000D01*
X151925395Y-83490000D01*
X151911253Y-83475858D01*
X152090858Y-83296253D01*
X152105000Y-83310395D01*
X153042979Y-82372416D01*
X153007560Y-82272416D01*
X157207021Y-82272416D01*
X158145000Y-83210395D01*
X158159143Y-83196253D01*
X158338748Y-83375858D01*
X158324605Y-83390000D01*
X159262584Y-84327979D01*
X159524429Y-84235234D01*
X159662820Y-83949880D01*
X159742883Y-83643010D01*
X159761540Y-83326416D01*
X159718074Y-83012267D01*
X159614156Y-82712633D01*
X159524429Y-82544766D01*
X159262586Y-82452022D01*
X159378320Y-82336288D01*
X159326032Y-82284000D01*
X159536312Y-82284000D01*
X159803698Y-82230814D01*
X160055570Y-82126485D01*
X160282249Y-81975023D01*
X160400993Y-81856279D01*
X163123326Y-81856279D01*
X163188729Y-82095045D01*
X163435538Y-82210845D01*
X163700195Y-82276270D01*
X163969311Y-82288657D01*
X163921680Y-82336288D01*
X164037414Y-82452022D01*
X163775571Y-82544766D01*
X163637180Y-82830120D01*
X163557117Y-83136990D01*
X163538460Y-83453584D01*
X163581926Y-83767733D01*
X163685844Y-84067367D01*
X163775571Y-84235234D01*
X164037416Y-84327979D01*
X164975395Y-83390000D01*
X165334605Y-83390000D01*
X166272584Y-84327979D01*
X166534429Y-84235234D01*
X166672820Y-83949880D01*
X166752883Y-83643010D01*
X166764045Y-83453584D01*
X170078460Y-83453584D01*
X170121926Y-83767733D01*
X170225844Y-84067367D01*
X170315571Y-84235234D01*
X170577416Y-84327979D01*
X171515395Y-83390000D01*
X170577416Y-82452021D01*
X170315571Y-82544766D01*
X170177180Y-82830120D01*
X170097117Y-83136990D01*
X170078460Y-83453584D01*
X166764045Y-83453584D01*
X166771540Y-83326416D01*
X166728074Y-83012267D01*
X166624156Y-82712633D01*
X166534429Y-82544766D01*
X166272584Y-82452021D01*
X165334605Y-83390000D01*
X164975395Y-83390000D01*
X164961253Y-83375858D01*
X165140858Y-83196253D01*
X165155000Y-83210395D01*
X166092979Y-82272416D01*
X170757021Y-82272416D01*
X171695000Y-83210395D01*
X171709143Y-83196253D01*
X171888748Y-83375858D01*
X171874605Y-83390000D01*
X172812584Y-84327979D01*
X173074429Y-84235234D01*
X173212820Y-83949880D01*
X173292883Y-83643010D01*
X173311540Y-83326416D01*
X173268074Y-83012267D01*
X173164156Y-82712633D01*
X173074429Y-82544766D01*
X172812586Y-82452022D01*
X172928320Y-82336288D01*
X172876032Y-82284000D01*
X173086312Y-82284000D01*
X173353698Y-82230814D01*
X173605570Y-82126485D01*
X173832249Y-81975023D01*
X173950993Y-81856279D01*
X176673326Y-81856279D01*
X176738729Y-82095045D01*
X176985538Y-82210845D01*
X177250195Y-82276270D01*
X177519311Y-82288657D01*
X177471680Y-82336288D01*
X177587414Y-82452022D01*
X177325571Y-82544766D01*
X177187180Y-82830120D01*
X177107117Y-83136990D01*
X177088460Y-83453584D01*
X177131926Y-83767733D01*
X177235844Y-84067367D01*
X177325571Y-84235234D01*
X177587416Y-84327979D01*
X178525395Y-83390000D01*
X178884605Y-83390000D01*
X179822584Y-84327979D01*
X180084429Y-84235234D01*
X180177605Y-84043109D01*
X180838519Y-84043109D01*
X180959186Y-84273000D01*
X182153000Y-84273000D01*
X182153000Y-83079845D01*
X181923110Y-82958524D01*
X181775901Y-83003175D01*
X181513080Y-83128359D01*
X181279731Y-83302412D01*
X181084822Y-83518645D01*
X180935843Y-83768748D01*
X180838519Y-84043109D01*
X180177605Y-84043109D01*
X180222820Y-83949880D01*
X180302883Y-83643010D01*
X180321540Y-83326416D01*
X180278074Y-83012267D01*
X180174156Y-82712633D01*
X180084429Y-82544766D01*
X179822584Y-82452021D01*
X178884605Y-83390000D01*
X178525395Y-83390000D01*
X178511253Y-83375858D01*
X178690858Y-83196253D01*
X178705000Y-83210395D01*
X179642979Y-82272416D01*
X179550234Y-82010571D01*
X179264880Y-81872180D01*
X178958010Y-81792117D01*
X178641416Y-81773460D01*
X178519883Y-81790275D01*
X178406281Y-81676673D01*
X178645045Y-81611271D01*
X178760845Y-81364462D01*
X178826270Y-81099805D01*
X178838805Y-80827469D01*
X178797970Y-80557919D01*
X178705332Y-80301516D01*
X178645045Y-80188729D01*
X178406279Y-80123326D01*
X177629605Y-80900000D01*
X177643748Y-80914143D01*
X177464143Y-81093748D01*
X177450000Y-81079605D01*
X176673326Y-81856279D01*
X173950993Y-81856279D01*
X174025023Y-81782249D01*
X174176485Y-81555570D01*
X174280814Y-81303698D01*
X174334000Y-81036312D01*
X174334000Y-80972531D01*
X176061195Y-80972531D01*
X176102030Y-81242081D01*
X176194668Y-81498484D01*
X176254955Y-81611271D01*
X176493721Y-81676674D01*
X177270395Y-80900000D01*
X176493721Y-80123326D01*
X176254955Y-80188729D01*
X176139155Y-80435538D01*
X176073730Y-80700195D01*
X176061195Y-80972531D01*
X174334000Y-80972531D01*
X174334000Y-80763688D01*
X174280814Y-80496302D01*
X174176485Y-80244430D01*
X174025023Y-80017751D01*
X173950993Y-79943721D01*
X176673326Y-79943721D01*
X177450000Y-80720395D01*
X178226674Y-79943721D01*
X178161271Y-79704955D01*
X177914462Y-79589155D01*
X177649805Y-79523730D01*
X177377469Y-79511195D01*
X177107919Y-79552030D01*
X176851516Y-79644668D01*
X176738729Y-79704955D01*
X176673326Y-79943721D01*
X173950993Y-79943721D01*
X173832249Y-79824977D01*
X173605570Y-79673515D01*
X173353698Y-79569186D01*
X173086312Y-79516000D01*
X172813688Y-79516000D01*
X172546302Y-79569186D01*
X172294430Y-79673515D01*
X172067751Y-79824977D01*
X171874977Y-80017751D01*
X171723515Y-80244430D01*
X171619186Y-80496302D01*
X171566000Y-80763688D01*
X171566000Y-81036312D01*
X171619186Y-81303698D01*
X171723515Y-81555570D01*
X171874977Y-81782249D01*
X171880890Y-81788162D01*
X171631416Y-81773460D01*
X171317267Y-81816926D01*
X171017633Y-81920844D01*
X170849766Y-82010571D01*
X170757021Y-82272416D01*
X166092979Y-82272416D01*
X166000234Y-82010571D01*
X165714880Y-81872180D01*
X165408010Y-81792117D01*
X165091416Y-81773460D01*
X164969883Y-81790275D01*
X164856281Y-81676673D01*
X165095045Y-81611271D01*
X165210845Y-81364462D01*
X165276270Y-81099805D01*
X165288805Y-80827469D01*
X165247970Y-80557919D01*
X165155332Y-80301516D01*
X165095045Y-80188729D01*
X164856279Y-80123326D01*
X164079605Y-80900000D01*
X164093748Y-80914143D01*
X163914143Y-81093748D01*
X163900000Y-81079605D01*
X163123326Y-81856279D01*
X160400993Y-81856279D01*
X160475023Y-81782249D01*
X160626485Y-81555570D01*
X160730814Y-81303698D01*
X160784000Y-81036312D01*
X160784000Y-80972531D01*
X162511195Y-80972531D01*
X162552030Y-81242081D01*
X162644668Y-81498484D01*
X162704955Y-81611271D01*
X162943721Y-81676674D01*
X163720395Y-80900000D01*
X162943721Y-80123326D01*
X162704955Y-80188729D01*
X162589155Y-80435538D01*
X162523730Y-80700195D01*
X162511195Y-80972531D01*
X160784000Y-80972531D01*
X160784000Y-80763688D01*
X160730814Y-80496302D01*
X160626485Y-80244430D01*
X160475023Y-80017751D01*
X160400993Y-79943721D01*
X163123326Y-79943721D01*
X163900000Y-80720395D01*
X164676674Y-79943721D01*
X164611271Y-79704955D01*
X164364462Y-79589155D01*
X164099805Y-79523730D01*
X163827469Y-79511195D01*
X163557919Y-79552030D01*
X163301516Y-79644668D01*
X163188729Y-79704955D01*
X163123326Y-79943721D01*
X160400993Y-79943721D01*
X160282249Y-79824977D01*
X160055570Y-79673515D01*
X159803698Y-79569186D01*
X159536312Y-79516000D01*
X159263688Y-79516000D01*
X158996302Y-79569186D01*
X158744430Y-79673515D01*
X158517751Y-79824977D01*
X158324977Y-80017751D01*
X158173515Y-80244430D01*
X158069186Y-80496302D01*
X158016000Y-80763688D01*
X158016000Y-81036312D01*
X158069186Y-81303698D01*
X158173515Y-81555570D01*
X158324977Y-81782249D01*
X158330890Y-81788162D01*
X158081416Y-81773460D01*
X157767267Y-81816926D01*
X157467633Y-81920844D01*
X157299766Y-82010571D01*
X157207021Y-82272416D01*
X153007560Y-82272416D01*
X152950234Y-82110571D01*
X152664880Y-81972180D01*
X152358010Y-81892117D01*
X152041416Y-81873460D01*
X151919883Y-81890275D01*
X151806281Y-81776673D01*
X152045045Y-81711271D01*
X152160845Y-81464462D01*
X152226270Y-81199805D01*
X152238805Y-80927469D01*
X152197970Y-80657919D01*
X152105332Y-80401516D01*
X152045045Y-80288729D01*
X151806279Y-80223326D01*
X151029605Y-81000000D01*
X151043748Y-81014143D01*
X150864143Y-81193748D01*
X150850000Y-81179605D01*
X150073326Y-81956279D01*
X147350993Y-81956279D01*
X147425023Y-81882249D01*
X147576485Y-81655570D01*
X147680814Y-81403698D01*
X147734000Y-81136312D01*
X147734000Y-81072531D01*
X149461195Y-81072531D01*
X149502030Y-81342081D01*
X149594668Y-81598484D01*
X149654955Y-81711271D01*
X149893721Y-81776674D01*
X150670395Y-81000000D01*
X149893721Y-80223326D01*
X149654955Y-80288729D01*
X149539155Y-80535538D01*
X149473730Y-80800195D01*
X149461195Y-81072531D01*
X147734000Y-81072531D01*
X147734000Y-80863688D01*
X147680814Y-80596302D01*
X147576485Y-80344430D01*
X147425023Y-80117751D01*
X147350993Y-80043721D01*
X150073326Y-80043721D01*
X150850000Y-80820395D01*
X151626674Y-80043721D01*
X151561271Y-79804955D01*
X151314462Y-79689155D01*
X151049805Y-79623730D01*
X150777469Y-79611195D01*
X150507919Y-79652030D01*
X150251516Y-79744668D01*
X150138729Y-79804955D01*
X150073326Y-80043721D01*
X147350993Y-80043721D01*
X147232249Y-79924977D01*
X147005570Y-79773515D01*
X146753698Y-79669186D01*
X146486312Y-79616000D01*
X146213688Y-79616000D01*
X145946302Y-79669186D01*
X145694430Y-79773515D01*
X145467751Y-79924977D01*
X145274977Y-80117751D01*
X145123515Y-80344430D01*
X145019186Y-80596302D01*
X144966000Y-80863688D01*
X144966000Y-81136312D01*
X145019186Y-81403698D01*
X145123515Y-81655570D01*
X145274977Y-81882249D01*
X145280890Y-81888162D01*
X145031416Y-81873460D01*
X144717267Y-81916926D01*
X144417633Y-82020844D01*
X144249766Y-82110571D01*
X144157021Y-82372416D01*
X139242979Y-82372416D01*
X139342979Y-82272416D01*
X139250234Y-82010571D01*
X138964880Y-81872180D01*
X138658010Y-81792117D01*
X138341416Y-81773460D01*
X138219883Y-81790275D01*
X138106281Y-81676673D01*
X138345045Y-81611271D01*
X138460845Y-81364462D01*
X138526270Y-81099805D01*
X138538805Y-80827469D01*
X138497970Y-80557919D01*
X138405332Y-80301516D01*
X138345045Y-80188729D01*
X138106279Y-80123326D01*
X137329605Y-80900000D01*
X137343748Y-80914143D01*
X137164143Y-81093748D01*
X137150000Y-81079605D01*
X136373326Y-81856279D01*
X133650993Y-81856279D01*
X133725023Y-81782249D01*
X133876485Y-81555570D01*
X133980814Y-81303698D01*
X134034000Y-81036312D01*
X134034000Y-80972531D01*
X135761195Y-80972531D01*
X135802030Y-81242081D01*
X135894668Y-81498484D01*
X135954955Y-81611271D01*
X136193721Y-81676674D01*
X136970395Y-80900000D01*
X136193721Y-80123326D01*
X135954955Y-80188729D01*
X135839155Y-80435538D01*
X135773730Y-80700195D01*
X135761195Y-80972531D01*
X134034000Y-80972531D01*
X134034000Y-80763688D01*
X133980814Y-80496302D01*
X133876485Y-80244430D01*
X133725023Y-80017751D01*
X133650993Y-79943721D01*
X136373326Y-79943721D01*
X137150000Y-80720395D01*
X137926674Y-79943721D01*
X137861271Y-79704955D01*
X137614462Y-79589155D01*
X137349805Y-79523730D01*
X137077469Y-79511195D01*
X136807919Y-79552030D01*
X136551516Y-79644668D01*
X136438729Y-79704955D01*
X136373326Y-79943721D01*
X133650993Y-79943721D01*
X133532249Y-79824977D01*
X133305570Y-79673515D01*
X133053698Y-79569186D01*
X132786312Y-79516000D01*
X132513688Y-79516000D01*
X132246302Y-79569186D01*
X131994430Y-79673515D01*
X131767751Y-79824977D01*
X131574977Y-80017751D01*
X131423515Y-80244430D01*
X131319186Y-80496302D01*
X131266000Y-80763688D01*
X131266000Y-81036312D01*
X131319186Y-81303698D01*
X131423515Y-81555570D01*
X131574977Y-81782249D01*
X131580890Y-81788162D01*
X131331416Y-81773460D01*
X131017267Y-81816926D01*
X130717633Y-81920844D01*
X130549766Y-82010571D01*
X130457021Y-82272416D01*
X115435002Y-82272416D01*
X115435002Y-77235947D01*
X115462551Y-76954979D01*
X115533711Y-76719287D01*
X115649291Y-76501912D01*
X115804895Y-76311122D01*
X115994590Y-76154193D01*
X116211163Y-76037092D01*
X116446344Y-75964291D01*
X116725045Y-75934999D01*
X198664054Y-75935001D01*
G37*
%TD.AperFunction*%
D23*
X161567728Y-92553981D02*
X161737246Y-92667249D01*
X161925604Y-92745270D01*
X162125563Y-92785044D01*
X162329441Y-92785044D01*
X162529400Y-92745270D01*
X162717758Y-92667249D01*
X162887276Y-92553981D01*
X162931213Y-92510044D01*
X174835243Y-92510044D01*
X176505199Y-94180000D01*
X176270198Y-94415001D01*
X165837321Y-94415001D01*
X165799998Y-94411325D01*
X165762676Y-94415001D01*
X165762666Y-94415001D01*
X165651013Y-94425998D01*
X165507752Y-94469455D01*
X165375774Y-94540000D01*
X165298061Y-94540000D01*
X165098102Y-94579774D01*
X164909744Y-94657795D01*
X164740226Y-94771063D01*
X164596063Y-94915226D01*
X164482795Y-95084744D01*
X164404774Y-95273102D01*
X164365000Y-95473061D01*
X164365000Y-95676939D01*
X164404774Y-95876898D01*
X164482795Y-96065256D01*
X164596063Y-96234774D01*
X164740226Y-96378937D01*
X164909744Y-96492205D01*
X165049272Y-96550000D01*
X164909744Y-96607795D01*
X164740226Y-96721063D01*
X164596063Y-96865226D01*
X164482795Y-97034744D01*
X164404774Y-97223102D01*
X164365000Y-97423061D01*
X164365000Y-97490001D01*
X163339803Y-97490001D01*
X163235000Y-97385198D01*
X163235000Y-97323061D01*
X163195226Y-97123102D01*
X163117205Y-96934744D01*
X163003937Y-96765226D01*
X162859774Y-96621063D01*
X162690256Y-96507795D01*
X162630712Y-96483131D01*
X162780997Y-96382714D01*
X162925160Y-96238551D01*
X163038428Y-96069033D01*
X163116449Y-95880675D01*
X163156223Y-95680716D01*
X163156223Y-95476838D01*
X163116449Y-95276879D01*
X163038428Y-95088521D01*
X162925160Y-94919003D01*
X162780997Y-94774840D01*
X162611479Y-94661572D01*
X162423121Y-94583551D01*
X162223162Y-94543777D01*
X162019284Y-94543777D01*
X161819325Y-94583551D01*
X161630967Y-94661572D01*
X161461449Y-94774840D01*
X161392512Y-94843777D01*
X161352707Y-94843777D01*
X161380545Y-94791697D01*
X161424002Y-94648436D01*
X161434999Y-94536783D01*
X161438676Y-94499450D01*
X161434999Y-94462117D01*
X161434999Y-92421252D01*
X161567728Y-92553981D01*
%TA.AperFunction,Conductor*%
D24*
G36*
X161567728Y-92553981D02*
G01*
X161737246Y-92667249D01*
X161925604Y-92745270D01*
X162125563Y-92785044D01*
X162329441Y-92785044D01*
X162529400Y-92745270D01*
X162717758Y-92667249D01*
X162887276Y-92553981D01*
X162931213Y-92510044D01*
X174835243Y-92510044D01*
X176505199Y-94180000D01*
X176270198Y-94415001D01*
X165837321Y-94415001D01*
X165799998Y-94411325D01*
X165762676Y-94415001D01*
X165762666Y-94415001D01*
X165651013Y-94425998D01*
X165507752Y-94469455D01*
X165375774Y-94540000D01*
X165298061Y-94540000D01*
X165098102Y-94579774D01*
X164909744Y-94657795D01*
X164740226Y-94771063D01*
X164596063Y-94915226D01*
X164482795Y-95084744D01*
X164404774Y-95273102D01*
X164365000Y-95473061D01*
X164365000Y-95676939D01*
X164404774Y-95876898D01*
X164482795Y-96065256D01*
X164596063Y-96234774D01*
X164740226Y-96378937D01*
X164909744Y-96492205D01*
X165049272Y-96550000D01*
X164909744Y-96607795D01*
X164740226Y-96721063D01*
X164596063Y-96865226D01*
X164482795Y-97034744D01*
X164404774Y-97223102D01*
X164365000Y-97423061D01*
X164365000Y-97490001D01*
X163339803Y-97490001D01*
X163235000Y-97385198D01*
X163235000Y-97323061D01*
X163195226Y-97123102D01*
X163117205Y-96934744D01*
X163003937Y-96765226D01*
X162859774Y-96621063D01*
X162690256Y-96507795D01*
X162630712Y-96483131D01*
X162780997Y-96382714D01*
X162925160Y-96238551D01*
X163038428Y-96069033D01*
X163116449Y-95880675D01*
X163156223Y-95680716D01*
X163156223Y-95476838D01*
X163116449Y-95276879D01*
X163038428Y-95088521D01*
X162925160Y-94919003D01*
X162780997Y-94774840D01*
X162611479Y-94661572D01*
X162423121Y-94583551D01*
X162223162Y-94543777D01*
X162019284Y-94543777D01*
X161819325Y-94583551D01*
X161630967Y-94661572D01*
X161461449Y-94774840D01*
X161392512Y-94843777D01*
X161352707Y-94843777D01*
X161380545Y-94791697D01*
X161424002Y-94648436D01*
X161434999Y-94536783D01*
X161438676Y-94499450D01*
X161434999Y-94462117D01*
X161434999Y-92421252D01*
X161567728Y-92553981D01*
G37*
%TD.AperFunction*%
D23*
X188805820Y-85839502D02*
X188925518Y-85875812D01*
X189050000Y-85888072D01*
X189622128Y-85888072D01*
X178020200Y-97490001D01*
X177083802Y-97490001D01*
X188759214Y-85814590D01*
X188805820Y-85839502D01*
%TA.AperFunction,Conductor*%
D24*
G36*
X188805820Y-85839502D02*
G01*
X188925518Y-85875812D01*
X189050000Y-85888072D01*
X189622128Y-85888072D01*
X178020200Y-97490001D01*
X177083802Y-97490001D01*
X188759214Y-85814590D01*
X188805820Y-85839502D01*
G37*
%TD.AperFunction*%
D23*
X175434200Y-96990001D02*
X166287309Y-96990001D01*
X166203937Y-96865226D01*
X166059774Y-96721063D01*
X165890256Y-96607795D01*
X165750728Y-96550000D01*
X165890256Y-96492205D01*
X166059774Y-96378937D01*
X166203937Y-96234774D01*
X166317205Y-96065256D01*
X166371159Y-95935001D01*
X176489200Y-95935001D01*
X175434200Y-96990001D01*
%TA.AperFunction,Conductor*%
D24*
G36*
X175434200Y-96990001D02*
G01*
X166287309Y-96990001D01*
X166203937Y-96865226D01*
X166059774Y-96721063D01*
X165890256Y-96607795D01*
X165750728Y-96550000D01*
X165890256Y-96492205D01*
X166059774Y-96378937D01*
X166203937Y-96234774D01*
X166317205Y-96065256D01*
X166371159Y-95935001D01*
X176489200Y-95935001D01*
X175434200Y-96990001D01*
G37*
%TD.AperFunction*%
D23*
X190315002Y-82364802D02*
X190315002Y-82911928D01*
X189295001Y-82911928D01*
X189295001Y-81832324D01*
X189298677Y-81795001D01*
X189295001Y-81757678D01*
X189295001Y-81757668D01*
X189284004Y-81646015D01*
X189240547Y-81502754D01*
X189210549Y-81446632D01*
X189169975Y-81370724D01*
X189098800Y-81283998D01*
X189075002Y-81255000D01*
X189046005Y-81231203D01*
X188728072Y-80913270D01*
X188728072Y-80777871D01*
X190315002Y-82364802D01*
%TA.AperFunction,Conductor*%
D24*
G36*
X190315002Y-82364802D02*
G01*
X190315002Y-82911928D01*
X189295001Y-82911928D01*
X189295001Y-81832324D01*
X189298677Y-81795001D01*
X189295001Y-81757678D01*
X189295001Y-81757668D01*
X189284004Y-81646015D01*
X189240547Y-81502754D01*
X189210549Y-81446632D01*
X189169975Y-81370724D01*
X189098800Y-81283998D01*
X189075002Y-81255000D01*
X189046005Y-81231203D01*
X188728072Y-80913270D01*
X188728072Y-80777871D01*
X190315002Y-82364802D01*
G37*
%TD.AperFunction*%
%TD*%
M02*
