%TF.GenerationSoftware,KiCad,Pcbnew,(5.1.10)-1*%
%TF.CreationDate,2022-05-21T22:50:28+08:00*%
%TF.ProjectId,stm32f103,73746d33-3266-4313-9033-2e6b69636164,rev?*%
%TF.SameCoordinates,Original*%
%TF.FileFunction,Copper,L2,Bot*%
%TF.FilePolarity,Positive*%
%FSLAX46Y46*%
G04 Gerber Fmt 4.6, Leading zero omitted, Abs format (unit mm)*
G04 Created by KiCad (PCBNEW (5.1.10)-1) date 2022-05-21 22:50:28*
%MOMM*%
%LPD*%
G01*
G04 APERTURE LIST*
%TA.AperFunction,ComponentPad*%
%ADD10C,1.498000*%
%TD*%
%TA.AperFunction,ComponentPad*%
%ADD11R,1.498000X1.498000*%
%TD*%
%TA.AperFunction,ComponentPad*%
%ADD12C,1.950000*%
%TD*%
%TA.AperFunction,ComponentPad*%
%ADD13O,2.100000X1.050000*%
%TD*%
%TA.AperFunction,ComponentPad*%
%ADD14O,2.000000X1.000000*%
%TD*%
%TA.AperFunction,ComponentPad*%
%ADD15C,3.276000*%
%TD*%
%TA.AperFunction,ComponentPad*%
%ADD16C,1.428000*%
%TD*%
%TA.AperFunction,ComponentPad*%
%ADD17R,1.428000X1.428000*%
%TD*%
%TA.AperFunction,ComponentPad*%
%ADD18C,3.500000*%
%TD*%
%TA.AperFunction,ComponentPad*%
%ADD19R,1.700000X1.700000*%
%TD*%
%TA.AperFunction,ComponentPad*%
%ADD20O,1.700000X1.700000*%
%TD*%
%TA.AperFunction,ViaPad*%
%ADD21C,0.800000*%
%TD*%
%TA.AperFunction,Conductor*%
%ADD22C,0.500000*%
%TD*%
%TA.AperFunction,Conductor*%
%ADD23C,0.250000*%
%TD*%
%TA.AperFunction,Conductor*%
%ADD24C,0.200000*%
%TD*%
%TA.AperFunction,Conductor*%
%ADD25C,0.254000*%
%TD*%
%TA.AperFunction,Conductor*%
%ADD26C,0.100000*%
%TD*%
%TA.AperFunction,Conductor*%
%ADD27C,0.025400*%
%TD*%
G04 APERTURE END LIST*
D10*
%TO.P,SW1,2*%
%TO.N,/RST*%
X158350000Y-112450000D03*
%TO.P,SW1,4*%
%TO.N,GND*%
X158350000Y-116950000D03*
D11*
%TO.P,SW1,1*%
%TO.N,/RST*%
X151850000Y-112450000D03*
D10*
%TO.P,SW1,3*%
%TO.N,GND*%
X151850000Y-116950000D03*
%TD*%
D12*
%TO.P,S4,S2*%
%TO.N,GND*%
X171695000Y-83390000D03*
%TO.P,S4,S1*%
X178705000Y-83390000D03*
D10*
%TO.P,S4,2*%
%TO.N,Net-(R4-Pad1)*%
X172950000Y-80900000D03*
%TO.P,S4,1*%
%TO.N,GND*%
X177450000Y-80900000D03*
%TD*%
D12*
%TO.P,S3,S2*%
%TO.N,GND*%
X158095000Y-83390000D03*
%TO.P,S3,S1*%
X165105000Y-83390000D03*
D10*
%TO.P,S3,2*%
%TO.N,Net-(R3-Pad1)*%
X159350000Y-80900000D03*
%TO.P,S3,1*%
%TO.N,GND*%
X163850000Y-80900000D03*
%TD*%
D12*
%TO.P,S2,S2*%
%TO.N,GND*%
X145095000Y-83490000D03*
%TO.P,S2,S1*%
X152105000Y-83490000D03*
D10*
%TO.P,S2,2*%
%TO.N,Net-(R2-Pad1)*%
X146350000Y-81000000D03*
%TO.P,S2,1*%
%TO.N,GND*%
X150850000Y-81000000D03*
%TD*%
D12*
%TO.P,S1,S2*%
%TO.N,GND*%
X131395000Y-83390000D03*
%TO.P,S1,S1*%
X138405000Y-83390000D03*
D10*
%TO.P,S1,2*%
%TO.N,Net-(R1-Pad1)*%
X132650000Y-80900000D03*
%TO.P,S1,1*%
%TO.N,GND*%
X137150000Y-80900000D03*
%TD*%
D13*
%TO.P,J3,S4*%
%TO.N,GND*%
X120130000Y-102440000D03*
%TO.P,J3,S1*%
X120130000Y-93800000D03*
D14*
%TO.P,J3,S3*%
X115950000Y-102440000D03*
%TO.P,J3,S2*%
X115950000Y-93800000D03*
%TD*%
D15*
%TO.P,J6,S2*%
%TO.N,GND*%
X192100000Y-92180000D03*
%TO.P,J6,S1*%
X192100000Y-105320000D03*
D16*
%TO.P,J6,4*%
X189390000Y-95250000D03*
%TO.P,J6,3*%
%TO.N,Net-(J6-Pad3)*%
X189390000Y-97750000D03*
%TO.P,J6,2*%
%TO.N,Net-(J6-Pad2)*%
X189390000Y-99750000D03*
D17*
%TO.P,J6,1*%
%TO.N,/VOUT*%
X189390000Y-102250000D03*
%TD*%
D18*
%TO.P,M3,1*%
%TO.N,N/C*%
X196500000Y-116000000D03*
%TD*%
%TO.P,M4,1*%
%TO.N,N/C*%
X118700000Y-116200000D03*
%TD*%
%TO.P,M2,1*%
%TO.N,N/C*%
X196300000Y-79300000D03*
%TD*%
%TO.P,M1,1*%
%TO.N,N/C*%
X118800000Y-79300000D03*
%TD*%
D19*
%TO.P,J5,1*%
%TO.N,Net-(J5-Pad1)*%
X185700000Y-104200000D03*
%TD*%
D20*
%TO.P,J1,4*%
%TO.N,GND*%
X182080000Y-83300000D03*
%TO.P,J1,3*%
%TO.N,/SW_CLK*%
X184620000Y-83300000D03*
%TO.P,J1,2*%
%TO.N,/SW_DIO*%
X187160000Y-83300000D03*
D19*
%TO.P,J1,1*%
%TO.N,+3V3*%
X189700000Y-83300000D03*
%TD*%
D20*
%TO.P,J2,3*%
%TO.N,/USART1_RX*%
X182560000Y-78000000D03*
%TO.P,J2,2*%
%TO.N,GND*%
X185100000Y-78000000D03*
D19*
%TO.P,J2,1*%
%TO.N,/USART1_TX*%
X187640000Y-78000000D03*
%TD*%
D21*
%TO.N,GND*%
X128500000Y-104700000D03*
X128200000Y-117000000D03*
X155600000Y-110800000D03*
X158500000Y-102000000D03*
X160500000Y-99100000D03*
X173800000Y-91000000D03*
X172800000Y-110000000D03*
X170000000Y-113100000D03*
X172350000Y-117050000D03*
X149600000Y-100600000D03*
X143000000Y-99800000D03*
X161400000Y-113600000D03*
X161900000Y-106300000D03*
X174800000Y-104200000D03*
X154700000Y-90000000D03*
X194300000Y-98800000D03*
X154400000Y-106000000D03*
X151800000Y-108300000D03*
X164800000Y-104200000D03*
X170000000Y-95900000D03*
X154700000Y-96200000D03*
X179400000Y-97900000D03*
X155200000Y-114900000D03*
X185312340Y-113387660D03*
X189450000Y-116100000D03*
X176450000Y-109000000D03*
X165500000Y-91650000D03*
X163000000Y-93600000D03*
%TO.N,+5V*%
X122000000Y-100605000D03*
X121932369Y-95800000D03*
X192700000Y-111450002D03*
X192700000Y-112650000D03*
X192700000Y-113750000D03*
%TO.N,/RST*%
X148100000Y-112200000D03*
X143924979Y-112200000D03*
%TO.N,+3V3*%
X174200000Y-117000000D03*
X174300000Y-114000000D03*
%TO.N,/SW_CLK*%
X163000000Y-91700000D03*
X174004230Y-87182521D03*
%TO.N,/SW_DIO*%
X173500000Y-88300000D03*
X167100000Y-95100000D03*
%TO.N,/USART1_TX*%
X170900000Y-88900000D03*
X168100000Y-96500000D03*
%TO.N,/USART1_RX*%
X169500000Y-89200000D03*
X166844609Y-96394694D03*
%TO.N,/VOUT*%
X187725000Y-107925000D03*
%TO.N,/USB_D-*%
X161378759Y-96321241D03*
X130928768Y-99171232D03*
%TO.N,/USB_D+*%
X162121223Y-95578777D03*
X131671232Y-98428768D03*
%TO.N,/USBDP1*%
X123062653Y-99437347D03*
X123000000Y-97300004D03*
%TD*%
D22*
%TO.N,+5V*%
X122000000Y-95867631D02*
X121932369Y-95800000D01*
X122000000Y-100605000D02*
X122000000Y-95867631D01*
X192700000Y-118150000D02*
X192700000Y-113750000D01*
X191650000Y-119200000D02*
X192700000Y-118150000D01*
X123300000Y-119200000D02*
X191650000Y-119200000D01*
X122000000Y-117900000D02*
X123300000Y-119200000D01*
X122000000Y-100605000D02*
X122000000Y-117900000D01*
X192700000Y-112650000D02*
X192700000Y-111450002D01*
X192700000Y-113750000D02*
X192700000Y-112650000D01*
D23*
%TO.N,/RST*%
X148100000Y-112200000D02*
X143924979Y-112200000D01*
%TO.N,+3V3*%
X174300000Y-116900000D02*
X174200000Y-117000000D01*
X174300000Y-114000000D02*
X174300000Y-116900000D01*
%TO.N,/SW_CLK*%
X167517479Y-87182521D02*
X174004230Y-87182521D01*
X163000000Y-91700000D02*
X167517479Y-87182521D01*
%TO.N,/SW_DIO*%
X168600000Y-93600000D02*
X167100000Y-95100000D01*
X168600000Y-88800000D02*
X168600000Y-93600000D01*
X169499999Y-87900001D02*
X168600000Y-88800000D01*
X173100001Y-87900001D02*
X169499999Y-87900001D01*
X173500000Y-88300000D02*
X173100001Y-87900001D01*
%TO.N,/USART1_TX*%
X170900000Y-93700000D02*
X168100000Y-96500000D01*
X170900000Y-88900000D02*
X170900000Y-93700000D01*
%TO.N,/USART1_RX*%
X169500000Y-89200000D02*
X169500000Y-93739303D01*
X169500000Y-93739303D02*
X166844609Y-96394694D01*
D22*
%TO.N,/VOUT*%
X188600000Y-103040000D02*
X189390000Y-102250000D01*
X188600000Y-107050000D02*
X188600000Y-103040000D01*
X187725000Y-107925000D02*
X188600000Y-107050000D01*
D24*
%TO.N,/USB_D-*%
X158793200Y-98025000D02*
X156293200Y-98025000D01*
X156293200Y-98025000D02*
X154725000Y-99593200D01*
X154725000Y-99593200D02*
X154725000Y-102493200D01*
X154725000Y-102493200D02*
X148493200Y-108725000D01*
X148493200Y-108725000D02*
X138506800Y-108725000D01*
X138506800Y-108725000D02*
X132575000Y-102793200D01*
X131353033Y-99171232D02*
X130928768Y-99171232D01*
X132575000Y-100393199D02*
X131353033Y-99171232D01*
X132575000Y-102793200D02*
X132575000Y-100393199D01*
X160789423Y-96028777D02*
X158793200Y-98025000D01*
X161086295Y-96028777D02*
X160789423Y-96028777D01*
X161378759Y-96321241D02*
X161086295Y-96028777D01*
%TO.N,/USB_D+*%
X160603023Y-95578777D02*
X158606800Y-97575000D01*
X162121223Y-95578777D02*
X160603023Y-95578777D01*
X158606800Y-97575000D02*
X156106800Y-97575000D01*
X156106800Y-97575000D02*
X154275000Y-99406800D01*
X154275000Y-99406800D02*
X154275000Y-102306800D01*
X154275000Y-102306800D02*
X148306800Y-108275000D01*
X148306800Y-108275000D02*
X138693200Y-108275000D01*
X138693200Y-108275000D02*
X133025000Y-102606800D01*
X131671232Y-98853033D02*
X131671232Y-98428768D01*
X133025000Y-100206801D02*
X131671232Y-98853033D01*
X133025000Y-102606800D02*
X133025000Y-100206801D01*
D23*
%TO.N,/USBDP1*%
X123062653Y-99437347D02*
X123062653Y-97362657D01*
X123062653Y-97362657D02*
X123000000Y-97300004D01*
%TD*%
D25*
%TO.N,GND*%
X198664054Y-75935001D02*
X198945022Y-75962550D01*
X199180714Y-76033710D01*
X199398089Y-76149290D01*
X199588879Y-76304894D01*
X199745808Y-76494589D01*
X199862909Y-76711162D01*
X199935710Y-76946343D01*
X199965000Y-77225025D01*
X199965001Y-118164042D01*
X199937451Y-118445020D01*
X199866291Y-118680711D01*
X199750711Y-118898087D01*
X199595104Y-119088878D01*
X199405408Y-119245810D01*
X199188843Y-119362905D01*
X198953656Y-119435708D01*
X198674963Y-119465000D01*
X192636578Y-119465000D01*
X193295050Y-118806529D01*
X193328817Y-118778817D01*
X193360301Y-118740455D01*
X193439410Y-118644060D01*
X193439411Y-118644059D01*
X193521589Y-118490313D01*
X193572195Y-118323490D01*
X193585000Y-118193477D01*
X193585000Y-118193467D01*
X193589281Y-118150001D01*
X193585000Y-118106535D01*
X193585000Y-115765098D01*
X194115000Y-115765098D01*
X194115000Y-116234902D01*
X194206654Y-116695679D01*
X194386440Y-117129721D01*
X194647450Y-117520349D01*
X194979651Y-117852550D01*
X195370279Y-118113560D01*
X195804321Y-118293346D01*
X196265098Y-118385000D01*
X196734902Y-118385000D01*
X197195679Y-118293346D01*
X197629721Y-118113560D01*
X198020349Y-117852550D01*
X198352550Y-117520349D01*
X198613560Y-117129721D01*
X198793346Y-116695679D01*
X198885000Y-116234902D01*
X198885000Y-115765098D01*
X198793346Y-115304321D01*
X198613560Y-114870279D01*
X198352550Y-114479651D01*
X198020349Y-114147450D01*
X197629721Y-113886440D01*
X197195679Y-113706654D01*
X196734902Y-113615000D01*
X196265098Y-113615000D01*
X195804321Y-113706654D01*
X195370279Y-113886440D01*
X194979651Y-114147450D01*
X194647450Y-114479651D01*
X194386440Y-114870279D01*
X194206654Y-115304321D01*
X194115000Y-115765098D01*
X193585000Y-115765098D01*
X193585000Y-114288454D01*
X193617205Y-114240256D01*
X193695226Y-114051898D01*
X193735000Y-113851939D01*
X193735000Y-113648061D01*
X193695226Y-113448102D01*
X193617205Y-113259744D01*
X193585000Y-113211546D01*
X193585000Y-113188454D01*
X193617205Y-113140256D01*
X193695226Y-112951898D01*
X193735000Y-112751939D01*
X193735000Y-112548061D01*
X193695226Y-112348102D01*
X193617205Y-112159744D01*
X193585000Y-112111546D01*
X193585000Y-111988456D01*
X193617205Y-111940258D01*
X193695226Y-111751900D01*
X193735000Y-111551941D01*
X193735000Y-111348063D01*
X193695226Y-111148104D01*
X193617205Y-110959746D01*
X193503937Y-110790228D01*
X193359774Y-110646065D01*
X193190256Y-110532797D01*
X193001898Y-110454776D01*
X192801939Y-110415002D01*
X192598061Y-110415002D01*
X192398102Y-110454776D01*
X192209744Y-110532797D01*
X192040226Y-110646065D01*
X191896063Y-110790228D01*
X191782795Y-110959746D01*
X191704774Y-111148104D01*
X191665000Y-111348063D01*
X191665000Y-111551941D01*
X191704774Y-111751900D01*
X191782795Y-111940258D01*
X191815001Y-111988457D01*
X191815000Y-112111545D01*
X191782795Y-112159744D01*
X191704774Y-112348102D01*
X191665000Y-112548061D01*
X191665000Y-112751939D01*
X191704774Y-112951898D01*
X191782795Y-113140256D01*
X191815001Y-113188455D01*
X191815000Y-113211545D01*
X191782795Y-113259744D01*
X191704774Y-113448102D01*
X191665000Y-113648061D01*
X191665000Y-113851939D01*
X191704774Y-114051898D01*
X191782795Y-114240256D01*
X191815001Y-114288456D01*
X191815000Y-117783421D01*
X191283422Y-118315000D01*
X158579667Y-118315000D01*
X158692081Y-118297970D01*
X158948484Y-118205332D01*
X159061271Y-118145045D01*
X159126674Y-117906279D01*
X158350000Y-117129605D01*
X157573326Y-117906279D01*
X157638729Y-118145045D01*
X157885538Y-118260845D01*
X158104606Y-118315000D01*
X152079667Y-118315000D01*
X152192081Y-118297970D01*
X152448484Y-118205332D01*
X152561271Y-118145045D01*
X152626674Y-117906279D01*
X151850000Y-117129605D01*
X151073326Y-117906279D01*
X151138729Y-118145045D01*
X151385538Y-118260845D01*
X151604606Y-118315000D01*
X123666579Y-118315000D01*
X122885000Y-117533422D01*
X122885000Y-117022531D01*
X150461195Y-117022531D01*
X150502030Y-117292081D01*
X150594668Y-117548484D01*
X150654955Y-117661271D01*
X150893721Y-117726674D01*
X151670395Y-116950000D01*
X152029605Y-116950000D01*
X152806279Y-117726674D01*
X153045045Y-117661271D01*
X153160845Y-117414462D01*
X153226270Y-117149805D01*
X153232128Y-117022531D01*
X156961195Y-117022531D01*
X157002030Y-117292081D01*
X157094668Y-117548484D01*
X157154955Y-117661271D01*
X157393721Y-117726674D01*
X158170395Y-116950000D01*
X158529605Y-116950000D01*
X159306279Y-117726674D01*
X159545045Y-117661271D01*
X159660845Y-117414462D01*
X159726270Y-117149805D01*
X159737857Y-116898061D01*
X173165000Y-116898061D01*
X173165000Y-117101939D01*
X173204774Y-117301898D01*
X173282795Y-117490256D01*
X173396063Y-117659774D01*
X173540226Y-117803937D01*
X173709744Y-117917205D01*
X173898102Y-117995226D01*
X174098061Y-118035000D01*
X174301939Y-118035000D01*
X174501898Y-117995226D01*
X174690256Y-117917205D01*
X174859774Y-117803937D01*
X175003937Y-117659774D01*
X175117205Y-117490256D01*
X175195226Y-117301898D01*
X175235000Y-117101939D01*
X175235000Y-116898061D01*
X175195226Y-116698102D01*
X175117205Y-116509744D01*
X175060000Y-116424130D01*
X175060000Y-114703711D01*
X175103937Y-114659774D01*
X175217205Y-114490256D01*
X175295226Y-114301898D01*
X175335000Y-114101939D01*
X175335000Y-113898061D01*
X175295226Y-113698102D01*
X175217205Y-113509744D01*
X175103937Y-113340226D01*
X174959774Y-113196063D01*
X174790256Y-113082795D01*
X174601898Y-113004774D01*
X174401939Y-112965000D01*
X174198061Y-112965000D01*
X173998102Y-113004774D01*
X173809744Y-113082795D01*
X173640226Y-113196063D01*
X173496063Y-113340226D01*
X173382795Y-113509744D01*
X173304774Y-113698102D01*
X173265000Y-113898061D01*
X173265000Y-114101939D01*
X173304774Y-114301898D01*
X173382795Y-114490256D01*
X173496063Y-114659774D01*
X173540000Y-114703711D01*
X173540001Y-116131628D01*
X173539385Y-116133335D01*
X173525675Y-116167409D01*
X173512740Y-116196185D01*
X173500930Y-116219648D01*
X173490693Y-116237758D01*
X173482495Y-116250617D01*
X173476900Y-116258362D01*
X173474399Y-116261398D01*
X173465480Y-116270809D01*
X173396063Y-116340226D01*
X173282795Y-116509744D01*
X173204774Y-116698102D01*
X173165000Y-116898061D01*
X159737857Y-116898061D01*
X159738805Y-116877469D01*
X159697970Y-116607919D01*
X159605332Y-116351516D01*
X159545045Y-116238729D01*
X159306279Y-116173326D01*
X158529605Y-116950000D01*
X158170395Y-116950000D01*
X157393721Y-116173326D01*
X157154955Y-116238729D01*
X157039155Y-116485538D01*
X156973730Y-116750195D01*
X156961195Y-117022531D01*
X153232128Y-117022531D01*
X153238805Y-116877469D01*
X153197970Y-116607919D01*
X153105332Y-116351516D01*
X153045045Y-116238729D01*
X152806279Y-116173326D01*
X152029605Y-116950000D01*
X151670395Y-116950000D01*
X150893721Y-116173326D01*
X150654955Y-116238729D01*
X150539155Y-116485538D01*
X150473730Y-116750195D01*
X150461195Y-117022531D01*
X122885000Y-117022531D01*
X122885000Y-115993721D01*
X151073326Y-115993721D01*
X151850000Y-116770395D01*
X152626674Y-115993721D01*
X157573326Y-115993721D01*
X158350000Y-116770395D01*
X159126674Y-115993721D01*
X159061271Y-115754955D01*
X158814462Y-115639155D01*
X158549805Y-115573730D01*
X158277469Y-115561195D01*
X158007919Y-115602030D01*
X157751516Y-115694668D01*
X157638729Y-115754955D01*
X157573326Y-115993721D01*
X152626674Y-115993721D01*
X152561271Y-115754955D01*
X152314462Y-115639155D01*
X152049805Y-115573730D01*
X151777469Y-115561195D01*
X151507919Y-115602030D01*
X151251516Y-115694668D01*
X151138729Y-115754955D01*
X151073326Y-115993721D01*
X122885000Y-115993721D01*
X122885000Y-112098061D01*
X142889979Y-112098061D01*
X142889979Y-112301939D01*
X142929753Y-112501898D01*
X143007774Y-112690256D01*
X143121042Y-112859774D01*
X143265205Y-113003937D01*
X143434723Y-113117205D01*
X143623081Y-113195226D01*
X143823040Y-113235000D01*
X144026918Y-113235000D01*
X144226877Y-113195226D01*
X144415235Y-113117205D01*
X144584753Y-113003937D01*
X144628690Y-112960000D01*
X147396289Y-112960000D01*
X147440226Y-113003937D01*
X147609744Y-113117205D01*
X147798102Y-113195226D01*
X147998061Y-113235000D01*
X148201939Y-113235000D01*
X148401898Y-113195226D01*
X148590256Y-113117205D01*
X148759774Y-113003937D01*
X148903937Y-112859774D01*
X149017205Y-112690256D01*
X149095226Y-112501898D01*
X149135000Y-112301939D01*
X149135000Y-112098061D01*
X149095226Y-111898102D01*
X149017205Y-111709744D01*
X149011363Y-111701000D01*
X150462928Y-111701000D01*
X150462928Y-113199000D01*
X150475188Y-113323482D01*
X150511498Y-113443180D01*
X150570463Y-113553494D01*
X150649815Y-113650185D01*
X150746506Y-113729537D01*
X150856820Y-113788502D01*
X150976518Y-113824812D01*
X151101000Y-113837072D01*
X152599000Y-113837072D01*
X152723482Y-113824812D01*
X152843180Y-113788502D01*
X152953494Y-113729537D01*
X153050185Y-113650185D01*
X153129537Y-113553494D01*
X153188502Y-113443180D01*
X153224812Y-113323482D01*
X153237072Y-113199000D01*
X153237072Y-112313688D01*
X156966000Y-112313688D01*
X156966000Y-112586312D01*
X157019186Y-112853698D01*
X157123515Y-113105570D01*
X157274977Y-113332249D01*
X157467751Y-113525023D01*
X157694430Y-113676485D01*
X157946302Y-113780814D01*
X158213688Y-113834000D01*
X158486312Y-113834000D01*
X158753698Y-113780814D01*
X159005570Y-113676485D01*
X159232249Y-113525023D01*
X159425023Y-113332249D01*
X159576485Y-113105570D01*
X159680814Y-112853698D01*
X159734000Y-112586312D01*
X159734000Y-112313688D01*
X159680814Y-112046302D01*
X159576485Y-111794430D01*
X159425023Y-111567751D01*
X159232249Y-111374977D01*
X159005570Y-111223515D01*
X158753698Y-111119186D01*
X158486312Y-111066000D01*
X158213688Y-111066000D01*
X157946302Y-111119186D01*
X157694430Y-111223515D01*
X157467751Y-111374977D01*
X157274977Y-111567751D01*
X157123515Y-111794430D01*
X157019186Y-112046302D01*
X156966000Y-112313688D01*
X153237072Y-112313688D01*
X153237072Y-111701000D01*
X153224812Y-111576518D01*
X153188502Y-111456820D01*
X153129537Y-111346506D01*
X153050185Y-111249815D01*
X152953494Y-111170463D01*
X152843180Y-111111498D01*
X152723482Y-111075188D01*
X152599000Y-111062928D01*
X151101000Y-111062928D01*
X150976518Y-111075188D01*
X150856820Y-111111498D01*
X150746506Y-111170463D01*
X150649815Y-111249815D01*
X150570463Y-111346506D01*
X150511498Y-111456820D01*
X150475188Y-111576518D01*
X150462928Y-111701000D01*
X149011363Y-111701000D01*
X148903937Y-111540226D01*
X148759774Y-111396063D01*
X148590256Y-111282795D01*
X148401898Y-111204774D01*
X148201939Y-111165000D01*
X147998061Y-111165000D01*
X147798102Y-111204774D01*
X147609744Y-111282795D01*
X147440226Y-111396063D01*
X147396289Y-111440000D01*
X144628690Y-111440000D01*
X144584753Y-111396063D01*
X144415235Y-111282795D01*
X144226877Y-111204774D01*
X144026918Y-111165000D01*
X143823040Y-111165000D01*
X143623081Y-111204774D01*
X143434723Y-111282795D01*
X143265205Y-111396063D01*
X143121042Y-111540226D01*
X143007774Y-111709744D01*
X142929753Y-111898102D01*
X142889979Y-112098061D01*
X122885000Y-112098061D01*
X122885000Y-101143454D01*
X122917205Y-101095256D01*
X122995226Y-100906898D01*
X123035000Y-100706939D01*
X123035000Y-100503061D01*
X123028891Y-100472347D01*
X123164592Y-100472347D01*
X123364551Y-100432573D01*
X123552909Y-100354552D01*
X123722427Y-100241284D01*
X123866590Y-100097121D01*
X123979858Y-99927603D01*
X124057879Y-99739245D01*
X124097653Y-99539286D01*
X124097653Y-99335408D01*
X124057879Y-99135449D01*
X124030477Y-99069293D01*
X129893768Y-99069293D01*
X129893768Y-99273171D01*
X129933542Y-99473130D01*
X130011563Y-99661488D01*
X130124831Y-99831006D01*
X130268994Y-99975169D01*
X130438512Y-100088437D01*
X130626870Y-100166458D01*
X130826829Y-100206232D01*
X131030707Y-100206232D01*
X131230666Y-100166458D01*
X131285924Y-100143569D01*
X131840001Y-100697647D01*
X131840000Y-102757095D01*
X131836444Y-102793200D01*
X131849020Y-102920887D01*
X131850635Y-102937284D01*
X131892663Y-103075832D01*
X131960913Y-103203519D01*
X132052762Y-103315437D01*
X132080808Y-103338454D01*
X137961546Y-109219193D01*
X137984562Y-109247238D01*
X138096480Y-109339087D01*
X138224167Y-109407337D01*
X138320686Y-109436616D01*
X138362714Y-109449365D01*
X138506799Y-109463556D01*
X138542904Y-109460000D01*
X148457095Y-109460000D01*
X148493200Y-109463556D01*
X148529305Y-109460000D01*
X148637285Y-109449365D01*
X148775833Y-109407337D01*
X148903520Y-109339087D01*
X149015438Y-109247238D01*
X149038459Y-109219187D01*
X150434585Y-107823061D01*
X186690000Y-107823061D01*
X186690000Y-108026939D01*
X186729774Y-108226898D01*
X186807795Y-108415256D01*
X186921063Y-108584774D01*
X187065226Y-108728937D01*
X187234744Y-108842205D01*
X187423102Y-108920226D01*
X187623061Y-108960000D01*
X187826939Y-108960000D01*
X188026898Y-108920226D01*
X188215256Y-108842205D01*
X188384774Y-108728937D01*
X188528937Y-108584774D01*
X188642205Y-108415256D01*
X188720226Y-108226898D01*
X188731535Y-108170043D01*
X189195050Y-107706529D01*
X189228817Y-107678817D01*
X189299523Y-107592663D01*
X189339411Y-107544059D01*
X189341581Y-107540000D01*
X189421589Y-107390313D01*
X189472195Y-107223490D01*
X189485000Y-107093477D01*
X189485000Y-107093469D01*
X189489281Y-107050000D01*
X189485000Y-107006531D01*
X189485000Y-106909894D01*
X190689711Y-106909894D01*
X190862322Y-107239583D01*
X191260596Y-107444158D01*
X191691128Y-107567103D01*
X192137372Y-107603692D01*
X192582180Y-107552521D01*
X193008458Y-107415555D01*
X193337678Y-107239583D01*
X193510289Y-106909894D01*
X192100000Y-105499605D01*
X190689711Y-106909894D01*
X189485000Y-106909894D01*
X189485000Y-105357372D01*
X189816308Y-105357372D01*
X189867479Y-105802180D01*
X190004445Y-106228458D01*
X190180417Y-106557678D01*
X190510106Y-106730289D01*
X191920395Y-105320000D01*
X192279605Y-105320000D01*
X193689894Y-106730289D01*
X194019583Y-106557678D01*
X194224158Y-106159404D01*
X194347103Y-105728872D01*
X194383692Y-105282628D01*
X194332521Y-104837820D01*
X194195555Y-104411542D01*
X194019583Y-104082322D01*
X193689894Y-103909711D01*
X192279605Y-105320000D01*
X191920395Y-105320000D01*
X190510106Y-103909711D01*
X190180417Y-104082322D01*
X189975842Y-104480596D01*
X189852897Y-104911128D01*
X189816308Y-105357372D01*
X189485000Y-105357372D01*
X189485000Y-103730106D01*
X190689711Y-103730106D01*
X192100000Y-105140395D01*
X193510289Y-103730106D01*
X193337678Y-103400417D01*
X192939404Y-103195842D01*
X192508872Y-103072897D01*
X192062628Y-103036308D01*
X191617820Y-103087479D01*
X191191542Y-103224445D01*
X190862322Y-103400417D01*
X190689711Y-103730106D01*
X189485000Y-103730106D01*
X189485000Y-103602072D01*
X190104000Y-103602072D01*
X190228482Y-103589812D01*
X190348180Y-103553502D01*
X190458494Y-103494537D01*
X190555185Y-103415185D01*
X190634537Y-103318494D01*
X190693502Y-103208180D01*
X190729812Y-103088482D01*
X190742072Y-102964000D01*
X190742072Y-101536000D01*
X190729812Y-101411518D01*
X190693502Y-101291820D01*
X190634537Y-101181506D01*
X190555185Y-101084815D01*
X190458494Y-101005463D01*
X190348180Y-100946498D01*
X190228482Y-100910188D01*
X190104000Y-100897928D01*
X190100140Y-100897928D01*
X190249937Y-100797837D01*
X190437837Y-100609937D01*
X190585468Y-100388991D01*
X190687158Y-100143489D01*
X190739000Y-99882865D01*
X190739000Y-99617135D01*
X190687158Y-99356511D01*
X190585468Y-99111009D01*
X190437837Y-98890063D01*
X190297774Y-98750000D01*
X190437837Y-98609937D01*
X190585468Y-98388991D01*
X190687158Y-98143489D01*
X190739000Y-97882865D01*
X190739000Y-97617135D01*
X190687158Y-97356511D01*
X190585468Y-97111009D01*
X190437837Y-96890063D01*
X190249937Y-96702163D01*
X190028991Y-96554532D01*
X189898519Y-96500489D01*
X189976258Y-96472193D01*
X190080509Y-96416470D01*
X190141668Y-96181273D01*
X189390000Y-95429605D01*
X188638332Y-96181273D01*
X188699491Y-96416470D01*
X188880526Y-96500884D01*
X188751009Y-96554532D01*
X188530063Y-96702163D01*
X188342163Y-96890063D01*
X188194532Y-97111009D01*
X188092842Y-97356511D01*
X188041000Y-97617135D01*
X188041000Y-97882865D01*
X188092842Y-98143489D01*
X188194532Y-98388991D01*
X188342163Y-98609937D01*
X188482226Y-98750000D01*
X188342163Y-98890063D01*
X188194532Y-99111009D01*
X188092842Y-99356511D01*
X188041000Y-99617135D01*
X188041000Y-99882865D01*
X188092842Y-100143489D01*
X188194532Y-100388991D01*
X188342163Y-100609937D01*
X188530063Y-100797837D01*
X188679860Y-100897928D01*
X188676000Y-100897928D01*
X188551518Y-100910188D01*
X188431820Y-100946498D01*
X188321506Y-101005463D01*
X188224815Y-101084815D01*
X188145463Y-101181506D01*
X188086498Y-101291820D01*
X188050188Y-101411518D01*
X188037928Y-101536000D01*
X188037928Y-102302795D01*
X188035594Y-102315194D01*
X188032214Y-102327448D01*
X188027987Y-102338917D01*
X188022504Y-102350653D01*
X188015147Y-102363510D01*
X188005116Y-102378172D01*
X187992911Y-102393352D01*
X187971184Y-102411183D01*
X187943471Y-102444951D01*
X187943468Y-102444954D01*
X187860590Y-102545941D01*
X187778412Y-102699687D01*
X187727805Y-102866510D01*
X187710719Y-103040000D01*
X187715001Y-103083479D01*
X187715000Y-106683421D01*
X187479957Y-106918465D01*
X187423102Y-106929774D01*
X187234744Y-107007795D01*
X187065226Y-107121063D01*
X186921063Y-107265226D01*
X186807795Y-107434744D01*
X186729774Y-107623102D01*
X186690000Y-107823061D01*
X150434585Y-107823061D01*
X154907646Y-103350000D01*
X184211928Y-103350000D01*
X184211928Y-105050000D01*
X184224188Y-105174482D01*
X184260498Y-105294180D01*
X184319463Y-105404494D01*
X184398815Y-105501185D01*
X184495506Y-105580537D01*
X184605820Y-105639502D01*
X184725518Y-105675812D01*
X184850000Y-105688072D01*
X186550000Y-105688072D01*
X186674482Y-105675812D01*
X186794180Y-105639502D01*
X186904494Y-105580537D01*
X187001185Y-105501185D01*
X187080537Y-105404494D01*
X187139502Y-105294180D01*
X187175812Y-105174482D01*
X187188072Y-105050000D01*
X187188072Y-103350000D01*
X187175812Y-103225518D01*
X187139502Y-103105820D01*
X187080537Y-102995506D01*
X187001185Y-102898815D01*
X186904494Y-102819463D01*
X186794180Y-102760498D01*
X186674482Y-102724188D01*
X186550000Y-102711928D01*
X184850000Y-102711928D01*
X184725518Y-102724188D01*
X184605820Y-102760498D01*
X184495506Y-102819463D01*
X184398815Y-102898815D01*
X184319463Y-102995506D01*
X184260498Y-103105820D01*
X184224188Y-103225518D01*
X184211928Y-103350000D01*
X154907646Y-103350000D01*
X155219193Y-103038454D01*
X155247238Y-103015438D01*
X155339087Y-102903520D01*
X155407337Y-102775833D01*
X155436616Y-102679314D01*
X155449365Y-102637286D01*
X155463556Y-102493201D01*
X155460000Y-102457096D01*
X155460000Y-99897646D01*
X156597647Y-98760000D01*
X158757095Y-98760000D01*
X158793200Y-98763556D01*
X158829305Y-98760000D01*
X158937285Y-98749365D01*
X159075833Y-98707337D01*
X159203520Y-98639087D01*
X159315438Y-98547238D01*
X159338458Y-98519188D01*
X160727068Y-97130579D01*
X160888503Y-97238446D01*
X161076861Y-97316467D01*
X161276820Y-97356241D01*
X161480698Y-97356241D01*
X161680657Y-97316467D01*
X161869015Y-97238446D01*
X162038533Y-97125178D01*
X162182696Y-96981015D01*
X162295964Y-96811497D01*
X162373985Y-96623139D01*
X162382137Y-96582155D01*
X162423121Y-96574003D01*
X162611479Y-96495982D01*
X162780997Y-96382714D01*
X162925160Y-96238551D01*
X163038428Y-96069033D01*
X163116449Y-95880675D01*
X163156223Y-95680716D01*
X163156223Y-95476838D01*
X163116449Y-95276879D01*
X163038428Y-95088521D01*
X162925160Y-94919003D01*
X162780997Y-94774840D01*
X162611479Y-94661572D01*
X162423121Y-94583551D01*
X162223162Y-94543777D01*
X162019284Y-94543777D01*
X161819325Y-94583551D01*
X161630967Y-94661572D01*
X161461449Y-94774840D01*
X161392752Y-94843537D01*
X161385877Y-94843777D01*
X160639128Y-94843777D01*
X160603023Y-94840221D01*
X160458938Y-94854412D01*
X160320389Y-94896440D01*
X160218287Y-94951015D01*
X160192703Y-94964690D01*
X160080785Y-95056539D01*
X160057769Y-95084584D01*
X158302354Y-96840000D01*
X156142894Y-96840000D01*
X156106799Y-96836445D01*
X156070704Y-96840000D01*
X156070695Y-96840000D01*
X155962715Y-96850635D01*
X155824167Y-96892663D01*
X155696480Y-96960913D01*
X155584562Y-97052762D01*
X155561546Y-97080807D01*
X153780808Y-98861546D01*
X153752762Y-98884563D01*
X153660913Y-98996481D01*
X153592663Y-99124168D01*
X153574853Y-99182880D01*
X153550635Y-99262715D01*
X153536444Y-99406800D01*
X153540000Y-99442905D01*
X153540001Y-102002352D01*
X148002354Y-107540000D01*
X138997647Y-107540000D01*
X133760000Y-102302354D01*
X133760000Y-100242905D01*
X133763556Y-100206800D01*
X133749365Y-100062715D01*
X133726277Y-99986606D01*
X133707337Y-99924168D01*
X133639087Y-99796481D01*
X133547238Y-99684563D01*
X133519193Y-99661547D01*
X132643569Y-98785924D01*
X132666458Y-98730666D01*
X132706232Y-98530707D01*
X132706232Y-98326829D01*
X132666458Y-98126870D01*
X132588437Y-97938512D01*
X132475169Y-97768994D01*
X132331006Y-97624831D01*
X132161488Y-97511563D01*
X131973130Y-97433542D01*
X131773171Y-97393768D01*
X131569293Y-97393768D01*
X131369334Y-97433542D01*
X131180976Y-97511563D01*
X131011458Y-97624831D01*
X130867295Y-97768994D01*
X130754027Y-97938512D01*
X130676006Y-98126870D01*
X130667854Y-98167854D01*
X130626870Y-98176006D01*
X130438512Y-98254027D01*
X130268994Y-98367295D01*
X130124831Y-98511458D01*
X130011563Y-98680976D01*
X129933542Y-98869334D01*
X129893768Y-99069293D01*
X124030477Y-99069293D01*
X123979858Y-98947091D01*
X123866590Y-98777573D01*
X123822653Y-98733636D01*
X123822653Y-97931767D01*
X123917205Y-97790260D01*
X123995226Y-97601902D01*
X124035000Y-97401943D01*
X124035000Y-97198065D01*
X123995226Y-96998106D01*
X123917205Y-96809748D01*
X123803937Y-96640230D01*
X123659774Y-96496067D01*
X123490256Y-96382799D01*
X123301898Y-96304778D01*
X123101939Y-96265004D01*
X122898061Y-96265004D01*
X122885000Y-96267602D01*
X122885000Y-96204731D01*
X122927595Y-96101898D01*
X122967369Y-95901939D01*
X122967369Y-95698061D01*
X122927595Y-95498102D01*
X122849574Y-95309744D01*
X122736306Y-95140226D01*
X122592143Y-94996063D01*
X122422625Y-94882795D01*
X122234267Y-94804774D01*
X122034308Y-94765000D01*
X121830430Y-94765000D01*
X121630471Y-94804774D01*
X121442113Y-94882795D01*
X121272595Y-94996063D01*
X121128432Y-95140226D01*
X121015164Y-95309744D01*
X120937143Y-95498102D01*
X120897369Y-95698061D01*
X120897369Y-95901939D01*
X120937143Y-96101898D01*
X121015164Y-96290256D01*
X121102255Y-96420597D01*
X121111203Y-96453144D01*
X121115001Y-96467609D01*
X121115000Y-100066546D01*
X121082795Y-100114744D01*
X121004774Y-100303102D01*
X120965000Y-100503061D01*
X120965000Y-100706939D01*
X121004774Y-100906898D01*
X121082795Y-101095256D01*
X121115000Y-101143454D01*
X121115000Y-101373668D01*
X121005865Y-101327066D01*
X120782000Y-101280000D01*
X120555101Y-101280000D01*
X120590000Y-101104552D01*
X120590000Y-100915448D01*
X120553108Y-100729978D01*
X120480741Y-100555269D01*
X120375681Y-100398036D01*
X120241964Y-100264319D01*
X120084731Y-100159259D01*
X119910022Y-100086892D01*
X119724552Y-100050000D01*
X119535448Y-100050000D01*
X119349978Y-100086892D01*
X119175269Y-100159259D01*
X119018036Y-100264319D01*
X118884319Y-100398036D01*
X118779259Y-100555269D01*
X118706892Y-100729978D01*
X118670000Y-100915448D01*
X118670000Y-101104552D01*
X118706892Y-101290022D01*
X118779259Y-101464731D01*
X118842258Y-101559015D01*
X118694953Y-101709559D01*
X118569937Y-101901136D01*
X118486036Y-102134190D01*
X118611837Y-102313000D01*
X120003000Y-102313000D01*
X120003000Y-102293000D01*
X120257000Y-102293000D01*
X120257000Y-102313000D01*
X120277000Y-102313000D01*
X120277000Y-102567000D01*
X120257000Y-102567000D01*
X120257000Y-103600000D01*
X120782000Y-103600000D01*
X121005865Y-103552934D01*
X121115000Y-103506332D01*
X121115001Y-117856521D01*
X121110719Y-117900000D01*
X121127805Y-118073490D01*
X121178412Y-118240313D01*
X121260590Y-118394059D01*
X121343468Y-118495046D01*
X121343471Y-118495049D01*
X121371184Y-118528817D01*
X121404951Y-118556529D01*
X122313421Y-119465000D01*
X116735959Y-119465000D01*
X116454981Y-119437450D01*
X116219290Y-119366290D01*
X116001914Y-119250710D01*
X115811123Y-119095103D01*
X115654191Y-118905407D01*
X115537096Y-118688842D01*
X115464293Y-118453655D01*
X115435002Y-118174971D01*
X115435002Y-115965098D01*
X116315000Y-115965098D01*
X116315000Y-116434902D01*
X116406654Y-116895679D01*
X116586440Y-117329721D01*
X116847450Y-117720349D01*
X117179651Y-118052550D01*
X117570279Y-118313560D01*
X118004321Y-118493346D01*
X118465098Y-118585000D01*
X118934902Y-118585000D01*
X119395679Y-118493346D01*
X119829721Y-118313560D01*
X120220349Y-118052550D01*
X120552550Y-117720349D01*
X120813560Y-117329721D01*
X120993346Y-116895679D01*
X121085000Y-116434902D01*
X121085000Y-115965098D01*
X120993346Y-115504321D01*
X120813560Y-115070279D01*
X120552550Y-114679651D01*
X120220349Y-114347450D01*
X119829721Y-114086440D01*
X119395679Y-113906654D01*
X118934902Y-113815000D01*
X118465098Y-113815000D01*
X118004321Y-113906654D01*
X117570279Y-114086440D01*
X117179651Y-114347450D01*
X116847450Y-114679651D01*
X116586440Y-115070279D01*
X116406654Y-115504321D01*
X116315000Y-115965098D01*
X115435002Y-115965098D01*
X115435002Y-103575000D01*
X115823000Y-103575000D01*
X115823000Y-102567000D01*
X116077000Y-102567000D01*
X116077000Y-103575000D01*
X116577000Y-103575000D01*
X116795987Y-103528415D01*
X117001678Y-103440003D01*
X117186169Y-103313161D01*
X117342369Y-103152764D01*
X117464276Y-102964976D01*
X117542710Y-102745810D01*
X118486036Y-102745810D01*
X118569937Y-102978864D01*
X118694953Y-103170441D01*
X118854941Y-103333947D01*
X119043754Y-103463099D01*
X119254135Y-103552934D01*
X119478000Y-103600000D01*
X120003000Y-103600000D01*
X120003000Y-102567000D01*
X118611837Y-102567000D01*
X118486036Y-102745810D01*
X117542710Y-102745810D01*
X117544119Y-102741874D01*
X117417954Y-102567000D01*
X116077000Y-102567000D01*
X115823000Y-102567000D01*
X115803000Y-102567000D01*
X115803000Y-102313000D01*
X115823000Y-102313000D01*
X115823000Y-101305000D01*
X116077000Y-101305000D01*
X116077000Y-102313000D01*
X117417954Y-102313000D01*
X117544119Y-102138126D01*
X117464276Y-101915024D01*
X117342369Y-101727236D01*
X117186169Y-101566839D01*
X117001678Y-101439997D01*
X116795987Y-101351585D01*
X116577000Y-101305000D01*
X116077000Y-101305000D01*
X115823000Y-101305000D01*
X115435002Y-101305000D01*
X115435002Y-94935000D01*
X115823000Y-94935000D01*
X115823000Y-93927000D01*
X116077000Y-93927000D01*
X116077000Y-94935000D01*
X116577000Y-94935000D01*
X116795987Y-94888415D01*
X117001678Y-94800003D01*
X117186169Y-94673161D01*
X117342369Y-94512764D01*
X117464276Y-94324976D01*
X117542710Y-94105810D01*
X118486036Y-94105810D01*
X118569937Y-94338864D01*
X118694953Y-94530441D01*
X118842258Y-94680985D01*
X118779259Y-94775269D01*
X118706892Y-94949978D01*
X118670000Y-95135448D01*
X118670000Y-95324552D01*
X118706892Y-95510022D01*
X118779259Y-95684731D01*
X118884319Y-95841964D01*
X119018036Y-95975681D01*
X119175269Y-96080741D01*
X119349978Y-96153108D01*
X119535448Y-96190000D01*
X119724552Y-96190000D01*
X119910022Y-96153108D01*
X120084731Y-96080741D01*
X120241964Y-95975681D01*
X120375681Y-95841964D01*
X120480741Y-95684731D01*
X120553108Y-95510022D01*
X120590000Y-95324552D01*
X120590000Y-95135448D01*
X120555101Y-94960000D01*
X120782000Y-94960000D01*
X121005865Y-94912934D01*
X121216246Y-94823099D01*
X121405059Y-94693947D01*
X121565047Y-94530441D01*
X121690063Y-94338864D01*
X121773964Y-94105810D01*
X121648163Y-93927000D01*
X120257000Y-93927000D01*
X120257000Y-93947000D01*
X120003000Y-93947000D01*
X120003000Y-93927000D01*
X118611837Y-93927000D01*
X118486036Y-94105810D01*
X117542710Y-94105810D01*
X117544119Y-94101874D01*
X117417954Y-93927000D01*
X116077000Y-93927000D01*
X115823000Y-93927000D01*
X115803000Y-93927000D01*
X115803000Y-93673000D01*
X115823000Y-93673000D01*
X115823000Y-92665000D01*
X116077000Y-92665000D01*
X116077000Y-93673000D01*
X117417954Y-93673000D01*
X117544119Y-93498126D01*
X117542711Y-93494190D01*
X118486036Y-93494190D01*
X118611837Y-93673000D01*
X120003000Y-93673000D01*
X120003000Y-92640000D01*
X120257000Y-92640000D01*
X120257000Y-93673000D01*
X121648163Y-93673000D01*
X121773964Y-93494190D01*
X121690063Y-93261136D01*
X121565047Y-93069559D01*
X121405059Y-92906053D01*
X121216246Y-92776901D01*
X121005865Y-92687066D01*
X120782000Y-92640000D01*
X120257000Y-92640000D01*
X120003000Y-92640000D01*
X119478000Y-92640000D01*
X119254135Y-92687066D01*
X119043754Y-92776901D01*
X118854941Y-92906053D01*
X118694953Y-93069559D01*
X118569937Y-93261136D01*
X118486036Y-93494190D01*
X117542711Y-93494190D01*
X117464276Y-93275024D01*
X117342369Y-93087236D01*
X117186169Y-92926839D01*
X117001678Y-92799997D01*
X116795987Y-92711585D01*
X116577000Y-92665000D01*
X116077000Y-92665000D01*
X115823000Y-92665000D01*
X115435002Y-92665000D01*
X115435002Y-91598061D01*
X161965000Y-91598061D01*
X161965000Y-91801939D01*
X162004774Y-92001898D01*
X162082795Y-92190256D01*
X162196063Y-92359774D01*
X162340226Y-92503937D01*
X162509744Y-92617205D01*
X162698102Y-92695226D01*
X162898061Y-92735000D01*
X163101939Y-92735000D01*
X163301898Y-92695226D01*
X163490256Y-92617205D01*
X163659774Y-92503937D01*
X163803937Y-92359774D01*
X163917205Y-92190256D01*
X163995226Y-92001898D01*
X164035000Y-91801939D01*
X164035000Y-91739801D01*
X167832281Y-87942521D01*
X168382678Y-87942521D01*
X168089002Y-88236197D01*
X168059999Y-88259999D01*
X168019824Y-88308953D01*
X167965026Y-88375724D01*
X167911575Y-88475724D01*
X167894454Y-88507754D01*
X167850997Y-88651015D01*
X167840000Y-88762668D01*
X167840000Y-88762678D01*
X167836324Y-88800000D01*
X167840000Y-88837323D01*
X167840001Y-93285197D01*
X167060199Y-94065000D01*
X166998061Y-94065000D01*
X166798102Y-94104774D01*
X166609744Y-94182795D01*
X166440226Y-94296063D01*
X166296063Y-94440226D01*
X166182795Y-94609744D01*
X166104774Y-94798102D01*
X166065000Y-94998061D01*
X166065000Y-95201939D01*
X166104774Y-95401898D01*
X166182795Y-95590256D01*
X166183813Y-95591779D01*
X166040672Y-95734920D01*
X165927404Y-95904438D01*
X165849383Y-96092796D01*
X165809609Y-96292755D01*
X165809609Y-96496633D01*
X165849383Y-96696592D01*
X165927404Y-96884950D01*
X166040672Y-97054468D01*
X166184835Y-97198631D01*
X166354353Y-97311899D01*
X166542711Y-97389920D01*
X166742670Y-97429694D01*
X166946548Y-97429694D01*
X167146507Y-97389920D01*
X167334865Y-97311899D01*
X167402797Y-97266508D01*
X167440226Y-97303937D01*
X167609744Y-97417205D01*
X167798102Y-97495226D01*
X167998061Y-97535000D01*
X168201939Y-97535000D01*
X168401898Y-97495226D01*
X168590256Y-97417205D01*
X168759774Y-97303937D01*
X168903937Y-97159774D01*
X169017205Y-96990256D01*
X169095226Y-96801898D01*
X169135000Y-96601939D01*
X169135000Y-96539801D01*
X170350882Y-95323919D01*
X188036489Y-95323919D01*
X188076918Y-95586555D01*
X188167807Y-95836258D01*
X188223530Y-95940509D01*
X188458727Y-96001668D01*
X189210395Y-95250000D01*
X189569605Y-95250000D01*
X190321273Y-96001668D01*
X190556470Y-95940509D01*
X190668768Y-95699674D01*
X190731924Y-95441559D01*
X190743511Y-95176081D01*
X190703082Y-94913445D01*
X190612193Y-94663742D01*
X190556470Y-94559491D01*
X190321273Y-94498332D01*
X189569605Y-95250000D01*
X189210395Y-95250000D01*
X188458727Y-94498332D01*
X188223530Y-94559491D01*
X188111232Y-94800326D01*
X188048076Y-95058441D01*
X188036489Y-95323919D01*
X170350882Y-95323919D01*
X171356074Y-94318727D01*
X188638332Y-94318727D01*
X189390000Y-95070395D01*
X190141668Y-94318727D01*
X190080509Y-94083530D01*
X189839674Y-93971232D01*
X189581559Y-93908076D01*
X189316081Y-93896489D01*
X189053445Y-93936918D01*
X188803742Y-94027807D01*
X188699491Y-94083530D01*
X188638332Y-94318727D01*
X171356074Y-94318727D01*
X171411003Y-94263799D01*
X171440001Y-94240001D01*
X171502719Y-94163579D01*
X171534974Y-94124277D01*
X171605546Y-93992247D01*
X171619152Y-93947393D01*
X171649003Y-93848986D01*
X171656792Y-93769894D01*
X190689711Y-93769894D01*
X190862322Y-94099583D01*
X191260596Y-94304158D01*
X191691128Y-94427103D01*
X192137372Y-94463692D01*
X192582180Y-94412521D01*
X193008458Y-94275555D01*
X193337678Y-94099583D01*
X193510289Y-93769894D01*
X192100000Y-92359605D01*
X190689711Y-93769894D01*
X171656792Y-93769894D01*
X171660000Y-93737333D01*
X171660000Y-93737323D01*
X171663676Y-93700000D01*
X171660000Y-93662677D01*
X171660000Y-92217372D01*
X189816308Y-92217372D01*
X189867479Y-92662180D01*
X190004445Y-93088458D01*
X190180417Y-93417678D01*
X190510106Y-93590289D01*
X191920395Y-92180000D01*
X192279605Y-92180000D01*
X193689894Y-93590289D01*
X194019583Y-93417678D01*
X194224158Y-93019404D01*
X194347103Y-92588872D01*
X194383692Y-92142628D01*
X194332521Y-91697820D01*
X194195555Y-91271542D01*
X194019583Y-90942322D01*
X193689894Y-90769711D01*
X192279605Y-92180000D01*
X191920395Y-92180000D01*
X190510106Y-90769711D01*
X190180417Y-90942322D01*
X189975842Y-91340596D01*
X189852897Y-91771128D01*
X189816308Y-92217372D01*
X171660000Y-92217372D01*
X171660000Y-90590106D01*
X190689711Y-90590106D01*
X192100000Y-92000395D01*
X193510289Y-90590106D01*
X193337678Y-90260417D01*
X192939404Y-90055842D01*
X192508872Y-89932897D01*
X192062628Y-89896308D01*
X191617820Y-89947479D01*
X191191542Y-90084445D01*
X190862322Y-90260417D01*
X190689711Y-90590106D01*
X171660000Y-90590106D01*
X171660000Y-89603711D01*
X171703937Y-89559774D01*
X171817205Y-89390256D01*
X171895226Y-89201898D01*
X171935000Y-89001939D01*
X171935000Y-88798061D01*
X171907538Y-88660001D01*
X172528841Y-88660001D01*
X172582795Y-88790256D01*
X172696063Y-88959774D01*
X172840226Y-89103937D01*
X173009744Y-89217205D01*
X173198102Y-89295226D01*
X173398061Y-89335000D01*
X173601939Y-89335000D01*
X173801898Y-89295226D01*
X173990256Y-89217205D01*
X174159774Y-89103937D01*
X174303937Y-88959774D01*
X174417205Y-88790256D01*
X174495226Y-88601898D01*
X174535000Y-88401939D01*
X174535000Y-88198061D01*
X174512982Y-88087367D01*
X174664004Y-87986458D01*
X174808167Y-87842295D01*
X174921435Y-87672777D01*
X174999456Y-87484419D01*
X175039230Y-87284460D01*
X175039230Y-87080582D01*
X174999456Y-86880623D01*
X174921435Y-86692265D01*
X174808167Y-86522747D01*
X174664004Y-86378584D01*
X174494486Y-86265316D01*
X174306128Y-86187295D01*
X174106169Y-86147521D01*
X173902291Y-86147521D01*
X173702332Y-86187295D01*
X173513974Y-86265316D01*
X173344456Y-86378584D01*
X173300519Y-86422521D01*
X167554801Y-86422521D01*
X167517478Y-86418845D01*
X167480155Y-86422521D01*
X167480146Y-86422521D01*
X167368493Y-86433518D01*
X167245401Y-86470857D01*
X167225232Y-86476975D01*
X167093202Y-86547547D01*
X167018922Y-86608508D01*
X166977478Y-86642520D01*
X166953680Y-86671518D01*
X162960199Y-90665000D01*
X162898061Y-90665000D01*
X162698102Y-90704774D01*
X162509744Y-90782795D01*
X162340226Y-90896063D01*
X162196063Y-91040226D01*
X162082795Y-91209744D01*
X162004774Y-91398102D01*
X161965000Y-91598061D01*
X115435002Y-91598061D01*
X115435002Y-84507584D01*
X130457021Y-84507584D01*
X130549766Y-84769429D01*
X130835120Y-84907820D01*
X131141990Y-84987883D01*
X131458584Y-85006540D01*
X131772733Y-84963074D01*
X132072367Y-84859156D01*
X132240234Y-84769429D01*
X132332979Y-84507584D01*
X137467021Y-84507584D01*
X137559766Y-84769429D01*
X137845120Y-84907820D01*
X138151990Y-84987883D01*
X138468584Y-85006540D01*
X138782733Y-84963074D01*
X139082367Y-84859156D01*
X139250234Y-84769429D01*
X139307559Y-84607584D01*
X144157021Y-84607584D01*
X144249766Y-84869429D01*
X144535120Y-85007820D01*
X144841990Y-85087883D01*
X145158584Y-85106540D01*
X145472733Y-85063074D01*
X145772367Y-84959156D01*
X145940234Y-84869429D01*
X146032979Y-84607584D01*
X151167021Y-84607584D01*
X151259766Y-84869429D01*
X151545120Y-85007820D01*
X151851990Y-85087883D01*
X152168584Y-85106540D01*
X152482733Y-85063074D01*
X152782367Y-84959156D01*
X152950234Y-84869429D01*
X153042979Y-84607584D01*
X152942979Y-84507584D01*
X157157021Y-84507584D01*
X157249766Y-84769429D01*
X157535120Y-84907820D01*
X157841990Y-84987883D01*
X158158584Y-85006540D01*
X158472733Y-84963074D01*
X158772367Y-84859156D01*
X158940234Y-84769429D01*
X159032979Y-84507584D01*
X164167021Y-84507584D01*
X164259766Y-84769429D01*
X164545120Y-84907820D01*
X164851990Y-84987883D01*
X165168584Y-85006540D01*
X165482733Y-84963074D01*
X165782367Y-84859156D01*
X165950234Y-84769429D01*
X166042979Y-84507584D01*
X170757021Y-84507584D01*
X170849766Y-84769429D01*
X171135120Y-84907820D01*
X171441990Y-84987883D01*
X171758584Y-85006540D01*
X172072733Y-84963074D01*
X172372367Y-84859156D01*
X172540234Y-84769429D01*
X172632979Y-84507584D01*
X177767021Y-84507584D01*
X177859766Y-84769429D01*
X178145120Y-84907820D01*
X178451990Y-84987883D01*
X178768584Y-85006540D01*
X179082733Y-84963074D01*
X179382367Y-84859156D01*
X179550234Y-84769429D01*
X179642979Y-84507584D01*
X178705000Y-83569605D01*
X177767021Y-84507584D01*
X172632979Y-84507584D01*
X171695000Y-83569605D01*
X170757021Y-84507584D01*
X166042979Y-84507584D01*
X165105000Y-83569605D01*
X164167021Y-84507584D01*
X159032979Y-84507584D01*
X158095000Y-83569605D01*
X157157021Y-84507584D01*
X152942979Y-84507584D01*
X152105000Y-83669605D01*
X151167021Y-84607584D01*
X146032979Y-84607584D01*
X145095000Y-83669605D01*
X144157021Y-84607584D01*
X139307559Y-84607584D01*
X139342979Y-84507584D01*
X138405000Y-83569605D01*
X137467021Y-84507584D01*
X132332979Y-84507584D01*
X131395000Y-83569605D01*
X130457021Y-84507584D01*
X115435002Y-84507584D01*
X115435002Y-83453584D01*
X129778460Y-83453584D01*
X129821926Y-83767733D01*
X129925844Y-84067367D01*
X130015571Y-84235234D01*
X130277416Y-84327979D01*
X131215395Y-83390000D01*
X130277416Y-82452021D01*
X130015571Y-82544766D01*
X129877180Y-82830120D01*
X129797117Y-83136990D01*
X129778460Y-83453584D01*
X115435002Y-83453584D01*
X115435002Y-82272416D01*
X130457021Y-82272416D01*
X131395000Y-83210395D01*
X131409143Y-83196253D01*
X131588748Y-83375858D01*
X131574605Y-83390000D01*
X132512584Y-84327979D01*
X132774429Y-84235234D01*
X132912820Y-83949880D01*
X132992883Y-83643010D01*
X133011540Y-83326416D01*
X132968074Y-83012267D01*
X132864156Y-82712633D01*
X132774429Y-82544766D01*
X132512586Y-82452022D01*
X132628320Y-82336288D01*
X132576032Y-82284000D01*
X132786312Y-82284000D01*
X133053698Y-82230814D01*
X133305570Y-82126485D01*
X133532249Y-81975023D01*
X133650993Y-81856279D01*
X136373326Y-81856279D01*
X136438729Y-82095045D01*
X136685538Y-82210845D01*
X136950195Y-82276270D01*
X137219311Y-82288657D01*
X137171680Y-82336288D01*
X137287414Y-82452022D01*
X137025571Y-82544766D01*
X136887180Y-82830120D01*
X136807117Y-83136990D01*
X136788460Y-83453584D01*
X136831926Y-83767733D01*
X136935844Y-84067367D01*
X137025571Y-84235234D01*
X137287416Y-84327979D01*
X138225395Y-83390000D01*
X138584605Y-83390000D01*
X139522584Y-84327979D01*
X139784429Y-84235234D01*
X139922820Y-83949880D01*
X140002883Y-83643010D01*
X140008152Y-83553584D01*
X143478460Y-83553584D01*
X143521926Y-83867733D01*
X143625844Y-84167367D01*
X143715571Y-84335234D01*
X143977416Y-84427979D01*
X144915395Y-83490000D01*
X143977416Y-82552021D01*
X143715571Y-82644766D01*
X143577180Y-82930120D01*
X143497117Y-83236990D01*
X143478460Y-83553584D01*
X140008152Y-83553584D01*
X140021540Y-83326416D01*
X139978074Y-83012267D01*
X139874156Y-82712633D01*
X139784429Y-82544766D01*
X139522584Y-82452021D01*
X138584605Y-83390000D01*
X138225395Y-83390000D01*
X138211253Y-83375858D01*
X138390858Y-83196253D01*
X138405000Y-83210395D01*
X139242979Y-82372416D01*
X144157021Y-82372416D01*
X145095000Y-83310395D01*
X145109143Y-83296253D01*
X145288748Y-83475858D01*
X145274605Y-83490000D01*
X146212584Y-84427979D01*
X146474429Y-84335234D01*
X146612820Y-84049880D01*
X146692883Y-83743010D01*
X146711540Y-83426416D01*
X146668074Y-83112267D01*
X146564156Y-82812633D01*
X146474429Y-82644766D01*
X146212586Y-82552022D01*
X146328320Y-82436288D01*
X146276032Y-82384000D01*
X146486312Y-82384000D01*
X146753698Y-82330814D01*
X147005570Y-82226485D01*
X147232249Y-82075023D01*
X147350993Y-81956279D01*
X150073326Y-81956279D01*
X150138729Y-82195045D01*
X150385538Y-82310845D01*
X150650195Y-82376270D01*
X150919311Y-82388657D01*
X150871680Y-82436288D01*
X150987414Y-82552022D01*
X150725571Y-82644766D01*
X150587180Y-82930120D01*
X150507117Y-83236990D01*
X150488460Y-83553584D01*
X150531926Y-83867733D01*
X150635844Y-84167367D01*
X150725571Y-84335234D01*
X150987416Y-84427979D01*
X151925395Y-83490000D01*
X152284605Y-83490000D01*
X153222584Y-84427979D01*
X153484429Y-84335234D01*
X153622820Y-84049880D01*
X153702883Y-83743010D01*
X153719938Y-83453584D01*
X156478460Y-83453584D01*
X156521926Y-83767733D01*
X156625844Y-84067367D01*
X156715571Y-84235234D01*
X156977416Y-84327979D01*
X157915395Y-83390000D01*
X156977416Y-82452021D01*
X156715571Y-82544766D01*
X156577180Y-82830120D01*
X156497117Y-83136990D01*
X156478460Y-83453584D01*
X153719938Y-83453584D01*
X153721540Y-83426416D01*
X153678074Y-83112267D01*
X153574156Y-82812633D01*
X153484429Y-82644766D01*
X153222584Y-82552021D01*
X152284605Y-83490000D01*
X151925395Y-83490000D01*
X151911253Y-83475858D01*
X152090858Y-83296253D01*
X152105000Y-83310395D01*
X153042979Y-82372416D01*
X153007560Y-82272416D01*
X157157021Y-82272416D01*
X158095000Y-83210395D01*
X158109143Y-83196253D01*
X158288748Y-83375858D01*
X158274605Y-83390000D01*
X159212584Y-84327979D01*
X159474429Y-84235234D01*
X159612820Y-83949880D01*
X159692883Y-83643010D01*
X159711540Y-83326416D01*
X159668074Y-83012267D01*
X159564156Y-82712633D01*
X159474429Y-82544766D01*
X159212586Y-82452022D01*
X159328320Y-82336288D01*
X159276032Y-82284000D01*
X159486312Y-82284000D01*
X159753698Y-82230814D01*
X160005570Y-82126485D01*
X160232249Y-81975023D01*
X160350993Y-81856279D01*
X163073326Y-81856279D01*
X163138729Y-82095045D01*
X163385538Y-82210845D01*
X163650195Y-82276270D01*
X163919311Y-82288657D01*
X163871680Y-82336288D01*
X163987414Y-82452022D01*
X163725571Y-82544766D01*
X163587180Y-82830120D01*
X163507117Y-83136990D01*
X163488460Y-83453584D01*
X163531926Y-83767733D01*
X163635844Y-84067367D01*
X163725571Y-84235234D01*
X163987416Y-84327979D01*
X164925395Y-83390000D01*
X165284605Y-83390000D01*
X166222584Y-84327979D01*
X166484429Y-84235234D01*
X166622820Y-83949880D01*
X166702883Y-83643010D01*
X166714045Y-83453584D01*
X170078460Y-83453584D01*
X170121926Y-83767733D01*
X170225844Y-84067367D01*
X170315571Y-84235234D01*
X170577416Y-84327979D01*
X171515395Y-83390000D01*
X170577416Y-82452021D01*
X170315571Y-82544766D01*
X170177180Y-82830120D01*
X170097117Y-83136990D01*
X170078460Y-83453584D01*
X166714045Y-83453584D01*
X166721540Y-83326416D01*
X166678074Y-83012267D01*
X166574156Y-82712633D01*
X166484429Y-82544766D01*
X166222584Y-82452021D01*
X165284605Y-83390000D01*
X164925395Y-83390000D01*
X164911253Y-83375858D01*
X165090858Y-83196253D01*
X165105000Y-83210395D01*
X166042979Y-82272416D01*
X170757021Y-82272416D01*
X171695000Y-83210395D01*
X171709143Y-83196253D01*
X171888748Y-83375858D01*
X171874605Y-83390000D01*
X172812584Y-84327979D01*
X173074429Y-84235234D01*
X173212820Y-83949880D01*
X173292883Y-83643010D01*
X173311540Y-83326416D01*
X173268074Y-83012267D01*
X173164156Y-82712633D01*
X173074429Y-82544766D01*
X172812586Y-82452022D01*
X172928320Y-82336288D01*
X172876032Y-82284000D01*
X173086312Y-82284000D01*
X173353698Y-82230814D01*
X173605570Y-82126485D01*
X173832249Y-81975023D01*
X173950993Y-81856279D01*
X176673326Y-81856279D01*
X176738729Y-82095045D01*
X176985538Y-82210845D01*
X177250195Y-82276270D01*
X177519311Y-82288657D01*
X177471680Y-82336288D01*
X177587414Y-82452022D01*
X177325571Y-82544766D01*
X177187180Y-82830120D01*
X177107117Y-83136990D01*
X177088460Y-83453584D01*
X177131926Y-83767733D01*
X177235844Y-84067367D01*
X177325571Y-84235234D01*
X177587416Y-84327979D01*
X178525395Y-83390000D01*
X178884605Y-83390000D01*
X179822584Y-84327979D01*
X180084429Y-84235234D01*
X180222820Y-83949880D01*
X180299261Y-83656891D01*
X180638519Y-83656891D01*
X180735843Y-83931252D01*
X180884822Y-84181355D01*
X181079731Y-84397588D01*
X181313080Y-84571641D01*
X181575901Y-84696825D01*
X181723110Y-84741476D01*
X181953000Y-84620155D01*
X181953000Y-83427000D01*
X180759186Y-83427000D01*
X180638519Y-83656891D01*
X180299261Y-83656891D01*
X180302883Y-83643010D01*
X180321540Y-83326416D01*
X180278074Y-83012267D01*
X180254089Y-82943109D01*
X180638519Y-82943109D01*
X180759186Y-83173000D01*
X181953000Y-83173000D01*
X181953000Y-81979845D01*
X182207000Y-81979845D01*
X182207000Y-83173000D01*
X182227000Y-83173000D01*
X182227000Y-83427000D01*
X182207000Y-83427000D01*
X182207000Y-84620155D01*
X182436890Y-84741476D01*
X182584099Y-84696825D01*
X182846920Y-84571641D01*
X183080269Y-84397588D01*
X183275178Y-84181355D01*
X183344805Y-84064466D01*
X183466525Y-84246632D01*
X183673368Y-84453475D01*
X183916589Y-84615990D01*
X184186842Y-84727932D01*
X184473740Y-84785000D01*
X184766260Y-84785000D01*
X185053158Y-84727932D01*
X185323411Y-84615990D01*
X185566632Y-84453475D01*
X185773475Y-84246632D01*
X185890000Y-84072240D01*
X186006525Y-84246632D01*
X186213368Y-84453475D01*
X186456589Y-84615990D01*
X186726842Y-84727932D01*
X187013740Y-84785000D01*
X187306260Y-84785000D01*
X187593158Y-84727932D01*
X187863411Y-84615990D01*
X188106632Y-84453475D01*
X188238487Y-84321620D01*
X188260498Y-84394180D01*
X188319463Y-84504494D01*
X188398815Y-84601185D01*
X188495506Y-84680537D01*
X188605820Y-84739502D01*
X188725518Y-84775812D01*
X188850000Y-84788072D01*
X190550000Y-84788072D01*
X190674482Y-84775812D01*
X190794180Y-84739502D01*
X190904494Y-84680537D01*
X191001185Y-84601185D01*
X191080537Y-84504494D01*
X191139502Y-84394180D01*
X191175812Y-84274482D01*
X191188072Y-84150000D01*
X191188072Y-82450000D01*
X191175812Y-82325518D01*
X191139502Y-82205820D01*
X191080537Y-82095506D01*
X191001185Y-81998815D01*
X190904494Y-81919463D01*
X190794180Y-81860498D01*
X190674482Y-81824188D01*
X190550000Y-81811928D01*
X188850000Y-81811928D01*
X188725518Y-81824188D01*
X188605820Y-81860498D01*
X188495506Y-81919463D01*
X188398815Y-81998815D01*
X188319463Y-82095506D01*
X188260498Y-82205820D01*
X188238487Y-82278380D01*
X188106632Y-82146525D01*
X187863411Y-81984010D01*
X187593158Y-81872068D01*
X187306260Y-81815000D01*
X187013740Y-81815000D01*
X186726842Y-81872068D01*
X186456589Y-81984010D01*
X186213368Y-82146525D01*
X186006525Y-82353368D01*
X185890000Y-82527760D01*
X185773475Y-82353368D01*
X185566632Y-82146525D01*
X185323411Y-81984010D01*
X185053158Y-81872068D01*
X184766260Y-81815000D01*
X184473740Y-81815000D01*
X184186842Y-81872068D01*
X183916589Y-81984010D01*
X183673368Y-82146525D01*
X183466525Y-82353368D01*
X183344805Y-82535534D01*
X183275178Y-82418645D01*
X183080269Y-82202412D01*
X182846920Y-82028359D01*
X182584099Y-81903175D01*
X182436890Y-81858524D01*
X182207000Y-81979845D01*
X181953000Y-81979845D01*
X181723110Y-81858524D01*
X181575901Y-81903175D01*
X181313080Y-82028359D01*
X181079731Y-82202412D01*
X180884822Y-82418645D01*
X180735843Y-82668748D01*
X180638519Y-82943109D01*
X180254089Y-82943109D01*
X180174156Y-82712633D01*
X180084429Y-82544766D01*
X179822584Y-82452021D01*
X178884605Y-83390000D01*
X178525395Y-83390000D01*
X178511253Y-83375858D01*
X178690858Y-83196253D01*
X178705000Y-83210395D01*
X179642979Y-82272416D01*
X179550234Y-82010571D01*
X179264880Y-81872180D01*
X178958010Y-81792117D01*
X178641416Y-81773460D01*
X178519883Y-81790275D01*
X178406281Y-81676673D01*
X178645045Y-81611271D01*
X178760845Y-81364462D01*
X178826270Y-81099805D01*
X178838805Y-80827469D01*
X178797970Y-80557919D01*
X178705332Y-80301516D01*
X178645045Y-80188729D01*
X178406279Y-80123326D01*
X177629605Y-80900000D01*
X177643748Y-80914143D01*
X177464143Y-81093748D01*
X177450000Y-81079605D01*
X176673326Y-81856279D01*
X173950993Y-81856279D01*
X174025023Y-81782249D01*
X174176485Y-81555570D01*
X174280814Y-81303698D01*
X174334000Y-81036312D01*
X174334000Y-80972531D01*
X176061195Y-80972531D01*
X176102030Y-81242081D01*
X176194668Y-81498484D01*
X176254955Y-81611271D01*
X176493721Y-81676674D01*
X177270395Y-80900000D01*
X176493721Y-80123326D01*
X176254955Y-80188729D01*
X176139155Y-80435538D01*
X176073730Y-80700195D01*
X176061195Y-80972531D01*
X174334000Y-80972531D01*
X174334000Y-80763688D01*
X174280814Y-80496302D01*
X174176485Y-80244430D01*
X174025023Y-80017751D01*
X173950993Y-79943721D01*
X176673326Y-79943721D01*
X177450000Y-80720395D01*
X178226674Y-79943721D01*
X178161271Y-79704955D01*
X177914462Y-79589155D01*
X177649805Y-79523730D01*
X177377469Y-79511195D01*
X177107919Y-79552030D01*
X176851516Y-79644668D01*
X176738729Y-79704955D01*
X176673326Y-79943721D01*
X173950993Y-79943721D01*
X173832249Y-79824977D01*
X173605570Y-79673515D01*
X173353698Y-79569186D01*
X173086312Y-79516000D01*
X172813688Y-79516000D01*
X172546302Y-79569186D01*
X172294430Y-79673515D01*
X172067751Y-79824977D01*
X171874977Y-80017751D01*
X171723515Y-80244430D01*
X171619186Y-80496302D01*
X171566000Y-80763688D01*
X171566000Y-81036312D01*
X171619186Y-81303698D01*
X171723515Y-81555570D01*
X171874977Y-81782249D01*
X171880890Y-81788162D01*
X171631416Y-81773460D01*
X171317267Y-81816926D01*
X171017633Y-81920844D01*
X170849766Y-82010571D01*
X170757021Y-82272416D01*
X166042979Y-82272416D01*
X165950234Y-82010571D01*
X165664880Y-81872180D01*
X165358010Y-81792117D01*
X165041416Y-81773460D01*
X164919883Y-81790275D01*
X164806281Y-81676673D01*
X165045045Y-81611271D01*
X165160845Y-81364462D01*
X165226270Y-81099805D01*
X165238805Y-80827469D01*
X165197970Y-80557919D01*
X165105332Y-80301516D01*
X165045045Y-80188729D01*
X164806279Y-80123326D01*
X164029605Y-80900000D01*
X164043748Y-80914143D01*
X163864143Y-81093748D01*
X163850000Y-81079605D01*
X163073326Y-81856279D01*
X160350993Y-81856279D01*
X160425023Y-81782249D01*
X160576485Y-81555570D01*
X160680814Y-81303698D01*
X160734000Y-81036312D01*
X160734000Y-80972531D01*
X162461195Y-80972531D01*
X162502030Y-81242081D01*
X162594668Y-81498484D01*
X162654955Y-81611271D01*
X162893721Y-81676674D01*
X163670395Y-80900000D01*
X162893721Y-80123326D01*
X162654955Y-80188729D01*
X162539155Y-80435538D01*
X162473730Y-80700195D01*
X162461195Y-80972531D01*
X160734000Y-80972531D01*
X160734000Y-80763688D01*
X160680814Y-80496302D01*
X160576485Y-80244430D01*
X160425023Y-80017751D01*
X160350993Y-79943721D01*
X163073326Y-79943721D01*
X163850000Y-80720395D01*
X164626674Y-79943721D01*
X164561271Y-79704955D01*
X164314462Y-79589155D01*
X164049805Y-79523730D01*
X163777469Y-79511195D01*
X163507919Y-79552030D01*
X163251516Y-79644668D01*
X163138729Y-79704955D01*
X163073326Y-79943721D01*
X160350993Y-79943721D01*
X160232249Y-79824977D01*
X160005570Y-79673515D01*
X159753698Y-79569186D01*
X159486312Y-79516000D01*
X159213688Y-79516000D01*
X158946302Y-79569186D01*
X158694430Y-79673515D01*
X158467751Y-79824977D01*
X158274977Y-80017751D01*
X158123515Y-80244430D01*
X158019186Y-80496302D01*
X157966000Y-80763688D01*
X157966000Y-81036312D01*
X158019186Y-81303698D01*
X158123515Y-81555570D01*
X158274977Y-81782249D01*
X158280890Y-81788162D01*
X158031416Y-81773460D01*
X157717267Y-81816926D01*
X157417633Y-81920844D01*
X157249766Y-82010571D01*
X157157021Y-82272416D01*
X153007560Y-82272416D01*
X152950234Y-82110571D01*
X152664880Y-81972180D01*
X152358010Y-81892117D01*
X152041416Y-81873460D01*
X151919883Y-81890275D01*
X151806281Y-81776673D01*
X152045045Y-81711271D01*
X152160845Y-81464462D01*
X152226270Y-81199805D01*
X152238805Y-80927469D01*
X152197970Y-80657919D01*
X152105332Y-80401516D01*
X152045045Y-80288729D01*
X151806279Y-80223326D01*
X151029605Y-81000000D01*
X151043748Y-81014143D01*
X150864143Y-81193748D01*
X150850000Y-81179605D01*
X150073326Y-81956279D01*
X147350993Y-81956279D01*
X147425023Y-81882249D01*
X147576485Y-81655570D01*
X147680814Y-81403698D01*
X147734000Y-81136312D01*
X147734000Y-81072531D01*
X149461195Y-81072531D01*
X149502030Y-81342081D01*
X149594668Y-81598484D01*
X149654955Y-81711271D01*
X149893721Y-81776674D01*
X150670395Y-81000000D01*
X149893721Y-80223326D01*
X149654955Y-80288729D01*
X149539155Y-80535538D01*
X149473730Y-80800195D01*
X149461195Y-81072531D01*
X147734000Y-81072531D01*
X147734000Y-80863688D01*
X147680814Y-80596302D01*
X147576485Y-80344430D01*
X147425023Y-80117751D01*
X147350993Y-80043721D01*
X150073326Y-80043721D01*
X150850000Y-80820395D01*
X151626674Y-80043721D01*
X151561271Y-79804955D01*
X151314462Y-79689155D01*
X151049805Y-79623730D01*
X150777469Y-79611195D01*
X150507919Y-79652030D01*
X150251516Y-79744668D01*
X150138729Y-79804955D01*
X150073326Y-80043721D01*
X147350993Y-80043721D01*
X147232249Y-79924977D01*
X147005570Y-79773515D01*
X146753698Y-79669186D01*
X146486312Y-79616000D01*
X146213688Y-79616000D01*
X145946302Y-79669186D01*
X145694430Y-79773515D01*
X145467751Y-79924977D01*
X145274977Y-80117751D01*
X145123515Y-80344430D01*
X145019186Y-80596302D01*
X144966000Y-80863688D01*
X144966000Y-81136312D01*
X145019186Y-81403698D01*
X145123515Y-81655570D01*
X145274977Y-81882249D01*
X145280890Y-81888162D01*
X145031416Y-81873460D01*
X144717267Y-81916926D01*
X144417633Y-82020844D01*
X144249766Y-82110571D01*
X144157021Y-82372416D01*
X139242979Y-82372416D01*
X139342979Y-82272416D01*
X139250234Y-82010571D01*
X138964880Y-81872180D01*
X138658010Y-81792117D01*
X138341416Y-81773460D01*
X138219883Y-81790275D01*
X138106281Y-81676673D01*
X138345045Y-81611271D01*
X138460845Y-81364462D01*
X138526270Y-81099805D01*
X138538805Y-80827469D01*
X138497970Y-80557919D01*
X138405332Y-80301516D01*
X138345045Y-80188729D01*
X138106279Y-80123326D01*
X137329605Y-80900000D01*
X137343748Y-80914143D01*
X137164143Y-81093748D01*
X137150000Y-81079605D01*
X136373326Y-81856279D01*
X133650993Y-81856279D01*
X133725023Y-81782249D01*
X133876485Y-81555570D01*
X133980814Y-81303698D01*
X134034000Y-81036312D01*
X134034000Y-80972531D01*
X135761195Y-80972531D01*
X135802030Y-81242081D01*
X135894668Y-81498484D01*
X135954955Y-81611271D01*
X136193721Y-81676674D01*
X136970395Y-80900000D01*
X136193721Y-80123326D01*
X135954955Y-80188729D01*
X135839155Y-80435538D01*
X135773730Y-80700195D01*
X135761195Y-80972531D01*
X134034000Y-80972531D01*
X134034000Y-80763688D01*
X133980814Y-80496302D01*
X133876485Y-80244430D01*
X133725023Y-80017751D01*
X133650993Y-79943721D01*
X136373326Y-79943721D01*
X137150000Y-80720395D01*
X137926674Y-79943721D01*
X137861271Y-79704955D01*
X137614462Y-79589155D01*
X137349805Y-79523730D01*
X137077469Y-79511195D01*
X136807919Y-79552030D01*
X136551516Y-79644668D01*
X136438729Y-79704955D01*
X136373326Y-79943721D01*
X133650993Y-79943721D01*
X133532249Y-79824977D01*
X133305570Y-79673515D01*
X133053698Y-79569186D01*
X132786312Y-79516000D01*
X132513688Y-79516000D01*
X132246302Y-79569186D01*
X131994430Y-79673515D01*
X131767751Y-79824977D01*
X131574977Y-80017751D01*
X131423515Y-80244430D01*
X131319186Y-80496302D01*
X131266000Y-80763688D01*
X131266000Y-81036312D01*
X131319186Y-81303698D01*
X131423515Y-81555570D01*
X131574977Y-81782249D01*
X131580890Y-81788162D01*
X131331416Y-81773460D01*
X131017267Y-81816926D01*
X130717633Y-81920844D01*
X130549766Y-82010571D01*
X130457021Y-82272416D01*
X115435002Y-82272416D01*
X115435002Y-79065098D01*
X116415000Y-79065098D01*
X116415000Y-79534902D01*
X116506654Y-79995679D01*
X116686440Y-80429721D01*
X116947450Y-80820349D01*
X117279651Y-81152550D01*
X117670279Y-81413560D01*
X118104321Y-81593346D01*
X118565098Y-81685000D01*
X119034902Y-81685000D01*
X119495679Y-81593346D01*
X119929721Y-81413560D01*
X120320349Y-81152550D01*
X120652550Y-80820349D01*
X120913560Y-80429721D01*
X121093346Y-79995679D01*
X121185000Y-79534902D01*
X121185000Y-79065098D01*
X121093346Y-78604321D01*
X120913560Y-78170279D01*
X120702055Y-77853740D01*
X181075000Y-77853740D01*
X181075000Y-78146260D01*
X181132068Y-78433158D01*
X181244010Y-78703411D01*
X181406525Y-78946632D01*
X181613368Y-79153475D01*
X181856589Y-79315990D01*
X182126842Y-79427932D01*
X182413740Y-79485000D01*
X182706260Y-79485000D01*
X182993158Y-79427932D01*
X183263411Y-79315990D01*
X183506632Y-79153475D01*
X183713475Y-78946632D01*
X183835195Y-78764466D01*
X183904822Y-78881355D01*
X184099731Y-79097588D01*
X184333080Y-79271641D01*
X184595901Y-79396825D01*
X184743110Y-79441476D01*
X184973000Y-79320155D01*
X184973000Y-78127000D01*
X184953000Y-78127000D01*
X184953000Y-77873000D01*
X184973000Y-77873000D01*
X184973000Y-76679845D01*
X185227000Y-76679845D01*
X185227000Y-77873000D01*
X185247000Y-77873000D01*
X185247000Y-78127000D01*
X185227000Y-78127000D01*
X185227000Y-79320155D01*
X185456890Y-79441476D01*
X185604099Y-79396825D01*
X185866920Y-79271641D01*
X186100269Y-79097588D01*
X186176034Y-79013534D01*
X186200498Y-79094180D01*
X186259463Y-79204494D01*
X186338815Y-79301185D01*
X186435506Y-79380537D01*
X186545820Y-79439502D01*
X186665518Y-79475812D01*
X186790000Y-79488072D01*
X188490000Y-79488072D01*
X188614482Y-79475812D01*
X188734180Y-79439502D01*
X188844494Y-79380537D01*
X188941185Y-79301185D01*
X189020537Y-79204494D01*
X189079502Y-79094180D01*
X189088323Y-79065098D01*
X193915000Y-79065098D01*
X193915000Y-79534902D01*
X194006654Y-79995679D01*
X194186440Y-80429721D01*
X194447450Y-80820349D01*
X194779651Y-81152550D01*
X195170279Y-81413560D01*
X195604321Y-81593346D01*
X196065098Y-81685000D01*
X196534902Y-81685000D01*
X196995679Y-81593346D01*
X197429721Y-81413560D01*
X197820349Y-81152550D01*
X198152550Y-80820349D01*
X198413560Y-80429721D01*
X198593346Y-79995679D01*
X198685000Y-79534902D01*
X198685000Y-79065098D01*
X198593346Y-78604321D01*
X198413560Y-78170279D01*
X198152550Y-77779651D01*
X197820349Y-77447450D01*
X197429721Y-77186440D01*
X196995679Y-77006654D01*
X196534902Y-76915000D01*
X196065098Y-76915000D01*
X195604321Y-77006654D01*
X195170279Y-77186440D01*
X194779651Y-77447450D01*
X194447450Y-77779651D01*
X194186440Y-78170279D01*
X194006654Y-78604321D01*
X193915000Y-79065098D01*
X189088323Y-79065098D01*
X189115812Y-78974482D01*
X189128072Y-78850000D01*
X189128072Y-77150000D01*
X189115812Y-77025518D01*
X189079502Y-76905820D01*
X189020537Y-76795506D01*
X188941185Y-76698815D01*
X188844494Y-76619463D01*
X188734180Y-76560498D01*
X188614482Y-76524188D01*
X188490000Y-76511928D01*
X186790000Y-76511928D01*
X186665518Y-76524188D01*
X186545820Y-76560498D01*
X186435506Y-76619463D01*
X186338815Y-76698815D01*
X186259463Y-76795506D01*
X186200498Y-76905820D01*
X186176034Y-76986466D01*
X186100269Y-76902412D01*
X185866920Y-76728359D01*
X185604099Y-76603175D01*
X185456890Y-76558524D01*
X185227000Y-76679845D01*
X184973000Y-76679845D01*
X184743110Y-76558524D01*
X184595901Y-76603175D01*
X184333080Y-76728359D01*
X184099731Y-76902412D01*
X183904822Y-77118645D01*
X183835195Y-77235534D01*
X183713475Y-77053368D01*
X183506632Y-76846525D01*
X183263411Y-76684010D01*
X182993158Y-76572068D01*
X182706260Y-76515000D01*
X182413740Y-76515000D01*
X182126842Y-76572068D01*
X181856589Y-76684010D01*
X181613368Y-76846525D01*
X181406525Y-77053368D01*
X181244010Y-77296589D01*
X181132068Y-77566842D01*
X181075000Y-77853740D01*
X120702055Y-77853740D01*
X120652550Y-77779651D01*
X120320349Y-77447450D01*
X119929721Y-77186440D01*
X119495679Y-77006654D01*
X119034902Y-76915000D01*
X118565098Y-76915000D01*
X118104321Y-77006654D01*
X117670279Y-77186440D01*
X117279651Y-77447450D01*
X116947450Y-77779651D01*
X116686440Y-78170279D01*
X116506654Y-78604321D01*
X116415000Y-79065098D01*
X115435002Y-79065098D01*
X115435002Y-77235947D01*
X115462551Y-76954979D01*
X115533711Y-76719287D01*
X115649291Y-76501912D01*
X115804895Y-76311122D01*
X115994590Y-76154193D01*
X116211163Y-76037092D01*
X116446344Y-75964291D01*
X116725045Y-75934999D01*
X198664054Y-75935001D01*
%TA.AperFunction,Conductor*%
D26*
G36*
X198664054Y-75935001D02*
G01*
X198945022Y-75962550D01*
X199180714Y-76033710D01*
X199398089Y-76149290D01*
X199588879Y-76304894D01*
X199745808Y-76494589D01*
X199862909Y-76711162D01*
X199935710Y-76946343D01*
X199965000Y-77225025D01*
X199965001Y-118164042D01*
X199937451Y-118445020D01*
X199866291Y-118680711D01*
X199750711Y-118898087D01*
X199595104Y-119088878D01*
X199405408Y-119245810D01*
X199188843Y-119362905D01*
X198953656Y-119435708D01*
X198674963Y-119465000D01*
X192636578Y-119465000D01*
X193295050Y-118806529D01*
X193328817Y-118778817D01*
X193360301Y-118740455D01*
X193439410Y-118644060D01*
X193439411Y-118644059D01*
X193521589Y-118490313D01*
X193572195Y-118323490D01*
X193585000Y-118193477D01*
X193585000Y-118193467D01*
X193589281Y-118150001D01*
X193585000Y-118106535D01*
X193585000Y-115765098D01*
X194115000Y-115765098D01*
X194115000Y-116234902D01*
X194206654Y-116695679D01*
X194386440Y-117129721D01*
X194647450Y-117520349D01*
X194979651Y-117852550D01*
X195370279Y-118113560D01*
X195804321Y-118293346D01*
X196265098Y-118385000D01*
X196734902Y-118385000D01*
X197195679Y-118293346D01*
X197629721Y-118113560D01*
X198020349Y-117852550D01*
X198352550Y-117520349D01*
X198613560Y-117129721D01*
X198793346Y-116695679D01*
X198885000Y-116234902D01*
X198885000Y-115765098D01*
X198793346Y-115304321D01*
X198613560Y-114870279D01*
X198352550Y-114479651D01*
X198020349Y-114147450D01*
X197629721Y-113886440D01*
X197195679Y-113706654D01*
X196734902Y-113615000D01*
X196265098Y-113615000D01*
X195804321Y-113706654D01*
X195370279Y-113886440D01*
X194979651Y-114147450D01*
X194647450Y-114479651D01*
X194386440Y-114870279D01*
X194206654Y-115304321D01*
X194115000Y-115765098D01*
X193585000Y-115765098D01*
X193585000Y-114288454D01*
X193617205Y-114240256D01*
X193695226Y-114051898D01*
X193735000Y-113851939D01*
X193735000Y-113648061D01*
X193695226Y-113448102D01*
X193617205Y-113259744D01*
X193585000Y-113211546D01*
X193585000Y-113188454D01*
X193617205Y-113140256D01*
X193695226Y-112951898D01*
X193735000Y-112751939D01*
X193735000Y-112548061D01*
X193695226Y-112348102D01*
X193617205Y-112159744D01*
X193585000Y-112111546D01*
X193585000Y-111988456D01*
X193617205Y-111940258D01*
X193695226Y-111751900D01*
X193735000Y-111551941D01*
X193735000Y-111348063D01*
X193695226Y-111148104D01*
X193617205Y-110959746D01*
X193503937Y-110790228D01*
X193359774Y-110646065D01*
X193190256Y-110532797D01*
X193001898Y-110454776D01*
X192801939Y-110415002D01*
X192598061Y-110415002D01*
X192398102Y-110454776D01*
X192209744Y-110532797D01*
X192040226Y-110646065D01*
X191896063Y-110790228D01*
X191782795Y-110959746D01*
X191704774Y-111148104D01*
X191665000Y-111348063D01*
X191665000Y-111551941D01*
X191704774Y-111751900D01*
X191782795Y-111940258D01*
X191815001Y-111988457D01*
X191815000Y-112111545D01*
X191782795Y-112159744D01*
X191704774Y-112348102D01*
X191665000Y-112548061D01*
X191665000Y-112751939D01*
X191704774Y-112951898D01*
X191782795Y-113140256D01*
X191815001Y-113188455D01*
X191815000Y-113211545D01*
X191782795Y-113259744D01*
X191704774Y-113448102D01*
X191665000Y-113648061D01*
X191665000Y-113851939D01*
X191704774Y-114051898D01*
X191782795Y-114240256D01*
X191815001Y-114288456D01*
X191815000Y-117783421D01*
X191283422Y-118315000D01*
X158579667Y-118315000D01*
X158692081Y-118297970D01*
X158948484Y-118205332D01*
X159061271Y-118145045D01*
X159126674Y-117906279D01*
X158350000Y-117129605D01*
X157573326Y-117906279D01*
X157638729Y-118145045D01*
X157885538Y-118260845D01*
X158104606Y-118315000D01*
X152079667Y-118315000D01*
X152192081Y-118297970D01*
X152448484Y-118205332D01*
X152561271Y-118145045D01*
X152626674Y-117906279D01*
X151850000Y-117129605D01*
X151073326Y-117906279D01*
X151138729Y-118145045D01*
X151385538Y-118260845D01*
X151604606Y-118315000D01*
X123666579Y-118315000D01*
X122885000Y-117533422D01*
X122885000Y-117022531D01*
X150461195Y-117022531D01*
X150502030Y-117292081D01*
X150594668Y-117548484D01*
X150654955Y-117661271D01*
X150893721Y-117726674D01*
X151670395Y-116950000D01*
X152029605Y-116950000D01*
X152806279Y-117726674D01*
X153045045Y-117661271D01*
X153160845Y-117414462D01*
X153226270Y-117149805D01*
X153232128Y-117022531D01*
X156961195Y-117022531D01*
X157002030Y-117292081D01*
X157094668Y-117548484D01*
X157154955Y-117661271D01*
X157393721Y-117726674D01*
X158170395Y-116950000D01*
X158529605Y-116950000D01*
X159306279Y-117726674D01*
X159545045Y-117661271D01*
X159660845Y-117414462D01*
X159726270Y-117149805D01*
X159737857Y-116898061D01*
X173165000Y-116898061D01*
X173165000Y-117101939D01*
X173204774Y-117301898D01*
X173282795Y-117490256D01*
X173396063Y-117659774D01*
X173540226Y-117803937D01*
X173709744Y-117917205D01*
X173898102Y-117995226D01*
X174098061Y-118035000D01*
X174301939Y-118035000D01*
X174501898Y-117995226D01*
X174690256Y-117917205D01*
X174859774Y-117803937D01*
X175003937Y-117659774D01*
X175117205Y-117490256D01*
X175195226Y-117301898D01*
X175235000Y-117101939D01*
X175235000Y-116898061D01*
X175195226Y-116698102D01*
X175117205Y-116509744D01*
X175060000Y-116424130D01*
X175060000Y-114703711D01*
X175103937Y-114659774D01*
X175217205Y-114490256D01*
X175295226Y-114301898D01*
X175335000Y-114101939D01*
X175335000Y-113898061D01*
X175295226Y-113698102D01*
X175217205Y-113509744D01*
X175103937Y-113340226D01*
X174959774Y-113196063D01*
X174790256Y-113082795D01*
X174601898Y-113004774D01*
X174401939Y-112965000D01*
X174198061Y-112965000D01*
X173998102Y-113004774D01*
X173809744Y-113082795D01*
X173640226Y-113196063D01*
X173496063Y-113340226D01*
X173382795Y-113509744D01*
X173304774Y-113698102D01*
X173265000Y-113898061D01*
X173265000Y-114101939D01*
X173304774Y-114301898D01*
X173382795Y-114490256D01*
X173496063Y-114659774D01*
X173540000Y-114703711D01*
X173540001Y-116131628D01*
X173539385Y-116133335D01*
X173525675Y-116167409D01*
X173512740Y-116196185D01*
X173500930Y-116219648D01*
X173490693Y-116237758D01*
X173482495Y-116250617D01*
X173476900Y-116258362D01*
X173474399Y-116261398D01*
X173465480Y-116270809D01*
X173396063Y-116340226D01*
X173282795Y-116509744D01*
X173204774Y-116698102D01*
X173165000Y-116898061D01*
X159737857Y-116898061D01*
X159738805Y-116877469D01*
X159697970Y-116607919D01*
X159605332Y-116351516D01*
X159545045Y-116238729D01*
X159306279Y-116173326D01*
X158529605Y-116950000D01*
X158170395Y-116950000D01*
X157393721Y-116173326D01*
X157154955Y-116238729D01*
X157039155Y-116485538D01*
X156973730Y-116750195D01*
X156961195Y-117022531D01*
X153232128Y-117022531D01*
X153238805Y-116877469D01*
X153197970Y-116607919D01*
X153105332Y-116351516D01*
X153045045Y-116238729D01*
X152806279Y-116173326D01*
X152029605Y-116950000D01*
X151670395Y-116950000D01*
X150893721Y-116173326D01*
X150654955Y-116238729D01*
X150539155Y-116485538D01*
X150473730Y-116750195D01*
X150461195Y-117022531D01*
X122885000Y-117022531D01*
X122885000Y-115993721D01*
X151073326Y-115993721D01*
X151850000Y-116770395D01*
X152626674Y-115993721D01*
X157573326Y-115993721D01*
X158350000Y-116770395D01*
X159126674Y-115993721D01*
X159061271Y-115754955D01*
X158814462Y-115639155D01*
X158549805Y-115573730D01*
X158277469Y-115561195D01*
X158007919Y-115602030D01*
X157751516Y-115694668D01*
X157638729Y-115754955D01*
X157573326Y-115993721D01*
X152626674Y-115993721D01*
X152561271Y-115754955D01*
X152314462Y-115639155D01*
X152049805Y-115573730D01*
X151777469Y-115561195D01*
X151507919Y-115602030D01*
X151251516Y-115694668D01*
X151138729Y-115754955D01*
X151073326Y-115993721D01*
X122885000Y-115993721D01*
X122885000Y-112098061D01*
X142889979Y-112098061D01*
X142889979Y-112301939D01*
X142929753Y-112501898D01*
X143007774Y-112690256D01*
X143121042Y-112859774D01*
X143265205Y-113003937D01*
X143434723Y-113117205D01*
X143623081Y-113195226D01*
X143823040Y-113235000D01*
X144026918Y-113235000D01*
X144226877Y-113195226D01*
X144415235Y-113117205D01*
X144584753Y-113003937D01*
X144628690Y-112960000D01*
X147396289Y-112960000D01*
X147440226Y-113003937D01*
X147609744Y-113117205D01*
X147798102Y-113195226D01*
X147998061Y-113235000D01*
X148201939Y-113235000D01*
X148401898Y-113195226D01*
X148590256Y-113117205D01*
X148759774Y-113003937D01*
X148903937Y-112859774D01*
X149017205Y-112690256D01*
X149095226Y-112501898D01*
X149135000Y-112301939D01*
X149135000Y-112098061D01*
X149095226Y-111898102D01*
X149017205Y-111709744D01*
X149011363Y-111701000D01*
X150462928Y-111701000D01*
X150462928Y-113199000D01*
X150475188Y-113323482D01*
X150511498Y-113443180D01*
X150570463Y-113553494D01*
X150649815Y-113650185D01*
X150746506Y-113729537D01*
X150856820Y-113788502D01*
X150976518Y-113824812D01*
X151101000Y-113837072D01*
X152599000Y-113837072D01*
X152723482Y-113824812D01*
X152843180Y-113788502D01*
X152953494Y-113729537D01*
X153050185Y-113650185D01*
X153129537Y-113553494D01*
X153188502Y-113443180D01*
X153224812Y-113323482D01*
X153237072Y-113199000D01*
X153237072Y-112313688D01*
X156966000Y-112313688D01*
X156966000Y-112586312D01*
X157019186Y-112853698D01*
X157123515Y-113105570D01*
X157274977Y-113332249D01*
X157467751Y-113525023D01*
X157694430Y-113676485D01*
X157946302Y-113780814D01*
X158213688Y-113834000D01*
X158486312Y-113834000D01*
X158753698Y-113780814D01*
X159005570Y-113676485D01*
X159232249Y-113525023D01*
X159425023Y-113332249D01*
X159576485Y-113105570D01*
X159680814Y-112853698D01*
X159734000Y-112586312D01*
X159734000Y-112313688D01*
X159680814Y-112046302D01*
X159576485Y-111794430D01*
X159425023Y-111567751D01*
X159232249Y-111374977D01*
X159005570Y-111223515D01*
X158753698Y-111119186D01*
X158486312Y-111066000D01*
X158213688Y-111066000D01*
X157946302Y-111119186D01*
X157694430Y-111223515D01*
X157467751Y-111374977D01*
X157274977Y-111567751D01*
X157123515Y-111794430D01*
X157019186Y-112046302D01*
X156966000Y-112313688D01*
X153237072Y-112313688D01*
X153237072Y-111701000D01*
X153224812Y-111576518D01*
X153188502Y-111456820D01*
X153129537Y-111346506D01*
X153050185Y-111249815D01*
X152953494Y-111170463D01*
X152843180Y-111111498D01*
X152723482Y-111075188D01*
X152599000Y-111062928D01*
X151101000Y-111062928D01*
X150976518Y-111075188D01*
X150856820Y-111111498D01*
X150746506Y-111170463D01*
X150649815Y-111249815D01*
X150570463Y-111346506D01*
X150511498Y-111456820D01*
X150475188Y-111576518D01*
X150462928Y-111701000D01*
X149011363Y-111701000D01*
X148903937Y-111540226D01*
X148759774Y-111396063D01*
X148590256Y-111282795D01*
X148401898Y-111204774D01*
X148201939Y-111165000D01*
X147998061Y-111165000D01*
X147798102Y-111204774D01*
X147609744Y-111282795D01*
X147440226Y-111396063D01*
X147396289Y-111440000D01*
X144628690Y-111440000D01*
X144584753Y-111396063D01*
X144415235Y-111282795D01*
X144226877Y-111204774D01*
X144026918Y-111165000D01*
X143823040Y-111165000D01*
X143623081Y-111204774D01*
X143434723Y-111282795D01*
X143265205Y-111396063D01*
X143121042Y-111540226D01*
X143007774Y-111709744D01*
X142929753Y-111898102D01*
X142889979Y-112098061D01*
X122885000Y-112098061D01*
X122885000Y-101143454D01*
X122917205Y-101095256D01*
X122995226Y-100906898D01*
X123035000Y-100706939D01*
X123035000Y-100503061D01*
X123028891Y-100472347D01*
X123164592Y-100472347D01*
X123364551Y-100432573D01*
X123552909Y-100354552D01*
X123722427Y-100241284D01*
X123866590Y-100097121D01*
X123979858Y-99927603D01*
X124057879Y-99739245D01*
X124097653Y-99539286D01*
X124097653Y-99335408D01*
X124057879Y-99135449D01*
X124030477Y-99069293D01*
X129893768Y-99069293D01*
X129893768Y-99273171D01*
X129933542Y-99473130D01*
X130011563Y-99661488D01*
X130124831Y-99831006D01*
X130268994Y-99975169D01*
X130438512Y-100088437D01*
X130626870Y-100166458D01*
X130826829Y-100206232D01*
X131030707Y-100206232D01*
X131230666Y-100166458D01*
X131285924Y-100143569D01*
X131840001Y-100697647D01*
X131840000Y-102757095D01*
X131836444Y-102793200D01*
X131849020Y-102920887D01*
X131850635Y-102937284D01*
X131892663Y-103075832D01*
X131960913Y-103203519D01*
X132052762Y-103315437D01*
X132080808Y-103338454D01*
X137961546Y-109219193D01*
X137984562Y-109247238D01*
X138096480Y-109339087D01*
X138224167Y-109407337D01*
X138320686Y-109436616D01*
X138362714Y-109449365D01*
X138506799Y-109463556D01*
X138542904Y-109460000D01*
X148457095Y-109460000D01*
X148493200Y-109463556D01*
X148529305Y-109460000D01*
X148637285Y-109449365D01*
X148775833Y-109407337D01*
X148903520Y-109339087D01*
X149015438Y-109247238D01*
X149038459Y-109219187D01*
X150434585Y-107823061D01*
X186690000Y-107823061D01*
X186690000Y-108026939D01*
X186729774Y-108226898D01*
X186807795Y-108415256D01*
X186921063Y-108584774D01*
X187065226Y-108728937D01*
X187234744Y-108842205D01*
X187423102Y-108920226D01*
X187623061Y-108960000D01*
X187826939Y-108960000D01*
X188026898Y-108920226D01*
X188215256Y-108842205D01*
X188384774Y-108728937D01*
X188528937Y-108584774D01*
X188642205Y-108415256D01*
X188720226Y-108226898D01*
X188731535Y-108170043D01*
X189195050Y-107706529D01*
X189228817Y-107678817D01*
X189299523Y-107592663D01*
X189339411Y-107544059D01*
X189341581Y-107540000D01*
X189421589Y-107390313D01*
X189472195Y-107223490D01*
X189485000Y-107093477D01*
X189485000Y-107093469D01*
X189489281Y-107050000D01*
X189485000Y-107006531D01*
X189485000Y-106909894D01*
X190689711Y-106909894D01*
X190862322Y-107239583D01*
X191260596Y-107444158D01*
X191691128Y-107567103D01*
X192137372Y-107603692D01*
X192582180Y-107552521D01*
X193008458Y-107415555D01*
X193337678Y-107239583D01*
X193510289Y-106909894D01*
X192100000Y-105499605D01*
X190689711Y-106909894D01*
X189485000Y-106909894D01*
X189485000Y-105357372D01*
X189816308Y-105357372D01*
X189867479Y-105802180D01*
X190004445Y-106228458D01*
X190180417Y-106557678D01*
X190510106Y-106730289D01*
X191920395Y-105320000D01*
X192279605Y-105320000D01*
X193689894Y-106730289D01*
X194019583Y-106557678D01*
X194224158Y-106159404D01*
X194347103Y-105728872D01*
X194383692Y-105282628D01*
X194332521Y-104837820D01*
X194195555Y-104411542D01*
X194019583Y-104082322D01*
X193689894Y-103909711D01*
X192279605Y-105320000D01*
X191920395Y-105320000D01*
X190510106Y-103909711D01*
X190180417Y-104082322D01*
X189975842Y-104480596D01*
X189852897Y-104911128D01*
X189816308Y-105357372D01*
X189485000Y-105357372D01*
X189485000Y-103730106D01*
X190689711Y-103730106D01*
X192100000Y-105140395D01*
X193510289Y-103730106D01*
X193337678Y-103400417D01*
X192939404Y-103195842D01*
X192508872Y-103072897D01*
X192062628Y-103036308D01*
X191617820Y-103087479D01*
X191191542Y-103224445D01*
X190862322Y-103400417D01*
X190689711Y-103730106D01*
X189485000Y-103730106D01*
X189485000Y-103602072D01*
X190104000Y-103602072D01*
X190228482Y-103589812D01*
X190348180Y-103553502D01*
X190458494Y-103494537D01*
X190555185Y-103415185D01*
X190634537Y-103318494D01*
X190693502Y-103208180D01*
X190729812Y-103088482D01*
X190742072Y-102964000D01*
X190742072Y-101536000D01*
X190729812Y-101411518D01*
X190693502Y-101291820D01*
X190634537Y-101181506D01*
X190555185Y-101084815D01*
X190458494Y-101005463D01*
X190348180Y-100946498D01*
X190228482Y-100910188D01*
X190104000Y-100897928D01*
X190100140Y-100897928D01*
X190249937Y-100797837D01*
X190437837Y-100609937D01*
X190585468Y-100388991D01*
X190687158Y-100143489D01*
X190739000Y-99882865D01*
X190739000Y-99617135D01*
X190687158Y-99356511D01*
X190585468Y-99111009D01*
X190437837Y-98890063D01*
X190297774Y-98750000D01*
X190437837Y-98609937D01*
X190585468Y-98388991D01*
X190687158Y-98143489D01*
X190739000Y-97882865D01*
X190739000Y-97617135D01*
X190687158Y-97356511D01*
X190585468Y-97111009D01*
X190437837Y-96890063D01*
X190249937Y-96702163D01*
X190028991Y-96554532D01*
X189898519Y-96500489D01*
X189976258Y-96472193D01*
X190080509Y-96416470D01*
X190141668Y-96181273D01*
X189390000Y-95429605D01*
X188638332Y-96181273D01*
X188699491Y-96416470D01*
X188880526Y-96500884D01*
X188751009Y-96554532D01*
X188530063Y-96702163D01*
X188342163Y-96890063D01*
X188194532Y-97111009D01*
X188092842Y-97356511D01*
X188041000Y-97617135D01*
X188041000Y-97882865D01*
X188092842Y-98143489D01*
X188194532Y-98388991D01*
X188342163Y-98609937D01*
X188482226Y-98750000D01*
X188342163Y-98890063D01*
X188194532Y-99111009D01*
X188092842Y-99356511D01*
X188041000Y-99617135D01*
X188041000Y-99882865D01*
X188092842Y-100143489D01*
X188194532Y-100388991D01*
X188342163Y-100609937D01*
X188530063Y-100797837D01*
X188679860Y-100897928D01*
X188676000Y-100897928D01*
X188551518Y-100910188D01*
X188431820Y-100946498D01*
X188321506Y-101005463D01*
X188224815Y-101084815D01*
X188145463Y-101181506D01*
X188086498Y-101291820D01*
X188050188Y-101411518D01*
X188037928Y-101536000D01*
X188037928Y-102302795D01*
X188035594Y-102315194D01*
X188032214Y-102327448D01*
X188027987Y-102338917D01*
X188022504Y-102350653D01*
X188015147Y-102363510D01*
X188005116Y-102378172D01*
X187992911Y-102393352D01*
X187971184Y-102411183D01*
X187943471Y-102444951D01*
X187943468Y-102444954D01*
X187860590Y-102545941D01*
X187778412Y-102699687D01*
X187727805Y-102866510D01*
X187710719Y-103040000D01*
X187715001Y-103083479D01*
X187715000Y-106683421D01*
X187479957Y-106918465D01*
X187423102Y-106929774D01*
X187234744Y-107007795D01*
X187065226Y-107121063D01*
X186921063Y-107265226D01*
X186807795Y-107434744D01*
X186729774Y-107623102D01*
X186690000Y-107823061D01*
X150434585Y-107823061D01*
X154907646Y-103350000D01*
X184211928Y-103350000D01*
X184211928Y-105050000D01*
X184224188Y-105174482D01*
X184260498Y-105294180D01*
X184319463Y-105404494D01*
X184398815Y-105501185D01*
X184495506Y-105580537D01*
X184605820Y-105639502D01*
X184725518Y-105675812D01*
X184850000Y-105688072D01*
X186550000Y-105688072D01*
X186674482Y-105675812D01*
X186794180Y-105639502D01*
X186904494Y-105580537D01*
X187001185Y-105501185D01*
X187080537Y-105404494D01*
X187139502Y-105294180D01*
X187175812Y-105174482D01*
X187188072Y-105050000D01*
X187188072Y-103350000D01*
X187175812Y-103225518D01*
X187139502Y-103105820D01*
X187080537Y-102995506D01*
X187001185Y-102898815D01*
X186904494Y-102819463D01*
X186794180Y-102760498D01*
X186674482Y-102724188D01*
X186550000Y-102711928D01*
X184850000Y-102711928D01*
X184725518Y-102724188D01*
X184605820Y-102760498D01*
X184495506Y-102819463D01*
X184398815Y-102898815D01*
X184319463Y-102995506D01*
X184260498Y-103105820D01*
X184224188Y-103225518D01*
X184211928Y-103350000D01*
X154907646Y-103350000D01*
X155219193Y-103038454D01*
X155247238Y-103015438D01*
X155339087Y-102903520D01*
X155407337Y-102775833D01*
X155436616Y-102679314D01*
X155449365Y-102637286D01*
X155463556Y-102493201D01*
X155460000Y-102457096D01*
X155460000Y-99897646D01*
X156597647Y-98760000D01*
X158757095Y-98760000D01*
X158793200Y-98763556D01*
X158829305Y-98760000D01*
X158937285Y-98749365D01*
X159075833Y-98707337D01*
X159203520Y-98639087D01*
X159315438Y-98547238D01*
X159338458Y-98519188D01*
X160727068Y-97130579D01*
X160888503Y-97238446D01*
X161076861Y-97316467D01*
X161276820Y-97356241D01*
X161480698Y-97356241D01*
X161680657Y-97316467D01*
X161869015Y-97238446D01*
X162038533Y-97125178D01*
X162182696Y-96981015D01*
X162295964Y-96811497D01*
X162373985Y-96623139D01*
X162382137Y-96582155D01*
X162423121Y-96574003D01*
X162611479Y-96495982D01*
X162780997Y-96382714D01*
X162925160Y-96238551D01*
X163038428Y-96069033D01*
X163116449Y-95880675D01*
X163156223Y-95680716D01*
X163156223Y-95476838D01*
X163116449Y-95276879D01*
X163038428Y-95088521D01*
X162925160Y-94919003D01*
X162780997Y-94774840D01*
X162611479Y-94661572D01*
X162423121Y-94583551D01*
X162223162Y-94543777D01*
X162019284Y-94543777D01*
X161819325Y-94583551D01*
X161630967Y-94661572D01*
X161461449Y-94774840D01*
X161392752Y-94843537D01*
X161385877Y-94843777D01*
X160639128Y-94843777D01*
X160603023Y-94840221D01*
X160458938Y-94854412D01*
X160320389Y-94896440D01*
X160218287Y-94951015D01*
X160192703Y-94964690D01*
X160080785Y-95056539D01*
X160057769Y-95084584D01*
X158302354Y-96840000D01*
X156142894Y-96840000D01*
X156106799Y-96836445D01*
X156070704Y-96840000D01*
X156070695Y-96840000D01*
X155962715Y-96850635D01*
X155824167Y-96892663D01*
X155696480Y-96960913D01*
X155584562Y-97052762D01*
X155561546Y-97080807D01*
X153780808Y-98861546D01*
X153752762Y-98884563D01*
X153660913Y-98996481D01*
X153592663Y-99124168D01*
X153574853Y-99182880D01*
X153550635Y-99262715D01*
X153536444Y-99406800D01*
X153540000Y-99442905D01*
X153540001Y-102002352D01*
X148002354Y-107540000D01*
X138997647Y-107540000D01*
X133760000Y-102302354D01*
X133760000Y-100242905D01*
X133763556Y-100206800D01*
X133749365Y-100062715D01*
X133726277Y-99986606D01*
X133707337Y-99924168D01*
X133639087Y-99796481D01*
X133547238Y-99684563D01*
X133519193Y-99661547D01*
X132643569Y-98785924D01*
X132666458Y-98730666D01*
X132706232Y-98530707D01*
X132706232Y-98326829D01*
X132666458Y-98126870D01*
X132588437Y-97938512D01*
X132475169Y-97768994D01*
X132331006Y-97624831D01*
X132161488Y-97511563D01*
X131973130Y-97433542D01*
X131773171Y-97393768D01*
X131569293Y-97393768D01*
X131369334Y-97433542D01*
X131180976Y-97511563D01*
X131011458Y-97624831D01*
X130867295Y-97768994D01*
X130754027Y-97938512D01*
X130676006Y-98126870D01*
X130667854Y-98167854D01*
X130626870Y-98176006D01*
X130438512Y-98254027D01*
X130268994Y-98367295D01*
X130124831Y-98511458D01*
X130011563Y-98680976D01*
X129933542Y-98869334D01*
X129893768Y-99069293D01*
X124030477Y-99069293D01*
X123979858Y-98947091D01*
X123866590Y-98777573D01*
X123822653Y-98733636D01*
X123822653Y-97931767D01*
X123917205Y-97790260D01*
X123995226Y-97601902D01*
X124035000Y-97401943D01*
X124035000Y-97198065D01*
X123995226Y-96998106D01*
X123917205Y-96809748D01*
X123803937Y-96640230D01*
X123659774Y-96496067D01*
X123490256Y-96382799D01*
X123301898Y-96304778D01*
X123101939Y-96265004D01*
X122898061Y-96265004D01*
X122885000Y-96267602D01*
X122885000Y-96204731D01*
X122927595Y-96101898D01*
X122967369Y-95901939D01*
X122967369Y-95698061D01*
X122927595Y-95498102D01*
X122849574Y-95309744D01*
X122736306Y-95140226D01*
X122592143Y-94996063D01*
X122422625Y-94882795D01*
X122234267Y-94804774D01*
X122034308Y-94765000D01*
X121830430Y-94765000D01*
X121630471Y-94804774D01*
X121442113Y-94882795D01*
X121272595Y-94996063D01*
X121128432Y-95140226D01*
X121015164Y-95309744D01*
X120937143Y-95498102D01*
X120897369Y-95698061D01*
X120897369Y-95901939D01*
X120937143Y-96101898D01*
X121015164Y-96290256D01*
X121102255Y-96420597D01*
X121111203Y-96453144D01*
X121115001Y-96467609D01*
X121115000Y-100066546D01*
X121082795Y-100114744D01*
X121004774Y-100303102D01*
X120965000Y-100503061D01*
X120965000Y-100706939D01*
X121004774Y-100906898D01*
X121082795Y-101095256D01*
X121115000Y-101143454D01*
X121115000Y-101373668D01*
X121005865Y-101327066D01*
X120782000Y-101280000D01*
X120555101Y-101280000D01*
X120590000Y-101104552D01*
X120590000Y-100915448D01*
X120553108Y-100729978D01*
X120480741Y-100555269D01*
X120375681Y-100398036D01*
X120241964Y-100264319D01*
X120084731Y-100159259D01*
X119910022Y-100086892D01*
X119724552Y-100050000D01*
X119535448Y-100050000D01*
X119349978Y-100086892D01*
X119175269Y-100159259D01*
X119018036Y-100264319D01*
X118884319Y-100398036D01*
X118779259Y-100555269D01*
X118706892Y-100729978D01*
X118670000Y-100915448D01*
X118670000Y-101104552D01*
X118706892Y-101290022D01*
X118779259Y-101464731D01*
X118842258Y-101559015D01*
X118694953Y-101709559D01*
X118569937Y-101901136D01*
X118486036Y-102134190D01*
X118611837Y-102313000D01*
X120003000Y-102313000D01*
X120003000Y-102293000D01*
X120257000Y-102293000D01*
X120257000Y-102313000D01*
X120277000Y-102313000D01*
X120277000Y-102567000D01*
X120257000Y-102567000D01*
X120257000Y-103600000D01*
X120782000Y-103600000D01*
X121005865Y-103552934D01*
X121115000Y-103506332D01*
X121115001Y-117856521D01*
X121110719Y-117900000D01*
X121127805Y-118073490D01*
X121178412Y-118240313D01*
X121260590Y-118394059D01*
X121343468Y-118495046D01*
X121343471Y-118495049D01*
X121371184Y-118528817D01*
X121404951Y-118556529D01*
X122313421Y-119465000D01*
X116735959Y-119465000D01*
X116454981Y-119437450D01*
X116219290Y-119366290D01*
X116001914Y-119250710D01*
X115811123Y-119095103D01*
X115654191Y-118905407D01*
X115537096Y-118688842D01*
X115464293Y-118453655D01*
X115435002Y-118174971D01*
X115435002Y-115965098D01*
X116315000Y-115965098D01*
X116315000Y-116434902D01*
X116406654Y-116895679D01*
X116586440Y-117329721D01*
X116847450Y-117720349D01*
X117179651Y-118052550D01*
X117570279Y-118313560D01*
X118004321Y-118493346D01*
X118465098Y-118585000D01*
X118934902Y-118585000D01*
X119395679Y-118493346D01*
X119829721Y-118313560D01*
X120220349Y-118052550D01*
X120552550Y-117720349D01*
X120813560Y-117329721D01*
X120993346Y-116895679D01*
X121085000Y-116434902D01*
X121085000Y-115965098D01*
X120993346Y-115504321D01*
X120813560Y-115070279D01*
X120552550Y-114679651D01*
X120220349Y-114347450D01*
X119829721Y-114086440D01*
X119395679Y-113906654D01*
X118934902Y-113815000D01*
X118465098Y-113815000D01*
X118004321Y-113906654D01*
X117570279Y-114086440D01*
X117179651Y-114347450D01*
X116847450Y-114679651D01*
X116586440Y-115070279D01*
X116406654Y-115504321D01*
X116315000Y-115965098D01*
X115435002Y-115965098D01*
X115435002Y-103575000D01*
X115823000Y-103575000D01*
X115823000Y-102567000D01*
X116077000Y-102567000D01*
X116077000Y-103575000D01*
X116577000Y-103575000D01*
X116795987Y-103528415D01*
X117001678Y-103440003D01*
X117186169Y-103313161D01*
X117342369Y-103152764D01*
X117464276Y-102964976D01*
X117542710Y-102745810D01*
X118486036Y-102745810D01*
X118569937Y-102978864D01*
X118694953Y-103170441D01*
X118854941Y-103333947D01*
X119043754Y-103463099D01*
X119254135Y-103552934D01*
X119478000Y-103600000D01*
X120003000Y-103600000D01*
X120003000Y-102567000D01*
X118611837Y-102567000D01*
X118486036Y-102745810D01*
X117542710Y-102745810D01*
X117544119Y-102741874D01*
X117417954Y-102567000D01*
X116077000Y-102567000D01*
X115823000Y-102567000D01*
X115803000Y-102567000D01*
X115803000Y-102313000D01*
X115823000Y-102313000D01*
X115823000Y-101305000D01*
X116077000Y-101305000D01*
X116077000Y-102313000D01*
X117417954Y-102313000D01*
X117544119Y-102138126D01*
X117464276Y-101915024D01*
X117342369Y-101727236D01*
X117186169Y-101566839D01*
X117001678Y-101439997D01*
X116795987Y-101351585D01*
X116577000Y-101305000D01*
X116077000Y-101305000D01*
X115823000Y-101305000D01*
X115435002Y-101305000D01*
X115435002Y-94935000D01*
X115823000Y-94935000D01*
X115823000Y-93927000D01*
X116077000Y-93927000D01*
X116077000Y-94935000D01*
X116577000Y-94935000D01*
X116795987Y-94888415D01*
X117001678Y-94800003D01*
X117186169Y-94673161D01*
X117342369Y-94512764D01*
X117464276Y-94324976D01*
X117542710Y-94105810D01*
X118486036Y-94105810D01*
X118569937Y-94338864D01*
X118694953Y-94530441D01*
X118842258Y-94680985D01*
X118779259Y-94775269D01*
X118706892Y-94949978D01*
X118670000Y-95135448D01*
X118670000Y-95324552D01*
X118706892Y-95510022D01*
X118779259Y-95684731D01*
X118884319Y-95841964D01*
X119018036Y-95975681D01*
X119175269Y-96080741D01*
X119349978Y-96153108D01*
X119535448Y-96190000D01*
X119724552Y-96190000D01*
X119910022Y-96153108D01*
X120084731Y-96080741D01*
X120241964Y-95975681D01*
X120375681Y-95841964D01*
X120480741Y-95684731D01*
X120553108Y-95510022D01*
X120590000Y-95324552D01*
X120590000Y-95135448D01*
X120555101Y-94960000D01*
X120782000Y-94960000D01*
X121005865Y-94912934D01*
X121216246Y-94823099D01*
X121405059Y-94693947D01*
X121565047Y-94530441D01*
X121690063Y-94338864D01*
X121773964Y-94105810D01*
X121648163Y-93927000D01*
X120257000Y-93927000D01*
X120257000Y-93947000D01*
X120003000Y-93947000D01*
X120003000Y-93927000D01*
X118611837Y-93927000D01*
X118486036Y-94105810D01*
X117542710Y-94105810D01*
X117544119Y-94101874D01*
X117417954Y-93927000D01*
X116077000Y-93927000D01*
X115823000Y-93927000D01*
X115803000Y-93927000D01*
X115803000Y-93673000D01*
X115823000Y-93673000D01*
X115823000Y-92665000D01*
X116077000Y-92665000D01*
X116077000Y-93673000D01*
X117417954Y-93673000D01*
X117544119Y-93498126D01*
X117542711Y-93494190D01*
X118486036Y-93494190D01*
X118611837Y-93673000D01*
X120003000Y-93673000D01*
X120003000Y-92640000D01*
X120257000Y-92640000D01*
X120257000Y-93673000D01*
X121648163Y-93673000D01*
X121773964Y-93494190D01*
X121690063Y-93261136D01*
X121565047Y-93069559D01*
X121405059Y-92906053D01*
X121216246Y-92776901D01*
X121005865Y-92687066D01*
X120782000Y-92640000D01*
X120257000Y-92640000D01*
X120003000Y-92640000D01*
X119478000Y-92640000D01*
X119254135Y-92687066D01*
X119043754Y-92776901D01*
X118854941Y-92906053D01*
X118694953Y-93069559D01*
X118569937Y-93261136D01*
X118486036Y-93494190D01*
X117542711Y-93494190D01*
X117464276Y-93275024D01*
X117342369Y-93087236D01*
X117186169Y-92926839D01*
X117001678Y-92799997D01*
X116795987Y-92711585D01*
X116577000Y-92665000D01*
X116077000Y-92665000D01*
X115823000Y-92665000D01*
X115435002Y-92665000D01*
X115435002Y-91598061D01*
X161965000Y-91598061D01*
X161965000Y-91801939D01*
X162004774Y-92001898D01*
X162082795Y-92190256D01*
X162196063Y-92359774D01*
X162340226Y-92503937D01*
X162509744Y-92617205D01*
X162698102Y-92695226D01*
X162898061Y-92735000D01*
X163101939Y-92735000D01*
X163301898Y-92695226D01*
X163490256Y-92617205D01*
X163659774Y-92503937D01*
X163803937Y-92359774D01*
X163917205Y-92190256D01*
X163995226Y-92001898D01*
X164035000Y-91801939D01*
X164035000Y-91739801D01*
X167832281Y-87942521D01*
X168382678Y-87942521D01*
X168089002Y-88236197D01*
X168059999Y-88259999D01*
X168019824Y-88308953D01*
X167965026Y-88375724D01*
X167911575Y-88475724D01*
X167894454Y-88507754D01*
X167850997Y-88651015D01*
X167840000Y-88762668D01*
X167840000Y-88762678D01*
X167836324Y-88800000D01*
X167840000Y-88837323D01*
X167840001Y-93285197D01*
X167060199Y-94065000D01*
X166998061Y-94065000D01*
X166798102Y-94104774D01*
X166609744Y-94182795D01*
X166440226Y-94296063D01*
X166296063Y-94440226D01*
X166182795Y-94609744D01*
X166104774Y-94798102D01*
X166065000Y-94998061D01*
X166065000Y-95201939D01*
X166104774Y-95401898D01*
X166182795Y-95590256D01*
X166183813Y-95591779D01*
X166040672Y-95734920D01*
X165927404Y-95904438D01*
X165849383Y-96092796D01*
X165809609Y-96292755D01*
X165809609Y-96496633D01*
X165849383Y-96696592D01*
X165927404Y-96884950D01*
X166040672Y-97054468D01*
X166184835Y-97198631D01*
X166354353Y-97311899D01*
X166542711Y-97389920D01*
X166742670Y-97429694D01*
X166946548Y-97429694D01*
X167146507Y-97389920D01*
X167334865Y-97311899D01*
X167402797Y-97266508D01*
X167440226Y-97303937D01*
X167609744Y-97417205D01*
X167798102Y-97495226D01*
X167998061Y-97535000D01*
X168201939Y-97535000D01*
X168401898Y-97495226D01*
X168590256Y-97417205D01*
X168759774Y-97303937D01*
X168903937Y-97159774D01*
X169017205Y-96990256D01*
X169095226Y-96801898D01*
X169135000Y-96601939D01*
X169135000Y-96539801D01*
X170350882Y-95323919D01*
X188036489Y-95323919D01*
X188076918Y-95586555D01*
X188167807Y-95836258D01*
X188223530Y-95940509D01*
X188458727Y-96001668D01*
X189210395Y-95250000D01*
X189569605Y-95250000D01*
X190321273Y-96001668D01*
X190556470Y-95940509D01*
X190668768Y-95699674D01*
X190731924Y-95441559D01*
X190743511Y-95176081D01*
X190703082Y-94913445D01*
X190612193Y-94663742D01*
X190556470Y-94559491D01*
X190321273Y-94498332D01*
X189569605Y-95250000D01*
X189210395Y-95250000D01*
X188458727Y-94498332D01*
X188223530Y-94559491D01*
X188111232Y-94800326D01*
X188048076Y-95058441D01*
X188036489Y-95323919D01*
X170350882Y-95323919D01*
X171356074Y-94318727D01*
X188638332Y-94318727D01*
X189390000Y-95070395D01*
X190141668Y-94318727D01*
X190080509Y-94083530D01*
X189839674Y-93971232D01*
X189581559Y-93908076D01*
X189316081Y-93896489D01*
X189053445Y-93936918D01*
X188803742Y-94027807D01*
X188699491Y-94083530D01*
X188638332Y-94318727D01*
X171356074Y-94318727D01*
X171411003Y-94263799D01*
X171440001Y-94240001D01*
X171502719Y-94163579D01*
X171534974Y-94124277D01*
X171605546Y-93992247D01*
X171619152Y-93947393D01*
X171649003Y-93848986D01*
X171656792Y-93769894D01*
X190689711Y-93769894D01*
X190862322Y-94099583D01*
X191260596Y-94304158D01*
X191691128Y-94427103D01*
X192137372Y-94463692D01*
X192582180Y-94412521D01*
X193008458Y-94275555D01*
X193337678Y-94099583D01*
X193510289Y-93769894D01*
X192100000Y-92359605D01*
X190689711Y-93769894D01*
X171656792Y-93769894D01*
X171660000Y-93737333D01*
X171660000Y-93737323D01*
X171663676Y-93700000D01*
X171660000Y-93662677D01*
X171660000Y-92217372D01*
X189816308Y-92217372D01*
X189867479Y-92662180D01*
X190004445Y-93088458D01*
X190180417Y-93417678D01*
X190510106Y-93590289D01*
X191920395Y-92180000D01*
X192279605Y-92180000D01*
X193689894Y-93590289D01*
X194019583Y-93417678D01*
X194224158Y-93019404D01*
X194347103Y-92588872D01*
X194383692Y-92142628D01*
X194332521Y-91697820D01*
X194195555Y-91271542D01*
X194019583Y-90942322D01*
X193689894Y-90769711D01*
X192279605Y-92180000D01*
X191920395Y-92180000D01*
X190510106Y-90769711D01*
X190180417Y-90942322D01*
X189975842Y-91340596D01*
X189852897Y-91771128D01*
X189816308Y-92217372D01*
X171660000Y-92217372D01*
X171660000Y-90590106D01*
X190689711Y-90590106D01*
X192100000Y-92000395D01*
X193510289Y-90590106D01*
X193337678Y-90260417D01*
X192939404Y-90055842D01*
X192508872Y-89932897D01*
X192062628Y-89896308D01*
X191617820Y-89947479D01*
X191191542Y-90084445D01*
X190862322Y-90260417D01*
X190689711Y-90590106D01*
X171660000Y-90590106D01*
X171660000Y-89603711D01*
X171703937Y-89559774D01*
X171817205Y-89390256D01*
X171895226Y-89201898D01*
X171935000Y-89001939D01*
X171935000Y-88798061D01*
X171907538Y-88660001D01*
X172528841Y-88660001D01*
X172582795Y-88790256D01*
X172696063Y-88959774D01*
X172840226Y-89103937D01*
X173009744Y-89217205D01*
X173198102Y-89295226D01*
X173398061Y-89335000D01*
X173601939Y-89335000D01*
X173801898Y-89295226D01*
X173990256Y-89217205D01*
X174159774Y-89103937D01*
X174303937Y-88959774D01*
X174417205Y-88790256D01*
X174495226Y-88601898D01*
X174535000Y-88401939D01*
X174535000Y-88198061D01*
X174512982Y-88087367D01*
X174664004Y-87986458D01*
X174808167Y-87842295D01*
X174921435Y-87672777D01*
X174999456Y-87484419D01*
X175039230Y-87284460D01*
X175039230Y-87080582D01*
X174999456Y-86880623D01*
X174921435Y-86692265D01*
X174808167Y-86522747D01*
X174664004Y-86378584D01*
X174494486Y-86265316D01*
X174306128Y-86187295D01*
X174106169Y-86147521D01*
X173902291Y-86147521D01*
X173702332Y-86187295D01*
X173513974Y-86265316D01*
X173344456Y-86378584D01*
X173300519Y-86422521D01*
X167554801Y-86422521D01*
X167517478Y-86418845D01*
X167480155Y-86422521D01*
X167480146Y-86422521D01*
X167368493Y-86433518D01*
X167245401Y-86470857D01*
X167225232Y-86476975D01*
X167093202Y-86547547D01*
X167018922Y-86608508D01*
X166977478Y-86642520D01*
X166953680Y-86671518D01*
X162960199Y-90665000D01*
X162898061Y-90665000D01*
X162698102Y-90704774D01*
X162509744Y-90782795D01*
X162340226Y-90896063D01*
X162196063Y-91040226D01*
X162082795Y-91209744D01*
X162004774Y-91398102D01*
X161965000Y-91598061D01*
X115435002Y-91598061D01*
X115435002Y-84507584D01*
X130457021Y-84507584D01*
X130549766Y-84769429D01*
X130835120Y-84907820D01*
X131141990Y-84987883D01*
X131458584Y-85006540D01*
X131772733Y-84963074D01*
X132072367Y-84859156D01*
X132240234Y-84769429D01*
X132332979Y-84507584D01*
X137467021Y-84507584D01*
X137559766Y-84769429D01*
X137845120Y-84907820D01*
X138151990Y-84987883D01*
X138468584Y-85006540D01*
X138782733Y-84963074D01*
X139082367Y-84859156D01*
X139250234Y-84769429D01*
X139307559Y-84607584D01*
X144157021Y-84607584D01*
X144249766Y-84869429D01*
X144535120Y-85007820D01*
X144841990Y-85087883D01*
X145158584Y-85106540D01*
X145472733Y-85063074D01*
X145772367Y-84959156D01*
X145940234Y-84869429D01*
X146032979Y-84607584D01*
X151167021Y-84607584D01*
X151259766Y-84869429D01*
X151545120Y-85007820D01*
X151851990Y-85087883D01*
X152168584Y-85106540D01*
X152482733Y-85063074D01*
X152782367Y-84959156D01*
X152950234Y-84869429D01*
X153042979Y-84607584D01*
X152942979Y-84507584D01*
X157157021Y-84507584D01*
X157249766Y-84769429D01*
X157535120Y-84907820D01*
X157841990Y-84987883D01*
X158158584Y-85006540D01*
X158472733Y-84963074D01*
X158772367Y-84859156D01*
X158940234Y-84769429D01*
X159032979Y-84507584D01*
X164167021Y-84507584D01*
X164259766Y-84769429D01*
X164545120Y-84907820D01*
X164851990Y-84987883D01*
X165168584Y-85006540D01*
X165482733Y-84963074D01*
X165782367Y-84859156D01*
X165950234Y-84769429D01*
X166042979Y-84507584D01*
X170757021Y-84507584D01*
X170849766Y-84769429D01*
X171135120Y-84907820D01*
X171441990Y-84987883D01*
X171758584Y-85006540D01*
X172072733Y-84963074D01*
X172372367Y-84859156D01*
X172540234Y-84769429D01*
X172632979Y-84507584D01*
X177767021Y-84507584D01*
X177859766Y-84769429D01*
X178145120Y-84907820D01*
X178451990Y-84987883D01*
X178768584Y-85006540D01*
X179082733Y-84963074D01*
X179382367Y-84859156D01*
X179550234Y-84769429D01*
X179642979Y-84507584D01*
X178705000Y-83569605D01*
X177767021Y-84507584D01*
X172632979Y-84507584D01*
X171695000Y-83569605D01*
X170757021Y-84507584D01*
X166042979Y-84507584D01*
X165105000Y-83569605D01*
X164167021Y-84507584D01*
X159032979Y-84507584D01*
X158095000Y-83569605D01*
X157157021Y-84507584D01*
X152942979Y-84507584D01*
X152105000Y-83669605D01*
X151167021Y-84607584D01*
X146032979Y-84607584D01*
X145095000Y-83669605D01*
X144157021Y-84607584D01*
X139307559Y-84607584D01*
X139342979Y-84507584D01*
X138405000Y-83569605D01*
X137467021Y-84507584D01*
X132332979Y-84507584D01*
X131395000Y-83569605D01*
X130457021Y-84507584D01*
X115435002Y-84507584D01*
X115435002Y-83453584D01*
X129778460Y-83453584D01*
X129821926Y-83767733D01*
X129925844Y-84067367D01*
X130015571Y-84235234D01*
X130277416Y-84327979D01*
X131215395Y-83390000D01*
X130277416Y-82452021D01*
X130015571Y-82544766D01*
X129877180Y-82830120D01*
X129797117Y-83136990D01*
X129778460Y-83453584D01*
X115435002Y-83453584D01*
X115435002Y-82272416D01*
X130457021Y-82272416D01*
X131395000Y-83210395D01*
X131409143Y-83196253D01*
X131588748Y-83375858D01*
X131574605Y-83390000D01*
X132512584Y-84327979D01*
X132774429Y-84235234D01*
X132912820Y-83949880D01*
X132992883Y-83643010D01*
X133011540Y-83326416D01*
X132968074Y-83012267D01*
X132864156Y-82712633D01*
X132774429Y-82544766D01*
X132512586Y-82452022D01*
X132628320Y-82336288D01*
X132576032Y-82284000D01*
X132786312Y-82284000D01*
X133053698Y-82230814D01*
X133305570Y-82126485D01*
X133532249Y-81975023D01*
X133650993Y-81856279D01*
X136373326Y-81856279D01*
X136438729Y-82095045D01*
X136685538Y-82210845D01*
X136950195Y-82276270D01*
X137219311Y-82288657D01*
X137171680Y-82336288D01*
X137287414Y-82452022D01*
X137025571Y-82544766D01*
X136887180Y-82830120D01*
X136807117Y-83136990D01*
X136788460Y-83453584D01*
X136831926Y-83767733D01*
X136935844Y-84067367D01*
X137025571Y-84235234D01*
X137287416Y-84327979D01*
X138225395Y-83390000D01*
X138584605Y-83390000D01*
X139522584Y-84327979D01*
X139784429Y-84235234D01*
X139922820Y-83949880D01*
X140002883Y-83643010D01*
X140008152Y-83553584D01*
X143478460Y-83553584D01*
X143521926Y-83867733D01*
X143625844Y-84167367D01*
X143715571Y-84335234D01*
X143977416Y-84427979D01*
X144915395Y-83490000D01*
X143977416Y-82552021D01*
X143715571Y-82644766D01*
X143577180Y-82930120D01*
X143497117Y-83236990D01*
X143478460Y-83553584D01*
X140008152Y-83553584D01*
X140021540Y-83326416D01*
X139978074Y-83012267D01*
X139874156Y-82712633D01*
X139784429Y-82544766D01*
X139522584Y-82452021D01*
X138584605Y-83390000D01*
X138225395Y-83390000D01*
X138211253Y-83375858D01*
X138390858Y-83196253D01*
X138405000Y-83210395D01*
X139242979Y-82372416D01*
X144157021Y-82372416D01*
X145095000Y-83310395D01*
X145109143Y-83296253D01*
X145288748Y-83475858D01*
X145274605Y-83490000D01*
X146212584Y-84427979D01*
X146474429Y-84335234D01*
X146612820Y-84049880D01*
X146692883Y-83743010D01*
X146711540Y-83426416D01*
X146668074Y-83112267D01*
X146564156Y-82812633D01*
X146474429Y-82644766D01*
X146212586Y-82552022D01*
X146328320Y-82436288D01*
X146276032Y-82384000D01*
X146486312Y-82384000D01*
X146753698Y-82330814D01*
X147005570Y-82226485D01*
X147232249Y-82075023D01*
X147350993Y-81956279D01*
X150073326Y-81956279D01*
X150138729Y-82195045D01*
X150385538Y-82310845D01*
X150650195Y-82376270D01*
X150919311Y-82388657D01*
X150871680Y-82436288D01*
X150987414Y-82552022D01*
X150725571Y-82644766D01*
X150587180Y-82930120D01*
X150507117Y-83236990D01*
X150488460Y-83553584D01*
X150531926Y-83867733D01*
X150635844Y-84167367D01*
X150725571Y-84335234D01*
X150987416Y-84427979D01*
X151925395Y-83490000D01*
X152284605Y-83490000D01*
X153222584Y-84427979D01*
X153484429Y-84335234D01*
X153622820Y-84049880D01*
X153702883Y-83743010D01*
X153719938Y-83453584D01*
X156478460Y-83453584D01*
X156521926Y-83767733D01*
X156625844Y-84067367D01*
X156715571Y-84235234D01*
X156977416Y-84327979D01*
X157915395Y-83390000D01*
X156977416Y-82452021D01*
X156715571Y-82544766D01*
X156577180Y-82830120D01*
X156497117Y-83136990D01*
X156478460Y-83453584D01*
X153719938Y-83453584D01*
X153721540Y-83426416D01*
X153678074Y-83112267D01*
X153574156Y-82812633D01*
X153484429Y-82644766D01*
X153222584Y-82552021D01*
X152284605Y-83490000D01*
X151925395Y-83490000D01*
X151911253Y-83475858D01*
X152090858Y-83296253D01*
X152105000Y-83310395D01*
X153042979Y-82372416D01*
X153007560Y-82272416D01*
X157157021Y-82272416D01*
X158095000Y-83210395D01*
X158109143Y-83196253D01*
X158288748Y-83375858D01*
X158274605Y-83390000D01*
X159212584Y-84327979D01*
X159474429Y-84235234D01*
X159612820Y-83949880D01*
X159692883Y-83643010D01*
X159711540Y-83326416D01*
X159668074Y-83012267D01*
X159564156Y-82712633D01*
X159474429Y-82544766D01*
X159212586Y-82452022D01*
X159328320Y-82336288D01*
X159276032Y-82284000D01*
X159486312Y-82284000D01*
X159753698Y-82230814D01*
X160005570Y-82126485D01*
X160232249Y-81975023D01*
X160350993Y-81856279D01*
X163073326Y-81856279D01*
X163138729Y-82095045D01*
X163385538Y-82210845D01*
X163650195Y-82276270D01*
X163919311Y-82288657D01*
X163871680Y-82336288D01*
X163987414Y-82452022D01*
X163725571Y-82544766D01*
X163587180Y-82830120D01*
X163507117Y-83136990D01*
X163488460Y-83453584D01*
X163531926Y-83767733D01*
X163635844Y-84067367D01*
X163725571Y-84235234D01*
X163987416Y-84327979D01*
X164925395Y-83390000D01*
X165284605Y-83390000D01*
X166222584Y-84327979D01*
X166484429Y-84235234D01*
X166622820Y-83949880D01*
X166702883Y-83643010D01*
X166714045Y-83453584D01*
X170078460Y-83453584D01*
X170121926Y-83767733D01*
X170225844Y-84067367D01*
X170315571Y-84235234D01*
X170577416Y-84327979D01*
X171515395Y-83390000D01*
X170577416Y-82452021D01*
X170315571Y-82544766D01*
X170177180Y-82830120D01*
X170097117Y-83136990D01*
X170078460Y-83453584D01*
X166714045Y-83453584D01*
X166721540Y-83326416D01*
X166678074Y-83012267D01*
X166574156Y-82712633D01*
X166484429Y-82544766D01*
X166222584Y-82452021D01*
X165284605Y-83390000D01*
X164925395Y-83390000D01*
X164911253Y-83375858D01*
X165090858Y-83196253D01*
X165105000Y-83210395D01*
X166042979Y-82272416D01*
X170757021Y-82272416D01*
X171695000Y-83210395D01*
X171709143Y-83196253D01*
X171888748Y-83375858D01*
X171874605Y-83390000D01*
X172812584Y-84327979D01*
X173074429Y-84235234D01*
X173212820Y-83949880D01*
X173292883Y-83643010D01*
X173311540Y-83326416D01*
X173268074Y-83012267D01*
X173164156Y-82712633D01*
X173074429Y-82544766D01*
X172812586Y-82452022D01*
X172928320Y-82336288D01*
X172876032Y-82284000D01*
X173086312Y-82284000D01*
X173353698Y-82230814D01*
X173605570Y-82126485D01*
X173832249Y-81975023D01*
X173950993Y-81856279D01*
X176673326Y-81856279D01*
X176738729Y-82095045D01*
X176985538Y-82210845D01*
X177250195Y-82276270D01*
X177519311Y-82288657D01*
X177471680Y-82336288D01*
X177587414Y-82452022D01*
X177325571Y-82544766D01*
X177187180Y-82830120D01*
X177107117Y-83136990D01*
X177088460Y-83453584D01*
X177131926Y-83767733D01*
X177235844Y-84067367D01*
X177325571Y-84235234D01*
X177587416Y-84327979D01*
X178525395Y-83390000D01*
X178884605Y-83390000D01*
X179822584Y-84327979D01*
X180084429Y-84235234D01*
X180222820Y-83949880D01*
X180299261Y-83656891D01*
X180638519Y-83656891D01*
X180735843Y-83931252D01*
X180884822Y-84181355D01*
X181079731Y-84397588D01*
X181313080Y-84571641D01*
X181575901Y-84696825D01*
X181723110Y-84741476D01*
X181953000Y-84620155D01*
X181953000Y-83427000D01*
X180759186Y-83427000D01*
X180638519Y-83656891D01*
X180299261Y-83656891D01*
X180302883Y-83643010D01*
X180321540Y-83326416D01*
X180278074Y-83012267D01*
X180254089Y-82943109D01*
X180638519Y-82943109D01*
X180759186Y-83173000D01*
X181953000Y-83173000D01*
X181953000Y-81979845D01*
X182207000Y-81979845D01*
X182207000Y-83173000D01*
X182227000Y-83173000D01*
X182227000Y-83427000D01*
X182207000Y-83427000D01*
X182207000Y-84620155D01*
X182436890Y-84741476D01*
X182584099Y-84696825D01*
X182846920Y-84571641D01*
X183080269Y-84397588D01*
X183275178Y-84181355D01*
X183344805Y-84064466D01*
X183466525Y-84246632D01*
X183673368Y-84453475D01*
X183916589Y-84615990D01*
X184186842Y-84727932D01*
X184473740Y-84785000D01*
X184766260Y-84785000D01*
X185053158Y-84727932D01*
X185323411Y-84615990D01*
X185566632Y-84453475D01*
X185773475Y-84246632D01*
X185890000Y-84072240D01*
X186006525Y-84246632D01*
X186213368Y-84453475D01*
X186456589Y-84615990D01*
X186726842Y-84727932D01*
X187013740Y-84785000D01*
X187306260Y-84785000D01*
X187593158Y-84727932D01*
X187863411Y-84615990D01*
X188106632Y-84453475D01*
X188238487Y-84321620D01*
X188260498Y-84394180D01*
X188319463Y-84504494D01*
X188398815Y-84601185D01*
X188495506Y-84680537D01*
X188605820Y-84739502D01*
X188725518Y-84775812D01*
X188850000Y-84788072D01*
X190550000Y-84788072D01*
X190674482Y-84775812D01*
X190794180Y-84739502D01*
X190904494Y-84680537D01*
X191001185Y-84601185D01*
X191080537Y-84504494D01*
X191139502Y-84394180D01*
X191175812Y-84274482D01*
X191188072Y-84150000D01*
X191188072Y-82450000D01*
X191175812Y-82325518D01*
X191139502Y-82205820D01*
X191080537Y-82095506D01*
X191001185Y-81998815D01*
X190904494Y-81919463D01*
X190794180Y-81860498D01*
X190674482Y-81824188D01*
X190550000Y-81811928D01*
X188850000Y-81811928D01*
X188725518Y-81824188D01*
X188605820Y-81860498D01*
X188495506Y-81919463D01*
X188398815Y-81998815D01*
X188319463Y-82095506D01*
X188260498Y-82205820D01*
X188238487Y-82278380D01*
X188106632Y-82146525D01*
X187863411Y-81984010D01*
X187593158Y-81872068D01*
X187306260Y-81815000D01*
X187013740Y-81815000D01*
X186726842Y-81872068D01*
X186456589Y-81984010D01*
X186213368Y-82146525D01*
X186006525Y-82353368D01*
X185890000Y-82527760D01*
X185773475Y-82353368D01*
X185566632Y-82146525D01*
X185323411Y-81984010D01*
X185053158Y-81872068D01*
X184766260Y-81815000D01*
X184473740Y-81815000D01*
X184186842Y-81872068D01*
X183916589Y-81984010D01*
X183673368Y-82146525D01*
X183466525Y-82353368D01*
X183344805Y-82535534D01*
X183275178Y-82418645D01*
X183080269Y-82202412D01*
X182846920Y-82028359D01*
X182584099Y-81903175D01*
X182436890Y-81858524D01*
X182207000Y-81979845D01*
X181953000Y-81979845D01*
X181723110Y-81858524D01*
X181575901Y-81903175D01*
X181313080Y-82028359D01*
X181079731Y-82202412D01*
X180884822Y-82418645D01*
X180735843Y-82668748D01*
X180638519Y-82943109D01*
X180254089Y-82943109D01*
X180174156Y-82712633D01*
X180084429Y-82544766D01*
X179822584Y-82452021D01*
X178884605Y-83390000D01*
X178525395Y-83390000D01*
X178511253Y-83375858D01*
X178690858Y-83196253D01*
X178705000Y-83210395D01*
X179642979Y-82272416D01*
X179550234Y-82010571D01*
X179264880Y-81872180D01*
X178958010Y-81792117D01*
X178641416Y-81773460D01*
X178519883Y-81790275D01*
X178406281Y-81676673D01*
X178645045Y-81611271D01*
X178760845Y-81364462D01*
X178826270Y-81099805D01*
X178838805Y-80827469D01*
X178797970Y-80557919D01*
X178705332Y-80301516D01*
X178645045Y-80188729D01*
X178406279Y-80123326D01*
X177629605Y-80900000D01*
X177643748Y-80914143D01*
X177464143Y-81093748D01*
X177450000Y-81079605D01*
X176673326Y-81856279D01*
X173950993Y-81856279D01*
X174025023Y-81782249D01*
X174176485Y-81555570D01*
X174280814Y-81303698D01*
X174334000Y-81036312D01*
X174334000Y-80972531D01*
X176061195Y-80972531D01*
X176102030Y-81242081D01*
X176194668Y-81498484D01*
X176254955Y-81611271D01*
X176493721Y-81676674D01*
X177270395Y-80900000D01*
X176493721Y-80123326D01*
X176254955Y-80188729D01*
X176139155Y-80435538D01*
X176073730Y-80700195D01*
X176061195Y-80972531D01*
X174334000Y-80972531D01*
X174334000Y-80763688D01*
X174280814Y-80496302D01*
X174176485Y-80244430D01*
X174025023Y-80017751D01*
X173950993Y-79943721D01*
X176673326Y-79943721D01*
X177450000Y-80720395D01*
X178226674Y-79943721D01*
X178161271Y-79704955D01*
X177914462Y-79589155D01*
X177649805Y-79523730D01*
X177377469Y-79511195D01*
X177107919Y-79552030D01*
X176851516Y-79644668D01*
X176738729Y-79704955D01*
X176673326Y-79943721D01*
X173950993Y-79943721D01*
X173832249Y-79824977D01*
X173605570Y-79673515D01*
X173353698Y-79569186D01*
X173086312Y-79516000D01*
X172813688Y-79516000D01*
X172546302Y-79569186D01*
X172294430Y-79673515D01*
X172067751Y-79824977D01*
X171874977Y-80017751D01*
X171723515Y-80244430D01*
X171619186Y-80496302D01*
X171566000Y-80763688D01*
X171566000Y-81036312D01*
X171619186Y-81303698D01*
X171723515Y-81555570D01*
X171874977Y-81782249D01*
X171880890Y-81788162D01*
X171631416Y-81773460D01*
X171317267Y-81816926D01*
X171017633Y-81920844D01*
X170849766Y-82010571D01*
X170757021Y-82272416D01*
X166042979Y-82272416D01*
X165950234Y-82010571D01*
X165664880Y-81872180D01*
X165358010Y-81792117D01*
X165041416Y-81773460D01*
X164919883Y-81790275D01*
X164806281Y-81676673D01*
X165045045Y-81611271D01*
X165160845Y-81364462D01*
X165226270Y-81099805D01*
X165238805Y-80827469D01*
X165197970Y-80557919D01*
X165105332Y-80301516D01*
X165045045Y-80188729D01*
X164806279Y-80123326D01*
X164029605Y-80900000D01*
X164043748Y-80914143D01*
X163864143Y-81093748D01*
X163850000Y-81079605D01*
X163073326Y-81856279D01*
X160350993Y-81856279D01*
X160425023Y-81782249D01*
X160576485Y-81555570D01*
X160680814Y-81303698D01*
X160734000Y-81036312D01*
X160734000Y-80972531D01*
X162461195Y-80972531D01*
X162502030Y-81242081D01*
X162594668Y-81498484D01*
X162654955Y-81611271D01*
X162893721Y-81676674D01*
X163670395Y-80900000D01*
X162893721Y-80123326D01*
X162654955Y-80188729D01*
X162539155Y-80435538D01*
X162473730Y-80700195D01*
X162461195Y-80972531D01*
X160734000Y-80972531D01*
X160734000Y-80763688D01*
X160680814Y-80496302D01*
X160576485Y-80244430D01*
X160425023Y-80017751D01*
X160350993Y-79943721D01*
X163073326Y-79943721D01*
X163850000Y-80720395D01*
X164626674Y-79943721D01*
X164561271Y-79704955D01*
X164314462Y-79589155D01*
X164049805Y-79523730D01*
X163777469Y-79511195D01*
X163507919Y-79552030D01*
X163251516Y-79644668D01*
X163138729Y-79704955D01*
X163073326Y-79943721D01*
X160350993Y-79943721D01*
X160232249Y-79824977D01*
X160005570Y-79673515D01*
X159753698Y-79569186D01*
X159486312Y-79516000D01*
X159213688Y-79516000D01*
X158946302Y-79569186D01*
X158694430Y-79673515D01*
X158467751Y-79824977D01*
X158274977Y-80017751D01*
X158123515Y-80244430D01*
X158019186Y-80496302D01*
X157966000Y-80763688D01*
X157966000Y-81036312D01*
X158019186Y-81303698D01*
X158123515Y-81555570D01*
X158274977Y-81782249D01*
X158280890Y-81788162D01*
X158031416Y-81773460D01*
X157717267Y-81816926D01*
X157417633Y-81920844D01*
X157249766Y-82010571D01*
X157157021Y-82272416D01*
X153007560Y-82272416D01*
X152950234Y-82110571D01*
X152664880Y-81972180D01*
X152358010Y-81892117D01*
X152041416Y-81873460D01*
X151919883Y-81890275D01*
X151806281Y-81776673D01*
X152045045Y-81711271D01*
X152160845Y-81464462D01*
X152226270Y-81199805D01*
X152238805Y-80927469D01*
X152197970Y-80657919D01*
X152105332Y-80401516D01*
X152045045Y-80288729D01*
X151806279Y-80223326D01*
X151029605Y-81000000D01*
X151043748Y-81014143D01*
X150864143Y-81193748D01*
X150850000Y-81179605D01*
X150073326Y-81956279D01*
X147350993Y-81956279D01*
X147425023Y-81882249D01*
X147576485Y-81655570D01*
X147680814Y-81403698D01*
X147734000Y-81136312D01*
X147734000Y-81072531D01*
X149461195Y-81072531D01*
X149502030Y-81342081D01*
X149594668Y-81598484D01*
X149654955Y-81711271D01*
X149893721Y-81776674D01*
X150670395Y-81000000D01*
X149893721Y-80223326D01*
X149654955Y-80288729D01*
X149539155Y-80535538D01*
X149473730Y-80800195D01*
X149461195Y-81072531D01*
X147734000Y-81072531D01*
X147734000Y-80863688D01*
X147680814Y-80596302D01*
X147576485Y-80344430D01*
X147425023Y-80117751D01*
X147350993Y-80043721D01*
X150073326Y-80043721D01*
X150850000Y-80820395D01*
X151626674Y-80043721D01*
X151561271Y-79804955D01*
X151314462Y-79689155D01*
X151049805Y-79623730D01*
X150777469Y-79611195D01*
X150507919Y-79652030D01*
X150251516Y-79744668D01*
X150138729Y-79804955D01*
X150073326Y-80043721D01*
X147350993Y-80043721D01*
X147232249Y-79924977D01*
X147005570Y-79773515D01*
X146753698Y-79669186D01*
X146486312Y-79616000D01*
X146213688Y-79616000D01*
X145946302Y-79669186D01*
X145694430Y-79773515D01*
X145467751Y-79924977D01*
X145274977Y-80117751D01*
X145123515Y-80344430D01*
X145019186Y-80596302D01*
X144966000Y-80863688D01*
X144966000Y-81136312D01*
X145019186Y-81403698D01*
X145123515Y-81655570D01*
X145274977Y-81882249D01*
X145280890Y-81888162D01*
X145031416Y-81873460D01*
X144717267Y-81916926D01*
X144417633Y-82020844D01*
X144249766Y-82110571D01*
X144157021Y-82372416D01*
X139242979Y-82372416D01*
X139342979Y-82272416D01*
X139250234Y-82010571D01*
X138964880Y-81872180D01*
X138658010Y-81792117D01*
X138341416Y-81773460D01*
X138219883Y-81790275D01*
X138106281Y-81676673D01*
X138345045Y-81611271D01*
X138460845Y-81364462D01*
X138526270Y-81099805D01*
X138538805Y-80827469D01*
X138497970Y-80557919D01*
X138405332Y-80301516D01*
X138345045Y-80188729D01*
X138106279Y-80123326D01*
X137329605Y-80900000D01*
X137343748Y-80914143D01*
X137164143Y-81093748D01*
X137150000Y-81079605D01*
X136373326Y-81856279D01*
X133650993Y-81856279D01*
X133725023Y-81782249D01*
X133876485Y-81555570D01*
X133980814Y-81303698D01*
X134034000Y-81036312D01*
X134034000Y-80972531D01*
X135761195Y-80972531D01*
X135802030Y-81242081D01*
X135894668Y-81498484D01*
X135954955Y-81611271D01*
X136193721Y-81676674D01*
X136970395Y-80900000D01*
X136193721Y-80123326D01*
X135954955Y-80188729D01*
X135839155Y-80435538D01*
X135773730Y-80700195D01*
X135761195Y-80972531D01*
X134034000Y-80972531D01*
X134034000Y-80763688D01*
X133980814Y-80496302D01*
X133876485Y-80244430D01*
X133725023Y-80017751D01*
X133650993Y-79943721D01*
X136373326Y-79943721D01*
X137150000Y-80720395D01*
X137926674Y-79943721D01*
X137861271Y-79704955D01*
X137614462Y-79589155D01*
X137349805Y-79523730D01*
X137077469Y-79511195D01*
X136807919Y-79552030D01*
X136551516Y-79644668D01*
X136438729Y-79704955D01*
X136373326Y-79943721D01*
X133650993Y-79943721D01*
X133532249Y-79824977D01*
X133305570Y-79673515D01*
X133053698Y-79569186D01*
X132786312Y-79516000D01*
X132513688Y-79516000D01*
X132246302Y-79569186D01*
X131994430Y-79673515D01*
X131767751Y-79824977D01*
X131574977Y-80017751D01*
X131423515Y-80244430D01*
X131319186Y-80496302D01*
X131266000Y-80763688D01*
X131266000Y-81036312D01*
X131319186Y-81303698D01*
X131423515Y-81555570D01*
X131574977Y-81782249D01*
X131580890Y-81788162D01*
X131331416Y-81773460D01*
X131017267Y-81816926D01*
X130717633Y-81920844D01*
X130549766Y-82010571D01*
X130457021Y-82272416D01*
X115435002Y-82272416D01*
X115435002Y-79065098D01*
X116415000Y-79065098D01*
X116415000Y-79534902D01*
X116506654Y-79995679D01*
X116686440Y-80429721D01*
X116947450Y-80820349D01*
X117279651Y-81152550D01*
X117670279Y-81413560D01*
X118104321Y-81593346D01*
X118565098Y-81685000D01*
X119034902Y-81685000D01*
X119495679Y-81593346D01*
X119929721Y-81413560D01*
X120320349Y-81152550D01*
X120652550Y-80820349D01*
X120913560Y-80429721D01*
X121093346Y-79995679D01*
X121185000Y-79534902D01*
X121185000Y-79065098D01*
X121093346Y-78604321D01*
X120913560Y-78170279D01*
X120702055Y-77853740D01*
X181075000Y-77853740D01*
X181075000Y-78146260D01*
X181132068Y-78433158D01*
X181244010Y-78703411D01*
X181406525Y-78946632D01*
X181613368Y-79153475D01*
X181856589Y-79315990D01*
X182126842Y-79427932D01*
X182413740Y-79485000D01*
X182706260Y-79485000D01*
X182993158Y-79427932D01*
X183263411Y-79315990D01*
X183506632Y-79153475D01*
X183713475Y-78946632D01*
X183835195Y-78764466D01*
X183904822Y-78881355D01*
X184099731Y-79097588D01*
X184333080Y-79271641D01*
X184595901Y-79396825D01*
X184743110Y-79441476D01*
X184973000Y-79320155D01*
X184973000Y-78127000D01*
X184953000Y-78127000D01*
X184953000Y-77873000D01*
X184973000Y-77873000D01*
X184973000Y-76679845D01*
X185227000Y-76679845D01*
X185227000Y-77873000D01*
X185247000Y-77873000D01*
X185247000Y-78127000D01*
X185227000Y-78127000D01*
X185227000Y-79320155D01*
X185456890Y-79441476D01*
X185604099Y-79396825D01*
X185866920Y-79271641D01*
X186100269Y-79097588D01*
X186176034Y-79013534D01*
X186200498Y-79094180D01*
X186259463Y-79204494D01*
X186338815Y-79301185D01*
X186435506Y-79380537D01*
X186545820Y-79439502D01*
X186665518Y-79475812D01*
X186790000Y-79488072D01*
X188490000Y-79488072D01*
X188614482Y-79475812D01*
X188734180Y-79439502D01*
X188844494Y-79380537D01*
X188941185Y-79301185D01*
X189020537Y-79204494D01*
X189079502Y-79094180D01*
X189088323Y-79065098D01*
X193915000Y-79065098D01*
X193915000Y-79534902D01*
X194006654Y-79995679D01*
X194186440Y-80429721D01*
X194447450Y-80820349D01*
X194779651Y-81152550D01*
X195170279Y-81413560D01*
X195604321Y-81593346D01*
X196065098Y-81685000D01*
X196534902Y-81685000D01*
X196995679Y-81593346D01*
X197429721Y-81413560D01*
X197820349Y-81152550D01*
X198152550Y-80820349D01*
X198413560Y-80429721D01*
X198593346Y-79995679D01*
X198685000Y-79534902D01*
X198685000Y-79065098D01*
X198593346Y-78604321D01*
X198413560Y-78170279D01*
X198152550Y-77779651D01*
X197820349Y-77447450D01*
X197429721Y-77186440D01*
X196995679Y-77006654D01*
X196534902Y-76915000D01*
X196065098Y-76915000D01*
X195604321Y-77006654D01*
X195170279Y-77186440D01*
X194779651Y-77447450D01*
X194447450Y-77779651D01*
X194186440Y-78170279D01*
X194006654Y-78604321D01*
X193915000Y-79065098D01*
X189088323Y-79065098D01*
X189115812Y-78974482D01*
X189128072Y-78850000D01*
X189128072Y-77150000D01*
X189115812Y-77025518D01*
X189079502Y-76905820D01*
X189020537Y-76795506D01*
X188941185Y-76698815D01*
X188844494Y-76619463D01*
X188734180Y-76560498D01*
X188614482Y-76524188D01*
X188490000Y-76511928D01*
X186790000Y-76511928D01*
X186665518Y-76524188D01*
X186545820Y-76560498D01*
X186435506Y-76619463D01*
X186338815Y-76698815D01*
X186259463Y-76795506D01*
X186200498Y-76905820D01*
X186176034Y-76986466D01*
X186100269Y-76902412D01*
X185866920Y-76728359D01*
X185604099Y-76603175D01*
X185456890Y-76558524D01*
X185227000Y-76679845D01*
X184973000Y-76679845D01*
X184743110Y-76558524D01*
X184595901Y-76603175D01*
X184333080Y-76728359D01*
X184099731Y-76902412D01*
X183904822Y-77118645D01*
X183835195Y-77235534D01*
X183713475Y-77053368D01*
X183506632Y-76846525D01*
X183263411Y-76684010D01*
X182993158Y-76572068D01*
X182706260Y-76515000D01*
X182413740Y-76515000D01*
X182126842Y-76572068D01*
X181856589Y-76684010D01*
X181613368Y-76846525D01*
X181406525Y-77053368D01*
X181244010Y-77296589D01*
X181132068Y-77566842D01*
X181075000Y-77853740D01*
X120702055Y-77853740D01*
X120652550Y-77779651D01*
X120320349Y-77447450D01*
X119929721Y-77186440D01*
X119495679Y-77006654D01*
X119034902Y-76915000D01*
X118565098Y-76915000D01*
X118104321Y-77006654D01*
X117670279Y-77186440D01*
X117279651Y-77447450D01*
X116947450Y-77779651D01*
X116686440Y-78170279D01*
X116506654Y-78604321D01*
X116415000Y-79065098D01*
X115435002Y-79065098D01*
X115435002Y-77235947D01*
X115462551Y-76954979D01*
X115533711Y-76719287D01*
X115649291Y-76501912D01*
X115804895Y-76311122D01*
X115994590Y-76154193D01*
X116211163Y-76037092D01*
X116446344Y-75964291D01*
X116725045Y-75934999D01*
X198664054Y-75935001D01*
G37*
%TD.AperFunction*%
%TD*%
D27*
%TO.N,+5V*%
X122237600Y-100124329D02*
X122237604Y-100124552D01*
X122238504Y-100160273D01*
X122238514Y-100160544D01*
X122240014Y-100192755D01*
X122240034Y-100193091D01*
X122242134Y-100221791D01*
X122242172Y-100222218D01*
X122244872Y-100247408D01*
X122244945Y-100247965D01*
X122248245Y-100269644D01*
X122248383Y-100270399D01*
X122252283Y-100288567D01*
X122252559Y-100289628D01*
X122257059Y-100304286D01*
X122257651Y-100305843D01*
X122262751Y-100316990D01*
X122264122Y-100319302D01*
X122264823Y-100320241D01*
X122000000Y-100779574D01*
X121735177Y-100320241D01*
X121735878Y-100319302D01*
X121737249Y-100316990D01*
X121742349Y-100305843D01*
X121742941Y-100304286D01*
X121747441Y-100289628D01*
X121747717Y-100288567D01*
X121751617Y-100270399D01*
X121751755Y-100269644D01*
X121755055Y-100247965D01*
X121755128Y-100247408D01*
X121757828Y-100222218D01*
X121757866Y-100221791D01*
X121759966Y-100193091D01*
X121759986Y-100192755D01*
X121761486Y-100160544D01*
X121761496Y-100160273D01*
X121762396Y-100124552D01*
X121762400Y-100124329D01*
X121762604Y-100097700D01*
X122237396Y-100097700D01*
X122237600Y-100124329D01*
%TA.AperFunction,Conductor*%
D26*
G36*
X122237600Y-100124329D02*
G01*
X122237604Y-100124552D01*
X122238504Y-100160273D01*
X122238514Y-100160544D01*
X122240014Y-100192755D01*
X122240034Y-100193091D01*
X122242134Y-100221791D01*
X122242172Y-100222218D01*
X122244872Y-100247408D01*
X122244945Y-100247965D01*
X122248245Y-100269644D01*
X122248383Y-100270399D01*
X122252283Y-100288567D01*
X122252559Y-100289628D01*
X122257059Y-100304286D01*
X122257651Y-100305843D01*
X122262751Y-100316990D01*
X122264122Y-100319302D01*
X122264823Y-100320241D01*
X122000000Y-100779574D01*
X121735177Y-100320241D01*
X121735878Y-100319302D01*
X121737249Y-100316990D01*
X121742349Y-100305843D01*
X121742941Y-100304286D01*
X121747441Y-100289628D01*
X121747717Y-100288567D01*
X121751617Y-100270399D01*
X121751755Y-100269644D01*
X121755055Y-100247965D01*
X121755128Y-100247408D01*
X121757828Y-100222218D01*
X121757866Y-100221791D01*
X121759966Y-100193091D01*
X121759986Y-100192755D01*
X121761486Y-100160544D01*
X121761496Y-100160273D01*
X121762396Y-100124552D01*
X121762400Y-100124329D01*
X121762604Y-100097700D01*
X122237396Y-100097700D01*
X122237600Y-100124329D01*
G37*
%TD.AperFunction*%
%TD*%
D27*
%TO.N,+5V*%
X122197622Y-96085504D02*
X122196476Y-96087400D01*
X122195403Y-96089646D01*
X122194977Y-96091086D01*
X122191906Y-96104262D01*
X122191598Y-96106359D01*
X122190479Y-96124399D01*
X122190463Y-96125647D01*
X122191297Y-96148549D01*
X122191352Y-96149355D01*
X122194139Y-96177121D01*
X122194208Y-96177679D01*
X122198948Y-96210308D01*
X122199014Y-96210714D01*
X122205706Y-96248206D01*
X122205764Y-96248513D01*
X122214408Y-96290869D01*
X122214460Y-96291111D01*
X122225058Y-96338330D01*
X122225103Y-96338524D01*
X122233876Y-96374931D01*
X121759892Y-96374931D01*
X121749164Y-96332440D01*
X121749134Y-96332324D01*
X121736736Y-96285105D01*
X121736698Y-96284964D01*
X121725054Y-96242608D01*
X121725004Y-96242431D01*
X121714112Y-96204939D01*
X121714044Y-96204713D01*
X121703904Y-96172084D01*
X121703807Y-96171786D01*
X121694420Y-96144020D01*
X121694273Y-96143607D01*
X121685639Y-96120705D01*
X121685393Y-96120101D01*
X121677512Y-96102061D01*
X121677044Y-96101101D01*
X121669915Y-96087925D01*
X121668822Y-96086239D01*
X121667606Y-96084654D01*
X121932369Y-95625426D01*
X122197622Y-96085504D01*
%TA.AperFunction,Conductor*%
D26*
G36*
X122197622Y-96085504D02*
G01*
X122196476Y-96087400D01*
X122195403Y-96089646D01*
X122194977Y-96091086D01*
X122191906Y-96104262D01*
X122191598Y-96106359D01*
X122190479Y-96124399D01*
X122190463Y-96125647D01*
X122191297Y-96148549D01*
X122191352Y-96149355D01*
X122194139Y-96177121D01*
X122194208Y-96177679D01*
X122198948Y-96210308D01*
X122199014Y-96210714D01*
X122205706Y-96248206D01*
X122205764Y-96248513D01*
X122214408Y-96290869D01*
X122214460Y-96291111D01*
X122225058Y-96338330D01*
X122225103Y-96338524D01*
X122233876Y-96374931D01*
X121759892Y-96374931D01*
X121749164Y-96332440D01*
X121749134Y-96332324D01*
X121736736Y-96285105D01*
X121736698Y-96284964D01*
X121725054Y-96242608D01*
X121725004Y-96242431D01*
X121714112Y-96204939D01*
X121714044Y-96204713D01*
X121703904Y-96172084D01*
X121703807Y-96171786D01*
X121694420Y-96144020D01*
X121694273Y-96143607D01*
X121685639Y-96120705D01*
X121685393Y-96120101D01*
X121677512Y-96102061D01*
X121677044Y-96101101D01*
X121669915Y-96087925D01*
X121668822Y-96086239D01*
X121667606Y-96084654D01*
X121932369Y-95625426D01*
X122197622Y-96085504D01*
G37*
%TD.AperFunction*%
%TD*%
D27*
%TO.N,+5V*%
X192964823Y-114034758D02*
X192964123Y-114035696D01*
X192962751Y-114038009D01*
X192957651Y-114049156D01*
X192957059Y-114050713D01*
X192952559Y-114065371D01*
X192952283Y-114066432D01*
X192948383Y-114084600D01*
X192948245Y-114085355D01*
X192944945Y-114107034D01*
X192944872Y-114107591D01*
X192942172Y-114132781D01*
X192942134Y-114133208D01*
X192940034Y-114161908D01*
X192940014Y-114162244D01*
X192938514Y-114194455D01*
X192938504Y-114194726D01*
X192937604Y-114230447D01*
X192937600Y-114230670D01*
X192937396Y-114257300D01*
X192462604Y-114257300D01*
X192462400Y-114230670D01*
X192462396Y-114230447D01*
X192461496Y-114194726D01*
X192461486Y-114194455D01*
X192459986Y-114162244D01*
X192459966Y-114161908D01*
X192457866Y-114133208D01*
X192457828Y-114132781D01*
X192455128Y-114107591D01*
X192455055Y-114107034D01*
X192451755Y-114085355D01*
X192451617Y-114084600D01*
X192447717Y-114066432D01*
X192447441Y-114065371D01*
X192442941Y-114050713D01*
X192442349Y-114049156D01*
X192437249Y-114038009D01*
X192435877Y-114035696D01*
X192435177Y-114034758D01*
X192700000Y-113575426D01*
X192964823Y-114034758D01*
%TA.AperFunction,Conductor*%
D26*
G36*
X192964823Y-114034758D02*
G01*
X192964123Y-114035696D01*
X192962751Y-114038009D01*
X192957651Y-114049156D01*
X192957059Y-114050713D01*
X192952559Y-114065371D01*
X192952283Y-114066432D01*
X192948383Y-114084600D01*
X192948245Y-114085355D01*
X192944945Y-114107034D01*
X192944872Y-114107591D01*
X192942172Y-114132781D01*
X192942134Y-114133208D01*
X192940034Y-114161908D01*
X192940014Y-114162244D01*
X192938514Y-114194455D01*
X192938504Y-114194726D01*
X192937604Y-114230447D01*
X192937600Y-114230670D01*
X192937396Y-114257300D01*
X192462604Y-114257300D01*
X192462400Y-114230670D01*
X192462396Y-114230447D01*
X192461496Y-114194726D01*
X192461486Y-114194455D01*
X192459986Y-114162244D01*
X192459966Y-114161908D01*
X192457866Y-114133208D01*
X192457828Y-114132781D01*
X192455128Y-114107591D01*
X192455055Y-114107034D01*
X192451755Y-114085355D01*
X192451617Y-114084600D01*
X192447717Y-114066432D01*
X192447441Y-114065371D01*
X192442941Y-114050713D01*
X192442349Y-114049156D01*
X192437249Y-114038009D01*
X192435877Y-114035696D01*
X192435177Y-114034758D01*
X192700000Y-113575426D01*
X192964823Y-114034758D01*
G37*
%TD.AperFunction*%
%TD*%
D27*
%TO.N,+5V*%
X122264823Y-100889758D02*
X122264123Y-100890696D01*
X122262751Y-100893009D01*
X122257651Y-100904156D01*
X122257059Y-100905713D01*
X122252559Y-100920371D01*
X122252283Y-100921432D01*
X122248383Y-100939600D01*
X122248245Y-100940355D01*
X122244945Y-100962034D01*
X122244872Y-100962591D01*
X122242172Y-100987781D01*
X122242134Y-100988208D01*
X122240034Y-101016908D01*
X122240014Y-101017244D01*
X122238514Y-101049455D01*
X122238504Y-101049726D01*
X122237604Y-101085447D01*
X122237600Y-101085670D01*
X122237396Y-101112300D01*
X121762604Y-101112300D01*
X121762400Y-101085670D01*
X121762396Y-101085447D01*
X121761496Y-101049726D01*
X121761486Y-101049455D01*
X121759986Y-101017244D01*
X121759966Y-101016908D01*
X121757866Y-100988208D01*
X121757828Y-100987781D01*
X121755128Y-100962591D01*
X121755055Y-100962034D01*
X121751755Y-100940355D01*
X121751617Y-100939600D01*
X121747717Y-100921432D01*
X121747441Y-100920371D01*
X121742941Y-100905713D01*
X121742349Y-100904156D01*
X121737249Y-100893009D01*
X121735877Y-100890696D01*
X121735177Y-100889758D01*
X122000000Y-100430426D01*
X122264823Y-100889758D01*
%TA.AperFunction,Conductor*%
D26*
G36*
X122264823Y-100889758D02*
G01*
X122264123Y-100890696D01*
X122262751Y-100893009D01*
X122257651Y-100904156D01*
X122257059Y-100905713D01*
X122252559Y-100920371D01*
X122252283Y-100921432D01*
X122248383Y-100939600D01*
X122248245Y-100940355D01*
X122244945Y-100962034D01*
X122244872Y-100962591D01*
X122242172Y-100987781D01*
X122242134Y-100988208D01*
X122240034Y-101016908D01*
X122240014Y-101017244D01*
X122238514Y-101049455D01*
X122238504Y-101049726D01*
X122237604Y-101085447D01*
X122237600Y-101085670D01*
X122237396Y-101112300D01*
X121762604Y-101112300D01*
X121762400Y-101085670D01*
X121762396Y-101085447D01*
X121761496Y-101049726D01*
X121761486Y-101049455D01*
X121759986Y-101017244D01*
X121759966Y-101016908D01*
X121757866Y-100988208D01*
X121757828Y-100987781D01*
X121755128Y-100962591D01*
X121755055Y-100962034D01*
X121751755Y-100940355D01*
X121751617Y-100939600D01*
X121747717Y-100921432D01*
X121747441Y-100920371D01*
X121742941Y-100905713D01*
X121742349Y-100904156D01*
X121737249Y-100893009D01*
X121735877Y-100890696D01*
X121735177Y-100889758D01*
X122000000Y-100430426D01*
X122264823Y-100889758D01*
G37*
%TD.AperFunction*%
%TD*%
D27*
%TO.N,+5V*%
X192964823Y-111734760D02*
X192964123Y-111735698D01*
X192962751Y-111738011D01*
X192957651Y-111749158D01*
X192957059Y-111750715D01*
X192952559Y-111765373D01*
X192952283Y-111766434D01*
X192948383Y-111784602D01*
X192948245Y-111785357D01*
X192944945Y-111807036D01*
X192944872Y-111807593D01*
X192942172Y-111832783D01*
X192942134Y-111833210D01*
X192940034Y-111861910D01*
X192940014Y-111862246D01*
X192938514Y-111894457D01*
X192938504Y-111894728D01*
X192937604Y-111930449D01*
X192937600Y-111930672D01*
X192937396Y-111957302D01*
X192462604Y-111957302D01*
X192462400Y-111930672D01*
X192462396Y-111930449D01*
X192461496Y-111894728D01*
X192461486Y-111894457D01*
X192459986Y-111862246D01*
X192459966Y-111861910D01*
X192457866Y-111833210D01*
X192457828Y-111832783D01*
X192455128Y-111807593D01*
X192455055Y-111807036D01*
X192451755Y-111785357D01*
X192451617Y-111784602D01*
X192447717Y-111766434D01*
X192447441Y-111765373D01*
X192442941Y-111750715D01*
X192442349Y-111749158D01*
X192437249Y-111738011D01*
X192435877Y-111735698D01*
X192435177Y-111734760D01*
X192700000Y-111275428D01*
X192964823Y-111734760D01*
%TA.AperFunction,Conductor*%
D26*
G36*
X192964823Y-111734760D02*
G01*
X192964123Y-111735698D01*
X192962751Y-111738011D01*
X192957651Y-111749158D01*
X192957059Y-111750715D01*
X192952559Y-111765373D01*
X192952283Y-111766434D01*
X192948383Y-111784602D01*
X192948245Y-111785357D01*
X192944945Y-111807036D01*
X192944872Y-111807593D01*
X192942172Y-111832783D01*
X192942134Y-111833210D01*
X192940034Y-111861910D01*
X192940014Y-111862246D01*
X192938514Y-111894457D01*
X192938504Y-111894728D01*
X192937604Y-111930449D01*
X192937600Y-111930672D01*
X192937396Y-111957302D01*
X192462604Y-111957302D01*
X192462400Y-111930672D01*
X192462396Y-111930449D01*
X192461496Y-111894728D01*
X192461486Y-111894457D01*
X192459986Y-111862246D01*
X192459966Y-111861910D01*
X192457866Y-111833210D01*
X192457828Y-111832783D01*
X192455128Y-111807593D01*
X192455055Y-111807036D01*
X192451755Y-111785357D01*
X192451617Y-111784602D01*
X192447717Y-111766434D01*
X192447441Y-111765373D01*
X192442941Y-111750715D01*
X192442349Y-111749158D01*
X192437249Y-111738011D01*
X192435877Y-111735698D01*
X192435177Y-111734760D01*
X192700000Y-111275428D01*
X192964823Y-111734760D01*
G37*
%TD.AperFunction*%
%TD*%
D27*
%TO.N,+5V*%
X192937600Y-112169329D02*
X192937604Y-112169552D01*
X192938504Y-112205273D01*
X192938514Y-112205544D01*
X192940014Y-112237755D01*
X192940034Y-112238091D01*
X192942134Y-112266791D01*
X192942172Y-112267218D01*
X192944872Y-112292408D01*
X192944945Y-112292965D01*
X192948245Y-112314644D01*
X192948383Y-112315399D01*
X192952283Y-112333567D01*
X192952559Y-112334628D01*
X192957059Y-112349286D01*
X192957651Y-112350843D01*
X192962751Y-112361990D01*
X192964122Y-112364302D01*
X192964823Y-112365241D01*
X192700000Y-112824574D01*
X192435177Y-112365241D01*
X192435878Y-112364302D01*
X192437249Y-112361990D01*
X192442349Y-112350843D01*
X192442941Y-112349286D01*
X192447441Y-112334628D01*
X192447717Y-112333567D01*
X192451617Y-112315399D01*
X192451755Y-112314644D01*
X192455055Y-112292965D01*
X192455128Y-112292408D01*
X192457828Y-112267218D01*
X192457866Y-112266791D01*
X192459966Y-112238091D01*
X192459986Y-112237755D01*
X192461486Y-112205544D01*
X192461496Y-112205273D01*
X192462396Y-112169552D01*
X192462400Y-112169329D01*
X192462604Y-112142700D01*
X192937396Y-112142700D01*
X192937600Y-112169329D01*
%TA.AperFunction,Conductor*%
D26*
G36*
X192937600Y-112169329D02*
G01*
X192937604Y-112169552D01*
X192938504Y-112205273D01*
X192938514Y-112205544D01*
X192940014Y-112237755D01*
X192940034Y-112238091D01*
X192942134Y-112266791D01*
X192942172Y-112267218D01*
X192944872Y-112292408D01*
X192944945Y-112292965D01*
X192948245Y-112314644D01*
X192948383Y-112315399D01*
X192952283Y-112333567D01*
X192952559Y-112334628D01*
X192957059Y-112349286D01*
X192957651Y-112350843D01*
X192962751Y-112361990D01*
X192964122Y-112364302D01*
X192964823Y-112365241D01*
X192700000Y-112824574D01*
X192435177Y-112365241D01*
X192435878Y-112364302D01*
X192437249Y-112361990D01*
X192442349Y-112350843D01*
X192442941Y-112349286D01*
X192447441Y-112334628D01*
X192447717Y-112333567D01*
X192451617Y-112315399D01*
X192451755Y-112314644D01*
X192455055Y-112292965D01*
X192455128Y-112292408D01*
X192457828Y-112267218D01*
X192457866Y-112266791D01*
X192459966Y-112238091D01*
X192459986Y-112237755D01*
X192461486Y-112205544D01*
X192461496Y-112205273D01*
X192462396Y-112169552D01*
X192462400Y-112169329D01*
X192462604Y-112142700D01*
X192937396Y-112142700D01*
X192937600Y-112169329D01*
G37*
%TD.AperFunction*%
%TD*%
D27*
%TO.N,+5V*%
X192964823Y-112934758D02*
X192964123Y-112935696D01*
X192962751Y-112938009D01*
X192957651Y-112949156D01*
X192957059Y-112950713D01*
X192952559Y-112965371D01*
X192952283Y-112966432D01*
X192948383Y-112984600D01*
X192948245Y-112985355D01*
X192944945Y-113007034D01*
X192944872Y-113007591D01*
X192942172Y-113032781D01*
X192942134Y-113033208D01*
X192940034Y-113061908D01*
X192940014Y-113062244D01*
X192938514Y-113094455D01*
X192938504Y-113094726D01*
X192937604Y-113130447D01*
X192937600Y-113130670D01*
X192937396Y-113157300D01*
X192462604Y-113157300D01*
X192462400Y-113130670D01*
X192462396Y-113130447D01*
X192461496Y-113094726D01*
X192461486Y-113094455D01*
X192459986Y-113062244D01*
X192459966Y-113061908D01*
X192457866Y-113033208D01*
X192457828Y-113032781D01*
X192455128Y-113007591D01*
X192455055Y-113007034D01*
X192451755Y-112985355D01*
X192451617Y-112984600D01*
X192447717Y-112966432D01*
X192447441Y-112965371D01*
X192442941Y-112950713D01*
X192442349Y-112949156D01*
X192437249Y-112938009D01*
X192435877Y-112935696D01*
X192435177Y-112934758D01*
X192700000Y-112475426D01*
X192964823Y-112934758D01*
%TA.AperFunction,Conductor*%
D26*
G36*
X192964823Y-112934758D02*
G01*
X192964123Y-112935696D01*
X192962751Y-112938009D01*
X192957651Y-112949156D01*
X192957059Y-112950713D01*
X192952559Y-112965371D01*
X192952283Y-112966432D01*
X192948383Y-112984600D01*
X192948245Y-112985355D01*
X192944945Y-113007034D01*
X192944872Y-113007591D01*
X192942172Y-113032781D01*
X192942134Y-113033208D01*
X192940034Y-113061908D01*
X192940014Y-113062244D01*
X192938514Y-113094455D01*
X192938504Y-113094726D01*
X192937604Y-113130447D01*
X192937600Y-113130670D01*
X192937396Y-113157300D01*
X192462604Y-113157300D01*
X192462400Y-113130670D01*
X192462396Y-113130447D01*
X192461496Y-113094726D01*
X192461486Y-113094455D01*
X192459986Y-113062244D01*
X192459966Y-113061908D01*
X192457866Y-113033208D01*
X192457828Y-113032781D01*
X192455128Y-113007591D01*
X192455055Y-113007034D01*
X192451755Y-112985355D01*
X192451617Y-112984600D01*
X192447717Y-112966432D01*
X192447441Y-112965371D01*
X192442941Y-112950713D01*
X192442349Y-112949156D01*
X192437249Y-112938009D01*
X192435877Y-112935696D01*
X192435177Y-112934758D01*
X192700000Y-112475426D01*
X192964823Y-112934758D01*
G37*
%TD.AperFunction*%
%TD*%
D27*
%TO.N,+5V*%
X192937600Y-113269329D02*
X192937604Y-113269552D01*
X192938504Y-113305273D01*
X192938514Y-113305544D01*
X192940014Y-113337755D01*
X192940034Y-113338091D01*
X192942134Y-113366791D01*
X192942172Y-113367218D01*
X192944872Y-113392408D01*
X192944945Y-113392965D01*
X192948245Y-113414644D01*
X192948383Y-113415399D01*
X192952283Y-113433567D01*
X192952559Y-113434628D01*
X192957059Y-113449286D01*
X192957651Y-113450843D01*
X192962751Y-113461990D01*
X192964122Y-113464302D01*
X192964823Y-113465241D01*
X192700000Y-113924574D01*
X192435177Y-113465241D01*
X192435878Y-113464302D01*
X192437249Y-113461990D01*
X192442349Y-113450843D01*
X192442941Y-113449286D01*
X192447441Y-113434628D01*
X192447717Y-113433567D01*
X192451617Y-113415399D01*
X192451755Y-113414644D01*
X192455055Y-113392965D01*
X192455128Y-113392408D01*
X192457828Y-113367218D01*
X192457866Y-113366791D01*
X192459966Y-113338091D01*
X192459986Y-113337755D01*
X192461486Y-113305544D01*
X192461496Y-113305273D01*
X192462396Y-113269552D01*
X192462400Y-113269329D01*
X192462604Y-113242700D01*
X192937396Y-113242700D01*
X192937600Y-113269329D01*
%TA.AperFunction,Conductor*%
D26*
G36*
X192937600Y-113269329D02*
G01*
X192937604Y-113269552D01*
X192938504Y-113305273D01*
X192938514Y-113305544D01*
X192940014Y-113337755D01*
X192940034Y-113338091D01*
X192942134Y-113366791D01*
X192942172Y-113367218D01*
X192944872Y-113392408D01*
X192944945Y-113392965D01*
X192948245Y-113414644D01*
X192948383Y-113415399D01*
X192952283Y-113433567D01*
X192952559Y-113434628D01*
X192957059Y-113449286D01*
X192957651Y-113450843D01*
X192962751Y-113461990D01*
X192964122Y-113464302D01*
X192964823Y-113465241D01*
X192700000Y-113924574D01*
X192435177Y-113465241D01*
X192435878Y-113464302D01*
X192437249Y-113461990D01*
X192442349Y-113450843D01*
X192442941Y-113449286D01*
X192447441Y-113434628D01*
X192447717Y-113433567D01*
X192451617Y-113415399D01*
X192451755Y-113414644D01*
X192455055Y-113392965D01*
X192455128Y-113392408D01*
X192457828Y-113367218D01*
X192457866Y-113366791D01*
X192459966Y-113338091D01*
X192459986Y-113337755D01*
X192461486Y-113305544D01*
X192461496Y-113305273D01*
X192462396Y-113269552D01*
X192462400Y-113269329D01*
X192462604Y-113242700D01*
X192937396Y-113242700D01*
X192937600Y-113269329D01*
G37*
%TD.AperFunction*%
%TD*%
D27*
%TO.N,/RST*%
X148274574Y-112200000D02*
X147816198Y-112464272D01*
X147791941Y-112441323D01*
X147791194Y-112440670D01*
X147758576Y-112414320D01*
X147757749Y-112413705D01*
X147723644Y-112390455D01*
X147722747Y-112389897D01*
X147687154Y-112369747D01*
X147686203Y-112369260D01*
X147649122Y-112352210D01*
X147648136Y-112351806D01*
X147609567Y-112337856D01*
X147608567Y-112337541D01*
X147568511Y-112326691D01*
X147567520Y-112326464D01*
X147525976Y-112318714D01*
X147525011Y-112318573D01*
X147481979Y-112313923D01*
X147481057Y-112313857D01*
X147448796Y-112312735D01*
X147448796Y-112087265D01*
X147481057Y-112086142D01*
X147481979Y-112086076D01*
X147525011Y-112081426D01*
X147525976Y-112081285D01*
X147567520Y-112073535D01*
X147568511Y-112073308D01*
X147608567Y-112062458D01*
X147609567Y-112062143D01*
X147648136Y-112048193D01*
X147649122Y-112047789D01*
X147686203Y-112030739D01*
X147687154Y-112030252D01*
X147722747Y-112010102D01*
X147723644Y-112009544D01*
X147757749Y-111986294D01*
X147758576Y-111985679D01*
X147791194Y-111959329D01*
X147791941Y-111958676D01*
X147816198Y-111935728D01*
X148274574Y-112200000D01*
%TA.AperFunction,Conductor*%
D26*
G36*
X148274574Y-112200000D02*
G01*
X147816198Y-112464272D01*
X147791941Y-112441323D01*
X147791194Y-112440670D01*
X147758576Y-112414320D01*
X147757749Y-112413705D01*
X147723644Y-112390455D01*
X147722747Y-112389897D01*
X147687154Y-112369747D01*
X147686203Y-112369260D01*
X147649122Y-112352210D01*
X147648136Y-112351806D01*
X147609567Y-112337856D01*
X147608567Y-112337541D01*
X147568511Y-112326691D01*
X147567520Y-112326464D01*
X147525976Y-112318714D01*
X147525011Y-112318573D01*
X147481979Y-112313923D01*
X147481057Y-112313857D01*
X147448796Y-112312735D01*
X147448796Y-112087265D01*
X147481057Y-112086142D01*
X147481979Y-112086076D01*
X147525011Y-112081426D01*
X147525976Y-112081285D01*
X147567520Y-112073535D01*
X147568511Y-112073308D01*
X147608567Y-112062458D01*
X147609567Y-112062143D01*
X147648136Y-112048193D01*
X147649122Y-112047789D01*
X147686203Y-112030739D01*
X147687154Y-112030252D01*
X147722747Y-112010102D01*
X147723644Y-112009544D01*
X147757749Y-111986294D01*
X147758576Y-111985679D01*
X147791194Y-111959329D01*
X147791941Y-111958676D01*
X147816198Y-111935728D01*
X148274574Y-112200000D01*
G37*
%TD.AperFunction*%
%TD*%
D27*
%TO.N,/RST*%
X144233037Y-111958676D02*
X144233784Y-111959329D01*
X144266402Y-111985679D01*
X144267229Y-111986294D01*
X144301334Y-112009544D01*
X144302231Y-112010102D01*
X144337824Y-112030252D01*
X144338775Y-112030739D01*
X144375856Y-112047789D01*
X144376842Y-112048193D01*
X144415411Y-112062143D01*
X144416411Y-112062458D01*
X144456467Y-112073308D01*
X144457458Y-112073535D01*
X144499002Y-112081285D01*
X144499967Y-112081426D01*
X144542999Y-112086076D01*
X144543921Y-112086142D01*
X144576183Y-112087265D01*
X144576183Y-112312734D01*
X144543921Y-112313857D01*
X144542999Y-112313923D01*
X144499967Y-112318573D01*
X144499002Y-112318714D01*
X144457458Y-112326464D01*
X144456467Y-112326691D01*
X144416411Y-112337541D01*
X144415411Y-112337856D01*
X144376842Y-112351806D01*
X144375856Y-112352210D01*
X144338775Y-112369260D01*
X144337824Y-112369747D01*
X144302231Y-112389897D01*
X144301334Y-112390455D01*
X144267229Y-112413705D01*
X144266402Y-112414320D01*
X144233784Y-112440670D01*
X144233037Y-112441324D01*
X144208782Y-112464272D01*
X143750405Y-112200000D01*
X144208781Y-111935728D01*
X144233037Y-111958676D01*
%TA.AperFunction,Conductor*%
D26*
G36*
X144233037Y-111958676D02*
G01*
X144233784Y-111959329D01*
X144266402Y-111985679D01*
X144267229Y-111986294D01*
X144301334Y-112009544D01*
X144302231Y-112010102D01*
X144337824Y-112030252D01*
X144338775Y-112030739D01*
X144375856Y-112047789D01*
X144376842Y-112048193D01*
X144415411Y-112062143D01*
X144416411Y-112062458D01*
X144456467Y-112073308D01*
X144457458Y-112073535D01*
X144499002Y-112081285D01*
X144499967Y-112081426D01*
X144542999Y-112086076D01*
X144543921Y-112086142D01*
X144576183Y-112087265D01*
X144576183Y-112312734D01*
X144543921Y-112313857D01*
X144542999Y-112313923D01*
X144499967Y-112318573D01*
X144499002Y-112318714D01*
X144457458Y-112326464D01*
X144456467Y-112326691D01*
X144416411Y-112337541D01*
X144415411Y-112337856D01*
X144376842Y-112351806D01*
X144375856Y-112352210D01*
X144338775Y-112369260D01*
X144337824Y-112369747D01*
X144302231Y-112389897D01*
X144301334Y-112390455D01*
X144267229Y-112413705D01*
X144266402Y-112414320D01*
X144233784Y-112440670D01*
X144233037Y-112441324D01*
X144208782Y-112464272D01*
X143750405Y-112200000D01*
X144208781Y-111935728D01*
X144233037Y-111958676D01*
G37*
%TD.AperFunction*%
%TD*%
D27*
%TO.N,+3V3*%
X174395303Y-116296251D02*
X174395110Y-116297056D01*
X174382760Y-116357088D01*
X174382602Y-116358032D01*
X174375352Y-116414576D01*
X174375259Y-116415677D01*
X174373109Y-116468733D01*
X174373121Y-116470001D01*
X174376071Y-116519570D01*
X174376238Y-116521001D01*
X174384288Y-116567082D01*
X174384664Y-116568643D01*
X174397814Y-116611236D01*
X174398441Y-116612861D01*
X174416691Y-116651966D01*
X174417578Y-116653558D01*
X174440928Y-116689176D01*
X174442041Y-116690632D01*
X174464432Y-116715919D01*
X174200000Y-117174574D01*
X173935733Y-116716205D01*
X173959668Y-116690949D01*
X173960251Y-116690289D01*
X173989601Y-116654671D01*
X173990095Y-116654032D01*
X174018345Y-116614927D01*
X174018759Y-116614316D01*
X174045909Y-116571723D01*
X174046256Y-116571147D01*
X174072306Y-116525066D01*
X174072594Y-116524526D01*
X174097544Y-116474957D01*
X174097783Y-116474454D01*
X174121633Y-116421398D01*
X174121832Y-116420931D01*
X174144582Y-116364387D01*
X174144747Y-116363956D01*
X174166397Y-116303924D01*
X174166533Y-116303524D01*
X174184239Y-116248796D01*
X174408341Y-116248796D01*
X174395303Y-116296251D01*
%TA.AperFunction,Conductor*%
D26*
G36*
X174395303Y-116296251D02*
G01*
X174395110Y-116297056D01*
X174382760Y-116357088D01*
X174382602Y-116358032D01*
X174375352Y-116414576D01*
X174375259Y-116415677D01*
X174373109Y-116468733D01*
X174373121Y-116470001D01*
X174376071Y-116519570D01*
X174376238Y-116521001D01*
X174384288Y-116567082D01*
X174384664Y-116568643D01*
X174397814Y-116611236D01*
X174398441Y-116612861D01*
X174416691Y-116651966D01*
X174417578Y-116653558D01*
X174440928Y-116689176D01*
X174442041Y-116690632D01*
X174464432Y-116715919D01*
X174200000Y-117174574D01*
X173935733Y-116716205D01*
X173959668Y-116690949D01*
X173960251Y-116690289D01*
X173989601Y-116654671D01*
X173990095Y-116654032D01*
X174018345Y-116614927D01*
X174018759Y-116614316D01*
X174045909Y-116571723D01*
X174046256Y-116571147D01*
X174072306Y-116525066D01*
X174072594Y-116524526D01*
X174097544Y-116474957D01*
X174097783Y-116474454D01*
X174121633Y-116421398D01*
X174121832Y-116420931D01*
X174144582Y-116364387D01*
X174144747Y-116363956D01*
X174166397Y-116303924D01*
X174166533Y-116303524D01*
X174184239Y-116248796D01*
X174408341Y-116248796D01*
X174395303Y-116296251D01*
G37*
%TD.AperFunction*%
%TD*%
D27*
%TO.N,+3V3*%
X174564272Y-114283803D02*
X174541324Y-114308058D01*
X174540670Y-114308805D01*
X174514320Y-114341423D01*
X174513705Y-114342250D01*
X174490455Y-114376355D01*
X174489897Y-114377252D01*
X174469747Y-114412845D01*
X174469260Y-114413796D01*
X174452210Y-114450877D01*
X174451806Y-114451863D01*
X174437856Y-114490432D01*
X174437541Y-114491432D01*
X174426691Y-114531488D01*
X174426464Y-114532479D01*
X174418714Y-114574023D01*
X174418573Y-114574988D01*
X174413923Y-114618020D01*
X174413857Y-114618942D01*
X174412734Y-114651204D01*
X174187265Y-114651204D01*
X174186142Y-114618942D01*
X174186076Y-114618020D01*
X174181426Y-114574988D01*
X174181285Y-114574023D01*
X174173535Y-114532479D01*
X174173308Y-114531488D01*
X174162458Y-114491432D01*
X174162143Y-114490432D01*
X174148193Y-114451863D01*
X174147789Y-114450877D01*
X174130739Y-114413796D01*
X174130252Y-114412845D01*
X174110102Y-114377252D01*
X174109544Y-114376355D01*
X174086294Y-114342250D01*
X174085679Y-114341423D01*
X174059329Y-114308805D01*
X174058676Y-114308058D01*
X174035728Y-114283802D01*
X174300000Y-113825426D01*
X174564272Y-114283803D01*
%TA.AperFunction,Conductor*%
D26*
G36*
X174564272Y-114283803D02*
G01*
X174541324Y-114308058D01*
X174540670Y-114308805D01*
X174514320Y-114341423D01*
X174513705Y-114342250D01*
X174490455Y-114376355D01*
X174489897Y-114377252D01*
X174469747Y-114412845D01*
X174469260Y-114413796D01*
X174452210Y-114450877D01*
X174451806Y-114451863D01*
X174437856Y-114490432D01*
X174437541Y-114491432D01*
X174426691Y-114531488D01*
X174426464Y-114532479D01*
X174418714Y-114574023D01*
X174418573Y-114574988D01*
X174413923Y-114618020D01*
X174413857Y-114618942D01*
X174412734Y-114651204D01*
X174187265Y-114651204D01*
X174186142Y-114618942D01*
X174186076Y-114618020D01*
X174181426Y-114574988D01*
X174181285Y-114574023D01*
X174173535Y-114532479D01*
X174173308Y-114531488D01*
X174162458Y-114491432D01*
X174162143Y-114490432D01*
X174148193Y-114451863D01*
X174147789Y-114450877D01*
X174130739Y-114413796D01*
X174130252Y-114412845D01*
X174110102Y-114377252D01*
X174109544Y-114376355D01*
X174086294Y-114342250D01*
X174085679Y-114341423D01*
X174059329Y-114308805D01*
X174058676Y-114308058D01*
X174035728Y-114283802D01*
X174300000Y-113825426D01*
X174564272Y-114283803D01*
G37*
%TD.AperFunction*%
%TD*%
D27*
%TO.N,/SW_CLK*%
X174178804Y-87182521D02*
X173720428Y-87446793D01*
X173696171Y-87423844D01*
X173695424Y-87423191D01*
X173662806Y-87396841D01*
X173661979Y-87396226D01*
X173627874Y-87372976D01*
X173626977Y-87372418D01*
X173591384Y-87352268D01*
X173590433Y-87351781D01*
X173553352Y-87334731D01*
X173552366Y-87334327D01*
X173513797Y-87320377D01*
X173512797Y-87320062D01*
X173472741Y-87309212D01*
X173471750Y-87308985D01*
X173430206Y-87301235D01*
X173429241Y-87301094D01*
X173386209Y-87296444D01*
X173385287Y-87296378D01*
X173353026Y-87295256D01*
X173353026Y-87069786D01*
X173385287Y-87068663D01*
X173386209Y-87068597D01*
X173429241Y-87063947D01*
X173430206Y-87063806D01*
X173471750Y-87056056D01*
X173472741Y-87055829D01*
X173512797Y-87044979D01*
X173513797Y-87044664D01*
X173552366Y-87030714D01*
X173553352Y-87030310D01*
X173590433Y-87013260D01*
X173591384Y-87012773D01*
X173626977Y-86992623D01*
X173627874Y-86992065D01*
X173661979Y-86968815D01*
X173662806Y-86968200D01*
X173695424Y-86941850D01*
X173696171Y-86941197D01*
X173720428Y-86918249D01*
X174178804Y-87182521D01*
%TA.AperFunction,Conductor*%
D26*
G36*
X174178804Y-87182521D02*
G01*
X173720428Y-87446793D01*
X173696171Y-87423844D01*
X173695424Y-87423191D01*
X173662806Y-87396841D01*
X173661979Y-87396226D01*
X173627874Y-87372976D01*
X173626977Y-87372418D01*
X173591384Y-87352268D01*
X173590433Y-87351781D01*
X173553352Y-87334731D01*
X173552366Y-87334327D01*
X173513797Y-87320377D01*
X173512797Y-87320062D01*
X173472741Y-87309212D01*
X173471750Y-87308985D01*
X173430206Y-87301235D01*
X173429241Y-87301094D01*
X173386209Y-87296444D01*
X173385287Y-87296378D01*
X173353026Y-87295256D01*
X173353026Y-87069786D01*
X173385287Y-87068663D01*
X173386209Y-87068597D01*
X173429241Y-87063947D01*
X173430206Y-87063806D01*
X173471750Y-87056056D01*
X173472741Y-87055829D01*
X173512797Y-87044979D01*
X173513797Y-87044664D01*
X173552366Y-87030714D01*
X173553352Y-87030310D01*
X173590433Y-87013260D01*
X173591384Y-87012773D01*
X173626977Y-86992623D01*
X173627874Y-86992065D01*
X173661979Y-86968815D01*
X173662806Y-86968200D01*
X173695424Y-86941850D01*
X173696171Y-86941197D01*
X173720428Y-86918249D01*
X174178804Y-87182521D01*
G37*
%TD.AperFunction*%
%TD*%
D27*
%TO.N,/SW_CLK*%
X163540187Y-91319244D02*
X163518168Y-91342850D01*
X163517562Y-91343549D01*
X163490422Y-91377265D01*
X163489840Y-91378048D01*
X163465944Y-91412904D01*
X163465403Y-91413765D01*
X163444751Y-91449761D01*
X163444268Y-91450691D01*
X163426860Y-91487828D01*
X163426448Y-91488810D01*
X163412284Y-91527086D01*
X163411956Y-91528103D01*
X163401036Y-91567519D01*
X163400797Y-91568548D01*
X163393121Y-91609105D01*
X163392970Y-91610125D01*
X163388538Y-91651821D01*
X163388472Y-91652811D01*
X163387546Y-91686190D01*
X162876558Y-91823442D01*
X163013810Y-91312453D01*
X163047188Y-91311527D01*
X163048178Y-91311461D01*
X163089874Y-91307029D01*
X163090894Y-91306878D01*
X163131451Y-91299202D01*
X163132480Y-91298963D01*
X163171896Y-91288043D01*
X163172913Y-91287715D01*
X163211189Y-91273551D01*
X163212171Y-91273139D01*
X163249308Y-91255731D01*
X163250238Y-91255248D01*
X163286234Y-91234596D01*
X163287095Y-91234055D01*
X163321951Y-91210159D01*
X163322734Y-91209577D01*
X163356450Y-91182437D01*
X163357148Y-91181831D01*
X163380756Y-91159813D01*
X163540187Y-91319244D01*
%TA.AperFunction,Conductor*%
D26*
G36*
X163540187Y-91319244D02*
G01*
X163518168Y-91342850D01*
X163517562Y-91343549D01*
X163490422Y-91377265D01*
X163489840Y-91378048D01*
X163465944Y-91412904D01*
X163465403Y-91413765D01*
X163444751Y-91449761D01*
X163444268Y-91450691D01*
X163426860Y-91487828D01*
X163426448Y-91488810D01*
X163412284Y-91527086D01*
X163411956Y-91528103D01*
X163401036Y-91567519D01*
X163400797Y-91568548D01*
X163393121Y-91609105D01*
X163392970Y-91610125D01*
X163388538Y-91651821D01*
X163388472Y-91652811D01*
X163387546Y-91686190D01*
X162876558Y-91823442D01*
X163013810Y-91312453D01*
X163047188Y-91311527D01*
X163048178Y-91311461D01*
X163089874Y-91307029D01*
X163090894Y-91306878D01*
X163131451Y-91299202D01*
X163132480Y-91298963D01*
X163171896Y-91288043D01*
X163172913Y-91287715D01*
X163211189Y-91273551D01*
X163212171Y-91273139D01*
X163249308Y-91255731D01*
X163250238Y-91255248D01*
X163286234Y-91234596D01*
X163287095Y-91234055D01*
X163321951Y-91210159D01*
X163322734Y-91209577D01*
X163356450Y-91182437D01*
X163357148Y-91181831D01*
X163380756Y-91159813D01*
X163540187Y-91319244D01*
G37*
%TD.AperFunction*%
%TD*%
D27*
%TO.N,/SW_DIO*%
X167640187Y-94719244D02*
X167618168Y-94742850D01*
X167617562Y-94743549D01*
X167590422Y-94777265D01*
X167589840Y-94778048D01*
X167565944Y-94812904D01*
X167565403Y-94813765D01*
X167544751Y-94849761D01*
X167544268Y-94850691D01*
X167526860Y-94887828D01*
X167526448Y-94888810D01*
X167512284Y-94927086D01*
X167511956Y-94928103D01*
X167501036Y-94967519D01*
X167500797Y-94968548D01*
X167493121Y-95009105D01*
X167492970Y-95010125D01*
X167488538Y-95051821D01*
X167488472Y-95052811D01*
X167487546Y-95086190D01*
X166976558Y-95223442D01*
X167113810Y-94712453D01*
X167147188Y-94711527D01*
X167148178Y-94711461D01*
X167189874Y-94707029D01*
X167190894Y-94706878D01*
X167231451Y-94699202D01*
X167232480Y-94698963D01*
X167271896Y-94688043D01*
X167272913Y-94687715D01*
X167311189Y-94673551D01*
X167312171Y-94673139D01*
X167349308Y-94655731D01*
X167350238Y-94655248D01*
X167386234Y-94634596D01*
X167387095Y-94634055D01*
X167421951Y-94610159D01*
X167422734Y-94609577D01*
X167456450Y-94582437D01*
X167457148Y-94581831D01*
X167480756Y-94559813D01*
X167640187Y-94719244D01*
%TA.AperFunction,Conductor*%
D26*
G36*
X167640187Y-94719244D02*
G01*
X167618168Y-94742850D01*
X167617562Y-94743549D01*
X167590422Y-94777265D01*
X167589840Y-94778048D01*
X167565944Y-94812904D01*
X167565403Y-94813765D01*
X167544751Y-94849761D01*
X167544268Y-94850691D01*
X167526860Y-94887828D01*
X167526448Y-94888810D01*
X167512284Y-94927086D01*
X167511956Y-94928103D01*
X167501036Y-94967519D01*
X167500797Y-94968548D01*
X167493121Y-95009105D01*
X167492970Y-95010125D01*
X167488538Y-95051821D01*
X167488472Y-95052811D01*
X167487546Y-95086190D01*
X166976558Y-95223442D01*
X167113810Y-94712453D01*
X167147188Y-94711527D01*
X167148178Y-94711461D01*
X167189874Y-94707029D01*
X167190894Y-94706878D01*
X167231451Y-94699202D01*
X167232480Y-94698963D01*
X167271896Y-94688043D01*
X167272913Y-94687715D01*
X167311189Y-94673551D01*
X167312171Y-94673139D01*
X167349308Y-94655731D01*
X167350238Y-94655248D01*
X167386234Y-94634596D01*
X167387095Y-94634055D01*
X167421951Y-94610159D01*
X167422734Y-94609577D01*
X167456450Y-94582437D01*
X167457148Y-94581831D01*
X167480756Y-94559813D01*
X167640187Y-94719244D01*
G37*
%TD.AperFunction*%
%TD*%
D27*
%TO.N,/SW_DIO*%
X173199343Y-87838303D02*
X173200488Y-87839206D01*
X173222397Y-87854539D01*
X173223546Y-87855255D01*
X173247984Y-87868733D01*
X173249090Y-87869275D01*
X173276058Y-87880898D01*
X173277092Y-87881291D01*
X173306588Y-87891060D01*
X173307535Y-87891333D01*
X173339561Y-87899246D01*
X173340414Y-87899426D01*
X173374968Y-87905484D01*
X173375730Y-87905594D01*
X173412814Y-87909798D01*
X173413494Y-87909857D01*
X173453107Y-87912205D01*
X173453709Y-87912226D01*
X173486231Y-87912607D01*
X173623442Y-88423442D01*
X173112607Y-88286231D01*
X173112226Y-88253709D01*
X173112205Y-88253107D01*
X173109857Y-88213494D01*
X173109798Y-88212814D01*
X173105594Y-88175730D01*
X173105484Y-88174968D01*
X173099426Y-88140414D01*
X173099246Y-88139561D01*
X173091333Y-88107535D01*
X173091060Y-88106588D01*
X173081291Y-88077092D01*
X173080898Y-88076058D01*
X173069275Y-88049090D01*
X173068733Y-88047984D01*
X173055255Y-88023546D01*
X173054539Y-88022397D01*
X173039206Y-88000488D01*
X173038303Y-87999343D01*
X173029051Y-87988912D01*
X173188912Y-87829051D01*
X173199343Y-87838303D01*
%TA.AperFunction,Conductor*%
D26*
G36*
X173199343Y-87838303D02*
G01*
X173200488Y-87839206D01*
X173222397Y-87854539D01*
X173223546Y-87855255D01*
X173247984Y-87868733D01*
X173249090Y-87869275D01*
X173276058Y-87880898D01*
X173277092Y-87881291D01*
X173306588Y-87891060D01*
X173307535Y-87891333D01*
X173339561Y-87899246D01*
X173340414Y-87899426D01*
X173374968Y-87905484D01*
X173375730Y-87905594D01*
X173412814Y-87909798D01*
X173413494Y-87909857D01*
X173453107Y-87912205D01*
X173453709Y-87912226D01*
X173486231Y-87912607D01*
X173623442Y-88423442D01*
X173112607Y-88286231D01*
X173112226Y-88253709D01*
X173112205Y-88253107D01*
X173109857Y-88213494D01*
X173109798Y-88212814D01*
X173105594Y-88175730D01*
X173105484Y-88174968D01*
X173099426Y-88140414D01*
X173099246Y-88139561D01*
X173091333Y-88107535D01*
X173091060Y-88106588D01*
X173081291Y-88077092D01*
X173080898Y-88076058D01*
X173069275Y-88049090D01*
X173068733Y-88047984D01*
X173055255Y-88023546D01*
X173054539Y-88022397D01*
X173039206Y-88000488D01*
X173038303Y-87999343D01*
X173029051Y-87988912D01*
X173188912Y-87829051D01*
X173199343Y-87838303D01*
G37*
%TD.AperFunction*%
%TD*%
D27*
%TO.N,/USART1_TX*%
X168640187Y-96119244D02*
X168618168Y-96142850D01*
X168617562Y-96143549D01*
X168590422Y-96177265D01*
X168589840Y-96178048D01*
X168565944Y-96212904D01*
X168565403Y-96213765D01*
X168544751Y-96249761D01*
X168544268Y-96250691D01*
X168526860Y-96287828D01*
X168526448Y-96288810D01*
X168512284Y-96327086D01*
X168511956Y-96328103D01*
X168501036Y-96367519D01*
X168500797Y-96368548D01*
X168493121Y-96409105D01*
X168492970Y-96410125D01*
X168488538Y-96451821D01*
X168488472Y-96452811D01*
X168487546Y-96486190D01*
X167976558Y-96623442D01*
X168113810Y-96112453D01*
X168147188Y-96111527D01*
X168148178Y-96111461D01*
X168189874Y-96107029D01*
X168190894Y-96106878D01*
X168231451Y-96099202D01*
X168232480Y-96098963D01*
X168271896Y-96088043D01*
X168272913Y-96087715D01*
X168311189Y-96073551D01*
X168312171Y-96073139D01*
X168349308Y-96055731D01*
X168350238Y-96055248D01*
X168386234Y-96034596D01*
X168387095Y-96034055D01*
X168421951Y-96010159D01*
X168422734Y-96009577D01*
X168456450Y-95982437D01*
X168457148Y-95981831D01*
X168480756Y-95959813D01*
X168640187Y-96119244D01*
%TA.AperFunction,Conductor*%
D26*
G36*
X168640187Y-96119244D02*
G01*
X168618168Y-96142850D01*
X168617562Y-96143549D01*
X168590422Y-96177265D01*
X168589840Y-96178048D01*
X168565944Y-96212904D01*
X168565403Y-96213765D01*
X168544751Y-96249761D01*
X168544268Y-96250691D01*
X168526860Y-96287828D01*
X168526448Y-96288810D01*
X168512284Y-96327086D01*
X168511956Y-96328103D01*
X168501036Y-96367519D01*
X168500797Y-96368548D01*
X168493121Y-96409105D01*
X168492970Y-96410125D01*
X168488538Y-96451821D01*
X168488472Y-96452811D01*
X168487546Y-96486190D01*
X167976558Y-96623442D01*
X168113810Y-96112453D01*
X168147188Y-96111527D01*
X168148178Y-96111461D01*
X168189874Y-96107029D01*
X168190894Y-96106878D01*
X168231451Y-96099202D01*
X168232480Y-96098963D01*
X168271896Y-96088043D01*
X168272913Y-96087715D01*
X168311189Y-96073551D01*
X168312171Y-96073139D01*
X168349308Y-96055731D01*
X168350238Y-96055248D01*
X168386234Y-96034596D01*
X168387095Y-96034055D01*
X168421951Y-96010159D01*
X168422734Y-96009577D01*
X168456450Y-95982437D01*
X168457148Y-95981831D01*
X168480756Y-95959813D01*
X168640187Y-96119244D01*
G37*
%TD.AperFunction*%
%TD*%
D27*
%TO.N,/USART1_TX*%
X171164272Y-89183803D02*
X171141324Y-89208058D01*
X171140670Y-89208805D01*
X171114320Y-89241423D01*
X171113705Y-89242250D01*
X171090455Y-89276355D01*
X171089897Y-89277252D01*
X171069747Y-89312845D01*
X171069260Y-89313796D01*
X171052210Y-89350877D01*
X171051806Y-89351863D01*
X171037856Y-89390432D01*
X171037541Y-89391432D01*
X171026691Y-89431488D01*
X171026464Y-89432479D01*
X171018714Y-89474023D01*
X171018573Y-89474988D01*
X171013923Y-89518020D01*
X171013857Y-89518942D01*
X171012734Y-89551204D01*
X170787265Y-89551204D01*
X170786142Y-89518942D01*
X170786076Y-89518020D01*
X170781426Y-89474988D01*
X170781285Y-89474023D01*
X170773535Y-89432479D01*
X170773308Y-89431488D01*
X170762458Y-89391432D01*
X170762143Y-89390432D01*
X170748193Y-89351863D01*
X170747789Y-89350877D01*
X170730739Y-89313796D01*
X170730252Y-89312845D01*
X170710102Y-89277252D01*
X170709544Y-89276355D01*
X170686294Y-89242250D01*
X170685679Y-89241423D01*
X170659329Y-89208805D01*
X170658676Y-89208058D01*
X170635728Y-89183802D01*
X170900000Y-88725426D01*
X171164272Y-89183803D01*
%TA.AperFunction,Conductor*%
D26*
G36*
X171164272Y-89183803D02*
G01*
X171141324Y-89208058D01*
X171140670Y-89208805D01*
X171114320Y-89241423D01*
X171113705Y-89242250D01*
X171090455Y-89276355D01*
X171089897Y-89277252D01*
X171069747Y-89312845D01*
X171069260Y-89313796D01*
X171052210Y-89350877D01*
X171051806Y-89351863D01*
X171037856Y-89390432D01*
X171037541Y-89391432D01*
X171026691Y-89431488D01*
X171026464Y-89432479D01*
X171018714Y-89474023D01*
X171018573Y-89474988D01*
X171013923Y-89518020D01*
X171013857Y-89518942D01*
X171012734Y-89551204D01*
X170787265Y-89551204D01*
X170786142Y-89518942D01*
X170786076Y-89518020D01*
X170781426Y-89474988D01*
X170781285Y-89474023D01*
X170773535Y-89432479D01*
X170773308Y-89431488D01*
X170762458Y-89391432D01*
X170762143Y-89390432D01*
X170748193Y-89351863D01*
X170747789Y-89350877D01*
X170730739Y-89313796D01*
X170730252Y-89312845D01*
X170710102Y-89277252D01*
X170709544Y-89276355D01*
X170686294Y-89242250D01*
X170685679Y-89241423D01*
X170659329Y-89208805D01*
X170658676Y-89208058D01*
X170635728Y-89183802D01*
X170900000Y-88725426D01*
X171164272Y-89183803D01*
G37*
%TD.AperFunction*%
%TD*%
D27*
%TO.N,/USART1_RX*%
X169764272Y-89483803D02*
X169741324Y-89508058D01*
X169740670Y-89508805D01*
X169714320Y-89541423D01*
X169713705Y-89542250D01*
X169690455Y-89576355D01*
X169689897Y-89577252D01*
X169669747Y-89612845D01*
X169669260Y-89613796D01*
X169652210Y-89650877D01*
X169651806Y-89651863D01*
X169637856Y-89690432D01*
X169637541Y-89691432D01*
X169626691Y-89731488D01*
X169626464Y-89732479D01*
X169618714Y-89774023D01*
X169618573Y-89774988D01*
X169613923Y-89818020D01*
X169613857Y-89818942D01*
X169612734Y-89851204D01*
X169387265Y-89851204D01*
X169386142Y-89818942D01*
X169386076Y-89818020D01*
X169381426Y-89774988D01*
X169381285Y-89774023D01*
X169373535Y-89732479D01*
X169373308Y-89731488D01*
X169362458Y-89691432D01*
X169362143Y-89690432D01*
X169348193Y-89651863D01*
X169347789Y-89650877D01*
X169330739Y-89613796D01*
X169330252Y-89612845D01*
X169310102Y-89577252D01*
X169309544Y-89576355D01*
X169286294Y-89542250D01*
X169285679Y-89541423D01*
X169259329Y-89508805D01*
X169258676Y-89508058D01*
X169235728Y-89483802D01*
X169500000Y-89025426D01*
X169764272Y-89483803D01*
%TA.AperFunction,Conductor*%
D26*
G36*
X169764272Y-89483803D02*
G01*
X169741324Y-89508058D01*
X169740670Y-89508805D01*
X169714320Y-89541423D01*
X169713705Y-89542250D01*
X169690455Y-89576355D01*
X169689897Y-89577252D01*
X169669747Y-89612845D01*
X169669260Y-89613796D01*
X169652210Y-89650877D01*
X169651806Y-89651863D01*
X169637856Y-89690432D01*
X169637541Y-89691432D01*
X169626691Y-89731488D01*
X169626464Y-89732479D01*
X169618714Y-89774023D01*
X169618573Y-89774988D01*
X169613923Y-89818020D01*
X169613857Y-89818942D01*
X169612734Y-89851204D01*
X169387265Y-89851204D01*
X169386142Y-89818942D01*
X169386076Y-89818020D01*
X169381426Y-89774988D01*
X169381285Y-89774023D01*
X169373535Y-89732479D01*
X169373308Y-89731488D01*
X169362458Y-89691432D01*
X169362143Y-89690432D01*
X169348193Y-89651863D01*
X169347789Y-89650877D01*
X169330739Y-89613796D01*
X169330252Y-89612845D01*
X169310102Y-89577252D01*
X169309544Y-89576355D01*
X169286294Y-89542250D01*
X169285679Y-89541423D01*
X169259329Y-89508805D01*
X169258676Y-89508058D01*
X169235728Y-89483802D01*
X169500000Y-89025426D01*
X169764272Y-89483803D01*
G37*
%TD.AperFunction*%
%TD*%
D27*
%TO.N,/USART1_RX*%
X167384796Y-96013938D02*
X167362777Y-96037544D01*
X167362171Y-96038243D01*
X167335031Y-96071959D01*
X167334449Y-96072742D01*
X167310553Y-96107598D01*
X167310012Y-96108459D01*
X167289360Y-96144455D01*
X167288877Y-96145385D01*
X167271469Y-96182522D01*
X167271057Y-96183504D01*
X167256893Y-96221780D01*
X167256565Y-96222797D01*
X167245645Y-96262213D01*
X167245406Y-96263242D01*
X167237730Y-96303799D01*
X167237579Y-96304819D01*
X167233147Y-96346515D01*
X167233081Y-96347505D01*
X167232155Y-96380884D01*
X166721167Y-96518136D01*
X166858419Y-96007147D01*
X166891797Y-96006221D01*
X166892787Y-96006155D01*
X166934483Y-96001723D01*
X166935503Y-96001572D01*
X166976060Y-95993896D01*
X166977089Y-95993657D01*
X167016505Y-95982737D01*
X167017522Y-95982409D01*
X167055798Y-95968245D01*
X167056780Y-95967833D01*
X167093917Y-95950425D01*
X167094847Y-95949942D01*
X167130843Y-95929290D01*
X167131704Y-95928749D01*
X167166560Y-95904853D01*
X167167343Y-95904271D01*
X167201059Y-95877131D01*
X167201757Y-95876525D01*
X167225365Y-95854507D01*
X167384796Y-96013938D01*
%TA.AperFunction,Conductor*%
D26*
G36*
X167384796Y-96013938D02*
G01*
X167362777Y-96037544D01*
X167362171Y-96038243D01*
X167335031Y-96071959D01*
X167334449Y-96072742D01*
X167310553Y-96107598D01*
X167310012Y-96108459D01*
X167289360Y-96144455D01*
X167288877Y-96145385D01*
X167271469Y-96182522D01*
X167271057Y-96183504D01*
X167256893Y-96221780D01*
X167256565Y-96222797D01*
X167245645Y-96262213D01*
X167245406Y-96263242D01*
X167237730Y-96303799D01*
X167237579Y-96304819D01*
X167233147Y-96346515D01*
X167233081Y-96347505D01*
X167232155Y-96380884D01*
X166721167Y-96518136D01*
X166858419Y-96007147D01*
X166891797Y-96006221D01*
X166892787Y-96006155D01*
X166934483Y-96001723D01*
X166935503Y-96001572D01*
X166976060Y-95993896D01*
X166977089Y-95993657D01*
X167016505Y-95982737D01*
X167017522Y-95982409D01*
X167055798Y-95968245D01*
X167056780Y-95967833D01*
X167093917Y-95950425D01*
X167094847Y-95949942D01*
X167130843Y-95929290D01*
X167131704Y-95928749D01*
X167166560Y-95904853D01*
X167167343Y-95904271D01*
X167201059Y-95877131D01*
X167201757Y-95876525D01*
X167225365Y-95854507D01*
X167384796Y-96013938D01*
G37*
%TD.AperFunction*%
%TD*%
D27*
%TO.N,/VOUT*%
X189373050Y-102951529D02*
X189313491Y-102953167D01*
X189312506Y-102953232D01*
X189245355Y-102960327D01*
X189244339Y-102960476D01*
X189179058Y-102972766D01*
X189178032Y-102973004D01*
X189114620Y-102990491D01*
X189113604Y-102990818D01*
X189052061Y-103013502D01*
X189051077Y-103013912D01*
X188991403Y-103041791D01*
X188990472Y-103042274D01*
X188932668Y-103075349D01*
X188931804Y-103075891D01*
X188875868Y-103114163D01*
X188875081Y-103114746D01*
X188821015Y-103158214D01*
X188820313Y-103158823D01*
X188777086Y-103199125D01*
X188440875Y-102862914D01*
X188481176Y-102819686D01*
X188481785Y-102818984D01*
X188525253Y-102764918D01*
X188525836Y-102764131D01*
X188564108Y-102708195D01*
X188564650Y-102707331D01*
X188597725Y-102649527D01*
X188598208Y-102648596D01*
X188626088Y-102588922D01*
X188626498Y-102587938D01*
X188649181Y-102526395D01*
X188649508Y-102525379D01*
X188666995Y-102461967D01*
X188667233Y-102460941D01*
X188679523Y-102395660D01*
X188679672Y-102394644D01*
X188686767Y-102327493D01*
X188686832Y-102326508D01*
X188688471Y-102266950D01*
X189624458Y-102015542D01*
X189373050Y-102951529D01*
%TA.AperFunction,Conductor*%
D26*
G36*
X189373050Y-102951529D02*
G01*
X189313491Y-102953167D01*
X189312506Y-102953232D01*
X189245355Y-102960327D01*
X189244339Y-102960476D01*
X189179058Y-102972766D01*
X189178032Y-102973004D01*
X189114620Y-102990491D01*
X189113604Y-102990818D01*
X189052061Y-103013502D01*
X189051077Y-103013912D01*
X188991403Y-103041791D01*
X188990472Y-103042274D01*
X188932668Y-103075349D01*
X188931804Y-103075891D01*
X188875868Y-103114163D01*
X188875081Y-103114746D01*
X188821015Y-103158214D01*
X188820313Y-103158823D01*
X188777086Y-103199125D01*
X188440875Y-102862914D01*
X188481176Y-102819686D01*
X188481785Y-102818984D01*
X188525253Y-102764918D01*
X188525836Y-102764131D01*
X188564108Y-102708195D01*
X188564650Y-102707331D01*
X188597725Y-102649527D01*
X188598208Y-102648596D01*
X188626088Y-102588922D01*
X188626498Y-102587938D01*
X188649181Y-102526395D01*
X188649508Y-102525379D01*
X188666995Y-102461967D01*
X188667233Y-102460941D01*
X188679523Y-102395660D01*
X188679672Y-102394644D01*
X188686767Y-102327493D01*
X188686832Y-102326508D01*
X188688471Y-102266950D01*
X189624458Y-102015542D01*
X189373050Y-102951529D01*
G37*
%TD.AperFunction*%
%TD*%
D27*
%TO.N,/VOUT*%
X188251580Y-107734150D02*
X188232894Y-107753123D01*
X188232738Y-107753284D01*
X188208116Y-107779179D01*
X188207932Y-107779377D01*
X188186216Y-107803214D01*
X188185993Y-107803466D01*
X188167183Y-107825245D01*
X188166908Y-107825574D01*
X188151006Y-107845295D01*
X188150663Y-107845740D01*
X188137667Y-107863403D01*
X188137231Y-107864034D01*
X188127141Y-107879638D01*
X188126585Y-107880585D01*
X188119403Y-107894132D01*
X188118722Y-107895651D01*
X188114446Y-107907139D01*
X188113780Y-107909745D01*
X188113612Y-107910903D01*
X187601558Y-108048442D01*
X187739097Y-107536387D01*
X187740256Y-107536219D01*
X187742860Y-107535553D01*
X187754348Y-107531277D01*
X187755867Y-107530596D01*
X187769414Y-107523414D01*
X187770361Y-107522858D01*
X187785965Y-107512768D01*
X187786596Y-107512332D01*
X187804259Y-107499336D01*
X187804704Y-107498993D01*
X187824425Y-107483091D01*
X187824754Y-107482816D01*
X187846533Y-107464006D01*
X187846785Y-107463783D01*
X187870622Y-107442067D01*
X187870820Y-107441883D01*
X187896715Y-107417261D01*
X187896875Y-107417106D01*
X187915850Y-107398420D01*
X188251580Y-107734150D01*
%TA.AperFunction,Conductor*%
D26*
G36*
X188251580Y-107734150D02*
G01*
X188232894Y-107753123D01*
X188232738Y-107753284D01*
X188208116Y-107779179D01*
X188207932Y-107779377D01*
X188186216Y-107803214D01*
X188185993Y-107803466D01*
X188167183Y-107825245D01*
X188166908Y-107825574D01*
X188151006Y-107845295D01*
X188150663Y-107845740D01*
X188137667Y-107863403D01*
X188137231Y-107864034D01*
X188127141Y-107879638D01*
X188126585Y-107880585D01*
X188119403Y-107894132D01*
X188118722Y-107895651D01*
X188114446Y-107907139D01*
X188113780Y-107909745D01*
X188113612Y-107910903D01*
X187601558Y-108048442D01*
X187739097Y-107536387D01*
X187740256Y-107536219D01*
X187742860Y-107535553D01*
X187754348Y-107531277D01*
X187755867Y-107530596D01*
X187769414Y-107523414D01*
X187770361Y-107522858D01*
X187785965Y-107512768D01*
X187786596Y-107512332D01*
X187804259Y-107499336D01*
X187804704Y-107498993D01*
X187824425Y-107483091D01*
X187824754Y-107482816D01*
X187846533Y-107464006D01*
X187846785Y-107463783D01*
X187870622Y-107442067D01*
X187870820Y-107441883D01*
X187896715Y-107417261D01*
X187896875Y-107417106D01*
X187915850Y-107398420D01*
X188251580Y-107734150D01*
G37*
%TD.AperFunction*%
%TD*%
D27*
%TO.N,/USB_D+*%
X162295797Y-95578777D02*
X161837422Y-95843048D01*
X161808150Y-95815351D01*
X161807404Y-95814699D01*
X161769545Y-95784099D01*
X161768720Y-95783485D01*
X161729147Y-95756485D01*
X161728251Y-95755927D01*
X161686962Y-95732527D01*
X161686012Y-95732040D01*
X161643009Y-95712240D01*
X161642023Y-95711835D01*
X161597306Y-95695635D01*
X161596306Y-95695319D01*
X161549873Y-95682719D01*
X161548881Y-95682492D01*
X161500734Y-95673492D01*
X161499767Y-95673350D01*
X161449906Y-95667950D01*
X161448982Y-95667884D01*
X161409663Y-95666513D01*
X161409663Y-95491041D01*
X161448982Y-95489669D01*
X161449906Y-95489603D01*
X161499767Y-95484203D01*
X161500734Y-95484061D01*
X161548881Y-95475061D01*
X161549873Y-95474834D01*
X161596306Y-95462234D01*
X161597306Y-95461918D01*
X161642023Y-95445718D01*
X161643009Y-95445313D01*
X161686012Y-95425513D01*
X161686962Y-95425026D01*
X161728251Y-95401626D01*
X161729147Y-95401068D01*
X161768720Y-95374068D01*
X161769545Y-95373454D01*
X161807404Y-95342854D01*
X161808150Y-95342202D01*
X161837421Y-95314506D01*
X162295797Y-95578777D01*
%TA.AperFunction,Conductor*%
D26*
G36*
X162295797Y-95578777D02*
G01*
X161837422Y-95843048D01*
X161808150Y-95815351D01*
X161807404Y-95814699D01*
X161769545Y-95784099D01*
X161768720Y-95783485D01*
X161729147Y-95756485D01*
X161728251Y-95755927D01*
X161686962Y-95732527D01*
X161686012Y-95732040D01*
X161643009Y-95712240D01*
X161642023Y-95711835D01*
X161597306Y-95695635D01*
X161596306Y-95695319D01*
X161549873Y-95682719D01*
X161548881Y-95682492D01*
X161500734Y-95673492D01*
X161499767Y-95673350D01*
X161449906Y-95667950D01*
X161448982Y-95667884D01*
X161409663Y-95666513D01*
X161409663Y-95491041D01*
X161448982Y-95489669D01*
X161449906Y-95489603D01*
X161499767Y-95484203D01*
X161500734Y-95484061D01*
X161548881Y-95475061D01*
X161549873Y-95474834D01*
X161596306Y-95462234D01*
X161597306Y-95461918D01*
X161642023Y-95445718D01*
X161643009Y-95445313D01*
X161686012Y-95425513D01*
X161686962Y-95425026D01*
X161728251Y-95401626D01*
X161729147Y-95401068D01*
X161768720Y-95374068D01*
X161769545Y-95373454D01*
X161807404Y-95342854D01*
X161808150Y-95342202D01*
X161837421Y-95314506D01*
X162295797Y-95578777D01*
G37*
%TD.AperFunction*%
%TD*%
D27*
%TO.N,/USBDP1*%
X123176510Y-98818404D02*
X123176576Y-98819326D01*
X123181226Y-98862358D01*
X123181367Y-98863323D01*
X123189117Y-98904867D01*
X123189344Y-98905858D01*
X123200194Y-98945914D01*
X123200509Y-98946914D01*
X123214459Y-98985483D01*
X123214863Y-98986469D01*
X123231913Y-99023550D01*
X123232400Y-99024501D01*
X123252550Y-99060094D01*
X123253108Y-99060991D01*
X123276358Y-99095096D01*
X123276973Y-99095923D01*
X123303323Y-99128541D01*
X123303976Y-99129288D01*
X123326925Y-99153545D01*
X123062653Y-99611921D01*
X122798381Y-99153545D01*
X122821329Y-99129288D01*
X122821982Y-99128541D01*
X122848332Y-99095923D01*
X122848947Y-99095096D01*
X122872197Y-99060991D01*
X122872755Y-99060094D01*
X122892905Y-99024501D01*
X122893392Y-99023550D01*
X122910442Y-98986469D01*
X122910846Y-98985483D01*
X122924796Y-98946914D01*
X122925111Y-98945914D01*
X122935961Y-98905858D01*
X122936188Y-98904867D01*
X122943938Y-98863323D01*
X122944079Y-98862358D01*
X122948729Y-98819326D01*
X122948795Y-98818404D01*
X122949918Y-98786143D01*
X123175388Y-98786143D01*
X123176510Y-98818404D01*
%TA.AperFunction,Conductor*%
D26*
G36*
X123176510Y-98818404D02*
G01*
X123176576Y-98819326D01*
X123181226Y-98862358D01*
X123181367Y-98863323D01*
X123189117Y-98904867D01*
X123189344Y-98905858D01*
X123200194Y-98945914D01*
X123200509Y-98946914D01*
X123214459Y-98985483D01*
X123214863Y-98986469D01*
X123231913Y-99023550D01*
X123232400Y-99024501D01*
X123252550Y-99060094D01*
X123253108Y-99060991D01*
X123276358Y-99095096D01*
X123276973Y-99095923D01*
X123303323Y-99128541D01*
X123303976Y-99129288D01*
X123326925Y-99153545D01*
X123062653Y-99611921D01*
X122798381Y-99153545D01*
X122821329Y-99129288D01*
X122821982Y-99128541D01*
X122848332Y-99095923D01*
X122848947Y-99095096D01*
X122872197Y-99060991D01*
X122872755Y-99060094D01*
X122892905Y-99024501D01*
X122893392Y-99023550D01*
X122910442Y-98986469D01*
X122910846Y-98985483D01*
X122924796Y-98946914D01*
X122925111Y-98945914D01*
X122935961Y-98905858D01*
X122936188Y-98904867D01*
X122943938Y-98863323D01*
X122944079Y-98862358D01*
X122948729Y-98819326D01*
X122948795Y-98818404D01*
X122949918Y-98786143D01*
X123175388Y-98786143D01*
X123176510Y-98818404D01*
G37*
%TD.AperFunction*%
%TD*%
D27*
%TO.N,/USBDP1*%
X123264373Y-97583981D02*
X123241772Y-97608881D01*
X123240818Y-97610069D01*
X123216347Y-97644566D01*
X123215531Y-97645878D01*
X123195414Y-97683116D01*
X123194773Y-97684493D01*
X123179009Y-97724472D01*
X123178554Y-97725853D01*
X123167142Y-97768573D01*
X123166862Y-97769903D01*
X123159804Y-97815363D01*
X123159674Y-97816599D01*
X123156969Y-97864800D01*
X123156956Y-97865923D01*
X123158604Y-97916865D01*
X123158676Y-97917865D01*
X123164677Y-97971548D01*
X123164807Y-97972429D01*
X123172411Y-98013861D01*
X122947681Y-98013861D01*
X122936553Y-97967191D01*
X122936413Y-97966656D01*
X122921112Y-97912973D01*
X122920934Y-97912402D01*
X122903786Y-97861460D01*
X122903566Y-97860856D01*
X122884571Y-97812655D01*
X122884300Y-97812018D01*
X122863458Y-97766558D01*
X122863129Y-97765894D01*
X122840440Y-97723174D01*
X122840048Y-97722488D01*
X122815513Y-97682509D01*
X122815052Y-97681810D01*
X122788669Y-97644572D01*
X122788135Y-97643871D01*
X122759905Y-97609374D01*
X122759297Y-97608684D01*
X122735731Y-97583802D01*
X123000000Y-97125430D01*
X123264373Y-97583981D01*
%TA.AperFunction,Conductor*%
D26*
G36*
X123264373Y-97583981D02*
G01*
X123241772Y-97608881D01*
X123240818Y-97610069D01*
X123216347Y-97644566D01*
X123215531Y-97645878D01*
X123195414Y-97683116D01*
X123194773Y-97684493D01*
X123179009Y-97724472D01*
X123178554Y-97725853D01*
X123167142Y-97768573D01*
X123166862Y-97769903D01*
X123159804Y-97815363D01*
X123159674Y-97816599D01*
X123156969Y-97864800D01*
X123156956Y-97865923D01*
X123158604Y-97916865D01*
X123158676Y-97917865D01*
X123164677Y-97971548D01*
X123164807Y-97972429D01*
X123172411Y-98013861D01*
X122947681Y-98013861D01*
X122936553Y-97967191D01*
X122936413Y-97966656D01*
X122921112Y-97912973D01*
X122920934Y-97912402D01*
X122903786Y-97861460D01*
X122903566Y-97860856D01*
X122884571Y-97812655D01*
X122884300Y-97812018D01*
X122863458Y-97766558D01*
X122863129Y-97765894D01*
X122840440Y-97723174D01*
X122840048Y-97722488D01*
X122815513Y-97682509D01*
X122815052Y-97681810D01*
X122788669Y-97644572D01*
X122788135Y-97643871D01*
X122759905Y-97609374D01*
X122759297Y-97608684D01*
X122735731Y-97583802D01*
X123000000Y-97125430D01*
X123264373Y-97583981D01*
G37*
%TD.AperFunction*%
%TD*%
M02*
