%TF.GenerationSoftware,KiCad,Pcbnew,(5.1.10)-1*%
%TF.CreationDate,2022-05-21T22:50:28+08:00*%
%TF.ProjectId,stm32f103,73746d33-3266-4313-9033-2e6b69636164,rev?*%
%TF.SameCoordinates,Original*%
%TF.FileFunction,Soldermask,Bot*%
%TF.FilePolarity,Negative*%
%FSLAX46Y46*%
G04 Gerber Fmt 4.6, Leading zero omitted, Abs format (unit mm)*
G04 Created by KiCad (PCBNEW (5.1.10)-1) date 2022-05-21 22:50:28*
%MOMM*%
%LPD*%
G01*
G04 APERTURE LIST*
%ADD10C,1.498000*%
%ADD11R,1.498000X1.498000*%
%ADD12C,1.950000*%
%ADD13C,0.650000*%
%ADD14O,2.100000X1.050000*%
%ADD15O,2.000000X1.000000*%
%ADD16C,3.276000*%
%ADD17C,1.428000*%
%ADD18R,1.428000X1.428000*%
%ADD19C,3.500000*%
%ADD20R,1.700000X1.700000*%
%ADD21O,1.700000X1.700000*%
G04 APERTURE END LIST*
D10*
%TO.C,SW1*%
X158350000Y-112450000D03*
X158350000Y-116950000D03*
D11*
X151850000Y-112450000D03*
D10*
X151850000Y-116950000D03*
%TD*%
D12*
%TO.C,S4*%
X171695000Y-83390000D03*
X178705000Y-83390000D03*
D10*
X172950000Y-80900000D03*
X177450000Y-80900000D03*
%TD*%
D12*
%TO.C,S3*%
X158095000Y-83390000D03*
X165105000Y-83390000D03*
D10*
X159350000Y-80900000D03*
X163850000Y-80900000D03*
%TD*%
D12*
%TO.C,S2*%
X145095000Y-83490000D03*
X152105000Y-83490000D03*
D10*
X146350000Y-81000000D03*
X150850000Y-81000000D03*
%TD*%
D12*
%TO.C,S1*%
X131395000Y-83390000D03*
X138405000Y-83390000D03*
D10*
X132650000Y-80900000D03*
X137150000Y-80900000D03*
%TD*%
D13*
%TO.C,J3*%
X119630000Y-95230000D03*
X119630000Y-101010000D03*
D14*
X120130000Y-102440000D03*
X120130000Y-93800000D03*
D15*
X115950000Y-102440000D03*
X115950000Y-93800000D03*
%TD*%
D16*
%TO.C,J6*%
X192100000Y-92180000D03*
X192100000Y-105320000D03*
D17*
X189390000Y-95250000D03*
X189390000Y-97750000D03*
X189390000Y-99750000D03*
D18*
X189390000Y-102250000D03*
%TD*%
D19*
%TO.C,M3*%
X196500000Y-116000000D03*
%TD*%
%TO.C,M4*%
X118700000Y-116200000D03*
%TD*%
%TO.C,M2*%
X196300000Y-79300000D03*
%TD*%
%TO.C,M1*%
X118800000Y-79300000D03*
%TD*%
D20*
%TO.C,J5*%
X185700000Y-104200000D03*
%TD*%
D21*
%TO.C,J1*%
X182080000Y-83300000D03*
X184620000Y-83300000D03*
X187160000Y-83300000D03*
D20*
X189700000Y-83300000D03*
%TD*%
D21*
%TO.C,J2*%
X182560000Y-78000000D03*
X185100000Y-78000000D03*
D20*
X187640000Y-78000000D03*
%TD*%
M02*
