M48
; DRILL file {KiCad (5.1.10)-1} date 05/21/22 22:50:55
; FORMAT={-:-/ absolute / metric / decimal}
; #@! TF.CreationDate,2022-05-21T22:50:55+08:00
; #@! TF.GenerationSoftware,Kicad,Pcbnew,(5.1.10)-1
; #@! TF.FileFunction,Plated,1,2,PTH
FMAT,2
METRIC
T1C0.400
T2C0.600
T3C0.920
T4C0.990
T5C1.000
T6C1.300
T7C2.260
T8C3.000
%
G90
G05
T1
X121.932Y-95.8
X122.0Y-100.605
X123.0Y-97.3
X123.063Y-99.437
X128.2Y-117.0
X128.5Y-104.7
X130.929Y-99.171
X131.671Y-98.429
X143.0Y-99.8
X143.925Y-112.2
X148.1Y-112.2
X149.6Y-100.6
X151.8Y-108.3
X154.4Y-106.0
X154.7Y-90.0
X154.7Y-96.2
X155.2Y-114.9
X155.6Y-110.8
X158.5Y-102.0
X160.5Y-99.1
X161.379Y-96.321
X161.4Y-113.6
X161.9Y-106.3
X162.121Y-95.579
X163.0Y-91.7
X163.0Y-93.6
X164.8Y-104.2
X165.5Y-91.65
X166.845Y-96.395
X167.1Y-95.1
X168.1Y-96.5
X169.5Y-89.2
X170.0Y-95.9
X170.0Y-113.1
X170.9Y-88.9
X172.35Y-117.05
X172.8Y-110.0
X173.5Y-88.3
X173.8Y-91.0
X174.004Y-87.183
X174.2Y-117.0
X174.3Y-114.0
X174.8Y-104.2
X176.45Y-109.0
X179.4Y-97.9
X185.312Y-113.388
X187.725Y-107.925
X189.45Y-116.1
X192.7Y-111.45
X192.7Y-112.65
X192.7Y-113.75
X194.3Y-98.8
T3
X189.39Y-95.25
X189.39Y-97.75
X189.39Y-99.75
X189.39Y-102.25
T4
X132.65Y-80.9
X137.15Y-80.9
X146.35Y-81.0
X150.85Y-81.0
X151.85Y-112.45
X151.85Y-116.95
X158.35Y-112.45
X158.35Y-116.95
X159.35Y-80.9
X163.85Y-80.9
X172.95Y-80.9
X177.45Y-80.9
T5
X182.08Y-83.3
X182.56Y-78.0
X184.62Y-83.3
X185.1Y-78.0
X185.7Y-104.2
X187.16Y-83.3
X187.64Y-78.0
X189.7Y-83.3
T6
X131.395Y-83.39
X138.405Y-83.39
X145.095Y-83.49
X152.105Y-83.49
X158.095Y-83.39
X165.105Y-83.39
X171.695Y-83.39
X178.705Y-83.39
T7
X192.1Y-92.18
X192.1Y-105.32
T8
X118.7Y-116.2
X118.8Y-79.3
X196.3Y-79.3
X196.5Y-116.0
T2
G00X116.35Y-93.8
M15
G01X115.55Y-93.8
M16
G05
G00X116.35Y-102.44
M15
G01X115.55Y-102.44
M16
G05
G00X120.68Y-93.8
M15
G01X119.58Y-93.8
M16
G05
G00X120.68Y-102.44
M15
G01X119.58Y-102.44
M16
G05
T0
M30
