%TF.GenerationSoftware,KiCad,Pcbnew,(5.1.10)-1*%
%TF.CreationDate,2022-04-11T13:22:51+08:00*%
%TF.ProjectId,stm32f103,73746d33-3266-4313-9033-2e6b69636164,rev?*%
%TF.SameCoordinates,Original*%
%TF.FileFunction,Paste,Top*%
%TF.FilePolarity,Positive*%
%FSLAX46Y46*%
G04 Gerber Fmt 4.6, Leading zero omitted, Abs format (unit mm)*
G04 Created by KiCad (PCBNEW (5.1.10)-1) date 2022-04-11 13:22:51*
%MOMM*%
%LPD*%
G01*
G04 APERTURE LIST*
%ADD10R,2.200000X1.800000*%
%ADD11R,1.300000X0.300000*%
%ADD12R,1.150000X0.600000*%
%ADD13R,1.150000X0.300000*%
%ADD14R,0.900000X0.800000*%
%ADD15R,1.550000X1.300000*%
%ADD16R,1.500000X2.000000*%
%ADD17R,3.800000X2.000000*%
%ADD18R,2.000000X4.500000*%
G04 APERTURE END LIST*
D10*
%TO.C,J4*%
X179900000Y-89450000D03*
X179900000Y-107750000D03*
D11*
X176650000Y-105850000D03*
X176650000Y-105350000D03*
X176650000Y-104850000D03*
X176650000Y-104350000D03*
X176650000Y-103850000D03*
X176650000Y-103350000D03*
X176650000Y-102850000D03*
X176650000Y-102350000D03*
X176650000Y-101850000D03*
X176650000Y-101350000D03*
X176650000Y-100850000D03*
X176650000Y-100350000D03*
X176650000Y-99850000D03*
X176650000Y-99350000D03*
X176650000Y-98850000D03*
X176650000Y-98350000D03*
X176650000Y-97850000D03*
X176650000Y-97350000D03*
X176650000Y-96850000D03*
X176650000Y-96350000D03*
X176650000Y-95850000D03*
X176650000Y-95350000D03*
X176650000Y-94850000D03*
X176650000Y-94350000D03*
X176650000Y-93850000D03*
X176650000Y-93350000D03*
X176650000Y-92850000D03*
X176650000Y-92350000D03*
X176650000Y-91850000D03*
X176650000Y-91350000D03*
%TD*%
%TO.C,R11*%
G36*
G01*
X126087500Y-98849998D02*
X126087500Y-99750002D01*
G75*
G02*
X125837502Y-100000000I-249998J0D01*
G01*
X125312498Y-100000000D01*
G75*
G02*
X125062500Y-99750002I0J249998D01*
G01*
X125062500Y-98849998D01*
G75*
G02*
X125312498Y-98600000I249998J0D01*
G01*
X125837502Y-98600000D01*
G75*
G02*
X126087500Y-98849998I0J-249998D01*
G01*
G37*
G36*
G01*
X127912500Y-98849998D02*
X127912500Y-99750002D01*
G75*
G02*
X127662502Y-100000000I-249998J0D01*
G01*
X127137498Y-100000000D01*
G75*
G02*
X126887500Y-99750002I0J249998D01*
G01*
X126887500Y-98849998D01*
G75*
G02*
X127137498Y-98600000I249998J0D01*
G01*
X127662502Y-98600000D01*
G75*
G02*
X127912500Y-98849998I0J-249998D01*
G01*
G37*
%TD*%
%TO.C,R12*%
G36*
G01*
X126087500Y-96849998D02*
X126087500Y-97750002D01*
G75*
G02*
X125837502Y-98000000I-249998J0D01*
G01*
X125312498Y-98000000D01*
G75*
G02*
X125062500Y-97750002I0J249998D01*
G01*
X125062500Y-96849998D01*
G75*
G02*
X125312498Y-96600000I249998J0D01*
G01*
X125837502Y-96600000D01*
G75*
G02*
X126087500Y-96849998I0J-249998D01*
G01*
G37*
G36*
G01*
X127912500Y-96849998D02*
X127912500Y-97750002D01*
G75*
G02*
X127662502Y-98000000I-249998J0D01*
G01*
X127137498Y-98000000D01*
G75*
G02*
X126887500Y-97750002I0J249998D01*
G01*
X126887500Y-96849998D01*
G75*
G02*
X127137498Y-96600000I249998J0D01*
G01*
X127662502Y-96600000D01*
G75*
G02*
X127912500Y-96849998I0J-249998D01*
G01*
G37*
%TD*%
%TO.C,U2*%
G36*
G01*
X151650000Y-94825000D02*
X151650000Y-94675000D01*
G75*
G02*
X151725000Y-94600000I75000J0D01*
G01*
X153125000Y-94600000D01*
G75*
G02*
X153200000Y-94675000I0J-75000D01*
G01*
X153200000Y-94825000D01*
G75*
G02*
X153125000Y-94900000I-75000J0D01*
G01*
X151725000Y-94900000D01*
G75*
G02*
X151650000Y-94825000I0J75000D01*
G01*
G37*
G36*
G01*
X151650000Y-95325000D02*
X151650000Y-95175000D01*
G75*
G02*
X151725000Y-95100000I75000J0D01*
G01*
X153125000Y-95100000D01*
G75*
G02*
X153200000Y-95175000I0J-75000D01*
G01*
X153200000Y-95325000D01*
G75*
G02*
X153125000Y-95400000I-75000J0D01*
G01*
X151725000Y-95400000D01*
G75*
G02*
X151650000Y-95325000I0J75000D01*
G01*
G37*
G36*
G01*
X151650000Y-95825000D02*
X151650000Y-95675000D01*
G75*
G02*
X151725000Y-95600000I75000J0D01*
G01*
X153125000Y-95600000D01*
G75*
G02*
X153200000Y-95675000I0J-75000D01*
G01*
X153200000Y-95825000D01*
G75*
G02*
X153125000Y-95900000I-75000J0D01*
G01*
X151725000Y-95900000D01*
G75*
G02*
X151650000Y-95825000I0J75000D01*
G01*
G37*
G36*
G01*
X151650000Y-96325000D02*
X151650000Y-96175000D01*
G75*
G02*
X151725000Y-96100000I75000J0D01*
G01*
X153125000Y-96100000D01*
G75*
G02*
X153200000Y-96175000I0J-75000D01*
G01*
X153200000Y-96325000D01*
G75*
G02*
X153125000Y-96400000I-75000J0D01*
G01*
X151725000Y-96400000D01*
G75*
G02*
X151650000Y-96325000I0J75000D01*
G01*
G37*
G36*
G01*
X151650000Y-96825000D02*
X151650000Y-96675000D01*
G75*
G02*
X151725000Y-96600000I75000J0D01*
G01*
X153125000Y-96600000D01*
G75*
G02*
X153200000Y-96675000I0J-75000D01*
G01*
X153200000Y-96825000D01*
G75*
G02*
X153125000Y-96900000I-75000J0D01*
G01*
X151725000Y-96900000D01*
G75*
G02*
X151650000Y-96825000I0J75000D01*
G01*
G37*
G36*
G01*
X151650000Y-97325000D02*
X151650000Y-97175000D01*
G75*
G02*
X151725000Y-97100000I75000J0D01*
G01*
X153125000Y-97100000D01*
G75*
G02*
X153200000Y-97175000I0J-75000D01*
G01*
X153200000Y-97325000D01*
G75*
G02*
X153125000Y-97400000I-75000J0D01*
G01*
X151725000Y-97400000D01*
G75*
G02*
X151650000Y-97325000I0J75000D01*
G01*
G37*
G36*
G01*
X151650000Y-97825000D02*
X151650000Y-97675000D01*
G75*
G02*
X151725000Y-97600000I75000J0D01*
G01*
X153125000Y-97600000D01*
G75*
G02*
X153200000Y-97675000I0J-75000D01*
G01*
X153200000Y-97825000D01*
G75*
G02*
X153125000Y-97900000I-75000J0D01*
G01*
X151725000Y-97900000D01*
G75*
G02*
X151650000Y-97825000I0J75000D01*
G01*
G37*
G36*
G01*
X151650000Y-98325000D02*
X151650000Y-98175000D01*
G75*
G02*
X151725000Y-98100000I75000J0D01*
G01*
X153125000Y-98100000D01*
G75*
G02*
X153200000Y-98175000I0J-75000D01*
G01*
X153200000Y-98325000D01*
G75*
G02*
X153125000Y-98400000I-75000J0D01*
G01*
X151725000Y-98400000D01*
G75*
G02*
X151650000Y-98325000I0J75000D01*
G01*
G37*
G36*
G01*
X151650000Y-98825000D02*
X151650000Y-98675000D01*
G75*
G02*
X151725000Y-98600000I75000J0D01*
G01*
X153125000Y-98600000D01*
G75*
G02*
X153200000Y-98675000I0J-75000D01*
G01*
X153200000Y-98825000D01*
G75*
G02*
X153125000Y-98900000I-75000J0D01*
G01*
X151725000Y-98900000D01*
G75*
G02*
X151650000Y-98825000I0J75000D01*
G01*
G37*
G36*
G01*
X151650000Y-99325000D02*
X151650000Y-99175000D01*
G75*
G02*
X151725000Y-99100000I75000J0D01*
G01*
X153125000Y-99100000D01*
G75*
G02*
X153200000Y-99175000I0J-75000D01*
G01*
X153200000Y-99325000D01*
G75*
G02*
X153125000Y-99400000I-75000J0D01*
G01*
X151725000Y-99400000D01*
G75*
G02*
X151650000Y-99325000I0J75000D01*
G01*
G37*
G36*
G01*
X151650000Y-99825000D02*
X151650000Y-99675000D01*
G75*
G02*
X151725000Y-99600000I75000J0D01*
G01*
X153125000Y-99600000D01*
G75*
G02*
X153200000Y-99675000I0J-75000D01*
G01*
X153200000Y-99825000D01*
G75*
G02*
X153125000Y-99900000I-75000J0D01*
G01*
X151725000Y-99900000D01*
G75*
G02*
X151650000Y-99825000I0J75000D01*
G01*
G37*
G36*
G01*
X151650000Y-100325000D02*
X151650000Y-100175000D01*
G75*
G02*
X151725000Y-100100000I75000J0D01*
G01*
X153125000Y-100100000D01*
G75*
G02*
X153200000Y-100175000I0J-75000D01*
G01*
X153200000Y-100325000D01*
G75*
G02*
X153125000Y-100400000I-75000J0D01*
G01*
X151725000Y-100400000D01*
G75*
G02*
X151650000Y-100325000I0J75000D01*
G01*
G37*
G36*
G01*
X151650000Y-100825000D02*
X151650000Y-100675000D01*
G75*
G02*
X151725000Y-100600000I75000J0D01*
G01*
X153125000Y-100600000D01*
G75*
G02*
X153200000Y-100675000I0J-75000D01*
G01*
X153200000Y-100825000D01*
G75*
G02*
X153125000Y-100900000I-75000J0D01*
G01*
X151725000Y-100900000D01*
G75*
G02*
X151650000Y-100825000I0J75000D01*
G01*
G37*
G36*
G01*
X151650000Y-101325000D02*
X151650000Y-101175000D01*
G75*
G02*
X151725000Y-101100000I75000J0D01*
G01*
X153125000Y-101100000D01*
G75*
G02*
X153200000Y-101175000I0J-75000D01*
G01*
X153200000Y-101325000D01*
G75*
G02*
X153125000Y-101400000I-75000J0D01*
G01*
X151725000Y-101400000D01*
G75*
G02*
X151650000Y-101325000I0J75000D01*
G01*
G37*
G36*
G01*
X151650000Y-101825000D02*
X151650000Y-101675000D01*
G75*
G02*
X151725000Y-101600000I75000J0D01*
G01*
X153125000Y-101600000D01*
G75*
G02*
X153200000Y-101675000I0J-75000D01*
G01*
X153200000Y-101825000D01*
G75*
G02*
X153125000Y-101900000I-75000J0D01*
G01*
X151725000Y-101900000D01*
G75*
G02*
X151650000Y-101825000I0J75000D01*
G01*
G37*
G36*
G01*
X151650000Y-102325000D02*
X151650000Y-102175000D01*
G75*
G02*
X151725000Y-102100000I75000J0D01*
G01*
X153125000Y-102100000D01*
G75*
G02*
X153200000Y-102175000I0J-75000D01*
G01*
X153200000Y-102325000D01*
G75*
G02*
X153125000Y-102400000I-75000J0D01*
G01*
X151725000Y-102400000D01*
G75*
G02*
X151650000Y-102325000I0J75000D01*
G01*
G37*
G36*
G01*
X154200000Y-104875000D02*
X154200000Y-103475000D01*
G75*
G02*
X154275000Y-103400000I75000J0D01*
G01*
X154425000Y-103400000D01*
G75*
G02*
X154500000Y-103475000I0J-75000D01*
G01*
X154500000Y-104875000D01*
G75*
G02*
X154425000Y-104950000I-75000J0D01*
G01*
X154275000Y-104950000D01*
G75*
G02*
X154200000Y-104875000I0J75000D01*
G01*
G37*
G36*
G01*
X154700000Y-104875000D02*
X154700000Y-103475000D01*
G75*
G02*
X154775000Y-103400000I75000J0D01*
G01*
X154925000Y-103400000D01*
G75*
G02*
X155000000Y-103475000I0J-75000D01*
G01*
X155000000Y-104875000D01*
G75*
G02*
X154925000Y-104950000I-75000J0D01*
G01*
X154775000Y-104950000D01*
G75*
G02*
X154700000Y-104875000I0J75000D01*
G01*
G37*
G36*
G01*
X155200000Y-104875000D02*
X155200000Y-103475000D01*
G75*
G02*
X155275000Y-103400000I75000J0D01*
G01*
X155425000Y-103400000D01*
G75*
G02*
X155500000Y-103475000I0J-75000D01*
G01*
X155500000Y-104875000D01*
G75*
G02*
X155425000Y-104950000I-75000J0D01*
G01*
X155275000Y-104950000D01*
G75*
G02*
X155200000Y-104875000I0J75000D01*
G01*
G37*
G36*
G01*
X155700000Y-104875000D02*
X155700000Y-103475000D01*
G75*
G02*
X155775000Y-103400000I75000J0D01*
G01*
X155925000Y-103400000D01*
G75*
G02*
X156000000Y-103475000I0J-75000D01*
G01*
X156000000Y-104875000D01*
G75*
G02*
X155925000Y-104950000I-75000J0D01*
G01*
X155775000Y-104950000D01*
G75*
G02*
X155700000Y-104875000I0J75000D01*
G01*
G37*
G36*
G01*
X156200000Y-104875000D02*
X156200000Y-103475000D01*
G75*
G02*
X156275000Y-103400000I75000J0D01*
G01*
X156425000Y-103400000D01*
G75*
G02*
X156500000Y-103475000I0J-75000D01*
G01*
X156500000Y-104875000D01*
G75*
G02*
X156425000Y-104950000I-75000J0D01*
G01*
X156275000Y-104950000D01*
G75*
G02*
X156200000Y-104875000I0J75000D01*
G01*
G37*
G36*
G01*
X156700000Y-104875000D02*
X156700000Y-103475000D01*
G75*
G02*
X156775000Y-103400000I75000J0D01*
G01*
X156925000Y-103400000D01*
G75*
G02*
X157000000Y-103475000I0J-75000D01*
G01*
X157000000Y-104875000D01*
G75*
G02*
X156925000Y-104950000I-75000J0D01*
G01*
X156775000Y-104950000D01*
G75*
G02*
X156700000Y-104875000I0J75000D01*
G01*
G37*
G36*
G01*
X157200000Y-104875000D02*
X157200000Y-103475000D01*
G75*
G02*
X157275000Y-103400000I75000J0D01*
G01*
X157425000Y-103400000D01*
G75*
G02*
X157500000Y-103475000I0J-75000D01*
G01*
X157500000Y-104875000D01*
G75*
G02*
X157425000Y-104950000I-75000J0D01*
G01*
X157275000Y-104950000D01*
G75*
G02*
X157200000Y-104875000I0J75000D01*
G01*
G37*
G36*
G01*
X157700000Y-104875000D02*
X157700000Y-103475000D01*
G75*
G02*
X157775000Y-103400000I75000J0D01*
G01*
X157925000Y-103400000D01*
G75*
G02*
X158000000Y-103475000I0J-75000D01*
G01*
X158000000Y-104875000D01*
G75*
G02*
X157925000Y-104950000I-75000J0D01*
G01*
X157775000Y-104950000D01*
G75*
G02*
X157700000Y-104875000I0J75000D01*
G01*
G37*
G36*
G01*
X158200000Y-104875000D02*
X158200000Y-103475000D01*
G75*
G02*
X158275000Y-103400000I75000J0D01*
G01*
X158425000Y-103400000D01*
G75*
G02*
X158500000Y-103475000I0J-75000D01*
G01*
X158500000Y-104875000D01*
G75*
G02*
X158425000Y-104950000I-75000J0D01*
G01*
X158275000Y-104950000D01*
G75*
G02*
X158200000Y-104875000I0J75000D01*
G01*
G37*
G36*
G01*
X158700000Y-104875000D02*
X158700000Y-103475000D01*
G75*
G02*
X158775000Y-103400000I75000J0D01*
G01*
X158925000Y-103400000D01*
G75*
G02*
X159000000Y-103475000I0J-75000D01*
G01*
X159000000Y-104875000D01*
G75*
G02*
X158925000Y-104950000I-75000J0D01*
G01*
X158775000Y-104950000D01*
G75*
G02*
X158700000Y-104875000I0J75000D01*
G01*
G37*
G36*
G01*
X159200000Y-104875000D02*
X159200000Y-103475000D01*
G75*
G02*
X159275000Y-103400000I75000J0D01*
G01*
X159425000Y-103400000D01*
G75*
G02*
X159500000Y-103475000I0J-75000D01*
G01*
X159500000Y-104875000D01*
G75*
G02*
X159425000Y-104950000I-75000J0D01*
G01*
X159275000Y-104950000D01*
G75*
G02*
X159200000Y-104875000I0J75000D01*
G01*
G37*
G36*
G01*
X159700000Y-104875000D02*
X159700000Y-103475000D01*
G75*
G02*
X159775000Y-103400000I75000J0D01*
G01*
X159925000Y-103400000D01*
G75*
G02*
X160000000Y-103475000I0J-75000D01*
G01*
X160000000Y-104875000D01*
G75*
G02*
X159925000Y-104950000I-75000J0D01*
G01*
X159775000Y-104950000D01*
G75*
G02*
X159700000Y-104875000I0J75000D01*
G01*
G37*
G36*
G01*
X160200000Y-104875000D02*
X160200000Y-103475000D01*
G75*
G02*
X160275000Y-103400000I75000J0D01*
G01*
X160425000Y-103400000D01*
G75*
G02*
X160500000Y-103475000I0J-75000D01*
G01*
X160500000Y-104875000D01*
G75*
G02*
X160425000Y-104950000I-75000J0D01*
G01*
X160275000Y-104950000D01*
G75*
G02*
X160200000Y-104875000I0J75000D01*
G01*
G37*
G36*
G01*
X160700000Y-104875000D02*
X160700000Y-103475000D01*
G75*
G02*
X160775000Y-103400000I75000J0D01*
G01*
X160925000Y-103400000D01*
G75*
G02*
X161000000Y-103475000I0J-75000D01*
G01*
X161000000Y-104875000D01*
G75*
G02*
X160925000Y-104950000I-75000J0D01*
G01*
X160775000Y-104950000D01*
G75*
G02*
X160700000Y-104875000I0J75000D01*
G01*
G37*
G36*
G01*
X161200000Y-104875000D02*
X161200000Y-103475000D01*
G75*
G02*
X161275000Y-103400000I75000J0D01*
G01*
X161425000Y-103400000D01*
G75*
G02*
X161500000Y-103475000I0J-75000D01*
G01*
X161500000Y-104875000D01*
G75*
G02*
X161425000Y-104950000I-75000J0D01*
G01*
X161275000Y-104950000D01*
G75*
G02*
X161200000Y-104875000I0J75000D01*
G01*
G37*
G36*
G01*
X161700000Y-104875000D02*
X161700000Y-103475000D01*
G75*
G02*
X161775000Y-103400000I75000J0D01*
G01*
X161925000Y-103400000D01*
G75*
G02*
X162000000Y-103475000I0J-75000D01*
G01*
X162000000Y-104875000D01*
G75*
G02*
X161925000Y-104950000I-75000J0D01*
G01*
X161775000Y-104950000D01*
G75*
G02*
X161700000Y-104875000I0J75000D01*
G01*
G37*
G36*
G01*
X163000000Y-102325000D02*
X163000000Y-102175000D01*
G75*
G02*
X163075000Y-102100000I75000J0D01*
G01*
X164475000Y-102100000D01*
G75*
G02*
X164550000Y-102175000I0J-75000D01*
G01*
X164550000Y-102325000D01*
G75*
G02*
X164475000Y-102400000I-75000J0D01*
G01*
X163075000Y-102400000D01*
G75*
G02*
X163000000Y-102325000I0J75000D01*
G01*
G37*
G36*
G01*
X163000000Y-101825000D02*
X163000000Y-101675000D01*
G75*
G02*
X163075000Y-101600000I75000J0D01*
G01*
X164475000Y-101600000D01*
G75*
G02*
X164550000Y-101675000I0J-75000D01*
G01*
X164550000Y-101825000D01*
G75*
G02*
X164475000Y-101900000I-75000J0D01*
G01*
X163075000Y-101900000D01*
G75*
G02*
X163000000Y-101825000I0J75000D01*
G01*
G37*
G36*
G01*
X163000000Y-101325000D02*
X163000000Y-101175000D01*
G75*
G02*
X163075000Y-101100000I75000J0D01*
G01*
X164475000Y-101100000D01*
G75*
G02*
X164550000Y-101175000I0J-75000D01*
G01*
X164550000Y-101325000D01*
G75*
G02*
X164475000Y-101400000I-75000J0D01*
G01*
X163075000Y-101400000D01*
G75*
G02*
X163000000Y-101325000I0J75000D01*
G01*
G37*
G36*
G01*
X163000000Y-100825000D02*
X163000000Y-100675000D01*
G75*
G02*
X163075000Y-100600000I75000J0D01*
G01*
X164475000Y-100600000D01*
G75*
G02*
X164550000Y-100675000I0J-75000D01*
G01*
X164550000Y-100825000D01*
G75*
G02*
X164475000Y-100900000I-75000J0D01*
G01*
X163075000Y-100900000D01*
G75*
G02*
X163000000Y-100825000I0J75000D01*
G01*
G37*
G36*
G01*
X163000000Y-100325000D02*
X163000000Y-100175000D01*
G75*
G02*
X163075000Y-100100000I75000J0D01*
G01*
X164475000Y-100100000D01*
G75*
G02*
X164550000Y-100175000I0J-75000D01*
G01*
X164550000Y-100325000D01*
G75*
G02*
X164475000Y-100400000I-75000J0D01*
G01*
X163075000Y-100400000D01*
G75*
G02*
X163000000Y-100325000I0J75000D01*
G01*
G37*
G36*
G01*
X163000000Y-99825000D02*
X163000000Y-99675000D01*
G75*
G02*
X163075000Y-99600000I75000J0D01*
G01*
X164475000Y-99600000D01*
G75*
G02*
X164550000Y-99675000I0J-75000D01*
G01*
X164550000Y-99825000D01*
G75*
G02*
X164475000Y-99900000I-75000J0D01*
G01*
X163075000Y-99900000D01*
G75*
G02*
X163000000Y-99825000I0J75000D01*
G01*
G37*
G36*
G01*
X163000000Y-99325000D02*
X163000000Y-99175000D01*
G75*
G02*
X163075000Y-99100000I75000J0D01*
G01*
X164475000Y-99100000D01*
G75*
G02*
X164550000Y-99175000I0J-75000D01*
G01*
X164550000Y-99325000D01*
G75*
G02*
X164475000Y-99400000I-75000J0D01*
G01*
X163075000Y-99400000D01*
G75*
G02*
X163000000Y-99325000I0J75000D01*
G01*
G37*
G36*
G01*
X163000000Y-98825000D02*
X163000000Y-98675000D01*
G75*
G02*
X163075000Y-98600000I75000J0D01*
G01*
X164475000Y-98600000D01*
G75*
G02*
X164550000Y-98675000I0J-75000D01*
G01*
X164550000Y-98825000D01*
G75*
G02*
X164475000Y-98900000I-75000J0D01*
G01*
X163075000Y-98900000D01*
G75*
G02*
X163000000Y-98825000I0J75000D01*
G01*
G37*
G36*
G01*
X163000000Y-98325000D02*
X163000000Y-98175000D01*
G75*
G02*
X163075000Y-98100000I75000J0D01*
G01*
X164475000Y-98100000D01*
G75*
G02*
X164550000Y-98175000I0J-75000D01*
G01*
X164550000Y-98325000D01*
G75*
G02*
X164475000Y-98400000I-75000J0D01*
G01*
X163075000Y-98400000D01*
G75*
G02*
X163000000Y-98325000I0J75000D01*
G01*
G37*
G36*
G01*
X163000000Y-97825000D02*
X163000000Y-97675000D01*
G75*
G02*
X163075000Y-97600000I75000J0D01*
G01*
X164475000Y-97600000D01*
G75*
G02*
X164550000Y-97675000I0J-75000D01*
G01*
X164550000Y-97825000D01*
G75*
G02*
X164475000Y-97900000I-75000J0D01*
G01*
X163075000Y-97900000D01*
G75*
G02*
X163000000Y-97825000I0J75000D01*
G01*
G37*
G36*
G01*
X163000000Y-97325000D02*
X163000000Y-97175000D01*
G75*
G02*
X163075000Y-97100000I75000J0D01*
G01*
X164475000Y-97100000D01*
G75*
G02*
X164550000Y-97175000I0J-75000D01*
G01*
X164550000Y-97325000D01*
G75*
G02*
X164475000Y-97400000I-75000J0D01*
G01*
X163075000Y-97400000D01*
G75*
G02*
X163000000Y-97325000I0J75000D01*
G01*
G37*
G36*
G01*
X163000000Y-96825000D02*
X163000000Y-96675000D01*
G75*
G02*
X163075000Y-96600000I75000J0D01*
G01*
X164475000Y-96600000D01*
G75*
G02*
X164550000Y-96675000I0J-75000D01*
G01*
X164550000Y-96825000D01*
G75*
G02*
X164475000Y-96900000I-75000J0D01*
G01*
X163075000Y-96900000D01*
G75*
G02*
X163000000Y-96825000I0J75000D01*
G01*
G37*
G36*
G01*
X163000000Y-96325000D02*
X163000000Y-96175000D01*
G75*
G02*
X163075000Y-96100000I75000J0D01*
G01*
X164475000Y-96100000D01*
G75*
G02*
X164550000Y-96175000I0J-75000D01*
G01*
X164550000Y-96325000D01*
G75*
G02*
X164475000Y-96400000I-75000J0D01*
G01*
X163075000Y-96400000D01*
G75*
G02*
X163000000Y-96325000I0J75000D01*
G01*
G37*
G36*
G01*
X163000000Y-95825000D02*
X163000000Y-95675000D01*
G75*
G02*
X163075000Y-95600000I75000J0D01*
G01*
X164475000Y-95600000D01*
G75*
G02*
X164550000Y-95675000I0J-75000D01*
G01*
X164550000Y-95825000D01*
G75*
G02*
X164475000Y-95900000I-75000J0D01*
G01*
X163075000Y-95900000D01*
G75*
G02*
X163000000Y-95825000I0J75000D01*
G01*
G37*
G36*
G01*
X163000000Y-95325000D02*
X163000000Y-95175000D01*
G75*
G02*
X163075000Y-95100000I75000J0D01*
G01*
X164475000Y-95100000D01*
G75*
G02*
X164550000Y-95175000I0J-75000D01*
G01*
X164550000Y-95325000D01*
G75*
G02*
X164475000Y-95400000I-75000J0D01*
G01*
X163075000Y-95400000D01*
G75*
G02*
X163000000Y-95325000I0J75000D01*
G01*
G37*
G36*
G01*
X163000000Y-94825000D02*
X163000000Y-94675000D01*
G75*
G02*
X163075000Y-94600000I75000J0D01*
G01*
X164475000Y-94600000D01*
G75*
G02*
X164550000Y-94675000I0J-75000D01*
G01*
X164550000Y-94825000D01*
G75*
G02*
X164475000Y-94900000I-75000J0D01*
G01*
X163075000Y-94900000D01*
G75*
G02*
X163000000Y-94825000I0J75000D01*
G01*
G37*
G36*
G01*
X161700000Y-93525000D02*
X161700000Y-92125000D01*
G75*
G02*
X161775000Y-92050000I75000J0D01*
G01*
X161925000Y-92050000D01*
G75*
G02*
X162000000Y-92125000I0J-75000D01*
G01*
X162000000Y-93525000D01*
G75*
G02*
X161925000Y-93600000I-75000J0D01*
G01*
X161775000Y-93600000D01*
G75*
G02*
X161700000Y-93525000I0J75000D01*
G01*
G37*
G36*
G01*
X161200000Y-93525000D02*
X161200000Y-92125000D01*
G75*
G02*
X161275000Y-92050000I75000J0D01*
G01*
X161425000Y-92050000D01*
G75*
G02*
X161500000Y-92125000I0J-75000D01*
G01*
X161500000Y-93525000D01*
G75*
G02*
X161425000Y-93600000I-75000J0D01*
G01*
X161275000Y-93600000D01*
G75*
G02*
X161200000Y-93525000I0J75000D01*
G01*
G37*
G36*
G01*
X160700000Y-93525000D02*
X160700000Y-92125000D01*
G75*
G02*
X160775000Y-92050000I75000J0D01*
G01*
X160925000Y-92050000D01*
G75*
G02*
X161000000Y-92125000I0J-75000D01*
G01*
X161000000Y-93525000D01*
G75*
G02*
X160925000Y-93600000I-75000J0D01*
G01*
X160775000Y-93600000D01*
G75*
G02*
X160700000Y-93525000I0J75000D01*
G01*
G37*
G36*
G01*
X160200000Y-93525000D02*
X160200000Y-92125000D01*
G75*
G02*
X160275000Y-92050000I75000J0D01*
G01*
X160425000Y-92050000D01*
G75*
G02*
X160500000Y-92125000I0J-75000D01*
G01*
X160500000Y-93525000D01*
G75*
G02*
X160425000Y-93600000I-75000J0D01*
G01*
X160275000Y-93600000D01*
G75*
G02*
X160200000Y-93525000I0J75000D01*
G01*
G37*
G36*
G01*
X159700000Y-93525000D02*
X159700000Y-92125000D01*
G75*
G02*
X159775000Y-92050000I75000J0D01*
G01*
X159925000Y-92050000D01*
G75*
G02*
X160000000Y-92125000I0J-75000D01*
G01*
X160000000Y-93525000D01*
G75*
G02*
X159925000Y-93600000I-75000J0D01*
G01*
X159775000Y-93600000D01*
G75*
G02*
X159700000Y-93525000I0J75000D01*
G01*
G37*
G36*
G01*
X159200000Y-93525000D02*
X159200000Y-92125000D01*
G75*
G02*
X159275000Y-92050000I75000J0D01*
G01*
X159425000Y-92050000D01*
G75*
G02*
X159500000Y-92125000I0J-75000D01*
G01*
X159500000Y-93525000D01*
G75*
G02*
X159425000Y-93600000I-75000J0D01*
G01*
X159275000Y-93600000D01*
G75*
G02*
X159200000Y-93525000I0J75000D01*
G01*
G37*
G36*
G01*
X158700000Y-93525000D02*
X158700000Y-92125000D01*
G75*
G02*
X158775000Y-92050000I75000J0D01*
G01*
X158925000Y-92050000D01*
G75*
G02*
X159000000Y-92125000I0J-75000D01*
G01*
X159000000Y-93525000D01*
G75*
G02*
X158925000Y-93600000I-75000J0D01*
G01*
X158775000Y-93600000D01*
G75*
G02*
X158700000Y-93525000I0J75000D01*
G01*
G37*
G36*
G01*
X158200000Y-93525000D02*
X158200000Y-92125000D01*
G75*
G02*
X158275000Y-92050000I75000J0D01*
G01*
X158425000Y-92050000D01*
G75*
G02*
X158500000Y-92125000I0J-75000D01*
G01*
X158500000Y-93525000D01*
G75*
G02*
X158425000Y-93600000I-75000J0D01*
G01*
X158275000Y-93600000D01*
G75*
G02*
X158200000Y-93525000I0J75000D01*
G01*
G37*
G36*
G01*
X157700000Y-93525000D02*
X157700000Y-92125000D01*
G75*
G02*
X157775000Y-92050000I75000J0D01*
G01*
X157925000Y-92050000D01*
G75*
G02*
X158000000Y-92125000I0J-75000D01*
G01*
X158000000Y-93525000D01*
G75*
G02*
X157925000Y-93600000I-75000J0D01*
G01*
X157775000Y-93600000D01*
G75*
G02*
X157700000Y-93525000I0J75000D01*
G01*
G37*
G36*
G01*
X157200000Y-93525000D02*
X157200000Y-92125000D01*
G75*
G02*
X157275000Y-92050000I75000J0D01*
G01*
X157425000Y-92050000D01*
G75*
G02*
X157500000Y-92125000I0J-75000D01*
G01*
X157500000Y-93525000D01*
G75*
G02*
X157425000Y-93600000I-75000J0D01*
G01*
X157275000Y-93600000D01*
G75*
G02*
X157200000Y-93525000I0J75000D01*
G01*
G37*
G36*
G01*
X156700000Y-93525000D02*
X156700000Y-92125000D01*
G75*
G02*
X156775000Y-92050000I75000J0D01*
G01*
X156925000Y-92050000D01*
G75*
G02*
X157000000Y-92125000I0J-75000D01*
G01*
X157000000Y-93525000D01*
G75*
G02*
X156925000Y-93600000I-75000J0D01*
G01*
X156775000Y-93600000D01*
G75*
G02*
X156700000Y-93525000I0J75000D01*
G01*
G37*
G36*
G01*
X156200000Y-93525000D02*
X156200000Y-92125000D01*
G75*
G02*
X156275000Y-92050000I75000J0D01*
G01*
X156425000Y-92050000D01*
G75*
G02*
X156500000Y-92125000I0J-75000D01*
G01*
X156500000Y-93525000D01*
G75*
G02*
X156425000Y-93600000I-75000J0D01*
G01*
X156275000Y-93600000D01*
G75*
G02*
X156200000Y-93525000I0J75000D01*
G01*
G37*
G36*
G01*
X155700000Y-93525000D02*
X155700000Y-92125000D01*
G75*
G02*
X155775000Y-92050000I75000J0D01*
G01*
X155925000Y-92050000D01*
G75*
G02*
X156000000Y-92125000I0J-75000D01*
G01*
X156000000Y-93525000D01*
G75*
G02*
X155925000Y-93600000I-75000J0D01*
G01*
X155775000Y-93600000D01*
G75*
G02*
X155700000Y-93525000I0J75000D01*
G01*
G37*
G36*
G01*
X155200000Y-93525000D02*
X155200000Y-92125000D01*
G75*
G02*
X155275000Y-92050000I75000J0D01*
G01*
X155425000Y-92050000D01*
G75*
G02*
X155500000Y-92125000I0J-75000D01*
G01*
X155500000Y-93525000D01*
G75*
G02*
X155425000Y-93600000I-75000J0D01*
G01*
X155275000Y-93600000D01*
G75*
G02*
X155200000Y-93525000I0J75000D01*
G01*
G37*
G36*
G01*
X154700000Y-93525000D02*
X154700000Y-92125000D01*
G75*
G02*
X154775000Y-92050000I75000J0D01*
G01*
X154925000Y-92050000D01*
G75*
G02*
X155000000Y-92125000I0J-75000D01*
G01*
X155000000Y-93525000D01*
G75*
G02*
X154925000Y-93600000I-75000J0D01*
G01*
X154775000Y-93600000D01*
G75*
G02*
X154700000Y-93525000I0J75000D01*
G01*
G37*
G36*
G01*
X154200000Y-93525000D02*
X154200000Y-92125000D01*
G75*
G02*
X154275000Y-92050000I75000J0D01*
G01*
X154425000Y-92050000D01*
G75*
G02*
X154500000Y-92125000I0J-75000D01*
G01*
X154500000Y-93525000D01*
G75*
G02*
X154425000Y-93600000I-75000J0D01*
G01*
X154275000Y-93600000D01*
G75*
G02*
X154200000Y-93525000I0J75000D01*
G01*
G37*
%TD*%
%TO.C,D3*%
G36*
G01*
X144643750Y-115237500D02*
X145556250Y-115237500D01*
G75*
G02*
X145800000Y-115481250I0J-243750D01*
G01*
X145800000Y-115968750D01*
G75*
G02*
X145556250Y-116212500I-243750J0D01*
G01*
X144643750Y-116212500D01*
G75*
G02*
X144400000Y-115968750I0J243750D01*
G01*
X144400000Y-115481250D01*
G75*
G02*
X144643750Y-115237500I243750J0D01*
G01*
G37*
G36*
G01*
X144643750Y-117112500D02*
X145556250Y-117112500D01*
G75*
G02*
X145800000Y-117356250I0J-243750D01*
G01*
X145800000Y-117843750D01*
G75*
G02*
X145556250Y-118087500I-243750J0D01*
G01*
X144643750Y-118087500D01*
G75*
G02*
X144400000Y-117843750I0J243750D01*
G01*
X144400000Y-117356250D01*
G75*
G02*
X144643750Y-117112500I243750J0D01*
G01*
G37*
%TD*%
D12*
%TO.C,J9*%
X120685000Y-94930000D03*
X120685000Y-101330000D03*
X120685000Y-95730000D03*
X120685000Y-100530000D03*
D13*
X120685000Y-98380000D03*
X120685000Y-97880000D03*
X120685000Y-98880000D03*
X120685000Y-99380000D03*
X120685000Y-99880000D03*
X120685000Y-97380000D03*
X120685000Y-96880000D03*
X120685000Y-96380000D03*
%TD*%
%TO.C,C1*%
G36*
G01*
X141575000Y-96400000D02*
X140625000Y-96400000D01*
G75*
G02*
X140375000Y-96150000I0J250000D01*
G01*
X140375000Y-95650000D01*
G75*
G02*
X140625000Y-95400000I250000J0D01*
G01*
X141575000Y-95400000D01*
G75*
G02*
X141825000Y-95650000I0J-250000D01*
G01*
X141825000Y-96150000D01*
G75*
G02*
X141575000Y-96400000I-250000J0D01*
G01*
G37*
G36*
G01*
X141575000Y-94500000D02*
X140625000Y-94500000D01*
G75*
G02*
X140375000Y-94250000I0J250000D01*
G01*
X140375000Y-93750000D01*
G75*
G02*
X140625000Y-93500000I250000J0D01*
G01*
X141575000Y-93500000D01*
G75*
G02*
X141825000Y-93750000I0J-250000D01*
G01*
X141825000Y-94250000D01*
G75*
G02*
X141575000Y-94500000I-250000J0D01*
G01*
G37*
%TD*%
%TO.C,C2*%
G36*
G01*
X123825000Y-111900000D02*
X124775000Y-111900000D01*
G75*
G02*
X125025000Y-112150000I0J-250000D01*
G01*
X125025000Y-112650000D01*
G75*
G02*
X124775000Y-112900000I-250000J0D01*
G01*
X123825000Y-112900000D01*
G75*
G02*
X123575000Y-112650000I0J250000D01*
G01*
X123575000Y-112150000D01*
G75*
G02*
X123825000Y-111900000I250000J0D01*
G01*
G37*
G36*
G01*
X123825000Y-110000000D02*
X124775000Y-110000000D01*
G75*
G02*
X125025000Y-110250000I0J-250000D01*
G01*
X125025000Y-110750000D01*
G75*
G02*
X124775000Y-111000000I-250000J0D01*
G01*
X123825000Y-111000000D01*
G75*
G02*
X123575000Y-110750000I0J250000D01*
G01*
X123575000Y-110250000D01*
G75*
G02*
X123825000Y-110000000I250000J0D01*
G01*
G37*
%TD*%
%TO.C,C3*%
G36*
G01*
X149925000Y-113900000D02*
X150875000Y-113900000D01*
G75*
G02*
X151125000Y-114150000I0J-250000D01*
G01*
X151125000Y-114650000D01*
G75*
G02*
X150875000Y-114900000I-250000J0D01*
G01*
X149925000Y-114900000D01*
G75*
G02*
X149675000Y-114650000I0J250000D01*
G01*
X149675000Y-114150000D01*
G75*
G02*
X149925000Y-113900000I250000J0D01*
G01*
G37*
G36*
G01*
X149925000Y-112000000D02*
X150875000Y-112000000D01*
G75*
G02*
X151125000Y-112250000I0J-250000D01*
G01*
X151125000Y-112750000D01*
G75*
G02*
X150875000Y-113000000I-250000J0D01*
G01*
X149925000Y-113000000D01*
G75*
G02*
X149675000Y-112750000I0J250000D01*
G01*
X149675000Y-112250000D01*
G75*
G02*
X149925000Y-112000000I250000J0D01*
G01*
G37*
%TD*%
%TO.C,C4*%
G36*
G01*
X140625000Y-105600000D02*
X141575000Y-105600000D01*
G75*
G02*
X141825000Y-105850000I0J-250000D01*
G01*
X141825000Y-106350000D01*
G75*
G02*
X141575000Y-106600000I-250000J0D01*
G01*
X140625000Y-106600000D01*
G75*
G02*
X140375000Y-106350000I0J250000D01*
G01*
X140375000Y-105850000D01*
G75*
G02*
X140625000Y-105600000I250000J0D01*
G01*
G37*
G36*
G01*
X140625000Y-103700000D02*
X141575000Y-103700000D01*
G75*
G02*
X141825000Y-103950000I0J-250000D01*
G01*
X141825000Y-104450000D01*
G75*
G02*
X141575000Y-104700000I-250000J0D01*
G01*
X140625000Y-104700000D01*
G75*
G02*
X140375000Y-104450000I0J250000D01*
G01*
X140375000Y-103950000D01*
G75*
G02*
X140625000Y-103700000I250000J0D01*
G01*
G37*
%TD*%
%TO.C,C5*%
G36*
G01*
X136475000Y-112900000D02*
X135525000Y-112900000D01*
G75*
G02*
X135275000Y-112650000I0J250000D01*
G01*
X135275000Y-112150000D01*
G75*
G02*
X135525000Y-111900000I250000J0D01*
G01*
X136475000Y-111900000D01*
G75*
G02*
X136725000Y-112150000I0J-250000D01*
G01*
X136725000Y-112650000D01*
G75*
G02*
X136475000Y-112900000I-250000J0D01*
G01*
G37*
G36*
G01*
X136475000Y-111000000D02*
X135525000Y-111000000D01*
G75*
G02*
X135275000Y-110750000I0J250000D01*
G01*
X135275000Y-110250000D01*
G75*
G02*
X135525000Y-110000000I250000J0D01*
G01*
X136475000Y-110000000D01*
G75*
G02*
X136725000Y-110250000I0J-250000D01*
G01*
X136725000Y-110750000D01*
G75*
G02*
X136475000Y-111000000I-250000J0D01*
G01*
G37*
%TD*%
%TO.C,C6*%
G36*
G01*
X144375000Y-87800000D02*
X143425000Y-87800000D01*
G75*
G02*
X143175000Y-87550000I0J250000D01*
G01*
X143175000Y-87050000D01*
G75*
G02*
X143425000Y-86800000I250000J0D01*
G01*
X144375000Y-86800000D01*
G75*
G02*
X144625000Y-87050000I0J-250000D01*
G01*
X144625000Y-87550000D01*
G75*
G02*
X144375000Y-87800000I-250000J0D01*
G01*
G37*
G36*
G01*
X144375000Y-89700000D02*
X143425000Y-89700000D01*
G75*
G02*
X143175000Y-89450000I0J250000D01*
G01*
X143175000Y-88950000D01*
G75*
G02*
X143425000Y-88700000I250000J0D01*
G01*
X144375000Y-88700000D01*
G75*
G02*
X144625000Y-88950000I0J-250000D01*
G01*
X144625000Y-89450000D01*
G75*
G02*
X144375000Y-89700000I-250000J0D01*
G01*
G37*
%TD*%
%TO.C,C7*%
G36*
G01*
X146575000Y-89700000D02*
X145625000Y-89700000D01*
G75*
G02*
X145375000Y-89450000I0J250000D01*
G01*
X145375000Y-88950000D01*
G75*
G02*
X145625000Y-88700000I250000J0D01*
G01*
X146575000Y-88700000D01*
G75*
G02*
X146825000Y-88950000I0J-250000D01*
G01*
X146825000Y-89450000D01*
G75*
G02*
X146575000Y-89700000I-250000J0D01*
G01*
G37*
G36*
G01*
X146575000Y-87800000D02*
X145625000Y-87800000D01*
G75*
G02*
X145375000Y-87550000I0J250000D01*
G01*
X145375000Y-87050000D01*
G75*
G02*
X145625000Y-86800000I250000J0D01*
G01*
X146575000Y-86800000D01*
G75*
G02*
X146825000Y-87050000I0J-250000D01*
G01*
X146825000Y-87550000D01*
G75*
G02*
X146575000Y-87800000I-250000J0D01*
G01*
G37*
%TD*%
%TO.C,C8*%
G36*
G01*
X148775000Y-87800000D02*
X147825000Y-87800000D01*
G75*
G02*
X147575000Y-87550000I0J250000D01*
G01*
X147575000Y-87050000D01*
G75*
G02*
X147825000Y-86800000I250000J0D01*
G01*
X148775000Y-86800000D01*
G75*
G02*
X149025000Y-87050000I0J-250000D01*
G01*
X149025000Y-87550000D01*
G75*
G02*
X148775000Y-87800000I-250000J0D01*
G01*
G37*
G36*
G01*
X148775000Y-89700000D02*
X147825000Y-89700000D01*
G75*
G02*
X147575000Y-89450000I0J250000D01*
G01*
X147575000Y-88950000D01*
G75*
G02*
X147825000Y-88700000I250000J0D01*
G01*
X148775000Y-88700000D01*
G75*
G02*
X149025000Y-88950000I0J-250000D01*
G01*
X149025000Y-89450000D01*
G75*
G02*
X148775000Y-89700000I-250000J0D01*
G01*
G37*
%TD*%
%TO.C,C9*%
G36*
G01*
X150975000Y-89700000D02*
X150025000Y-89700000D01*
G75*
G02*
X149775000Y-89450000I0J250000D01*
G01*
X149775000Y-88950000D01*
G75*
G02*
X150025000Y-88700000I250000J0D01*
G01*
X150975000Y-88700000D01*
G75*
G02*
X151225000Y-88950000I0J-250000D01*
G01*
X151225000Y-89450000D01*
G75*
G02*
X150975000Y-89700000I-250000J0D01*
G01*
G37*
G36*
G01*
X150975000Y-87800000D02*
X150025000Y-87800000D01*
G75*
G02*
X149775000Y-87550000I0J250000D01*
G01*
X149775000Y-87050000D01*
G75*
G02*
X150025000Y-86800000I250000J0D01*
G01*
X150975000Y-86800000D01*
G75*
G02*
X151225000Y-87050000I0J-250000D01*
G01*
X151225000Y-87550000D01*
G75*
G02*
X150975000Y-87800000I-250000J0D01*
G01*
G37*
%TD*%
%TO.C,C10*%
G36*
G01*
X190000000Y-115725000D02*
X190000000Y-116675000D01*
G75*
G02*
X189750000Y-116925000I-250000J0D01*
G01*
X189250000Y-116925000D01*
G75*
G02*
X189000000Y-116675000I0J250000D01*
G01*
X189000000Y-115725000D01*
G75*
G02*
X189250000Y-115475000I250000J0D01*
G01*
X189750000Y-115475000D01*
G75*
G02*
X190000000Y-115725000I0J-250000D01*
G01*
G37*
G36*
G01*
X188100000Y-115725000D02*
X188100000Y-116675000D01*
G75*
G02*
X187850000Y-116925000I-250000J0D01*
G01*
X187350000Y-116925000D01*
G75*
G02*
X187100000Y-116675000I0J250000D01*
G01*
X187100000Y-115725000D01*
G75*
G02*
X187350000Y-115475000I250000J0D01*
G01*
X187850000Y-115475000D01*
G75*
G02*
X188100000Y-115725000I0J-250000D01*
G01*
G37*
%TD*%
%TO.C,C11*%
G36*
G01*
X126025000Y-110000000D02*
X126975000Y-110000000D01*
G75*
G02*
X127225000Y-110250000I0J-250000D01*
G01*
X127225000Y-110750000D01*
G75*
G02*
X126975000Y-111000000I-250000J0D01*
G01*
X126025000Y-111000000D01*
G75*
G02*
X125775000Y-110750000I0J250000D01*
G01*
X125775000Y-110250000D01*
G75*
G02*
X126025000Y-110000000I250000J0D01*
G01*
G37*
G36*
G01*
X126025000Y-111900000D02*
X126975000Y-111900000D01*
G75*
G02*
X127225000Y-112150000I0J-250000D01*
G01*
X127225000Y-112650000D01*
G75*
G02*
X126975000Y-112900000I-250000J0D01*
G01*
X126025000Y-112900000D01*
G75*
G02*
X125775000Y-112650000I0J250000D01*
G01*
X125775000Y-112150000D01*
G75*
G02*
X126025000Y-111900000I250000J0D01*
G01*
G37*
%TD*%
%TO.C,C12*%
G36*
G01*
X138675000Y-111000000D02*
X137725000Y-111000000D01*
G75*
G02*
X137475000Y-110750000I0J250000D01*
G01*
X137475000Y-110250000D01*
G75*
G02*
X137725000Y-110000000I250000J0D01*
G01*
X138675000Y-110000000D01*
G75*
G02*
X138925000Y-110250000I0J-250000D01*
G01*
X138925000Y-110750000D01*
G75*
G02*
X138675000Y-111000000I-250000J0D01*
G01*
G37*
G36*
G01*
X138675000Y-112900000D02*
X137725000Y-112900000D01*
G75*
G02*
X137475000Y-112650000I0J250000D01*
G01*
X137475000Y-112150000D01*
G75*
G02*
X137725000Y-111900000I250000J0D01*
G01*
X138675000Y-111900000D01*
G75*
G02*
X138925000Y-112150000I0J-250000D01*
G01*
X138925000Y-112650000D01*
G75*
G02*
X138675000Y-112900000I-250000J0D01*
G01*
G37*
%TD*%
%TO.C,C13*%
G36*
G01*
X177075000Y-111700000D02*
X176125000Y-111700000D01*
G75*
G02*
X175875000Y-111450000I0J250000D01*
G01*
X175875000Y-110950000D01*
G75*
G02*
X176125000Y-110700000I250000J0D01*
G01*
X177075000Y-110700000D01*
G75*
G02*
X177325000Y-110950000I0J-250000D01*
G01*
X177325000Y-111450000D01*
G75*
G02*
X177075000Y-111700000I-250000J0D01*
G01*
G37*
G36*
G01*
X177075000Y-113600000D02*
X176125000Y-113600000D01*
G75*
G02*
X175875000Y-113350000I0J250000D01*
G01*
X175875000Y-112850000D01*
G75*
G02*
X176125000Y-112600000I250000J0D01*
G01*
X177075000Y-112600000D01*
G75*
G02*
X177325000Y-112850000I0J-250000D01*
G01*
X177325000Y-113350000D01*
G75*
G02*
X177075000Y-113600000I-250000J0D01*
G01*
G37*
%TD*%
%TO.C,D1*%
G36*
G01*
X125112500Y-117043750D02*
X125112500Y-117956250D01*
G75*
G02*
X124868750Y-118200000I-243750J0D01*
G01*
X124381250Y-118200000D01*
G75*
G02*
X124137500Y-117956250I0J243750D01*
G01*
X124137500Y-117043750D01*
G75*
G02*
X124381250Y-116800000I243750J0D01*
G01*
X124868750Y-116800000D01*
G75*
G02*
X125112500Y-117043750I0J-243750D01*
G01*
G37*
G36*
G01*
X126987500Y-117043750D02*
X126987500Y-117956250D01*
G75*
G02*
X126743750Y-118200000I-243750J0D01*
G01*
X126256250Y-118200000D01*
G75*
G02*
X126012500Y-117956250I0J243750D01*
G01*
X126012500Y-117043750D01*
G75*
G02*
X126256250Y-116800000I243750J0D01*
G01*
X126743750Y-116800000D01*
G75*
G02*
X126987500Y-117043750I0J-243750D01*
G01*
G37*
%TD*%
%TO.C,D2*%
G36*
G01*
X142543750Y-117112500D02*
X143456250Y-117112500D01*
G75*
G02*
X143700000Y-117356250I0J-243750D01*
G01*
X143700000Y-117843750D01*
G75*
G02*
X143456250Y-118087500I-243750J0D01*
G01*
X142543750Y-118087500D01*
G75*
G02*
X142300000Y-117843750I0J243750D01*
G01*
X142300000Y-117356250D01*
G75*
G02*
X142543750Y-117112500I243750J0D01*
G01*
G37*
G36*
G01*
X142543750Y-115237500D02*
X143456250Y-115237500D01*
G75*
G02*
X143700000Y-115481250I0J-243750D01*
G01*
X143700000Y-115968750D01*
G75*
G02*
X143456250Y-116212500I-243750J0D01*
G01*
X142543750Y-116212500D01*
G75*
G02*
X142300000Y-115968750I0J243750D01*
G01*
X142300000Y-115481250D01*
G75*
G02*
X142543750Y-115237500I243750J0D01*
G01*
G37*
%TD*%
D14*
%TO.C,Q1*%
X174600000Y-89850000D03*
X172600000Y-90800000D03*
X172600000Y-88900000D03*
%TD*%
%TO.C,R1*%
G36*
G01*
X140349998Y-81787500D02*
X141250002Y-81787500D01*
G75*
G02*
X141500000Y-82037498I0J-249998D01*
G01*
X141500000Y-82562502D01*
G75*
G02*
X141250002Y-82812500I-249998J0D01*
G01*
X140349998Y-82812500D01*
G75*
G02*
X140100000Y-82562502I0J249998D01*
G01*
X140100000Y-82037498D01*
G75*
G02*
X140349998Y-81787500I249998J0D01*
G01*
G37*
G36*
G01*
X140349998Y-79962500D02*
X141250002Y-79962500D01*
G75*
G02*
X141500000Y-80212498I0J-249998D01*
G01*
X141500000Y-80737502D01*
G75*
G02*
X141250002Y-80987500I-249998J0D01*
G01*
X140349998Y-80987500D01*
G75*
G02*
X140100000Y-80737502I0J249998D01*
G01*
X140100000Y-80212498D01*
G75*
G02*
X140349998Y-79962500I249998J0D01*
G01*
G37*
%TD*%
%TO.C,R2*%
G36*
G01*
X142349998Y-79987500D02*
X143250002Y-79987500D01*
G75*
G02*
X143500000Y-80237498I0J-249998D01*
G01*
X143500000Y-80762502D01*
G75*
G02*
X143250002Y-81012500I-249998J0D01*
G01*
X142349998Y-81012500D01*
G75*
G02*
X142100000Y-80762502I0J249998D01*
G01*
X142100000Y-80237498D01*
G75*
G02*
X142349998Y-79987500I249998J0D01*
G01*
G37*
G36*
G01*
X142349998Y-81812500D02*
X143250002Y-81812500D01*
G75*
G02*
X143500000Y-82062498I0J-249998D01*
G01*
X143500000Y-82587502D01*
G75*
G02*
X143250002Y-82837500I-249998J0D01*
G01*
X142349998Y-82837500D01*
G75*
G02*
X142100000Y-82587502I0J249998D01*
G01*
X142100000Y-82062498D01*
G75*
G02*
X142349998Y-81812500I249998J0D01*
G01*
G37*
%TD*%
%TO.C,R3*%
G36*
G01*
X167049998Y-82187500D02*
X167950002Y-82187500D01*
G75*
G02*
X168200000Y-82437498I0J-249998D01*
G01*
X168200000Y-82962502D01*
G75*
G02*
X167950002Y-83212500I-249998J0D01*
G01*
X167049998Y-83212500D01*
G75*
G02*
X166800000Y-82962502I0J249998D01*
G01*
X166800000Y-82437498D01*
G75*
G02*
X167049998Y-82187500I249998J0D01*
G01*
G37*
G36*
G01*
X167049998Y-80362500D02*
X167950002Y-80362500D01*
G75*
G02*
X168200000Y-80612498I0J-249998D01*
G01*
X168200000Y-81137502D01*
G75*
G02*
X167950002Y-81387500I-249998J0D01*
G01*
X167049998Y-81387500D01*
G75*
G02*
X166800000Y-81137502I0J249998D01*
G01*
X166800000Y-80612498D01*
G75*
G02*
X167049998Y-80362500I249998J0D01*
G01*
G37*
%TD*%
%TO.C,R4*%
G36*
G01*
X169049998Y-80362500D02*
X169950002Y-80362500D01*
G75*
G02*
X170200000Y-80612498I0J-249998D01*
G01*
X170200000Y-81137502D01*
G75*
G02*
X169950002Y-81387500I-249998J0D01*
G01*
X169049998Y-81387500D01*
G75*
G02*
X168800000Y-81137502I0J249998D01*
G01*
X168800000Y-80612498D01*
G75*
G02*
X169049998Y-80362500I249998J0D01*
G01*
G37*
G36*
G01*
X169049998Y-82187500D02*
X169950002Y-82187500D01*
G75*
G02*
X170200000Y-82437498I0J-249998D01*
G01*
X170200000Y-82962502D01*
G75*
G02*
X169950002Y-83212500I-249998J0D01*
G01*
X169049998Y-83212500D01*
G75*
G02*
X168800000Y-82962502I0J249998D01*
G01*
X168800000Y-82437498D01*
G75*
G02*
X169049998Y-82187500I249998J0D01*
G01*
G37*
%TD*%
%TO.C,R5*%
G36*
G01*
X141550002Y-99712500D02*
X140649998Y-99712500D01*
G75*
G02*
X140400000Y-99462502I0J249998D01*
G01*
X140400000Y-98937498D01*
G75*
G02*
X140649998Y-98687500I249998J0D01*
G01*
X141550002Y-98687500D01*
G75*
G02*
X141800000Y-98937498I0J-249998D01*
G01*
X141800000Y-99462502D01*
G75*
G02*
X141550002Y-99712500I-249998J0D01*
G01*
G37*
G36*
G01*
X141550002Y-101537500D02*
X140649998Y-101537500D01*
G75*
G02*
X140400000Y-101287502I0J249998D01*
G01*
X140400000Y-100762498D01*
G75*
G02*
X140649998Y-100512500I249998J0D01*
G01*
X141550002Y-100512500D01*
G75*
G02*
X141800000Y-100762498I0J-249998D01*
G01*
X141800000Y-101287502D01*
G75*
G02*
X141550002Y-101537500I-249998J0D01*
G01*
G37*
%TD*%
%TO.C,R6*%
G36*
G01*
X163250002Y-113012500D02*
X162349998Y-113012500D01*
G75*
G02*
X162100000Y-112762502I0J249998D01*
G01*
X162100000Y-112237498D01*
G75*
G02*
X162349998Y-111987500I249998J0D01*
G01*
X163250002Y-111987500D01*
G75*
G02*
X163500000Y-112237498I0J-249998D01*
G01*
X163500000Y-112762502D01*
G75*
G02*
X163250002Y-113012500I-249998J0D01*
G01*
G37*
G36*
G01*
X163250002Y-114837500D02*
X162349998Y-114837500D01*
G75*
G02*
X162100000Y-114587502I0J249998D01*
G01*
X162100000Y-114062498D01*
G75*
G02*
X162349998Y-113812500I249998J0D01*
G01*
X163250002Y-113812500D01*
G75*
G02*
X163500000Y-114062498I0J-249998D01*
G01*
X163500000Y-114587502D01*
G75*
G02*
X163250002Y-114837500I-249998J0D01*
G01*
G37*
%TD*%
%TO.C,R7*%
G36*
G01*
X141350002Y-116287500D02*
X140449998Y-116287500D01*
G75*
G02*
X140200000Y-116037502I0J249998D01*
G01*
X140200000Y-115512498D01*
G75*
G02*
X140449998Y-115262500I249998J0D01*
G01*
X141350002Y-115262500D01*
G75*
G02*
X141600000Y-115512498I0J-249998D01*
G01*
X141600000Y-116037502D01*
G75*
G02*
X141350002Y-116287500I-249998J0D01*
G01*
G37*
G36*
G01*
X141350002Y-118112500D02*
X140449998Y-118112500D01*
G75*
G02*
X140200000Y-117862502I0J249998D01*
G01*
X140200000Y-117337498D01*
G75*
G02*
X140449998Y-117087500I249998J0D01*
G01*
X141350002Y-117087500D01*
G75*
G02*
X141600000Y-117337498I0J-249998D01*
G01*
X141600000Y-117862502D01*
G75*
G02*
X141350002Y-118112500I-249998J0D01*
G01*
G37*
%TD*%
%TO.C,R8*%
G36*
G01*
X147650002Y-118025000D02*
X146749998Y-118025000D01*
G75*
G02*
X146500000Y-117775002I0J249998D01*
G01*
X146500000Y-117249998D01*
G75*
G02*
X146749998Y-117000000I249998J0D01*
G01*
X147650002Y-117000000D01*
G75*
G02*
X147900000Y-117249998I0J-249998D01*
G01*
X147900000Y-117775002D01*
G75*
G02*
X147650002Y-118025000I-249998J0D01*
G01*
G37*
G36*
G01*
X147650002Y-116200000D02*
X146749998Y-116200000D01*
G75*
G02*
X146500000Y-115950002I0J249998D01*
G01*
X146500000Y-115424998D01*
G75*
G02*
X146749998Y-115175000I249998J0D01*
G01*
X147650002Y-115175000D01*
G75*
G02*
X147900000Y-115424998I0J-249998D01*
G01*
X147900000Y-115950002D01*
G75*
G02*
X147650002Y-116200000I-249998J0D01*
G01*
G37*
%TD*%
%TO.C,R9*%
G36*
G01*
X127012500Y-114249998D02*
X127012500Y-115150002D01*
G75*
G02*
X126762502Y-115400000I-249998J0D01*
G01*
X126237498Y-115400000D01*
G75*
G02*
X125987500Y-115150002I0J249998D01*
G01*
X125987500Y-114249998D01*
G75*
G02*
X126237498Y-114000000I249998J0D01*
G01*
X126762502Y-114000000D01*
G75*
G02*
X127012500Y-114249998I0J-249998D01*
G01*
G37*
G36*
G01*
X125187500Y-114249998D02*
X125187500Y-115150002D01*
G75*
G02*
X124937502Y-115400000I-249998J0D01*
G01*
X124412498Y-115400000D01*
G75*
G02*
X124162500Y-115150002I0J249998D01*
G01*
X124162500Y-114249998D01*
G75*
G02*
X124412498Y-114000000I249998J0D01*
G01*
X124937502Y-114000000D01*
G75*
G02*
X125187500Y-114249998I0J-249998D01*
G01*
G37*
%TD*%
%TO.C,R10*%
G36*
G01*
X156912500Y-88349998D02*
X156912500Y-89250002D01*
G75*
G02*
X156662502Y-89500000I-249998J0D01*
G01*
X156137498Y-89500000D01*
G75*
G02*
X155887500Y-89250002I0J249998D01*
G01*
X155887500Y-88349998D01*
G75*
G02*
X156137498Y-88100000I249998J0D01*
G01*
X156662502Y-88100000D01*
G75*
G02*
X156912500Y-88349998I0J-249998D01*
G01*
G37*
G36*
G01*
X155087500Y-88349998D02*
X155087500Y-89250002D01*
G75*
G02*
X154837502Y-89500000I-249998J0D01*
G01*
X154312498Y-89500000D01*
G75*
G02*
X154062500Y-89250002I0J249998D01*
G01*
X154062500Y-88349998D01*
G75*
G02*
X154312498Y-88100000I249998J0D01*
G01*
X154837502Y-88100000D01*
G75*
G02*
X155087500Y-88349998I0J-249998D01*
G01*
G37*
%TD*%
%TO.C,R13*%
G36*
G01*
X125849998Y-92887500D02*
X126750002Y-92887500D01*
G75*
G02*
X127000000Y-93137498I0J-249998D01*
G01*
X127000000Y-93662502D01*
G75*
G02*
X126750002Y-93912500I-249998J0D01*
G01*
X125849998Y-93912500D01*
G75*
G02*
X125600000Y-93662502I0J249998D01*
G01*
X125600000Y-93137498D01*
G75*
G02*
X125849998Y-92887500I249998J0D01*
G01*
G37*
G36*
G01*
X125849998Y-94712500D02*
X126750002Y-94712500D01*
G75*
G02*
X127000000Y-94962498I0J-249998D01*
G01*
X127000000Y-95487502D01*
G75*
G02*
X126750002Y-95737500I-249998J0D01*
G01*
X125849998Y-95737500D01*
G75*
G02*
X125600000Y-95487502I0J249998D01*
G01*
X125600000Y-94962498D01*
G75*
G02*
X125849998Y-94712500I249998J0D01*
G01*
G37*
%TD*%
%TO.C,R14*%
G36*
G01*
X174750002Y-94912500D02*
X173849998Y-94912500D01*
G75*
G02*
X173600000Y-94662502I0J249998D01*
G01*
X173600000Y-94137498D01*
G75*
G02*
X173849998Y-93887500I249998J0D01*
G01*
X174750002Y-93887500D01*
G75*
G02*
X175000000Y-94137498I0J-249998D01*
G01*
X175000000Y-94662502D01*
G75*
G02*
X174750002Y-94912500I-249998J0D01*
G01*
G37*
G36*
G01*
X174750002Y-93087500D02*
X173849998Y-93087500D01*
G75*
G02*
X173600000Y-92837502I0J249998D01*
G01*
X173600000Y-92312498D01*
G75*
G02*
X173849998Y-92062500I249998J0D01*
G01*
X174750002Y-92062500D01*
G75*
G02*
X175000000Y-92312498I0J-249998D01*
G01*
X175000000Y-92837502D01*
G75*
G02*
X174750002Y-93087500I-249998J0D01*
G01*
G37*
%TD*%
%TO.C,R15*%
G36*
G01*
X189149998Y-113587500D02*
X190050002Y-113587500D01*
G75*
G02*
X190300000Y-113837498I0J-249998D01*
G01*
X190300000Y-114362502D01*
G75*
G02*
X190050002Y-114612500I-249998J0D01*
G01*
X189149998Y-114612500D01*
G75*
G02*
X188900000Y-114362502I0J249998D01*
G01*
X188900000Y-113837498D01*
G75*
G02*
X189149998Y-113587500I249998J0D01*
G01*
G37*
G36*
G01*
X189149998Y-111762500D02*
X190050002Y-111762500D01*
G75*
G02*
X190300000Y-112012498I0J-249998D01*
G01*
X190300000Y-112537502D01*
G75*
G02*
X190050002Y-112787500I-249998J0D01*
G01*
X189149998Y-112787500D01*
G75*
G02*
X188900000Y-112537502I0J249998D01*
G01*
X188900000Y-112012498D01*
G75*
G02*
X189149998Y-111762500I249998J0D01*
G01*
G37*
%TD*%
%TO.C,R16*%
G36*
G01*
X180450002Y-117937500D02*
X179549998Y-117937500D01*
G75*
G02*
X179300000Y-117687502I0J249998D01*
G01*
X179300000Y-117162498D01*
G75*
G02*
X179549998Y-116912500I249998J0D01*
G01*
X180450002Y-116912500D01*
G75*
G02*
X180700000Y-117162498I0J-249998D01*
G01*
X180700000Y-117687502D01*
G75*
G02*
X180450002Y-117937500I-249998J0D01*
G01*
G37*
G36*
G01*
X180450002Y-116112500D02*
X179549998Y-116112500D01*
G75*
G02*
X179300000Y-115862502I0J249998D01*
G01*
X179300000Y-115337498D01*
G75*
G02*
X179549998Y-115087500I249998J0D01*
G01*
X180450002Y-115087500D01*
G75*
G02*
X180700000Y-115337498I0J-249998D01*
G01*
X180700000Y-115862502D01*
G75*
G02*
X180450002Y-116112500I-249998J0D01*
G01*
G37*
%TD*%
%TO.C,R17*%
G36*
G01*
X178350002Y-116112500D02*
X177449998Y-116112500D01*
G75*
G02*
X177200000Y-115862502I0J249998D01*
G01*
X177200000Y-115337498D01*
G75*
G02*
X177449998Y-115087500I249998J0D01*
G01*
X178350002Y-115087500D01*
G75*
G02*
X178600000Y-115337498I0J-249998D01*
G01*
X178600000Y-115862502D01*
G75*
G02*
X178350002Y-116112500I-249998J0D01*
G01*
G37*
G36*
G01*
X178350002Y-117937500D02*
X177449998Y-117937500D01*
G75*
G02*
X177200000Y-117687502I0J249998D01*
G01*
X177200000Y-117162498D01*
G75*
G02*
X177449998Y-116912500I249998J0D01*
G01*
X178350002Y-116912500D01*
G75*
G02*
X178600000Y-117162498I0J-249998D01*
G01*
X178600000Y-117687502D01*
G75*
G02*
X178350002Y-117937500I-249998J0D01*
G01*
G37*
%TD*%
%TO.C,R18*%
G36*
G01*
X178062500Y-113450002D02*
X178062500Y-112549998D01*
G75*
G02*
X178312498Y-112300000I249998J0D01*
G01*
X178837502Y-112300000D01*
G75*
G02*
X179087500Y-112549998I0J-249998D01*
G01*
X179087500Y-113450002D01*
G75*
G02*
X178837502Y-113700000I-249998J0D01*
G01*
X178312498Y-113700000D01*
G75*
G02*
X178062500Y-113450002I0J249998D01*
G01*
G37*
G36*
G01*
X179887500Y-113450002D02*
X179887500Y-112549998D01*
G75*
G02*
X180137498Y-112300000I249998J0D01*
G01*
X180662502Y-112300000D01*
G75*
G02*
X180912500Y-112549998I0J-249998D01*
G01*
X180912500Y-113450002D01*
G75*
G02*
X180662502Y-113700000I-249998J0D01*
G01*
X180137498Y-113700000D01*
G75*
G02*
X179887500Y-113450002I0J249998D01*
G01*
G37*
%TD*%
%TO.C,R19*%
G36*
G01*
X179887500Y-111350002D02*
X179887500Y-110449998D01*
G75*
G02*
X180137498Y-110200000I249998J0D01*
G01*
X180662502Y-110200000D01*
G75*
G02*
X180912500Y-110449998I0J-249998D01*
G01*
X180912500Y-111350002D01*
G75*
G02*
X180662502Y-111600000I-249998J0D01*
G01*
X180137498Y-111600000D01*
G75*
G02*
X179887500Y-111350002I0J249998D01*
G01*
G37*
G36*
G01*
X178062500Y-111350002D02*
X178062500Y-110449998D01*
G75*
G02*
X178312498Y-110200000I249998J0D01*
G01*
X178837502Y-110200000D01*
G75*
G02*
X179087500Y-110449998I0J-249998D01*
G01*
X179087500Y-111350002D01*
G75*
G02*
X178837502Y-111600000I-249998J0D01*
G01*
X178312498Y-111600000D01*
G75*
G02*
X178062500Y-111350002I0J249998D01*
G01*
G37*
%TD*%
%TO.C,R20*%
G36*
G01*
X124650002Y-95812500D02*
X123749998Y-95812500D01*
G75*
G02*
X123500000Y-95562502I0J249998D01*
G01*
X123500000Y-95037498D01*
G75*
G02*
X123749998Y-94787500I249998J0D01*
G01*
X124650002Y-94787500D01*
G75*
G02*
X124900000Y-95037498I0J-249998D01*
G01*
X124900000Y-95562502D01*
G75*
G02*
X124650002Y-95812500I-249998J0D01*
G01*
G37*
G36*
G01*
X124650002Y-93987500D02*
X123749998Y-93987500D01*
G75*
G02*
X123500000Y-93737502I0J249998D01*
G01*
X123500000Y-93212498D01*
G75*
G02*
X123749998Y-92962500I249998J0D01*
G01*
X124650002Y-92962500D01*
G75*
G02*
X124900000Y-93212498I0J-249998D01*
G01*
X124900000Y-93737502D01*
G75*
G02*
X124650002Y-93987500I-249998J0D01*
G01*
G37*
%TD*%
%TO.C,R21*%
G36*
G01*
X124650002Y-102087500D02*
X123749998Y-102087500D01*
G75*
G02*
X123500000Y-101837502I0J249998D01*
G01*
X123500000Y-101312498D01*
G75*
G02*
X123749998Y-101062500I249998J0D01*
G01*
X124650002Y-101062500D01*
G75*
G02*
X124900000Y-101312498I0J-249998D01*
G01*
X124900000Y-101837502D01*
G75*
G02*
X124650002Y-102087500I-249998J0D01*
G01*
G37*
G36*
G01*
X124650002Y-103912500D02*
X123749998Y-103912500D01*
G75*
G02*
X123500000Y-103662502I0J249998D01*
G01*
X123500000Y-103137498D01*
G75*
G02*
X123749998Y-102887500I249998J0D01*
G01*
X124650002Y-102887500D01*
G75*
G02*
X124900000Y-103137498I0J-249998D01*
G01*
X124900000Y-103662502D01*
G75*
G02*
X124650002Y-103912500I-249998J0D01*
G01*
G37*
%TD*%
%TO.C,R22*%
G36*
G01*
X182962500Y-116650002D02*
X182962500Y-115749998D01*
G75*
G02*
X183212498Y-115500000I249998J0D01*
G01*
X183737502Y-115500000D01*
G75*
G02*
X183987500Y-115749998I0J-249998D01*
G01*
X183987500Y-116650002D01*
G75*
G02*
X183737502Y-116900000I-249998J0D01*
G01*
X183212498Y-116900000D01*
G75*
G02*
X182962500Y-116650002I0J249998D01*
G01*
G37*
G36*
G01*
X184787500Y-116650002D02*
X184787500Y-115749998D01*
G75*
G02*
X185037498Y-115500000I249998J0D01*
G01*
X185562502Y-115500000D01*
G75*
G02*
X185812500Y-115749998I0J-249998D01*
G01*
X185812500Y-116650002D01*
G75*
G02*
X185562502Y-116900000I-249998J0D01*
G01*
X185037498Y-116900000D01*
G75*
G02*
X184787500Y-116650002I0J249998D01*
G01*
G37*
%TD*%
%TO.C,R23*%
G36*
G01*
X170249998Y-90212500D02*
X171150002Y-90212500D01*
G75*
G02*
X171400000Y-90462498I0J-249998D01*
G01*
X171400000Y-90987502D01*
G75*
G02*
X171150002Y-91237500I-249998J0D01*
G01*
X170249998Y-91237500D01*
G75*
G02*
X170000000Y-90987502I0J249998D01*
G01*
X170000000Y-90462498D01*
G75*
G02*
X170249998Y-90212500I249998J0D01*
G01*
G37*
G36*
G01*
X170249998Y-88387500D02*
X171150002Y-88387500D01*
G75*
G02*
X171400000Y-88637498I0J-249998D01*
G01*
X171400000Y-89162502D01*
G75*
G02*
X171150002Y-89412500I-249998J0D01*
G01*
X170249998Y-89412500D01*
G75*
G02*
X170000000Y-89162502I0J249998D01*
G01*
X170000000Y-88637498D01*
G75*
G02*
X170249998Y-88387500I249998J0D01*
G01*
G37*
%TD*%
%TO.C,R24*%
G36*
G01*
X165350002Y-113512500D02*
X164449998Y-113512500D01*
G75*
G02*
X164200000Y-113262502I0J249998D01*
G01*
X164200000Y-112737498D01*
G75*
G02*
X164449998Y-112487500I249998J0D01*
G01*
X165350002Y-112487500D01*
G75*
G02*
X165600000Y-112737498I0J-249998D01*
G01*
X165600000Y-113262502D01*
G75*
G02*
X165350002Y-113512500I-249998J0D01*
G01*
G37*
G36*
G01*
X165350002Y-111687500D02*
X164449998Y-111687500D01*
G75*
G02*
X164200000Y-111437502I0J249998D01*
G01*
X164200000Y-110912498D01*
G75*
G02*
X164449998Y-110662500I249998J0D01*
G01*
X165350002Y-110662500D01*
G75*
G02*
X165600000Y-110912498I0J-249998D01*
G01*
X165600000Y-111437502D01*
G75*
G02*
X165350002Y-111687500I-249998J0D01*
G01*
G37*
%TD*%
D15*
%TO.C,SW1*%
X152625000Y-112750000D03*
X152625000Y-117250000D03*
X160575000Y-117250000D03*
X160575000Y-112750000D03*
%TD*%
D16*
%TO.C,U1*%
X133500000Y-110950000D03*
X128900000Y-110950000D03*
X131200000Y-110950000D03*
D17*
X131200000Y-117250000D03*
%TD*%
%TO.C,U3*%
G36*
G01*
X186715000Y-112428800D02*
X186715000Y-112171200D01*
G75*
G02*
X186726200Y-112160000I11200J0D01*
G01*
X188173800Y-112160000D01*
G75*
G02*
X188185000Y-112171200I0J-11200D01*
G01*
X188185000Y-112428800D01*
G75*
G02*
X188173800Y-112440000I-11200J0D01*
G01*
X186726200Y-112440000D01*
G75*
G02*
X186715000Y-112428800I0J11200D01*
G01*
G37*
G36*
G01*
X186715000Y-112928800D02*
X186715000Y-112671200D01*
G75*
G02*
X186726200Y-112660000I11200J0D01*
G01*
X188173800Y-112660000D01*
G75*
G02*
X188185000Y-112671200I0J-11200D01*
G01*
X188185000Y-112928800D01*
G75*
G02*
X188173800Y-112940000I-11200J0D01*
G01*
X186726200Y-112940000D01*
G75*
G02*
X186715000Y-112928800I0J11200D01*
G01*
G37*
G36*
G01*
X186715000Y-113428800D02*
X186715000Y-113171200D01*
G75*
G02*
X186726200Y-113160000I11200J0D01*
G01*
X188173800Y-113160000D01*
G75*
G02*
X188185000Y-113171200I0J-11200D01*
G01*
X188185000Y-113428800D01*
G75*
G02*
X188173800Y-113440000I-11200J0D01*
G01*
X186726200Y-113440000D01*
G75*
G02*
X186715000Y-113428800I0J11200D01*
G01*
G37*
G36*
G01*
X186715000Y-113928800D02*
X186715000Y-113671200D01*
G75*
G02*
X186726200Y-113660000I11200J0D01*
G01*
X188173800Y-113660000D01*
G75*
G02*
X188185000Y-113671200I0J-11200D01*
G01*
X188185000Y-113928800D01*
G75*
G02*
X188173800Y-113940000I-11200J0D01*
G01*
X186726200Y-113940000D01*
G75*
G02*
X186715000Y-113928800I0J11200D01*
G01*
G37*
G36*
G01*
X186715000Y-114428800D02*
X186715000Y-114171200D01*
G75*
G02*
X186726200Y-114160000I11200J0D01*
G01*
X188173800Y-114160000D01*
G75*
G02*
X188185000Y-114171200I0J-11200D01*
G01*
X188185000Y-114428800D01*
G75*
G02*
X188173800Y-114440000I-11200J0D01*
G01*
X186726200Y-114440000D01*
G75*
G02*
X186715000Y-114428800I0J11200D01*
G01*
G37*
G36*
G01*
X182415000Y-114428800D02*
X182415000Y-114171200D01*
G75*
G02*
X182426200Y-114160000I11200J0D01*
G01*
X183873800Y-114160000D01*
G75*
G02*
X183885000Y-114171200I0J-11200D01*
G01*
X183885000Y-114428800D01*
G75*
G02*
X183873800Y-114440000I-11200J0D01*
G01*
X182426200Y-114440000D01*
G75*
G02*
X182415000Y-114428800I0J11200D01*
G01*
G37*
G36*
G01*
X182415000Y-113928800D02*
X182415000Y-113671200D01*
G75*
G02*
X182426200Y-113660000I11200J0D01*
G01*
X183873800Y-113660000D01*
G75*
G02*
X183885000Y-113671200I0J-11200D01*
G01*
X183885000Y-113928800D01*
G75*
G02*
X183873800Y-113940000I-11200J0D01*
G01*
X182426200Y-113940000D01*
G75*
G02*
X182415000Y-113928800I0J11200D01*
G01*
G37*
G36*
G01*
X182415000Y-113428800D02*
X182415000Y-113171200D01*
G75*
G02*
X182426200Y-113160000I11200J0D01*
G01*
X183873800Y-113160000D01*
G75*
G02*
X183885000Y-113171200I0J-11200D01*
G01*
X183885000Y-113428800D01*
G75*
G02*
X183873800Y-113440000I-11200J0D01*
G01*
X182426200Y-113440000D01*
G75*
G02*
X182415000Y-113428800I0J11200D01*
G01*
G37*
G36*
G01*
X182415000Y-112928800D02*
X182415000Y-112671200D01*
G75*
G02*
X182426200Y-112660000I11200J0D01*
G01*
X183873800Y-112660000D01*
G75*
G02*
X183885000Y-112671200I0J-11200D01*
G01*
X183885000Y-112928800D01*
G75*
G02*
X183873800Y-112940000I-11200J0D01*
G01*
X182426200Y-112940000D01*
G75*
G02*
X182415000Y-112928800I0J11200D01*
G01*
G37*
G36*
G01*
X182415000Y-112428800D02*
X182415000Y-112171200D01*
G75*
G02*
X182426200Y-112160000I11200J0D01*
G01*
X183873800Y-112160000D01*
G75*
G02*
X183885000Y-112171200I0J-11200D01*
G01*
X183885000Y-112428800D01*
G75*
G02*
X183873800Y-112440000I-11200J0D01*
G01*
X182426200Y-112440000D01*
G75*
G02*
X182415000Y-112428800I0J11200D01*
G01*
G37*
%TD*%
%TO.C,U4*%
G36*
G01*
X173500000Y-113445000D02*
X173500000Y-113145000D01*
G75*
G02*
X173650000Y-112995000I150000J0D01*
G01*
X174950000Y-112995000D01*
G75*
G02*
X175100000Y-113145000I0J-150000D01*
G01*
X175100000Y-113445000D01*
G75*
G02*
X174950000Y-113595000I-150000J0D01*
G01*
X173650000Y-113595000D01*
G75*
G02*
X173500000Y-113445000I0J150000D01*
G01*
G37*
G36*
G01*
X173500000Y-114715000D02*
X173500000Y-114415000D01*
G75*
G02*
X173650000Y-114265000I150000J0D01*
G01*
X174950000Y-114265000D01*
G75*
G02*
X175100000Y-114415000I0J-150000D01*
G01*
X175100000Y-114715000D01*
G75*
G02*
X174950000Y-114865000I-150000J0D01*
G01*
X173650000Y-114865000D01*
G75*
G02*
X173500000Y-114715000I0J150000D01*
G01*
G37*
G36*
G01*
X173500000Y-115985000D02*
X173500000Y-115685000D01*
G75*
G02*
X173650000Y-115535000I150000J0D01*
G01*
X174950000Y-115535000D01*
G75*
G02*
X175100000Y-115685000I0J-150000D01*
G01*
X175100000Y-115985000D01*
G75*
G02*
X174950000Y-116135000I-150000J0D01*
G01*
X173650000Y-116135000D01*
G75*
G02*
X173500000Y-115985000I0J150000D01*
G01*
G37*
G36*
G01*
X173500000Y-117255000D02*
X173500000Y-116955000D01*
G75*
G02*
X173650000Y-116805000I150000J0D01*
G01*
X174950000Y-116805000D01*
G75*
G02*
X175100000Y-116955000I0J-150000D01*
G01*
X175100000Y-117255000D01*
G75*
G02*
X174950000Y-117405000I-150000J0D01*
G01*
X173650000Y-117405000D01*
G75*
G02*
X173500000Y-117255000I0J150000D01*
G01*
G37*
G36*
G01*
X166300000Y-117255000D02*
X166300000Y-116955000D01*
G75*
G02*
X166450000Y-116805000I150000J0D01*
G01*
X167750000Y-116805000D01*
G75*
G02*
X167900000Y-116955000I0J-150000D01*
G01*
X167900000Y-117255000D01*
G75*
G02*
X167750000Y-117405000I-150000J0D01*
G01*
X166450000Y-117405000D01*
G75*
G02*
X166300000Y-117255000I0J150000D01*
G01*
G37*
G36*
G01*
X166300000Y-115985000D02*
X166300000Y-115685000D01*
G75*
G02*
X166450000Y-115535000I150000J0D01*
G01*
X167750000Y-115535000D01*
G75*
G02*
X167900000Y-115685000I0J-150000D01*
G01*
X167900000Y-115985000D01*
G75*
G02*
X167750000Y-116135000I-150000J0D01*
G01*
X166450000Y-116135000D01*
G75*
G02*
X166300000Y-115985000I0J150000D01*
G01*
G37*
G36*
G01*
X166300000Y-114715000D02*
X166300000Y-114415000D01*
G75*
G02*
X166450000Y-114265000I150000J0D01*
G01*
X167750000Y-114265000D01*
G75*
G02*
X167900000Y-114415000I0J-150000D01*
G01*
X167900000Y-114715000D01*
G75*
G02*
X167750000Y-114865000I-150000J0D01*
G01*
X166450000Y-114865000D01*
G75*
G02*
X166300000Y-114715000I0J150000D01*
G01*
G37*
G36*
G01*
X166300000Y-113445000D02*
X166300000Y-113145000D01*
G75*
G02*
X166450000Y-112995000I150000J0D01*
G01*
X167750000Y-112995000D01*
G75*
G02*
X167900000Y-113145000I0J-150000D01*
G01*
X167900000Y-113445000D01*
G75*
G02*
X167750000Y-113595000I-150000J0D01*
G01*
X166450000Y-113595000D01*
G75*
G02*
X166300000Y-113445000I0J150000D01*
G01*
G37*
%TD*%
D18*
%TO.C,Y1*%
X144900000Y-104300000D03*
X144900000Y-95800000D03*
%TD*%
M02*
